<svg width="163" height="146" viewBox="0 0 163 146" fill="none" xmlns="http://www.w3.org/2000/svg">
<path fill-rule="evenodd" clip-rule="evenodd" d="M0 90.3314C0 59.8783 24.6889 35.2014 55.13 35.2014C83.6549 35.2014 107.111 56.8589 109.971 84.6333C110.395 88.7536 107.398 92.4378 103.278 92.862C99.1578 93.2862 95.4737 90.2899 95.0494 86.1696C92.9691 65.964 75.8851 50.2014 55.13 50.2014C32.9711 50.2014 15 68.1646 15 90.3314C15 103.367 21.213 114.949 30.8625 122.294C34.1585 124.802 34.7966 129.508 32.2879 132.804C29.7791 136.1 25.0735 136.738 21.7775 134.229C8.56699 124.174 0 108.256 0 90.3314Z" fill="white"/>
<path fill-rule="evenodd" clip-rule="evenodd" d="M155.12 93.0014C159.262 93.0014 162.62 96.3593 162.62 100.501C162.62 125.304 142.522 145.401 117.72 145.401C113.578 145.401 110.22 142.044 110.22 137.901C110.22 133.759 113.578 130.401 117.72 130.401C134.238 130.401 147.62 117.019 147.62 100.501C147.62 96.3593 150.978 93.0014 155.12 93.0014Z" fill="white"/>
<path fill-rule="evenodd" clip-rule="evenodd" d="M118.63 72.9414C113.741 72.9414 109.139 74.1694 105.11 76.3187C101.455 78.2683 96.9123 76.8861 94.9627 73.2315C93.0131 69.5769 94.3953 65.0338 98.0499 63.0841C104.181 59.8134 111.199 57.9414 118.63 57.9414C142.782 57.9414 162.36 77.5193 162.36 101.671C162.36 118.823 152.473 133.664 138.125 140.814C134.418 142.662 129.915 141.154 128.067 137.447C126.22 133.739 127.728 129.236 131.435 127.389C140.887 122.679 147.36 112.919 147.36 101.671C147.36 85.8036 134.498 72.9414 118.63 72.9414Z" fill="white"/>
<path fill-rule="evenodd" clip-rule="evenodd" d="M103.451 1.91142C105.097 3.29788 105.874 5.45943 105.488 7.57637C105.168 9.33121 105 11.1434 105 13C105 29.5685 118.431 43 135 43C138.673 43 142.18 42.3425 145.417 41.1439C147.393 40.4123 149.608 40.7708 151.252 42.0885C152.896 43.4062 153.729 45.4899 153.445 47.5779C152.614 53.7032 146.623 67.749 130.963 73.1699C127.831 74.2539 124.414 72.5941 123.33 69.4627C122.246 66.3312 123.906 62.914 127.037 61.8301C131.483 60.2911 134.718 57.6691 136.993 54.9534C136.332 54.9844 135.668 55 135 55C113.574 55 95.8952 38.9562 93.322 18.2268C88.3292 23.8955 83.9721 33.6683 86.4252 49.0554C86.9468 52.3278 84.717 55.4035 81.4446 55.9252C78.1722 56.4469 75.0965 54.217 74.5748 50.9446C69.6963 20.343 86.7941 4.7931 97.5227 0.865657C99.5434 0.125934 101.805 0.524962 103.451 1.91142Z" fill="white"/>
</svg>
