<svg width="163" height="127" viewBox="0 0 163 127" fill="none" xmlns="http://www.w3.org/2000/svg">
<path fill-rule="evenodd" clip-rule="evenodd" d="M53.86 105.39C53.86 102.629 56.0986 100.39 58.86 100.39H97.57C100.331 100.39 102.57 102.629 102.57 105.39C102.57 108.151 100.331 110.39 97.57 110.39H58.86C56.0986 110.39 53.86 108.151 53.86 105.39Z" fill="white"/>
<path fill-rule="evenodd" clip-rule="evenodd" d="M64.1138 85.5443C66.3647 83.9447 69.4862 84.4728 71.0858 86.7237L93.5058 118.274C95.1054 120.525 94.5773 123.646 92.3263 125.246C90.0754 126.845 86.9539 126.317 85.3543 124.066L62.9343 92.5163C61.3347 90.2653 61.8628 87.1439 64.1138 85.5443Z" fill="white"/>
<path fill-rule="evenodd" clip-rule="evenodd" d="M92.3263 85.5443C94.5773 87.1439 95.1054 90.2653 93.5058 92.5163L71.0858 124.066C69.4862 126.317 66.3647 126.845 64.1138 125.246C61.8628 123.646 61.3347 120.525 62.9343 118.274L85.3543 86.7237C86.9539 84.4728 90.0754 83.9447 92.3263 85.5443Z" fill="white"/>
<path fill-rule="evenodd" clip-rule="evenodd" d="M0 55.13C0 24.6768 24.6889 0 55.13 0C83.6549 0 107.111 21.6574 109.971 49.4319C110.395 53.5522 107.398 57.2363 103.278 57.6606C99.1578 58.0848 95.4737 55.0885 95.0494 50.9681C92.9691 30.7626 75.8851 15 55.13 15C32.9711 15 15 32.9632 15 55.13C15 68.1657 21.213 79.7474 30.8625 87.0921C34.1585 89.6009 34.7966 94.3065 32.2879 97.6025C29.7791 100.898 25.0735 101.537 21.7775 99.0279C8.56699 88.9726 0 73.0544 0 55.13Z" fill="white"/>
<path fill-rule="evenodd" clip-rule="evenodd" d="M118.63 37.74C113.741 37.74 109.139 38.968 105.11 41.1173C101.455 43.0669 96.9123 41.6847 94.9627 38.0301C93.0131 34.3755 94.3953 29.8323 98.0499 27.8827C104.181 24.612 111.199 22.74 118.63 22.74C142.782 22.74 162.36 42.3179 162.36 66.47C162.36 83.6221 152.473 98.4628 138.125 105.613C134.418 107.46 129.915 105.952 128.067 102.245C126.22 98.5378 127.728 94.0347 131.435 92.1873C140.887 87.4772 147.36 77.7179 147.36 66.47C147.36 50.6021 134.498 37.74 118.63 37.74Z" fill="white"/>
</svg>
