<svg width="160" height="160" viewBox="0 0 160 160" fill="none" xmlns="http://www.w3.org/2000/svg">
<path fill-rule="evenodd" clip-rule="evenodd" d="M78.87 49.81C62.3185 49.81 48.9 63.2335 48.9 79.79C48.9 96.3577 62.3197 109.78 78.87 109.78C95.4203 109.78 108.84 96.3577 108.84 79.79C108.84 63.2335 95.4215 49.81 78.87 49.81ZM34.9 79.79C34.9 55.5065 54.5815 35.81 78.87 35.81C103.158 35.81 122.84 55.5065 122.84 79.79C122.84 104.082 103.16 123.78 78.87 123.78C54.5803 123.78 34.9 104.082 34.9 79.79Z" fill="white"/>
<path fill-rule="evenodd" clip-rule="evenodd" d="M79.62 0C83.7621 0 87.12 3.35786 87.12 7.5V14.59C87.12 18.7321 83.7621 22.09 79.62 22.09C75.4779 22.09 72.12 18.7321 72.12 14.59V7.5C72.12 3.35786 75.4779 0 79.62 0ZM79.62 137.15C83.7621 137.15 87.12 140.508 87.12 144.65V151.73C87.12 155.872 83.7621 159.23 79.62 159.23C75.4779 159.23 72.12 155.872 72.12 151.73V144.65C72.12 140.508 75.4779 137.15 79.62 137.15Z" fill="white"/>
<path fill-rule="evenodd" clip-rule="evenodd" d="M135.913 23.3267C138.842 26.2556 138.842 31.0044 135.913 33.9333L130.913 38.9333C127.984 41.8622 123.236 41.8622 120.307 38.9333C117.378 36.0044 117.378 31.2556 120.307 28.3267L125.307 23.3267C128.236 20.3978 132.984 20.3978 135.913 23.3267ZM38.9333 120.307C41.8622 123.236 41.8622 127.984 38.9333 130.913L33.9333 135.913C31.0044 138.842 26.2556 138.842 23.3267 135.913C20.3978 132.984 20.3978 128.236 23.3267 125.307L28.3267 120.307C31.2556 117.378 36.0044 117.378 38.9333 120.307Z" fill="white"/>
<path fill-rule="evenodd" clip-rule="evenodd" d="M0 79.62C0 75.4779 3.35786 72.12 7.5 72.12H14.59C18.7321 72.12 22.09 75.4779 22.09 79.62C22.09 83.7621 18.7321 87.12 14.59 87.12H7.5C3.35786 87.12 0 83.7621 0 79.62ZM137.15 79.62C137.15 75.4779 140.508 72.12 144.65 72.12H151.74C155.882 72.12 159.24 75.4779 159.24 79.62C159.24 83.7621 155.882 87.12 151.74 87.12H144.65C140.508 87.12 137.15 83.7621 137.15 79.62Z" fill="white"/>
<path fill-rule="evenodd" clip-rule="evenodd" d="M23.3267 23.3267C26.2556 20.3978 31.0044 20.3978 33.9333 23.3267L38.9333 28.3267C41.8622 31.2556 41.8622 36.0044 38.9333 38.9333C36.0044 41.8622 31.2556 41.8622 28.3267 38.9333L23.3267 33.9333C20.3978 31.0044 20.3978 26.2556 23.3267 23.3267ZM120.307 120.307C123.236 117.378 127.984 117.378 130.913 120.307L135.913 125.307C138.842 128.236 138.842 132.984 135.913 135.913C132.984 138.842 128.236 138.842 125.307 135.913L120.307 130.913C117.378 127.984 117.378 123.236 120.307 120.307Z" fill="white"/>
</svg>
