<svg width="127" height="155" viewBox="0 0 127 155" fill="none" xmlns="http://www.w3.org/2000/svg">
<path fill-rule="evenodd" clip-rule="evenodd" d="M79.332 47.822C61.6589 47.822 47.332 62.1489 47.332 79.822C47.332 97.4951 61.6589 111.822 79.332 111.822C97.0051 111.822 111.332 97.4951 111.332 79.822C111.332 62.1489 97.0051 47.822 79.332 47.822ZM33.332 79.822C33.332 54.4169 53.9269 33.822 79.332 33.822C104.737 33.822 125.332 54.4169 125.332 79.822C125.332 105.227 104.737 125.822 79.332 125.822C53.9269 125.822 33.332 105.227 33.332 79.822Z" fill="white"/>
<path d="M98.192 47.602C106.512 52.342 113.012 60.282 115.682 70.272C121.002 90.102 109.232 110.482 89.402 115.802C79.782 118.382 70.032 116.932 61.932 112.502" fill="white"/>
<path fill-rule="evenodd" clip-rule="evenodd" d="M59.2274 0.272997C63.496 -0.86728 67.8807 1.66873 69.021 5.93733L70.931 13.0873C72.0713 17.3559 69.5353 21.7407 65.2667 22.881C60.9981 24.0212 56.6133 21.4852 55.473 17.2166L53.563 10.0666C52.4228 5.79803 54.9588 1.41327 59.2274 0.272997Z" fill="white"/>
<path fill-rule="evenodd" clip-rule="evenodd" d="M122.481 8.60339C126.308 10.8122 127.619 15.7048 125.411 19.5313L121.711 25.9413C119.502 29.7679 114.609 31.0793 110.783 28.8706C106.956 26.6618 105.645 21.7692 107.853 17.9426L111.553 11.5326C113.762 7.70609 118.655 6.39462 122.481 8.60339ZM50.8113 132.733C54.6379 134.942 55.9494 139.835 53.7406 143.661L50.0406 150.071C47.8318 153.898 42.9392 155.209 39.1127 153.001C35.2861 150.792 33.9746 145.899 36.1834 142.073L39.8834 135.663C42.0922 131.836 46.9848 130.525 50.8113 132.733Z" fill="white"/>
<path fill-rule="evenodd" clip-rule="evenodd" d="M22.8675 96.3145C24.0149 100.581 21.4862 104.97 17.2194 106.118L10.0794 108.038C5.81274 109.185 1.42379 106.656 0.276437 102.389C-0.870911 98.1228 1.65783 93.7338 5.92453 92.5864L13.0645 90.6665C17.3312 89.5191 21.7202 92.0478 22.8675 96.3145Z" fill="white"/>
<path fill-rule="evenodd" clip-rule="evenodd" d="M8.60609 39.118C10.8174 35.2929 15.7109 33.9848 19.536 36.1961L25.936 39.8961C29.7611 42.1075 31.0692 47.001 28.8579 50.826C26.6465 54.6511 21.753 55.9592 17.928 53.7479L11.528 50.0479C7.70289 47.8365 6.39473 42.943 8.60609 39.118Z" fill="white"/>
</svg>
