<svg width="158" height="110" viewBox="0 0 158 110" fill="none" xmlns="http://www.w3.org/2000/svg">
<path fill-rule="evenodd" clip-rule="evenodd" d="M27.54 78.84C27.54 51.0051 50.1029 28.44 77.93 28.44C105.766 28.44 128.33 51.004 128.33 78.84C128.33 82.706 125.196 85.84 121.33 85.84H34.54C30.674 85.84 27.54 82.706 27.54 78.84ZM42.2123 71.84H113.658C110.394 55.0855 95.6396 42.44 77.93 42.44C60.23 42.44 45.4756 55.0848 42.2123 71.84Z" fill="white"/>
<path fill-rule="evenodd" clip-rule="evenodd" d="M78.67 0C82.8121 0 86.17 3.35786 86.17 7.5V14.48C86.17 18.6221 82.8121 21.98 78.67 21.98C74.5278 21.98 71.17 18.6221 71.17 14.48V7.5C71.17 3.35786 74.5278 0 78.67 0Z" fill="white"/>
<path fill-rule="evenodd" clip-rule="evenodd" d="M134.293 23.0367C137.222 25.9656 137.222 30.7144 134.293 33.6433L129.353 38.5833C126.424 41.5122 121.676 41.5122 118.747 38.5833C115.818 35.6544 115.818 30.9056 118.747 27.9767L123.687 23.0367C126.616 20.1078 131.364 20.1078 134.293 23.0367Z" fill="white"/>
<path fill-rule="evenodd" clip-rule="evenodd" d="M0 78.66C0 74.5179 3.35786 71.16 7.5 71.16H14.49C18.6321 71.16 21.99 74.5179 21.99 78.66C21.99 82.8021 18.6321 86.16 14.49 86.16H7.5C3.35786 86.16 0 82.8021 0 78.66ZM135.35 78.66C135.35 74.5179 138.708 71.16 142.85 71.16H149.84C153.982 71.16 157.34 74.5179 157.34 78.66C157.34 82.8021 153.982 86.16 149.84 86.16H142.85C138.708 86.16 135.35 82.8021 135.35 78.66Z" fill="white"/>
<path fill-rule="evenodd" clip-rule="evenodd" d="M23.0467 23.0367C25.9756 20.1078 30.7243 20.1078 33.6533 23.0367L38.5933 27.9767C41.5222 30.9056 41.5222 35.6544 38.5933 38.5833C35.6644 41.5122 30.9156 41.5122 27.9867 38.5833L23.0467 33.6433C20.1177 30.7144 20.1177 25.9656 23.0467 23.0367Z" fill="white"/>
<path fill-rule="evenodd" clip-rule="evenodd" d="M0.779968 102.6C0.779968 98.734 3.91398 95.6 7.77997 95.6H149.56C153.426 95.6 156.56 98.734 156.56 102.6C156.56 106.466 153.426 109.6 149.56 109.6H7.77997C3.91398 109.6 0.779968 106.466 0.779968 102.6Z" fill="white"/>
</svg>
