<svg width="163" height="133" viewBox="0 0 163 133" fill="none" xmlns="http://www.w3.org/2000/svg">
<path fill-rule="evenodd" clip-rule="evenodd" d="M81 80.5C82.6316 80.5 84.1605 81.2961 85.0962 82.6327C86.5536 84.7148 88.0546 86.6581 89.5911 88.6474C89.8123 88.9338 90.0343 89.2211 90.2569 89.51C91.9906 91.759 93.7696 94.1024 95.3385 96.5581C98.538 101.566 101 107.247 101 114.5C101 118.71 99.9745 122.228 98.1135 125.054C96.266 127.86 93.8043 129.667 91.4215 130.816C86.8867 133.003 82.2043 133.001 81.0495 133H80.9505C79.7957 133.001 75.1133 133.003 70.5785 130.816C68.1957 129.667 65.734 127.86 63.8865 125.054C62.0255 122.228 61 118.71 61 114.5C61 107.247 63.462 101.566 66.6615 96.5581C68.2304 94.1024 70.0094 91.759 71.7431 89.51C71.9657 89.2211 72.1877 88.9338 72.4089 88.6474C73.9454 86.6581 75.4464 84.7148 76.9038 82.6327C77.8395 81.2961 79.3684 80.5 81 80.5ZM75.0885 101.942C72.538 105.934 71 109.753 71 114.5C71 117.04 71.5995 118.584 72.2385 119.555C72.8909 120.546 73.8043 121.27 74.9215 121.809C77.3189 122.965 80.064 123 81 123C81.936 123 84.6811 122.965 87.0785 121.809C88.1957 121.27 89.109 120.546 89.7615 119.555C90.4005 118.584 91 117.04 91 114.5C91 109.753 89.462 105.934 86.9115 101.942C85.6054 99.8976 84.0719 97.866 82.3368 95.615C82.1232 95.338 81.9065 95.0574 81.6871 94.7734C81.4607 94.4804 81.2314 94.1837 81 93.8834C80.7685 94.1837 80.5393 94.4804 80.3129 94.7734C80.0935 95.0574 79.8768 95.338 79.6632 95.615C77.9281 97.866 76.3946 99.8976 75.0885 101.942Z" fill="white"/>
<path d="M46.77 98.12C49.36 98.12 51.45 100.22 51.45 102.8C51.45 105.39 49.36 107.48 46.77 107.48C44.19 107.48 42.09 105.39 42.09 102.8C42.09 100.22 44.19 98.12 46.77 98.12Z" fill="white"/>
<path d="M114.65 98.12C117.24 98.12 119.34 100.22 119.34 102.8C119.34 105.39 117.24 107.48 114.65 107.48C112.07 107.48 109.97 105.39 109.97 102.8C109.97 100.22 112.07 98.12 114.65 98.12Z" fill="white"/>
<path fill-rule="evenodd" clip-rule="evenodd" d="M0 55.13C0 24.6768 24.6889 0 55.13 0C83.6549 0 107.111 21.6574 109.971 49.4319C110.395 53.5522 107.398 57.2363 103.278 57.6606C99.1578 58.0848 95.4737 55.0885 95.0494 50.9681C92.9691 30.7626 75.8851 15 55.13 15C32.9711 15 15 32.9632 15 55.13C15 68.1657 21.213 79.7474 30.8625 87.0921C34.1585 89.6009 34.7966 94.3065 32.2879 97.6025C29.7791 100.898 25.0735 101.537 21.7775 99.0279C8.56699 88.9726 0 73.0544 0 55.13Z" fill="white"/>
<path fill-rule="evenodd" clip-rule="evenodd" d="M118.63 37.74C113.741 37.74 109.139 38.968 105.11 41.1173C101.455 43.0669 96.9123 41.6847 94.9627 38.0301C93.0131 34.3754 94.3953 29.8323 98.0499 27.8827C104.181 24.612 111.199 22.74 118.63 22.74C142.782 22.74 162.36 42.3179 162.36 66.47C162.36 82.4374 153.799 96.3889 141.051 104.016C137.496 106.143 132.891 104.985 130.764 101.431C128.637 97.8761 129.795 93.2706 133.349 91.144C141.761 86.111 147.36 76.9425 147.36 66.47C147.36 50.6021 134.498 37.74 118.63 37.74Z" fill="white"/>
</svg>
