<svg width="172" height="139" viewBox="0 0 172 139" fill="none" xmlns="http://www.w3.org/2000/svg">
<path fill-rule="evenodd" clip-rule="evenodd" d="M112.55 30.1612C102.095 30.1612 93.0575 36.3136 88.8971 45.2285C87.4958 48.2313 83.9256 49.5296 80.9227 48.1283C77.9199 46.727 76.6216 43.1567 78.0229 40.1539C84.0826 27.1688 97.2647 18.1612 112.55 18.1612C133.581 18.1612 150.64 35.2051 150.64 56.2412C150.64 59.463 150.237 62.599 149.475 65.5981C148.66 68.8099 145.395 70.7523 142.183 69.9366C138.971 69.1209 137.029 65.856 137.845 62.6443C138.363 60.6033 138.64 58.4594 138.64 56.2412C138.64 41.8373 126.959 30.1612 112.55 30.1612Z" fill="white"/>
<path fill-rule="evenodd" clip-rule="evenodd" d="M89.3649 0.479933C91.8619 -0.699211 94.8421 0.369134 96.0212 2.86615L99.4212 10.0661C100.6 12.5632 99.532 15.5433 97.035 16.7224C94.538 17.9016 91.5579 16.8332 90.3787 14.3362L86.9787 7.13621C85.7996 4.63919 86.8679 1.65908 89.3649 0.479933Z" fill="white"/>
<path fill-rule="evenodd" clip-rule="evenodd" d="M145.339 3.92429C147.585 5.53071 148.103 8.65378 146.497 10.8999L140.997 18.5899C139.39 20.8359 136.267 21.3545 134.021 19.7481C131.775 18.1416 131.257 15.0186 132.863 12.7725L138.363 5.08248C139.969 2.8364 143.093 2.31786 145.339 3.92429Z" fill="white"/>
<path fill-rule="evenodd" clip-rule="evenodd" d="M171.448 42.2801C171.846 45.0126 169.954 47.5506 167.221 47.9489L159.331 49.0989C156.599 49.4972 154.061 47.6049 153.662 44.8724C153.264 42.1398 155.156 39.6018 157.889 39.2035L165.779 38.0535C168.511 37.6552 171.049 39.5475 171.448 42.2801Z" fill="white"/>
<path fill-rule="evenodd" clip-rule="evenodd" d="M7.5 75.5012C11.6421 75.5012 15 78.859 15 83.0012C15 105.369 33.1321 123.501 55.5 123.501C59.6421 123.501 63 126.859 63 131.001C63 135.143 59.6421 138.501 55.5 138.501C24.8479 138.501 0 113.653 0 83.0012C0 78.859 3.35786 75.5012 7.5 75.5012Z" fill="white"/>
<path fill-rule="evenodd" clip-rule="evenodd" d="M154.3 86.1012C158.442 86.1012 161.8 89.4591 161.8 93.6012C161.8 118.403 141.702 138.501 116.9 138.501C112.758 138.501 109.4 135.143 109.4 131.001C109.4 126.859 112.758 123.501 116.9 123.501C133.418 123.501 146.8 110.119 146.8 93.6012C146.8 89.4591 150.158 86.1012 154.3 86.1012Z" fill="white"/>
<path fill-rule="evenodd" clip-rule="evenodd" d="M0.780029 82.8312C0.780029 52.378 25.4689 27.7012 55.91 27.7012C84.4349 27.7012 107.891 49.3586 110.751 77.133C111.175 81.2534 108.179 84.9375 104.058 85.3617C99.9378 85.786 96.2537 82.7897 95.8295 78.6693C93.7491 58.4637 76.6651 42.7012 55.91 42.7012C33.7511 42.7012 15.78 60.6643 15.78 82.8312C15.78 95.8668 21.993 107.449 31.6425 114.793C34.9385 117.302 35.5767 122.008 33.0679 125.304C30.5592 128.6 25.8535 129.238 22.5575 126.729C9.34702 116.674 0.780029 100.756 0.780029 82.8312Z" fill="white"/>
<path fill-rule="evenodd" clip-rule="evenodd" d="M119.41 65.4412C114.521 65.4412 109.919 66.6691 105.89 68.8184C102.235 70.7681 97.6923 69.3859 95.7427 65.7312C93.7931 62.0766 95.1753 57.5335 98.8299 55.5839C104.961 52.3132 111.979 50.4412 119.41 50.4412C143.562 50.4412 163.14 70.019 163.14 94.1712C163.14 111.323 153.253 126.164 138.905 133.314C135.198 135.161 130.695 133.654 128.847 129.946C127 126.239 128.508 121.736 132.215 119.888C141.667 115.178 148.14 105.419 148.14 94.1712C148.14 78.3033 135.278 65.4412 119.41 65.4412Z" fill="white"/>
</svg>
