<svg width="163" height="125" viewBox="0 0 163 125" fill="none" xmlns="http://www.w3.org/2000/svg">
<path fill-rule="evenodd" clip-rule="evenodd" d="M91.1409 89.3604C93.8027 90.0954 95.3647 92.8491 94.6297 95.5109L88.4497 117.891C87.7146 120.553 84.961 122.115 82.2992 121.38C79.6374 120.645 78.0754 117.891 78.8104 115.229L84.9904 92.8491C85.7254 90.1873 88.4791 88.6254 91.1409 89.3604Z" fill="white"/>
<path fill-rule="evenodd" clip-rule="evenodd" d="M111.211 89.3604C113.873 90.0954 115.435 92.8491 114.7 95.5109L108.52 117.891C107.785 120.553 105.031 122.115 102.369 121.38C99.7073 120.645 98.1453 117.891 98.8804 115.229L105.06 92.8491C105.795 90.1873 108.549 88.6254 111.211 89.3604Z" fill="white"/>
<path fill-rule="evenodd" clip-rule="evenodd" d="M70.3449 84.7787C72.2234 86.8027 72.1054 89.9664 70.0813 91.8449L62.03 99.3172L68.3491 102.464C69.7893 103.182 70.7963 104.548 71.055 106.136C71.3136 107.724 70.7923 109.34 69.6542 110.477L56.9442 123.177C54.9908 125.129 51.8249 125.128 49.8731 123.174C47.9212 121.221 47.9225 118.055 49.8759 116.103L57.6685 108.317L51.101 105.046C49.6316 104.314 48.615 102.907 48.3811 101.283C48.1471 99.6579 48.7255 98.0218 49.9287 96.9052L63.2787 84.5152C65.3028 82.6367 68.4664 82.7547 70.3449 84.7787Z" fill="white"/>
<path fill-rule="evenodd" clip-rule="evenodd" d="M0 55.13C0 24.6768 24.6889 0 55.13 0C83.6549 0 107.111 21.6574 109.971 49.4319C110.395 53.5522 107.398 57.2363 103.278 57.6606C99.1578 58.0848 95.4737 55.0885 95.0494 50.9681C92.9691 30.7626 75.8851 15 55.13 15C32.9711 15 15 32.9632 15 55.13C15 68.1657 21.213 79.7474 30.8625 87.0921C34.1585 89.6009 34.7966 94.3065 32.2879 97.6025C29.7791 100.898 25.0735 101.537 21.7775 99.0279C8.56699 88.9726 0 73.0544 0 55.13Z" fill="white"/>
<path fill-rule="evenodd" clip-rule="evenodd" d="M118.63 37.74C113.741 37.74 109.139 38.968 105.11 41.1173C101.455 43.0669 96.9123 41.6847 94.9627 38.0301C93.0131 34.3754 94.3953 29.8323 98.0499 27.8827C104.181 24.612 111.199 22.74 118.63 22.74C142.782 22.74 162.36 42.3179 162.36 66.47C162.36 83.622 152.473 98.4628 138.125 105.613C134.418 107.46 129.915 105.952 128.067 102.245C126.22 98.5377 127.728 94.0347 131.435 92.1873C140.887 87.4772 147.36 77.7179 147.36 66.47C147.36 50.6021 134.498 37.74 118.63 37.74Z" fill="white"/>
</svg>
