<svg width="163" height="122" viewBox="0 0 163 122" fill="none" xmlns="http://www.w3.org/2000/svg">
<path fill-rule="evenodd" clip-rule="evenodd" d="M63.8409 89.3604C66.5027 90.0954 68.0646 92.8491 67.3296 95.5109L61.1496 117.891C60.4146 120.553 57.6609 122.115 54.9991 121.38C52.3373 120.645 50.7754 117.891 51.5104 115.229L57.6904 92.8491C58.4254 90.1873 61.1791 88.6254 63.8409 89.3604Z" fill="white"/>
<path fill-rule="evenodd" clip-rule="evenodd" d="M83.1409 89.3604C85.8027 90.0954 87.3647 92.8491 86.6297 95.5109L80.4497 117.891C79.7146 120.553 76.961 122.115 74.2992 121.38C71.6374 120.645 70.0754 117.891 70.8104 115.229L76.9904 92.8491C77.7254 90.1873 80.4791 88.6254 83.1409 89.3604Z" fill="white"/>
<path fill-rule="evenodd" clip-rule="evenodd" d="M103.211 89.3604C105.873 90.0954 107.435 92.8491 106.7 95.5109L100.52 117.891C99.7846 120.553 97.0309 122.115 94.3691 121.38C91.7073 120.645 90.1453 117.891 90.8804 115.229L97.0604 92.8491C97.7954 90.1873 100.549 88.6254 103.211 89.3604Z" fill="white"/>
<path fill-rule="evenodd" clip-rule="evenodd" d="M0 55.13C0 24.6768 24.6889 0 55.13 0C83.6549 0 107.111 21.6574 109.971 49.4319C110.395 53.5522 107.398 57.2363 103.278 57.6606C99.1578 58.0848 95.4737 55.0885 95.0494 50.9681C92.9691 30.7626 75.8851 15 55.13 15C32.9711 15 15 32.9632 15 55.13C15 68.1657 21.213 79.7474 30.8625 87.0921C34.1585 89.6009 34.7966 94.3065 32.2879 97.6025C29.7791 100.898 25.0735 101.537 21.7775 99.0279C8.56699 88.9726 0 73.0544 0 55.13Z" fill="white"/>
<path fill-rule="evenodd" clip-rule="evenodd" d="M118.63 37.74C113.741 37.74 109.139 38.968 105.11 41.1173C101.455 43.0669 96.9123 41.6847 94.9627 38.0301C93.0131 34.3754 94.3953 29.8323 98.0499 27.8827C104.181 24.612 111.199 22.74 118.63 22.74C142.782 22.74 162.36 42.3179 162.36 66.47C162.36 83.622 152.473 98.4628 138.125 105.613C134.418 107.46 129.915 105.952 128.067 102.245C126.22 98.5377 127.728 94.0347 131.435 92.1873C140.887 87.4772 147.36 77.7179 147.36 66.47C147.36 50.6021 134.498 37.74 118.63 37.74Z" fill="white"/>
</svg>
