<svg width="171" height="150" viewBox="0 0 171 150" fill="none" xmlns="http://www.w3.org/2000/svg">
<path fill-rule="evenodd" clip-rule="evenodd" d="M111.77 30.1612C101.315 30.1612 92.2774 36.3136 88.1171 45.2285C86.7158 48.2313 83.1455 49.5296 80.1427 48.1283C77.1399 46.727 75.8416 43.1567 77.2429 40.1539C83.3026 27.1688 96.4847 18.1612 111.77 18.1612C132.801 18.1612 149.86 35.2051 149.86 56.2412C149.86 59.463 149.457 62.599 148.695 65.5981C147.88 68.8099 144.615 70.7523 141.403 69.9366C138.191 69.1209 136.249 65.856 137.065 62.6443C137.583 60.6033 137.86 58.4594 137.86 56.2412C137.86 41.8373 126.179 30.1612 111.77 30.1612Z" fill="white"/>
<path fill-rule="evenodd" clip-rule="evenodd" d="M88.585 0.479933C91.082 -0.699211 94.0621 0.369134 95.2412 2.86615L98.6412 10.0661C99.8204 12.5632 98.752 15.5433 96.255 16.7224C93.758 17.9016 90.7779 16.8332 89.5987 14.3362L86.1987 7.13621C85.0196 4.63919 86.0879 1.65908 88.585 0.479933Z" fill="white"/>
<path fill-rule="evenodd" clip-rule="evenodd" d="M144.559 3.92429C146.805 5.53071 147.323 8.65378 145.717 10.8999L140.217 18.5899C138.61 20.8359 135.487 21.3545 133.241 19.7481C130.995 18.1416 130.477 15.0186 132.083 12.7725L137.583 5.08248C139.19 2.8364 142.313 2.31786 144.559 3.92429Z" fill="white"/>
<path fill-rule="evenodd" clip-rule="evenodd" d="M170.668 42.2801C171.066 45.0126 169.174 47.5506 166.441 47.9489L158.551 49.0989C155.819 49.4972 153.281 47.6049 152.882 44.8724C152.484 42.1398 154.376 39.6018 157.109 39.2035L164.999 38.0535C167.731 37.6552 170.269 39.5475 170.668 42.2801Z" fill="white"/>
<path fill-rule="evenodd" clip-rule="evenodd" d="M63.8409 117.062C66.5027 117.797 68.0646 120.55 67.3296 123.212L61.1496 145.592C60.4146 148.254 57.6609 149.816 54.9991 149.081C52.3373 148.346 50.7754 145.592 51.5104 142.93L57.6904 120.55C58.4254 117.888 61.1791 116.326 63.8409 117.062Z" fill="white"/>
<path fill-rule="evenodd" clip-rule="evenodd" d="M83.1409 117.062C85.8027 117.797 87.3646 120.55 86.6296 123.212L80.4496 145.592C79.7146 148.254 76.9609 149.816 74.2991 149.081C71.6373 148.346 70.0753 145.592 70.8104 142.93L76.9904 120.55C77.7254 117.888 80.4791 116.326 83.1409 117.062Z" fill="white"/>
<path fill-rule="evenodd" clip-rule="evenodd" d="M103.211 117.062C105.873 117.797 107.435 120.55 106.7 123.212L100.52 145.592C99.7846 148.254 97.0309 149.816 94.3691 149.081C91.7073 148.346 90.1453 145.592 90.8804 142.93L97.0604 120.55C97.7954 117.888 100.549 116.326 103.211 117.062Z" fill="white"/>
<path fill-rule="evenodd" clip-rule="evenodd" d="M0 82.8312C0 52.378 24.6889 27.7012 55.13 27.7012C83.6549 27.7012 107.111 49.3586 109.971 77.133C110.395 81.2534 107.398 84.9375 103.278 85.3617C99.1578 85.786 95.4737 82.7897 95.0494 78.6693C92.9691 58.4637 75.8851 42.7012 55.13 42.7012C32.9711 42.7012 15 60.6643 15 82.8312C15 95.8668 21.213 107.449 30.8625 114.793C34.1585 117.302 34.7966 122.008 32.2879 125.304C29.7791 128.6 25.0735 129.238 21.7775 126.729C8.56699 116.674 0 100.756 0 82.8312Z" fill="white"/>
<path fill-rule="evenodd" clip-rule="evenodd" d="M118.63 65.4412C113.741 65.4412 109.139 66.6691 105.11 68.8184C101.455 70.7681 96.9123 69.3859 94.9627 65.7312C93.0131 62.0766 94.3953 57.5335 98.0499 55.5839C104.181 52.3132 111.199 50.4412 118.63 50.4412C142.782 50.4412 162.36 70.019 162.36 94.1712C162.36 111.323 152.473 126.164 138.125 133.314C134.418 135.161 129.915 133.654 128.067 129.946C126.22 126.239 127.728 121.736 131.435 119.888C140.887 115.178 147.36 105.419 147.36 94.1712C147.36 78.3033 134.498 65.4412 118.63 65.4412Z" fill="white"/>
</svg>
