<svg width="163" height="139" viewBox="0 0 163 139" fill="none" xmlns="http://www.w3.org/2000/svg">
<path fill-rule="evenodd" clip-rule="evenodd" d="M75.1209 84.3604C77.7827 85.0954 79.3446 87.8491 78.6096 90.5109L72.4296 112.891C71.6946 115.553 68.9409 117.115 66.2791 116.38C63.6173 115.645 62.0553 112.891 62.7904 110.229L68.9704 87.8491C69.7054 85.1873 72.4591 83.6253 75.1209 84.3604Z" fill="white"/>
<path fill-rule="evenodd" clip-rule="evenodd" d="M94.3216 84.5705C96.9833 85.3059 98.5449 88.0598 97.8094 90.7215L94.2894 103.462C93.554 106.123 90.8001 107.685 88.1384 106.949C85.4767 106.214 83.9152 103.46 84.6506 100.798L88.1706 88.0584C88.906 85.3967 91.6599 83.8351 94.3216 84.5705Z" fill="white"/>
<path fill-rule="evenodd" clip-rule="evenodd" d="M47.6691 119.22C50.3312 119.954 51.8942 122.707 51.1601 125.369L48.5901 134.689C47.856 137.351 45.1029 138.914 42.4409 138.18C39.7788 137.446 38.2158 134.693 38.9499 132.031L41.5199 122.711C42.254 120.049 45.0071 118.486 47.6691 119.22Z" fill="white"/>
<path fill-rule="evenodd" clip-rule="evenodd" d="M56.9693 84.8999C59.6314 85.6341 61.1942 88.3872 60.4601 91.0493L55.3001 109.759C54.5659 112.421 51.8128 113.984 49.1507 113.25C46.4887 112.516 44.9258 109.763 45.66 107.101L50.82 88.3906C51.5541 85.7286 54.3073 84.1657 56.9693 84.8999Z" fill="white"/>
<path fill-rule="evenodd" clip-rule="evenodd" d="M85.3216 113.571C87.9833 114.306 89.5449 117.06 88.8094 119.722L85.2894 132.462C84.554 135.123 81.8001 136.685 79.1384 135.949C76.4767 135.214 74.9152 132.46 75.6506 129.798L79.1706 117.058C79.906 114.397 82.6599 112.835 85.3216 113.571Z" fill="white"/>
<path fill-rule="evenodd" clip-rule="evenodd" d="M112.59 86.26C115.252 86.9944 116.814 89.7477 116.08 92.4097L106.75 126.23C106.016 128.892 103.262 130.454 100.6 129.72C97.9383 128.986 96.3757 126.232 97.1101 123.57L106.44 89.7503C107.174 87.0883 109.928 85.5257 112.59 86.26Z" fill="white"/>
<path fill-rule="evenodd" clip-rule="evenodd" d="M0.279999 55.13C0.279999 24.6768 24.9689 0 55.41 0C83.9349 0 107.391 21.6574 110.251 49.4319C110.675 53.5522 107.678 57.2363 103.558 57.6606C99.4378 58.0848 95.7537 55.0885 95.3294 50.9681C93.2491 30.7626 76.1651 15 55.41 15C33.2511 15 15.28 32.9632 15.28 55.13C15.28 68.1657 21.493 79.7474 31.1425 87.0921C34.4385 89.6009 35.0766 94.3065 32.5679 97.6025C30.0591 100.898 25.3535 101.537 22.0575 99.0279C8.84699 88.9726 0.279999 73.0544 0.279999 55.13Z" fill="white"/>
<path fill-rule="evenodd" clip-rule="evenodd" d="M118.91 37.74C114.021 37.74 109.419 38.968 105.39 41.1173C101.735 43.0669 97.1923 41.6847 95.2427 38.0301C93.2931 34.3754 94.6753 29.8323 98.3299 27.8827C104.461 24.612 111.479 22.74 118.91 22.74C143.062 22.74 162.64 42.3179 162.64 66.47C162.64 83.622 152.753 98.4628 138.405 105.613C134.698 107.46 130.195 105.952 128.347 102.245C126.5 98.5377 128.008 94.0347 131.715 92.1873C141.167 87.4772 147.64 77.7179 147.64 66.47C147.64 50.6021 134.778 37.74 118.91 37.74Z" fill="white"/>
</svg>
