<svg width="163" height="138" viewBox="0 0 163 138" fill="none" xmlns="http://www.w3.org/2000/svg">
<path fill-rule="evenodd" clip-rule="evenodd" d="M0 55.13C0 24.6768 24.6889 0 55.13 0C83.6549 0 107.111 21.6574 109.971 49.4319C110.395 53.5522 107.398 57.2363 103.278 57.6606C99.1578 58.0848 95.4737 55.0885 95.0494 50.9681C92.9691 30.7626 75.8851 15 55.13 15C32.9711 15 15 32.9632 15 55.13C15 68.1657 21.213 79.7474 30.8625 87.0921C34.1585 89.6009 34.7966 94.3065 32.2879 97.6025C29.7791 100.898 25.0735 101.537 21.7775 99.0279C8.56699 88.9726 0 73.0544 0 55.13Z" fill="white"/>
<path fill-rule="evenodd" clip-rule="evenodd" d="M118.63 37.74C113.741 37.74 109.139 38.968 105.11 41.1173C101.455 43.0669 96.9123 41.6847 94.9627 38.0301C93.0131 34.3755 94.3953 29.8323 98.0499 27.8827C104.181 24.612 111.199 22.74 118.63 22.74C142.782 22.74 162.36 42.3179 162.36 66.47C162.36 83.6221 152.473 98.4628 138.125 105.613C134.418 107.46 129.915 105.952 128.067 102.245C126.22 98.5378 127.728 94.0347 131.435 92.1873C140.887 87.4772 147.36 77.7179 147.36 66.47C147.36 50.6021 134.498 37.74 118.63 37.74Z" fill="white"/>
<path fill-rule="evenodd" clip-rule="evenodd" d="M78.72 85.6C81.4814 85.6 83.72 87.8386 83.72 90.6V111C83.72 113.761 81.4814 116 78.72 116C75.9585 116 73.72 113.761 73.72 111V90.6C73.72 87.8386 75.9585 85.6 78.72 85.6Z" fill="white"/>
<path fill-rule="evenodd" clip-rule="evenodd" d="M63.52 100.8C63.52 98.0386 65.7586 95.8 68.52 95.8H88.92C91.6814 95.8 93.92 98.0386 93.92 100.8C93.92 103.561 91.6814 105.8 88.92 105.8H68.52C65.7586 105.8 63.52 103.561 63.52 100.8Z" fill="white"/>
<path fill-rule="evenodd" clip-rule="evenodd" d="M41.72 107.6C44.4814 107.6 46.72 109.839 46.72 112.6V133C46.72 135.761 44.4814 138 41.72 138C38.9585 138 36.72 135.761 36.72 133V112.6C36.72 109.839 38.9585 107.6 41.72 107.6Z" fill="white"/>
<path fill-rule="evenodd" clip-rule="evenodd" d="M26.52 122.8C26.52 120.039 28.7586 117.8 31.52 117.8H51.92C54.6814 117.8 56.92 120.039 56.92 122.8C56.92 125.561 54.6814 127.8 51.92 127.8H31.52C28.7586 127.8 26.52 125.561 26.52 122.8Z" fill="white"/>
<path fill-rule="evenodd" clip-rule="evenodd" d="M110.72 107.6C113.481 107.6 115.72 109.839 115.72 112.6V133C115.72 135.761 113.481 138 110.72 138C107.959 138 105.72 135.761 105.72 133V112.6C105.72 109.839 107.959 107.6 110.72 107.6Z" fill="white"/>
<path fill-rule="evenodd" clip-rule="evenodd" d="M95.52 122.8C95.52 120.039 97.7586 117.8 100.52 117.8H120.92C123.681 117.8 125.92 120.039 125.92 122.8C125.92 125.561 123.681 127.8 120.92 127.8H100.52C97.7586 127.8 95.52 125.561 95.52 122.8Z" fill="white"/>
</svg>
