<svg width="160" height="147" viewBox="0 0 160 147" fill="none" xmlns="http://www.w3.org/2000/svg">
<path fill-rule="evenodd" clip-rule="evenodd" d="M78.87 49.81C62.3185 49.81 48.9 63.2335 48.9 79.79C48.9 85.791 50.6583 91.3694 53.6817 96.0544C55.7779 99.3027 54.8439 103.635 51.5956 105.732C48.3473 107.828 44.0146 106.894 41.9184 103.646C37.4817 96.7705 34.9 88.5689 34.9 79.79C34.9 55.5065 54.5816 35.81 78.87 35.81C100.632 35.81 118.678 51.61 122.211 72.3655C122.859 76.1767 120.296 79.7921 116.485 80.4408C112.673 81.0894 109.058 78.5257 108.409 74.7145C106.002 60.57 93.6878 49.81 78.87 49.81Z" fill="white"/>
<path fill-rule="evenodd" clip-rule="evenodd" d="M79.62 0C83.7621 0 87.12 3.35786 87.12 7.5V14.59C87.12 18.7321 83.7621 22.09 79.62 22.09C75.4779 22.09 72.12 18.7321 72.12 14.59V7.5C72.12 3.35786 75.4779 0 79.62 0Z" fill="white"/>
<path fill-rule="evenodd" clip-rule="evenodd" d="M135.913 23.3267C138.842 26.2556 138.842 31.0044 135.913 33.9333L130.913 38.9333C127.984 41.8622 123.236 41.8622 120.307 38.9333C117.378 36.0044 117.378 31.2556 120.307 28.3267L125.307 23.3267C128.236 20.3978 132.984 20.3978 135.913 23.3267ZM38.9333 120.307C41.8622 123.236 41.8622 127.984 38.9333 130.913L33.9333 135.913C31.0044 138.842 26.2556 138.842 23.3267 135.913C20.3978 132.984 20.3978 128.236 23.3267 125.307L28.3267 120.307C31.2556 117.378 36.0044 117.378 38.9333 120.307Z" fill="white"/>
<path fill-rule="evenodd" clip-rule="evenodd" d="M0 79.62C0 75.4779 3.35786 72.12 7.5 72.12H14.59C18.7321 72.12 22.09 75.4779 22.09 79.62C22.09 83.7621 18.7321 87.12 14.59 87.12H7.5C3.35786 87.12 0 83.7621 0 79.62ZM137.15 79.62C137.15 75.4779 140.508 72.12 144.65 72.12H151.74C155.882 72.12 159.24 75.4779 159.24 79.62C159.24 83.7621 155.882 87.12 151.74 87.12H144.65C140.508 87.12 137.15 83.7621 137.15 79.62Z" fill="white"/>
<path fill-rule="evenodd" clip-rule="evenodd" d="M23.3267 23.3267C26.2556 20.3978 31.0044 20.3978 33.9333 23.3267L38.9333 28.3267C41.8622 31.2556 41.8622 36.0044 38.9333 38.9333C36.0044 41.8622 31.2556 41.8622 28.3267 38.9333L23.3267 33.9333C20.3978 31.0044 20.3978 26.2556 23.3267 23.3267Z" fill="white"/>
<path fill-rule="evenodd" clip-rule="evenodd" d="M70.7 102.87C70.7 100.109 72.9386 97.87 75.7 97.87H115.59C118.351 97.87 120.59 100.109 120.59 102.87C120.59 105.631 118.351 107.87 115.59 107.87H75.7C72.9386 107.87 70.7 105.631 70.7 102.87Z" fill="white"/>
<path fill-rule="evenodd" clip-rule="evenodd" d="M114.56 118.15C114.56 115.389 116.799 113.15 119.56 113.15H141.35C141.35 113.15 141.35 113.15 141.35 118.15C141.35 123.15 141.35 123.15 141.35 123.15H119.56C116.799 123.15 114.56 120.911 114.56 118.15ZM147.87 129.6C147.87 126.067 144.984 123.15 141.35 123.15L141.35 118.15L141.35 113.15C150.455 113.15 157.87 120.493 157.87 129.6C157.87 138.72 150.453 146.05 141.35 146.05H80.08C77.3186 146.05 75.08 143.811 75.08 141.05C75.08 138.289 77.3186 136.05 80.08 136.05H141.35C144.987 136.05 147.87 133.14 147.87 129.6Z" fill="white"/>
<path fill-rule="evenodd" clip-rule="evenodd" d="M83.52 118.59C83.52 115.829 85.7586 113.59 88.52 113.59H105.82C108.581 113.59 110.82 115.829 110.82 118.59C110.82 121.351 108.581 123.59 105.82 123.59H88.52C85.7586 123.59 83.52 121.351 83.52 118.59Z" fill="white"/>
</svg>
