<svg width="163" height="137" viewBox="0 0 163 137" fill="none" xmlns="http://www.w3.org/2000/svg">
<path fill-rule="evenodd" clip-rule="evenodd" d="M0 55.13C0 24.6768 24.6889 0 55.13 0C83.6549 0 107.111 21.6574 109.971 49.4319C110.395 53.5522 107.398 57.2363 103.278 57.6606C99.1578 58.0848 95.4737 55.0885 95.0494 50.9681C92.9691 30.7626 75.8851 15 55.13 15C32.9711 15 15 32.9632 15 55.13C15 68.1657 21.213 79.7474 30.8625 87.0921C34.1585 89.6009 34.7966 94.3065 32.2879 97.6025C29.7791 100.898 25.0735 101.537 21.7775 99.0279C8.56699 88.9726 0 73.0544 0 55.13Z" fill="white"/>
<path fill-rule="evenodd" clip-rule="evenodd" d="M118.63 37.74C113.741 37.74 109.139 38.968 105.11 41.1173C101.455 43.0669 96.9123 41.6847 94.9627 38.0301C93.0131 34.3754 94.3953 29.8323 98.0499 27.8827C104.181 24.612 111.199 22.74 118.63 22.74C142.782 22.74 162.36 42.3179 162.36 66.47C162.36 83.622 152.473 98.4628 138.125 105.613C134.418 107.46 129.915 105.952 128.067 102.245C126.22 98.5377 127.728 94.0347 131.435 92.1873C140.887 87.4772 147.36 77.7179 147.36 66.47C147.36 50.6021 134.498 37.74 118.63 37.74Z" fill="white"/>
<path fill-rule="evenodd" clip-rule="evenodd" d="M92.5754 79.3795C95.0168 82.0114 94.8624 86.124 92.2305 88.5654L79.5033 100.372L89.887 105.541C91.7597 106.474 93.0692 108.25 93.4055 110.315C93.7418 112.38 93.0638 114.48 91.5838 115.959L72.9037 134.619C70.364 137.156 66.2484 137.154 63.7114 134.614C61.1743 132.074 61.1765 127.958 63.7163 125.421L76.0009 113.15L65.293 107.819C63.3823 106.867 62.0604 105.039 61.7563 102.926C61.4522 100.813 62.2047 98.6862 63.7695 97.2346L83.3895 79.0346C86.0214 76.5932 90.134 76.7476 92.5754 79.3795Z" fill="white"/>
</svg>
