<svg width="118" height="153" viewBox="0 0 118 153" fill="none" xmlns="http://www.w3.org/2000/svg">
<path fill-rule="evenodd" clip-rule="evenodd" d="M26.7169 23.7167C18.7278 28.9906 15 35.4324 15 41.5C15 47.5676 18.7278 54.0094 26.7169 59.2833C34.6468 64.5182 46.0394 68 59 68C71.9606 68 83.3531 64.5182 91.2831 59.2833C99.2722 54.0094 103 47.5676 103 41.5C103 35.4324 99.2722 28.9906 91.2831 23.7167C83.3531 18.4818 71.9606 15 59 15C46.0394 15 34.6468 18.4818 26.7169 23.7167ZM18.4531 11.1983C29.1632 4.12819 43.5206 0 59 0C74.4794 0 88.8369 4.12819 99.5469 11.1983C110.198 18.2294 118 28.7876 118 41.5C118 54.2124 110.198 64.7706 99.5469 71.8017C88.8369 78.8718 74.4794 83 59 83C43.5206 83 29.1632 78.8718 18.4531 71.8017C7.80224 64.7706 0 54.2124 0 41.5C0 28.7876 7.80224 18.2294 18.4531 11.1983Z" fill="white"/>
<path fill-rule="evenodd" clip-rule="evenodd" d="M26.3433 62.0279C29.2274 65.001 29.1552 69.7492 26.1821 72.6333C22.2862 76.4126 20.53 80.4403 20.53 84.3C20.53 89.3579 23.6381 94.8873 30.6262 99.5012C37.5549 104.076 47.5648 107.15 59 107.15C76.5242 107.15 89.9678 100.055 95.0795 92.0083C97.3006 88.512 101.935 87.4783 105.432 89.6994C108.928 91.9206 109.962 96.5554 107.741 100.052C98.9523 113.885 79.6559 122.15 59 122.15C45.0453 122.15 32.0702 118.429 22.3614 112.019C12.7119 105.648 5.53003 96.0021 5.53003 84.3C5.53003 75.5197 9.61388 67.8074 15.7379 61.8667C18.711 58.9826 23.4592 59.0548 26.3433 62.0279Z" fill="white"/>
<path fill-rule="evenodd" clip-rule="evenodd" d="M76.1241 111.961C79.0066 108.986 83.7548 108.911 86.7293 111.794C90.7522 115.692 93.62 120.945 93.62 127.08C93.62 135.272 88.5936 141.74 82.4296 145.811C76.2059 149.921 68.0456 152.22 59.41 152.22C50.8689 152.22 42.8125 149.972 36.6245 145.966C33.1473 143.715 32.1531 139.072 34.4039 135.595C36.6547 132.117 41.2982 131.123 44.7755 133.374C48.2275 135.608 53.3711 137.22 59.41 137.22C65.5244 137.22 70.719 135.569 74.1629 133.294C77.6664 130.98 78.62 128.628 78.62 127.08C78.62 125.875 78.0878 124.308 76.2906 122.566C73.3161 119.683 73.2415 114.935 76.1241 111.961Z" fill="white"/>
</svg>
