<svg width="163" height="130" viewBox="0 0 163 130" fill="none" xmlns="http://www.w3.org/2000/svg">
<path fill-rule="evenodd" clip-rule="evenodd" d="M37.72 84.13C37.72 81.3686 39.9585 79.13 42.72 79.13H85.27C88.0314 79.13 90.27 81.3686 90.27 84.13C90.27 86.8914 88.0314 89.13 85.27 89.13H42.72C39.9585 89.13 37.72 86.8914 37.72 84.13Z" fill="white"/>
<path fill-rule="evenodd" clip-rule="evenodd" d="M84.51 100.44C84.51 97.6786 86.7486 95.44 89.51 95.44H112.76C112.76 95.44 112.76 95.44 112.76 100.44C112.76 105.44 112.76 105.44 112.76 105.44H89.51C86.7486 105.44 84.51 103.201 84.51 100.44ZM120.05 112.65C120.05 108.701 116.818 105.44 112.76 105.44L112.76 100.44L112.76 95.44C122.282 95.44 130.05 103.119 130.05 112.65C130.05 122.188 122.285 129.87 112.76 129.87H47.39C44.6286 129.87 42.39 127.631 42.39 124.87C42.39 122.109 44.6286 119.87 47.39 119.87H112.76C116.815 119.87 120.05 116.612 120.05 112.65Z" fill="white"/>
<path fill-rule="evenodd" clip-rule="evenodd" d="M51.4 100.9C51.4 98.1386 53.6386 95.9 56.4 95.9H74.86C77.6214 95.9 79.86 98.1386 79.86 100.9C79.86 103.661 77.6214 105.9 74.86 105.9H56.4C53.6386 105.9 51.4 103.661 51.4 100.9Z" fill="white"/>
<path fill-rule="evenodd" clip-rule="evenodd" d="M0 55.13C0 24.6768 24.6889 0 55.13 0C83.6549 0 107.111 21.6574 109.971 49.4319C110.395 53.5522 107.398 57.2363 103.278 57.6606C99.1578 58.0848 95.4737 55.0885 95.0494 50.9681C92.9691 30.7626 75.8851 15 55.13 15C32.9711 15 15 32.9632 15 55.13C15 65.5785 18.995 75.0897 25.54 82.2335C28.3381 85.2877 28.1306 90.0319 25.0765 92.83C22.0223 95.6281 17.2781 95.4206 14.48 92.3665C5.50499 82.5703 0 69.4815 0 55.13Z" fill="white"/>
<path fill-rule="evenodd" clip-rule="evenodd" d="M118.63 37.74C113.741 37.74 109.139 38.968 105.11 41.1173C101.455 43.0669 96.9123 41.6847 94.9627 38.0301C93.0131 34.3754 94.3953 29.8323 98.0499 27.8827C104.181 24.612 111.199 22.74 118.63 22.74C142.782 22.74 162.36 42.3179 162.36 66.47C162.36 78.9737 157.101 90.2701 148.683 98.2296C145.673 101.075 140.926 100.943 138.08 97.9329C135.235 94.9232 135.367 90.1763 138.377 87.3304C143.919 82.0899 147.36 74.6863 147.36 66.47C147.36 50.6021 134.498 37.74 118.63 37.74Z" fill="white"/>
</svg>
