<svg width="137" height="152" viewBox="0 0 137 152" fill="none" xmlns="http://www.w3.org/2000/svg">
<path fill-rule="evenodd" clip-rule="evenodd" d="M61.59 147.542C61.59 145.333 63.3809 143.542 65.59 143.542H106.45C108.659 143.542 110.45 145.333 110.45 147.542C110.45 149.751 108.659 151.542 106.45 151.542H65.59C63.3809 151.542 61.59 149.751 61.59 147.542Z" fill="white"/>
<path fill-rule="evenodd" clip-rule="evenodd" d="M47.52 110.202C47.52 107.441 49.7586 105.202 52.52 105.202H74.8495C74.8496 105.202 74.85 105.202 74.85 110.202C74.85 115.202 74.85 115.202 74.8499 115.202H52.52C49.7586 115.202 47.52 112.963 47.52 110.202ZM81.65 121.932C81.65 118.241 78.6362 115.202 74.8499 115.202L74.85 110.202L74.8495 105.202C84.1032 105.202 91.65 112.663 91.65 121.932C91.65 131.201 84.1037 138.662 74.85 138.662H12.07C9.30858 138.662 7.07001 136.423 7.07001 133.662C7.07001 130.901 9.30858 128.662 12.07 128.662H74.85C78.6363 128.662 81.65 125.623 81.65 121.932Z" fill="white"/>
<path fill-rule="evenodd" clip-rule="evenodd" d="M19.73 110.652C19.73 107.891 21.9686 105.652 24.73 105.652H36.45C39.2114 105.652 41.45 107.891 41.45 110.652C41.45 113.413 39.2114 115.652 36.45 115.652H24.73C21.9686 115.652 19.73 113.413 19.73 110.652Z" fill="white"/>
<path fill-rule="evenodd" clip-rule="evenodd" d="M53.9308 2.08362C55.8431 4.02188 56.458 6.89323 55.5071 9.44467C53.2416 15.5233 52 22.1086 52 29C52 59.9279 77.072 85 108 85C114.891 85 121.477 83.7584 127.555 81.4929C129.945 80.6022 132.63 81.0817 134.564 82.7443C136.497 84.4069 137.374 86.9896 136.852 89.4858C135.849 94.2764 132.031 105.368 123.95 113.45C121.216 116.183 116.784 116.183 114.05 113.45C111.317 110.716 111.317 106.284 114.05 103.55C115.648 101.952 117.028 100.127 118.198 98.2616C114.867 98.7482 111.461 99 108 99C69.3401 99 38 67.6599 38 29C38 26.1253 38.1736 23.2894 38.5112 20.5026C33.1831 24.3527 27.7818 29.583 23.4669 36.2881C15.6319 48.463 11.0574 65.9781 17.7461 90.1318C18.7779 93.8576 16.5939 97.7143 12.8681 98.7461C9.14237 99.7779 5.28563 97.5939 4.25388 93.8681C-3.45739 66.0219 1.61734 44.3703 11.694 28.7119C21.5977 13.3223 36.022 4.18687 46.5916 0.408495C49.1555 -0.508066 52.0184 0.145356 53.9308 2.08362Z" fill="white"/>
</svg>
