<svg width="25" height="24" viewBox="0 0 25 24" fill="none" xmlns="http://www.w3.org/2000/svg">
<path fill-rule="evenodd" clip-rule="evenodd" d="M9.05798 3.38673C9.31147 3.59962 9.4176 3.94074 9.32961 4.25986C9.15452 4.89493 9.06072 5.56463 9.06072 6.25759C9.06072 10.3979 12.4171 13.7543 16.5575 13.7543C17.7068 13.7543 18.7935 13.4963 19.7648 13.0357C20.0639 12.8939 20.4183 12.9395 20.6718 13.1524C20.9252 13.3653 21.0314 13.7064 20.9434 14.0255C19.8719 17.9119 16.3123 20.7674 12.0836 20.7674C7.00835 20.7674 2.89404 16.6531 2.89404 11.5779C2.89404 7.90828 5.04494 4.74276 8.15104 3.27009C8.45015 3.12828 8.80448 3.17385 9.05798 3.38673ZM7.38238 5.73784C5.67676 7.11263 4.58686 9.21849 4.58686 11.5779C4.58686 15.7182 7.94327 19.0746 12.0836 19.0746C14.9058 19.0746 17.3652 17.5146 18.6441 15.209C17.9733 15.3648 17.2747 15.4471 16.5575 15.4471C11.4822 15.4471 7.36791 11.3328 7.36791 6.25759C7.36791 6.08321 7.37277 5.90992 7.38238 5.73784Z" fill="white"/>
<path fill-rule="evenodd" clip-rule="evenodd" d="M13.4133 2.99268C13.814 2.99268 14.1388 3.31749 14.1388 3.71817V4.44366L14.8643 4.44366C15.265 4.44366 15.5898 4.76847 15.5898 5.16915C15.5898 5.56983 15.265 5.89464 14.8643 5.89464H14.1388V6.62013C14.1388 7.02081 13.814 7.34563 13.4133 7.34563C13.0126 7.34563 12.6878 7.02081 12.6878 6.62013V5.89464H11.9623C11.5616 5.89464 11.2368 5.56983 11.2368 5.16915C11.2368 4.76847 11.5616 4.44366 11.9623 4.44366H12.6878V3.71817C12.6878 3.31749 13.0126 2.99268 13.4133 2.99268Z" fill="white"/>
<path fill-rule="evenodd" clip-rule="evenodd" d="M18.613 7.10352C19.0137 7.10352 19.3385 7.42833 19.3385 7.82901V8.5545L20.064 8.5545C20.4647 8.5545 20.7895 8.87931 20.7895 9.27999C20.7895 9.68067 20.4647 10.0055 20.064 10.0055H19.3385V10.731C19.3385 11.1317 19.0137 11.4565 18.613 11.4565C18.2123 11.4565 17.8875 11.1317 17.8875 10.731V10.0055H17.162C16.7613 10.0055 16.4365 9.68067 16.4365 9.27999C16.4365 8.87931 16.7613 8.5545 17.162 8.5545H17.8875V7.82901C17.8875 7.42833 18.2123 7.10352 18.613 7.10352Z" fill="white"/>
</svg>
