<svg width="25" height="25" viewBox="0 0 25 25" fill="none" xmlns="http://www.w3.org/2000/svg">
<path fill-rule="evenodd" clip-rule="evenodd" d="M8.71415 3.99303C8.80451 4.06891 8.84234 4.1905 8.81097 4.30425C8.62338 4.98465 8.52308 5.70157 8.52308 6.4424C8.52308 10.8745 12.116 14.4675 16.5482 14.4675C17.7774 14.4675 18.9413 14.1913 19.9819 13.698C20.0885 13.6474 20.2148 13.6637 20.3052 13.7395C20.3955 13.8154 20.4334 13.937 20.402 14.0508C19.3958 17.7001 16.0529 20.3807 12.0831 20.3807C7.3177 20.3807 3.45459 16.5176 3.45459 11.7522C3.45459 8.30745 5.47328 5.33475 8.39088 3.95145C8.4975 3.90091 8.6238 3.91715 8.71415 3.99303ZM8.07639 4.7973C5.67397 6.18435 4.05798 8.77984 4.05798 11.7522C4.05798 16.1844 7.65095 19.7774 12.0831 19.7774C15.5471 19.7774 18.4992 17.5823 19.6231 14.5068C18.6676 14.8713 17.6309 15.0709 16.5482 15.0709C11.7828 15.0709 7.91969 11.2078 7.91969 6.4424C7.91969 5.88005 7.97352 5.33003 8.07639 4.7973Z" fill="white"/>
<path fill-rule="evenodd" clip-rule="evenodd" d="M13.4112 3.98291C13.5445 3.98291 13.6525 4.09097 13.6525 4.22427V5.43105H14.8593C14.9926 5.43105 15.1007 5.53911 15.1007 5.67241C15.1007 5.8057 14.9926 5.91376 14.8593 5.91376H13.6525V7.12055C13.6525 7.25384 13.5445 7.3619 13.4112 7.3619C13.2779 7.3619 13.1698 7.25384 13.1698 7.12055V5.91376H11.963C11.8297 5.91376 11.7217 5.8057 11.7217 5.67241C11.7217 5.53911 11.8297 5.43105 11.963 5.43105H13.1698V4.22427C13.1698 4.09097 13.2779 3.98291 13.4112 3.98291Z" fill="white"/>
<path fill-rule="evenodd" clip-rule="evenodd" d="M18.6001 8.08594C18.7334 8.08594 18.8415 8.194 18.8415 8.32729V9.53408H20.0483C20.1816 9.53408 20.2896 9.64214 20.2896 9.77543C20.2896 9.90873 20.1816 10.0168 20.0483 10.0168H18.8415V11.2236C18.8415 11.3569 18.7334 11.4649 18.6001 11.4649C18.4668 11.4649 18.3588 11.3569 18.3588 11.2236V10.0168H17.152C17.0187 10.0168 16.9106 9.90873 16.9106 9.77543C16.9106 9.64214 17.0187 9.53408 17.152 9.53408H18.3588V8.32729C18.3588 8.194 18.4668 8.08594 18.6001 8.08594Z" fill="white"/>
</svg>
