<svg width="24" height="25" viewBox="0 0 24 25" fill="none" xmlns="http://www.w3.org/2000/svg">
<path fill-rule="evenodd" clip-rule="evenodd" d="M11.9525 8.15523C9.75204 8.15523 7.96822 9.93905 7.96822 12.1395C7.96822 14.3399 9.75204 16.1238 11.9525 16.1238C14.1529 16.1238 15.9367 14.3399 15.9367 12.1395C15.9367 9.93905 14.1529 8.15523 11.9525 8.15523ZM6.64014 12.1395C6.64014 9.20557 9.01855 6.82715 11.9525 6.82715C14.8864 6.82715 17.2648 9.20557 17.2648 12.1395C17.2648 15.0734 14.8864 17.4518 11.9525 17.4518C9.01855 17.4518 6.64014 15.0734 6.64014 12.1395Z" fill="white"/>
<path fill-rule="evenodd" clip-rule="evenodd" d="M1.72607 12.1387C1.72607 11.7719 2.02338 11.4746 2.39012 11.4746H4.02417C4.39091 11.4746 4.68821 11.7719 4.68821 12.1387C4.68821 12.5054 4.39091 12.8027 4.02417 12.8027H2.39012C2.02338 12.8027 1.72607 12.5054 1.72607 12.1387ZM19.2165 12.1387C19.2165 11.7719 19.5138 11.4746 19.8805 11.4746H21.5146C21.8813 11.4746 22.1786 11.7719 22.1786 12.1387C22.1786 12.5054 21.8813 12.8027 21.5146 12.8027H19.8805C19.5138 12.8027 19.2165 12.5054 19.2165 12.1387Z" fill="white"/>
<path fill-rule="evenodd" clip-rule="evenodd" d="M4.72101 19.3695C4.46169 19.1101 4.46169 18.6897 4.72101 18.4304L5.87646 17.2749C6.13579 17.0156 6.55624 17.0156 6.81556 17.2749C7.07489 17.5342 7.07489 17.9547 6.81556 18.214L5.66011 19.3695C5.40079 19.6288 4.98034 19.6288 4.72101 19.3695ZM17.0886 7.00188C16.8293 6.74256 16.8293 6.32211 17.0886 6.06278L18.244 4.90733C18.5034 4.64801 18.9238 4.64801 19.1831 4.90733C19.4425 5.16666 19.4425 5.58711 19.1831 5.84643L18.0277 7.00188C17.7684 7.2612 17.3479 7.26121 17.0886 7.00188Z" fill="white"/>
<path fill-rule="evenodd" clip-rule="evenodd" d="M4.72137 4.90754C4.98069 4.64821 5.40114 4.64821 5.66047 4.90754L6.81592 6.06299C7.07524 6.32231 7.07524 6.74276 6.81592 7.00208C6.55659 7.26141 6.13614 7.26141 5.87682 7.00208L4.72137 5.84664C4.46204 5.58731 4.46204 5.16686 4.72137 4.90754ZM17.0889 17.2751C17.3483 17.0158 17.7687 17.0158 18.028 17.2751L19.1835 18.4306C19.4428 18.6899 19.4428 19.1103 19.1835 19.3697C18.9242 19.629 18.5037 19.629 18.2444 19.3697L17.0889 18.2142C16.8296 17.9549 16.8296 17.5344 17.0889 17.2751Z" fill="white"/>
<path fill-rule="evenodd" clip-rule="evenodd" d="M11.9527 1.91309C12.3194 1.91309 12.6167 2.21039 12.6167 2.57713L12.6167 4.21118C12.6167 4.57792 12.3194 4.87522 11.9527 4.87522C11.5859 4.87522 11.2886 4.57792 11.2886 4.21118L11.2886 2.57713C11.2886 2.21039 11.5859 1.91309 11.9527 1.91309ZM11.9527 19.4035C12.3194 19.4035 12.6167 19.7008 12.6167 20.0675L12.6167 21.7016C12.6167 22.0683 12.3194 22.3656 11.9527 22.3656C11.5859 22.3656 11.2886 22.0683 11.2886 21.7016L11.2886 20.0675C11.2886 19.7008 11.5859 19.4035 11.9527 19.4035Z" fill="white"/>
</svg>
