<svg width="25" height="24" viewBox="0 0 25 24" fill="none" xmlns="http://www.w3.org/2000/svg">
<path fill-rule="evenodd" clip-rule="evenodd" d="M12.7943 9.29633C10.7405 9.29633 9.07563 10.9612 9.07563 13.015C9.07563 13.973 9.43668 14.8445 10.0316 15.5042C10.3755 15.8855 10.3451 16.4734 9.96383 16.8172C9.58253 17.1611 8.99469 17.1307 8.65085 16.7494C7.75985 15.7614 7.21631 14.4506 7.21631 13.015C7.21631 9.93435 9.71365 7.43701 12.7943 7.43701C15.8749 7.43701 18.3722 9.93435 18.3722 13.015C18.3722 13.5284 17.956 13.9446 17.4426 13.9446C16.9291 13.9446 16.5129 13.5284 16.5129 13.015C16.5129 10.9612 14.848 9.29633 12.7943 9.29633Z" fill="white"/>
<path fill-rule="evenodd" clip-rule="evenodd" d="M2.23633 13.0146C2.23633 12.4645 2.68228 12.0186 3.23239 12.0186H4.86644C5.41655 12.0186 5.86251 12.4645 5.86251 13.0146C5.86251 13.5647 5.41655 14.0107 4.86644 14.0107H3.23239C2.68228 14.0107 2.23633 13.5647 2.23633 13.0146ZM19.7267 13.0146C19.7267 12.4645 20.1727 12.0186 20.7228 12.0186H22.3568C22.9069 12.0186 23.3529 12.4645 23.3529 13.0146C23.3529 13.5647 22.9069 14.0107 22.3568 14.0107H20.7228C20.1727 14.0107 19.7267 13.5647 19.7267 13.0146Z" fill="white"/>
<path fill-rule="evenodd" clip-rule="evenodd" d="M5.32884 20.4807C4.93985 20.0917 4.93985 19.461 5.32884 19.072L6.48428 17.9166C6.87327 17.5276 7.50394 17.5276 7.89293 17.9166C8.28192 18.3056 8.28192 18.9363 7.89293 19.3252L6.73748 20.4807C6.3485 20.8697 5.71782 20.8697 5.32884 20.4807ZM17.6964 8.11312C17.3074 7.72413 17.3074 7.09346 17.6964 6.70447L18.8519 5.54902C19.2408 5.16004 19.8715 5.16004 20.2605 5.54902C20.6495 5.93801 20.6495 6.56868 20.2605 6.95767L19.1051 8.11312C18.7161 8.50211 18.0854 8.50211 17.6964 8.11312Z" fill="white"/>
<path fill-rule="evenodd" clip-rule="evenodd" d="M5.32839 5.54856C5.71738 5.15957 6.34805 5.15957 6.73704 5.54856L7.89249 6.70401C8.28147 7.093 8.28147 7.72367 7.89249 8.11266C7.5035 8.50165 6.87283 8.50165 6.48384 8.11266L5.32839 6.95721C4.9394 6.56822 4.9394 5.93755 5.32839 5.54856Z" fill="white"/>
<path fill-rule="evenodd" clip-rule="evenodd" d="M12.7945 2.45605C13.3446 2.45605 13.7905 2.90201 13.7905 3.45212L13.7905 5.08617C13.7905 5.63628 13.3446 6.08223 12.7945 6.08223C12.2444 6.08223 11.7984 5.63628 11.7984 5.08617L11.7984 3.45212C11.7984 2.90201 12.2444 2.45605 12.7945 2.45605Z" fill="white"/>
<path fill-rule="evenodd" clip-rule="evenodd" d="M13.0601 16.8667C13.0601 16.4266 13.4168 16.0698 13.8569 16.0698H20.2317C20.6718 16.0698 21.0286 16.4266 21.0286 16.8667C21.0286 17.3068 20.6718 17.6635 20.2317 17.6635H13.8569C13.4168 17.6635 13.0601 17.3068 13.0601 16.8667Z" fill="white"/>
<path fill-rule="evenodd" clip-rule="evenodd" d="M10.9351 19.5224C10.9351 19.0823 11.2918 18.7256 11.7319 18.7256H16.7297C17.1698 18.7256 17.5266 19.0823 17.5266 19.5224C17.5266 19.9625 17.1698 20.3193 16.7297 20.3193H11.7319C11.2918 20.3193 10.9351 19.9625 10.9351 19.5224ZM19.0364 19.5224C19.0364 19.0823 19.3931 18.7256 19.8332 18.7256H22.4894C22.9295 18.7256 23.2863 19.0823 23.2863 19.5224C23.2863 19.9625 22.9295 20.3193 22.4894 20.3193H19.8332C19.3931 20.3193 19.0364 19.9625 19.0364 19.5224Z" fill="white"/>
</svg>
