<svg width="25" height="24" viewBox="0 0 25 24" fill="none" xmlns="http://www.w3.org/2000/svg">
<path fill-rule="evenodd" clip-rule="evenodd" d="M8.67508 5.24555C5.63113 5.24555 3.16352 7.71316 3.16352 10.7571C3.16352 13.0247 4.53312 14.9744 6.49372 15.8204C6.93147 16.0093 7.13322 16.5173 6.94434 16.955C6.75545 17.3928 6.24746 17.5945 5.80971 17.4056C3.23904 16.2964 1.43701 13.7382 1.43701 10.7571C1.43701 6.75964 4.67761 3.51904 8.67508 3.51904C11.1604 3.51904 13.352 4.77182 14.6546 6.67752C15.3852 6.35455 16.1934 6.17521 17.042 6.17521C20.306 6.17521 22.952 8.8212 22.952 12.0852C22.952 14.4123 21.6069 16.4236 19.6557 17.3871C19.2283 17.5981 18.7106 17.4227 18.4995 16.9952C18.2884 16.5677 18.4638 16.0501 18.8913 15.839C20.2761 15.1552 21.2255 13.7303 21.2255 12.0852C21.2255 9.77473 19.3525 7.90173 17.042 7.90173C16.4788 7.90173 15.9427 8.01262 15.4534 8.21366C15.7507 9.00566 15.9131 9.86312 15.9131 10.7571C15.9131 11.2339 15.5267 11.6204 15.0499 11.6204C14.5731 11.6204 14.1866 11.2339 14.1866 10.7571C14.1866 9.84122 13.9639 8.97989 13.5704 8.22187C12.6515 6.45175 10.8034 5.24555 8.67508 5.24555Z" fill="white"/>
<path d="M11.0649 19.4555C11.0649 20.2257 10.4405 20.85 9.67037 20.85C8.90021 20.85 8.27588 20.2257 8.27588 19.4555C8.27588 18.6854 8.90021 18.061 9.67037 18.061C10.4405 18.061 11.0649 18.6854 11.0649 19.4555Z" fill="white"/>
<path d="M14.1205 15.8706C14.1205 16.6407 13.4962 17.2651 12.726 17.2651C11.9559 17.2651 11.3315 16.6407 11.3315 15.8706C11.3315 15.1004 11.9559 14.4761 12.726 14.4761C13.4962 14.4761 14.1205 15.1004 14.1205 15.8706Z" fill="white"/>
<path d="M17.307 19.5893C17.307 20.3595 16.6827 20.9838 15.9126 20.9838C15.1424 20.9838 14.5181 20.3595 14.5181 19.5893C14.5181 18.8192 15.1424 18.1948 15.9126 18.1948C16.6827 18.1948 17.307 18.8192 17.307 19.5893Z" fill="white"/>
</svg>
