<svg width="25" height="24" viewBox="0 0 25 24" fill="none" xmlns="http://www.w3.org/2000/svg">
<path fill-rule="evenodd" clip-rule="evenodd" d="M9.59102 2.20995C9.86945 2.44377 9.98601 2.81845 9.88938 3.16896C9.69706 3.86649 9.59404 4.60206 9.59404 5.36318C9.59404 9.91076 13.2806 13.5973 17.8282 13.5973C19.0905 13.5973 20.2841 13.3139 21.351 12.808C21.6795 12.6523 22.0687 12.7023 22.3471 12.9362C22.6256 13.17 22.7421 13.5447 22.6455 13.8952C22.1785 15.5889 21.282 17.1028 20.082 18.3131C19.7206 18.6777 19.1319 18.6802 18.7673 18.3188C18.4027 17.9573 18.4002 17.3686 18.7617 17.004C19.2932 16.4679 19.7513 15.8595 20.1199 15.1951C19.3832 15.3662 18.6159 15.4566 17.8282 15.4566C12.2537 15.4566 7.73472 10.9376 7.73472 5.36318C7.73472 5.17165 7.74006 4.98131 7.75062 4.79231C5.87722 6.30232 4.68012 8.61532 4.68012 11.2068C4.68012 12.1042 4.82336 12.9664 5.08752 13.7727C5.24738 14.2606 4.98142 14.7857 4.49351 14.9456C4.00559 15.1054 3.48046 14.8395 3.32061 14.3516C2.99599 13.3607 2.8208 12.3033 2.8208 11.2068C2.8208 7.17623 5.18326 3.69935 8.59488 2.08183C8.92341 1.92607 9.3126 1.97612 9.59102 2.20995Z" fill="white"/>
<path d="M8.00041 19.4555C8.00041 20.2257 7.37607 20.85 6.60592 20.85C5.83576 20.85 5.21143 20.2257 5.21143 19.4555C5.21143 18.6854 5.83576 18.061 6.60592 18.061C7.37607 18.061 8.00041 18.6854 8.00041 19.4555Z" fill="white"/>
<path d="M11.3202 16.4013C11.3202 17.1715 10.6959 17.7958 9.92574 17.7958C9.15558 17.7958 8.53125 17.1715 8.53125 16.4013C8.53125 15.6312 9.15558 15.0068 9.92574 15.0068C10.6959 15.0068 11.3202 15.6312 11.3202 16.4013Z" fill="white"/>
<path d="M14.5082 19.5893C14.5082 20.3595 13.8839 20.9838 13.1137 20.9838C12.3436 20.9838 11.7192 20.3595 11.7192 19.5893C11.7192 18.8192 12.3436 18.1948 13.1137 18.1948C13.8839 18.1948 14.5082 18.8192 14.5082 19.5893Z" fill="white"/>
</svg>
