<svg width="25" height="25" viewBox="0 0 25 25" fill="none" xmlns="http://www.w3.org/2000/svg">
<path fill-rule="evenodd" clip-rule="evenodd" d="M8.80009 7.49068C5.64611 7.49068 3.08932 10.0475 3.08932 13.2015C3.08932 16.3554 5.64611 18.9122 8.80009 18.9122H17.167C19.5875 18.9122 21.5497 16.95 21.5497 14.5295C21.5497 12.109 19.5875 10.1469 17.167 10.1469C16.5076 10.1469 15.8832 10.2921 15.3232 10.5522C15.6558 11.3706 15.8389 12.2653 15.8389 13.2015C15.8389 13.5682 15.5416 13.8655 15.1749 13.8655C14.8082 13.8655 14.5109 13.5682 14.5109 13.2015C14.5109 12.2529 14.2801 11.3601 13.8722 10.5744C12.9204 8.7409 11.0057 7.49068 8.80009 7.49068ZM14.7082 9.37392C13.4542 7.44212 11.277 6.1626 8.80009 6.1626C4.91263 6.1626 1.76123 9.314 1.76123 13.2015C1.76123 17.0889 4.91263 20.2403 8.80009 20.2403H17.167C20.321 20.2403 22.8778 17.6835 22.8778 14.5295C22.8778 11.3756 20.321 8.81877 17.167 8.81877C16.2875 8.81877 15.4533 9.018 14.7082 9.37392Z" fill="white"/>
</svg>
