<svg width="25" height="24" viewBox="0 0 25 24" fill="none" xmlns="http://www.w3.org/2000/svg">
<path fill-rule="evenodd" clip-rule="evenodd" d="M8.74637 7.91276C5.94092 7.91276 3.66666 10.187 3.66666 12.9925C3.66666 15.7979 5.94092 18.0722 8.74637 18.0722C9.22535 18.0722 9.61364 18.4605 9.61364 18.9394C9.61364 19.4184 9.22535 19.8067 8.74637 19.8067C4.98297 19.8067 1.93213 16.7559 1.93213 12.9925C1.93213 9.22906 4.98297 6.17822 8.74637 6.17822C11.0678 6.17822 13.1169 7.33921 14.3466 9.10946C15.0235 8.81772 15.7694 8.65613 16.5518 8.65613C19.6309 8.65613 22.1271 11.1523 22.1271 14.2314C22.1271 17.3106 19.6309 19.8067 16.5518 19.8067C16.0728 19.8067 15.6845 19.4184 15.6845 18.9394C15.6845 18.4605 16.0728 18.0722 16.5518 18.0722C18.673 18.0722 20.3925 16.3526 20.3925 14.2314C20.3925 12.1102 18.673 10.3907 16.5518 10.3907C16.0558 10.3907 15.5829 10.4843 15.1488 10.6547C15.4153 11.3845 15.5606 12.1722 15.5606 12.9925C15.5606 13.4714 15.1723 13.8597 14.6933 13.8597C14.2144 13.8597 13.8261 13.4714 13.8261 12.9925C13.8261 12.1482 13.6208 11.3544 13.2582 10.6559C12.4112 9.02431 10.7079 7.91276 8.74637 7.91276Z" fill="white"/>
<path fill-rule="evenodd" clip-rule="evenodd" d="M14.6308 6.17815C13.5364 6.17815 12.7104 7.01543 12.7104 7.97463C12.7104 8.38518 12.3776 8.718 11.967 8.718C11.5565 8.718 11.2236 8.38518 11.2236 7.97463C11.2236 6.12839 12.7828 4.69141 14.6308 4.69141C16.4787 4.69141 18.0379 6.12839 18.0379 7.97463C18.0379 8.70033 17.7929 9.37016 17.383 9.91059C17.1349 10.2377 16.6686 10.3018 16.3415 10.0537C16.0143 9.80557 15.9503 9.33927 16.1984 9.01216C16.4225 8.7167 16.5511 8.35934 16.5511 7.97463C16.5511 7.01543 15.7251 6.17815 14.6308 6.17815Z" fill="white"/>
<path fill-rule="evenodd" clip-rule="evenodd" d="M12.2806 1.81167C12.6342 1.68296 13.0252 1.8653 13.154 2.21894L13.469 3.08438C13.5977 3.43802 13.4153 3.82905 13.0617 3.95777C12.708 4.08649 12.317 3.90415 12.1883 3.5505L11.8733 2.68506C11.7446 2.33142 11.9269 1.94039 12.2806 1.81167Z" fill="white"/>
<path fill-rule="evenodd" clip-rule="evenodd" d="M17.9143 2.3048C18.2402 2.49297 18.3519 2.90972 18.1637 3.23564L17.7032 4.03323C17.515 4.35915 17.0983 4.47082 16.7724 4.28265C16.4464 4.09448 16.3348 3.67773 16.5229 3.35181L16.9834 2.55421C17.1716 2.22829 17.5883 2.11663 17.9143 2.3048Z" fill="white"/>
<path fill-rule="evenodd" clip-rule="evenodd" d="M21.5291 6.80403C21.5945 7.17465 21.347 7.52807 20.9764 7.59343L20.0694 7.75335C19.6988 7.8187 19.3454 7.57123 19.28 7.20061C19.2147 6.82999 19.4621 6.47656 19.8327 6.41121L20.7397 6.25128C21.1104 6.18593 21.4638 6.4334 21.5291 6.80403Z" fill="white"/>
</svg>
