<svg width="25" height="24" viewBox="0 0 25 24" fill="none" xmlns="http://www.w3.org/2000/svg">
<path fill-rule="evenodd" clip-rule="evenodd" d="M7.65783 21.4238C4.96222 21.4238 2.79443 19.2131 2.79443 16.5078C2.79443 14.2769 4.26854 12.3824 6.29715 11.7865C6.09312 11.0897 5.98389 10.3533 5.98389 9.59274C5.98389 6.4566 7.83647 3.7552 10.5053 2.49967C10.7873 2.36702 11.1207 2.41084 11.3589 2.61185C11.597 2.81286 11.6962 3.1342 11.6128 3.43446C11.4658 3.96343 11.387 4.52126 11.387 5.09859C11.387 8.54477 14.2043 11.349 17.6927 11.349C18.6605 11.349 19.5752 11.1334 20.3925 10.7489C20.6745 10.6163 21.008 10.6601 21.2461 10.8611C21.4842 11.0621 21.5834 11.3835 21.5 11.6837C20.8556 14.0029 19.1686 15.8875 16.9741 16.8145C16.9984 16.9949 17.011 17.179 17.011 17.3659C17.011 19.5973 15.2225 21.4238 12.9947 21.4238H7.65783ZM4.38881 16.5078C4.38881 14.6636 5.86203 13.1862 7.65783 13.1862C8.91442 13.1862 10.0117 13.9073 10.5596 14.9764C10.7938 15.4335 10.9268 15.9535 10.9268 16.5078C10.9268 16.9481 11.2838 17.305 11.724 17.305C12.1643 17.305 12.5212 16.9481 12.5212 16.5078C12.5212 15.9856 12.4404 15.4814 12.2905 15.0079C12.5131 14.9392 12.7494 14.9023 12.9947 14.9023C14.3227 14.9023 15.4166 15.9956 15.4166 17.3659C15.4166 18.7362 14.3227 19.8294 12.9947 19.8294H7.65783C5.86203 19.8294 4.38881 18.352 4.38881 16.5078ZM12.9947 13.308C12.49 13.308 12.0064 13.4024 11.5608 13.5745C10.723 12.4375 9.40776 11.6755 7.90963 11.5983C7.69492 10.9696 7.57827 10.2954 7.57827 9.59274C7.57827 7.68845 8.43774 5.98019 9.79712 4.83237C9.79415 4.92077 9.79265 5.00951 9.79265 5.09859C9.79265 9.43702 13.3355 12.9434 17.6927 12.9434C18.2466 12.9434 18.7877 12.8867 19.3102 12.7787C18.6473 13.8852 17.6492 14.773 16.4535 15.3026C15.7559 14.111 14.4719 13.308 12.9947 13.308Z" fill="white"/>
</svg>
