<svg width="25" height="25" viewBox="0 0 25 25" fill="none" xmlns="http://www.w3.org/2000/svg">
<path fill-rule="evenodd" clip-rule="evenodd" d="M7.42287 12.0692C7.4124 12.0345 7.4089 11.997 7.41381 11.9587C7.54908 10.9048 8.01809 9.95566 8.71082 9.22061C9.60656 8.27015 10.8779 7.67627 12.2875 7.67627C15.0014 7.67627 17.2014 9.87631 17.2014 12.5902C17.2014 13.7279 16.8145 14.7759 16.1652 15.6089C16.1546 15.6224 16.143 15.6346 16.1306 15.6455C16.3902 16.139 16.5372 16.7022 16.5372 17.2995C16.5372 19.243 14.9809 20.8244 13.0539 20.8244H7.71925C5.3246 20.8244 3.38916 18.859 3.38916 16.4418C3.38916 14.1251 5.16691 12.2234 7.42287 12.0692ZM9.09743 9.58495C9.89697 8.73656 11.0302 8.2075 12.2875 8.2075C14.708 8.2075 16.6702 10.1697 16.6702 12.5902C16.6702 13.5552 16.3586 14.4468 15.8304 15.1707C15.1948 14.3229 14.1886 13.7745 13.0539 13.7745C12.4674 13.7745 11.9144 13.9214 11.4293 14.1806C10.7066 12.9685 9.41894 12.1374 7.93304 12.0643C7.93647 12.0521 7.93905 12.0394 7.94072 12.0264C8.06125 11.0873 8.47907 10.2411 9.09743 9.58495ZM3.92039 16.4418C3.92039 14.3114 5.62441 12.5903 7.71925 12.5903C9.18491 12.5903 10.4588 13.4321 11.0926 14.6687C11.3643 15.199 11.5181 15.8017 11.5181 16.4418C11.5181 16.5885 11.637 16.7074 11.7837 16.7074C11.9304 16.7074 12.0493 16.5885 12.0493 16.4418C12.0493 15.805 11.915 15.1993 11.6732 14.6526C12.0852 14.4311 12.5549 14.3058 13.0539 14.3058C14.6811 14.3058 16.006 15.6429 16.006 17.2995C16.006 18.9561 14.6811 20.2932 13.0539 20.2932H7.71925C5.62441 20.2932 3.92039 18.5721 3.92039 16.4418Z" fill="white"/>
<path fill-rule="evenodd" clip-rule="evenodd" d="M19.7561 14.4032C19.794 14.2617 19.9394 14.1777 20.0809 14.2156L21.0165 14.4663C21.158 14.5042 21.242 14.6497 21.2041 14.7912C21.1662 14.9327 21.0207 15.0166 20.8792 14.9787L19.9436 14.728C19.8021 14.6901 19.7181 14.5447 19.7561 14.4032Z" fill="white"/>
<path fill-rule="evenodd" clip-rule="evenodd" d="M7.77274 4.48418C7.8996 4.41094 8.06182 4.4544 8.13506 4.58127L8.61938 5.42013C8.69262 5.54699 8.64915 5.70921 8.52229 5.78245C8.39543 5.85569 8.23321 5.81223 8.15997 5.68537L7.67565 4.84651C7.60241 4.71965 7.64587 4.55743 7.77274 4.48418Z" fill="white"/>
<path fill-rule="evenodd" clip-rule="evenodd" d="M14.7267 3.56856C14.8682 3.60647 14.9522 3.75191 14.9143 3.89341L14.6636 4.82903C14.6256 4.97053 14.4802 5.0545 14.3387 5.01659C14.1972 4.97867 14.1132 4.83323 14.1512 4.69174L14.4019 3.75611C14.4398 3.61461 14.5852 3.53064 14.7267 3.56856Z" fill="white"/>
<path fill-rule="evenodd" clip-rule="evenodd" d="M20.2902 7.83914C20.3635 7.96601 20.32 8.12822 20.1931 8.20147L19.3543 8.68578C19.2274 8.75903 19.0652 8.71556 18.992 8.5887C18.9187 8.46184 18.9622 8.29962 19.089 8.22637L19.9279 7.74206C20.0548 7.66881 20.217 7.71228 20.2902 7.83914Z" fill="white"/>
</svg>
