<svg width="25" height="25" viewBox="0 0 25 25" fill="none" xmlns="http://www.w3.org/2000/svg">
<path fill-rule="evenodd" clip-rule="evenodd" d="M9.45781 6.54734C6.12047 6.54734 3.41502 9.25279 3.41502 12.5901C3.41502 15.0773 4.91767 17.2142 7.06599 18.1412C7.23435 18.2138 7.31195 18.4092 7.2393 18.5776C7.16665 18.7459 6.97127 18.8235 6.80291 18.7509C4.41995 17.7227 2.75098 15.3517 2.75098 12.5901C2.75098 8.88605 5.75373 5.8833 9.45781 5.8833C11.9246 5.8833 14.0799 7.21515 15.2446 9.19766C16.0108 8.77803 16.8903 8.53947 17.8248 8.53947C20.7954 8.53947 23.2035 10.9476 23.2035 13.9182C23.2035 16.0355 21.9802 17.8663 20.2033 18.7437C20.0389 18.8249 19.8398 18.7575 19.7586 18.593C19.6774 18.4286 19.7448 18.2295 19.9093 18.1483C21.4683 17.3785 22.5395 15.7732 22.5395 13.9182C22.5395 11.3144 20.4286 9.20352 17.8248 9.20352C17.0003 9.20352 16.2259 9.41489 15.5521 9.78633C15.9454 10.6398 16.1646 11.5897 16.1646 12.5901C16.1646 12.7735 16.016 12.9222 15.8326 12.9222C15.6493 12.9222 15.5006 12.7735 15.5006 12.5901C15.5006 11.5871 15.2565 10.642 14.8246 9.81014C13.818 7.87094 11.7922 6.54734 9.45781 6.54734Z" fill="white"/>
<path fill-rule="evenodd" clip-rule="evenodd" d="M17.1147 16.855C17.2534 16.903 17.3269 17.0543 17.2789 17.1929L16.0836 20.6459C16.0356 20.7846 15.8843 20.858 15.7457 20.81C15.6071 20.7621 15.5336 20.6108 15.5816 20.4722L16.7769 17.0191C16.8248 16.8805 16.9761 16.807 17.1147 16.855Z" fill="white"/>
<path fill-rule="evenodd" clip-rule="evenodd" d="M14.3262 16.855C14.4648 16.903 14.5383 17.0543 14.4903 17.1929L13.295 20.6459C13.247 20.7846 13.0957 20.858 12.9571 20.81C12.8185 20.7621 12.745 20.6108 12.793 20.4722L13.9883 17.0191C14.0363 16.8805 14.1875 16.807 14.3262 16.855Z" fill="white"/>
<path fill-rule="evenodd" clip-rule="evenodd" d="M11.5461 16.8581C11.683 16.9108 11.7513 17.0645 11.6986 17.2014L10.3705 20.6544C10.3179 20.7913 10.1642 20.8596 10.0273 20.807C9.89035 20.7543 9.82205 20.6006 9.87471 20.4637L11.2028 17.0107C11.2555 16.8738 11.4091 16.8054 11.5461 16.8581Z" fill="white"/>
</svg>
