<svg width="25" height="25" viewBox="0 0 25 25" fill="none" xmlns="http://www.w3.org/2000/svg">
<path fill-rule="evenodd" clip-rule="evenodd" d="M9.45829 6.6943C6.30432 6.6943 3.74752 9.2511 3.74752 12.4051C3.74752 14.755 5.16701 16.7749 7.19801 17.6513C7.53474 17.7966 7.68993 18.1873 7.54463 18.5241C7.39934 18.8608 7.00858 19.016 6.67184 18.8707C4.17156 17.7918 2.41943 15.3038 2.41943 12.4051C2.41943 8.51761 5.57084 5.36621 9.45829 5.36621C11.9352 5.36621 14.1124 6.64574 15.3664 8.57754C16.1115 8.22162 16.9457 8.02238 17.8252 8.02238C20.9792 8.02238 23.536 10.5792 23.536 13.7332C23.536 15.9815 22.2366 17.9252 20.3508 18.8564C20.0219 19.0188 19.6237 18.8838 19.4613 18.555C19.299 18.2261 19.4339 17.8279 19.7627 17.6656C21.2128 16.9495 22.2079 15.4569 22.2079 13.7332C22.2079 11.3127 20.2457 9.35047 17.8252 9.35047C17.1658 9.35047 16.5414 9.49572 15.9814 9.75586C16.314 10.5742 16.4971 11.4689 16.4971 12.4051C16.4971 12.7718 16.1998 13.0691 15.8331 13.0691C15.4664 13.0691 15.1691 12.7718 15.1691 12.4051C15.1691 11.4565 14.9383 10.5637 14.5304 9.77804C13.5786 7.94452 11.6639 6.6943 9.45829 6.6943Z" fill="white"/>
<path fill-rule="evenodd" clip-rule="evenodd" d="M17.2017 16.4176C17.479 16.5135 17.6259 16.8161 17.5299 17.0933L16.3347 20.5464C16.2387 20.8236 15.9361 20.9706 15.6589 20.8746C15.3816 20.7786 15.2347 20.4761 15.3306 20.1988L16.5259 16.7458C16.6219 16.4685 16.9244 16.3216 17.2017 16.4176Z" fill="white"/>
<path fill-rule="evenodd" clip-rule="evenodd" d="M14.2793 16.4176C14.5566 16.5135 14.7035 16.8161 14.6076 17.0933L13.4123 20.5464C13.3163 20.8236 13.0138 20.9706 12.7365 20.8746C12.4593 20.7786 12.3123 20.4761 12.4083 20.1988L13.6036 16.7458C13.6995 16.4685 14.0021 16.3216 14.2793 16.4176Z" fill="white"/>
<path fill-rule="evenodd" clip-rule="evenodd" d="M11.3744 16.4237C11.6482 16.5291 11.7848 16.8364 11.6795 17.1103L10.3514 20.5633C10.2461 20.8371 9.93873 20.9737 9.66489 20.8684C9.39106 20.7631 9.25445 20.4557 9.35977 20.1819L10.6879 16.7289C10.7932 16.455 11.1005 16.3184 11.3744 16.4237Z" fill="white"/>
</svg>
