<svg width="25" height="25" viewBox="0 0 25 25" fill="none" xmlns="http://www.w3.org/2000/svg">
<path fill-rule="evenodd" clip-rule="evenodd" d="M14.1206 3.30568C14.2198 3.38933 14.2613 3.52316 14.2266 3.64825C14.1543 3.9091 14.1156 4.18414 14.1156 4.4687C14.1156 6.16837 15.5012 7.54924 17.2143 7.54924C17.6896 7.54924 18.1391 7.44307 18.5407 7.25366C18.6581 7.19829 18.797 7.21642 18.8963 7.30007C18.9955 7.38372 19.0369 7.51755 19.0023 7.64265C18.7513 8.54827 18.1678 9.31509 17.3919 9.8063C17.237 9.90439 17.0319 9.85831 16.9338 9.70338C16.8357 9.54845 16.8818 9.34334 17.0367 9.24525C17.4823 8.96313 17.8502 8.57121 18.1021 8.10838C17.8172 8.17696 17.5199 8.21328 17.2143 8.21328C15.1378 8.21328 13.4515 6.53844 13.4515 4.4687C13.4515 4.38611 13.4542 4.30411 13.4595 4.22279C12.7381 4.78732 12.2759 5.66294 12.2759 6.64482C12.2759 7.03885 12.3501 7.41487 12.4852 7.76036C12.552 7.93114 12.4676 8.12372 12.2969 8.19049C12.1261 8.25725 11.9335 8.17294 11.8667 8.00215C11.702 7.5809 11.6118 7.12296 11.6118 6.64482C11.6118 5.14858 12.4935 3.85892 13.765 3.25926C13.8824 3.20389 14.0213 3.22202 14.1206 3.30568Z" fill="white"/>
<path fill-rule="evenodd" clip-rule="evenodd" d="M9.0561 7.48924C6.04956 7.48924 3.61229 9.92652 3.61229 12.9331C3.61229 15.1736 4.96593 17.0988 6.90137 17.9339C7.06974 18.0065 7.14733 18.2019 7.07468 18.3703C7.00204 18.5386 6.80666 18.6162 6.63829 18.5436C4.46821 17.6072 2.94824 15.448 2.94824 12.9331C2.94824 9.55978 5.68282 6.8252 9.0561 6.8252C11.2918 6.8252 13.2465 8.02651 14.3107 9.81755C15.0031 9.44387 15.7956 9.23179 16.6369 9.23179C19.3456 9.23179 21.5414 11.4276 21.5414 14.1364C21.5414 16.067 20.4259 17.7364 18.8057 18.5364C18.6413 18.6176 18.4422 18.5502 18.361 18.3857C18.2798 18.2213 18.3473 18.0222 18.5117 17.941C19.914 17.2486 20.8774 15.8047 20.8774 14.1364C20.8774 11.7944 18.9789 9.89584 16.6369 9.89584C15.9056 9.89584 15.2183 10.0807 14.6183 10.4061C14.9688 11.1765 15.164 12.0324 15.164 12.9331C15.164 13.1164 15.0153 13.2651 14.8319 13.2651C14.6486 13.2651 14.4999 13.1164 14.4999 12.9331C14.4999 12.0293 14.28 11.178 13.891 10.4286C12.9841 8.68157 11.159 7.48924 9.0561 7.48924Z" fill="white"/>
<path fill-rule="evenodd" clip-rule="evenodd" d="M15.8471 16.4237C16.0206 16.4831 16.1132 16.6718 16.0538 16.8453L14.6365 20.9882C14.5771 21.1617 14.3884 21.2543 14.2149 21.1949C14.0414 21.1356 13.9488 20.9468 14.0082 20.7733L15.4255 16.6304C15.4849 16.4569 15.6736 16.3644 15.8471 16.4237Z" fill="white"/>
<path fill-rule="evenodd" clip-rule="evenodd" d="M13.4503 16.4241C13.6235 16.4841 13.7154 16.6732 13.6554 16.8465L12.6742 19.6811C12.6142 19.8544 12.4251 19.9462 12.2518 19.8862C12.0785 19.8263 11.9867 19.6372 12.0467 19.4639L13.0279 16.6293C13.0879 16.456 13.277 16.3641 13.4503 16.4241Z" fill="white"/>
<path fill-rule="evenodd" clip-rule="evenodd" d="M11.0521 16.4245C11.2252 16.4851 11.3164 16.6745 11.2558 16.8476L10.9696 17.6652C10.909 17.8383 10.7196 17.9295 10.5466 17.8689C10.3735 17.8084 10.2823 17.6189 10.3429 17.4459L10.629 16.6282C10.6896 16.4551 10.879 16.3639 11.0521 16.4245ZM10.0028 19.4226C10.1758 19.4832 10.267 19.6726 10.2065 19.8457L9.72948 21.2085C9.6689 21.3816 9.47949 21.4728 9.30641 21.4122C9.13334 21.3516 9.04214 21.1622 9.10272 20.9891L9.57969 19.6263C9.64027 19.4533 9.82968 19.3621 10.0028 19.4226Z" fill="white"/>
</svg>
