<svg width="25" height="25" viewBox="0 0 25 25" fill="none" xmlns="http://www.w3.org/2000/svg">
<path fill-rule="evenodd" clip-rule="evenodd" d="M14.249 2.83449C14.4078 2.96834 14.474 3.18246 14.4185 3.38261C14.351 3.6263 14.3148 3.88345 14.3148 4.14985C14.3148 5.7385 15.6103 7.03117 17.2143 7.03117C17.6597 7.03117 18.0801 6.93176 18.4557 6.75463C18.6436 6.66603 18.8658 6.69504 19.0246 6.82889C19.1835 6.96273 19.2497 7.17686 19.1942 7.37701C18.9297 8.33141 18.3151 9.13876 17.4985 9.65576C17.2506 9.81271 16.9224 9.73898 16.7655 9.4911C16.6085 9.24321 16.6823 8.91503 16.9301 8.75808C17.2219 8.57338 17.4779 8.33847 17.686 8.06593C17.5313 8.08423 17.3738 8.09364 17.2143 8.09364C15.0984 8.09364 13.3659 6.44112 13.2577 4.35689C12.7717 4.87263 12.4751 5.56546 12.4751 6.32597C12.4751 6.69477 12.5445 7.04621 12.6707 7.36897C12.7775 7.64222 12.6426 7.95034 12.3694 8.05717C12.0961 8.164 11.788 8.02909 11.6812 7.75584C11.5076 7.31186 11.4126 6.82935 11.4126 6.32597C11.4126 4.74933 12.3418 3.39135 13.68 2.76023C13.8679 2.67164 14.0901 2.70065 14.249 2.83449Z" fill="white"/>
<path fill-rule="evenodd" clip-rule="evenodd" d="M9.0556 7.63473C6.23244 7.63473 3.94381 9.92335 3.94381 12.7465C3.94381 14.8499 5.21429 16.658 7.03241 17.4425C7.36915 17.5878 7.52434 17.9786 7.37904 18.3153C7.23374 18.652 6.84298 18.8072 6.50625 18.6619C4.21885 17.6749 2.61572 15.3987 2.61572 12.7465C2.61572 9.18987 5.49895 6.30664 9.0556 6.30664C11.3023 6.30664 13.2793 7.45725 14.431 9.19907C15.1017 8.88727 15.8493 8.71324 16.6364 8.71324C19.5285 8.71324 21.873 11.0577 21.873 13.9498C21.873 16.0116 20.6813 17.7938 18.9522 18.6476C18.6234 18.81 18.2252 18.675 18.0628 18.3462C17.9004 18.0174 18.0354 17.6192 18.3642 17.4568C19.6576 16.8181 20.5449 15.487 20.5449 13.9498C20.5449 11.7912 18.795 10.0413 16.6364 10.0413C16.0693 10.0413 15.5313 10.1617 15.0459 10.3783C15.3361 11.1119 15.4955 11.9112 15.4955 12.7465C15.4955 13.1133 15.1982 13.4106 14.8314 13.4106C14.4647 13.4106 14.1674 13.1133 14.1674 12.7465C14.1674 11.8973 13.9608 11.0983 13.5958 10.3951C12.7437 8.75369 11.0298 7.63473 9.0556 7.63473Z" fill="white"/>
<path fill-rule="evenodd" clip-rule="evenodd" d="M15.9337 15.9855C16.246 16.0923 16.4125 16.4321 16.3057 16.7444L14.8884 20.8873C14.7815 21.1996 14.4417 21.3661 14.1295 21.2593C13.8172 21.1525 13.6506 20.8127 13.7574 20.5004L15.1747 16.3575C15.2816 16.0452 15.6214 15.8786 15.9337 15.9855Z" fill="white"/>
<path fill-rule="evenodd" clip-rule="evenodd" d="M13.5367 15.9862C13.8486 16.0941 14.014 16.4345 13.906 16.7464L12.9248 19.581C12.8168 19.8929 12.4764 20.0583 12.1645 19.9503C11.8526 19.8423 11.6873 19.502 11.7952 19.1901L12.7765 16.3554C12.8844 16.0435 13.2248 15.8782 13.5367 15.9862Z" fill="white"/>
<path fill-rule="evenodd" clip-rule="evenodd" d="M11.1404 15.9868C11.4519 16.0959 11.6161 16.4368 11.5071 16.7484L11.2209 17.566C11.1118 17.8776 10.7709 18.0417 10.4594 17.9327C10.1478 17.8237 9.98367 17.4827 10.0927 17.1712L10.3789 16.3535C10.4879 16.042 10.8289 15.8778 11.1404 15.9868ZM10.0911 18.985C10.4026 19.094 10.5668 19.435 10.4577 19.7465L9.98074 21.1093C9.8717 21.4208 9.53076 21.585 9.21922 21.476C8.90768 21.3669 8.74353 21.026 8.85256 20.7144L9.32954 19.3517C9.43858 19.0401 9.77952 18.876 10.0911 18.985Z" fill="white"/>
</svg>
