<svg width="25" height="24" viewBox="0 0 25 24" fill="none" xmlns="http://www.w3.org/2000/svg">
<path fill-rule="evenodd" clip-rule="evenodd" d="M12.3724 9.29633C10.3186 9.29633 8.65375 10.9612 8.65375 13.015C8.65375 13.973 9.0148 14.8445 9.60977 15.5042C9.95362 15.8855 9.92326 16.4734 9.54196 16.8172C9.16066 17.1611 8.57282 17.1307 8.22897 16.7494C7.33797 15.7614 6.79443 14.4506 6.79443 13.015C6.79443 9.93435 9.29177 7.43701 12.3724 7.43701C15.453 7.43701 17.9504 9.93435 17.9504 13.015C17.9504 13.5284 17.5341 13.9446 17.0207 13.9446C16.5073 13.9446 16.091 13.5284 16.091 13.015C16.091 10.9612 14.4261 9.29633 12.3724 9.29633Z" fill="white"/>
<path fill-rule="evenodd" clip-rule="evenodd" d="M1.81348 13.0146C1.81348 12.4645 2.25943 12.0186 2.80954 12.0186H4.44359C4.9937 12.0186 5.43966 12.4645 5.43966 13.0146C5.43966 13.5647 4.9937 14.0107 4.44359 14.0107H2.80954C2.25943 14.0107 1.81348 13.5647 1.81348 13.0146ZM19.3039 13.0146C19.3039 12.4645 19.7498 12.0186 20.2999 12.0186H21.934C22.4841 12.0186 22.93 12.4645 22.93 13.0146C22.93 13.5647 22.4841 14.0107 21.934 14.0107H20.2999C19.7498 14.0107 19.3039 13.5647 19.3039 13.0146Z" fill="white"/>
<path fill-rule="evenodd" clip-rule="evenodd" d="M4.89475 20.469C4.50577 20.08 4.50577 19.4493 4.89475 19.0603L6.0502 17.9049C6.43919 17.5159 7.06986 17.5159 7.45885 17.9049C7.84784 18.2939 7.84784 18.9245 7.45885 19.3135L6.3034 20.469C5.91441 20.858 5.28374 20.858 4.89475 20.469ZM17.2623 8.1014C16.8733 7.71241 16.8733 7.08174 17.2623 6.69275L18.4178 5.53731C18.8068 5.14832 19.4374 5.14832 19.8264 5.53731C20.2154 5.92629 20.2154 6.55697 19.8264 6.94595L18.671 8.1014C18.282 8.49039 17.6513 8.49039 17.2623 8.1014Z" fill="white"/>
<path fill-rule="evenodd" clip-rule="evenodd" d="M4.90652 5.54856C5.2955 5.15957 5.92618 5.15957 6.31516 5.54856L7.47061 6.70401C7.8596 7.093 7.8596 7.72367 7.47061 8.11266C7.08162 8.50165 6.45095 8.50165 6.06196 8.11266L4.90652 6.95721C4.51753 6.56822 4.51753 5.93755 4.90652 5.54856Z" fill="white"/>
<path fill-rule="evenodd" clip-rule="evenodd" d="M12.3711 2.45605C12.9212 2.45605 13.3672 2.90201 13.3672 3.45212L13.3672 5.08617C13.3672 5.63628 12.9212 6.08223 12.3711 6.08223C11.821 6.08223 11.3751 5.63628 11.3751 5.08617L11.3751 3.45212C11.3751 2.90201 11.821 2.45605 12.3711 2.45605Z" fill="white"/>
<path d="M13.6999 19.4022C13.6999 20.1477 13.0955 20.7521 12.3499 20.7521C11.6044 20.7521 11 20.1477 11 19.4022C11 18.6566 11.6044 18.0522 12.3499 18.0522C13.0955 18.0522 13.6999 18.6566 13.6999 19.4022Z" fill="white"/>
<path d="M16.9152 16.4451C16.9152 17.1907 16.3108 17.7951 15.5653 17.7951C14.8197 17.7951 14.2153 17.1907 14.2153 16.4451C14.2153 15.6996 14.8197 15.0952 15.5653 15.0952C16.3108 15.0952 16.9152 15.6996 16.9152 16.4451Z" fill="white"/>
<path d="M20.0002 19.5316C20.0002 20.2771 19.3958 20.8815 18.6502 20.8815C17.9047 20.8815 17.3003 20.2771 17.3003 19.5316C17.3003 18.786 17.9047 18.1816 18.6502 18.1816C19.3958 18.1816 20.0002 18.786 20.0002 19.5316Z" fill="white"/>
</svg>
