<svg width="25" height="24" viewBox="0 0 25 24" fill="none" xmlns="http://www.w3.org/2000/svg">
<path fill-rule="evenodd" clip-rule="evenodd" d="M9.0085 2.20995C9.28693 2.44377 9.40349 2.81845 9.30686 3.16896C9.11454 3.86649 9.01152 4.60206 9.01152 5.36318C9.01152 9.91076 12.6981 13.5973 17.2457 13.5973C18.508 13.5973 19.7016 13.3139 20.7685 12.808C21.097 12.6523 21.4862 12.7023 21.7646 12.9362C22.043 13.17 22.1596 13.5447 22.063 13.8952C21.596 15.5889 20.6995 17.1028 19.4995 18.3131C19.138 18.6777 18.5494 18.6802 18.1848 18.3188C17.8202 17.9573 17.8177 17.3686 18.1792 17.004C18.7107 16.4679 19.1688 15.8595 19.5374 15.1951C18.8007 15.3662 18.0334 15.4566 17.2457 15.4566C11.6712 15.4566 7.1522 10.9376 7.1522 5.36318C7.1522 5.17165 7.15754 4.98131 7.1681 4.79231C5.29471 6.30232 4.0976 8.61532 4.0976 11.2068C4.0976 12.1042 4.24084 12.9664 4.505 13.7727C4.66486 14.2606 4.3989 14.7857 3.91099 14.9456C3.42307 15.1054 2.89794 14.8395 2.73809 14.3516C2.41347 13.3607 2.23828 12.3033 2.23828 11.2068C2.23828 7.17623 4.60074 3.69935 8.01236 2.08183C8.34089 1.92607 8.73008 1.97612 9.0085 2.20995Z" fill="white"/>
<path d="M7.41691 19.4555C7.41691 20.2257 6.79258 20.85 6.02242 20.85C5.25226 20.85 4.62793 20.2257 4.62793 19.4555C4.62793 18.6854 5.25226 18.061 6.02242 18.061C6.79258 18.061 7.41691 18.6854 7.41691 19.4555Z" fill="white"/>
<path d="M10.7387 16.4013C10.7387 17.1715 10.1144 17.7958 9.3442 17.7958C8.57404 17.7958 7.94971 17.1715 7.94971 16.4013C7.94971 15.6312 8.57404 15.0068 9.3442 15.0068C10.1144 15.0068 10.7387 15.6312 10.7387 16.4013Z" fill="white"/>
<path d="M13.9252 19.5893C13.9252 20.3595 13.3009 20.9838 12.5307 20.9838C11.7606 20.9838 11.1362 20.3595 11.1362 19.5893C11.1362 18.8192 11.7606 18.1948 12.5307 18.1948C13.3009 18.1948 13.9252 18.8192 13.9252 19.5893Z" fill="white"/>
</svg>
