<svg width="25" height="25" viewBox="0 0 25 25" fill="none" xmlns="http://www.w3.org/2000/svg">
<path fill-rule="evenodd" clip-rule="evenodd" d="M9.09257 5.63082C5.9386 5.63082 3.3818 8.18762 3.3818 11.3416C3.3818 13.6915 4.80129 15.7114 6.83228 16.5878C7.16902 16.7331 7.32421 17.1238 7.17891 17.4606C7.03361 17.7973 6.64285 17.9525 6.30612 17.8072C3.80584 16.7284 2.05371 14.2403 2.05371 11.3416C2.05371 7.45414 5.20511 4.30273 9.09257 4.30273C11.5695 4.30273 13.7467 5.58226 15.0007 7.51406C15.7458 7.15814 16.58 6.95891 17.4595 6.95891C20.6135 6.95891 23.1703 9.5157 23.1703 12.6697C23.1703 14.9181 21.8709 16.8617 19.985 17.7929C19.6562 17.9553 19.258 17.8203 19.0956 17.4915C18.9332 17.1627 19.0682 16.7645 19.397 16.6021C20.8471 15.8861 21.8422 14.3935 21.8422 12.6697C21.8422 10.2492 19.88 8.28699 17.4595 8.28699C16.8001 8.28699 16.1757 8.43224 15.6157 8.69239C15.9483 9.51072 16.1314 10.4054 16.1314 11.3416C16.1314 11.7083 15.8341 12.0056 15.4674 12.0056C15.1006 12.0056 14.8033 11.7083 14.8033 11.3416C14.8033 10.393 14.5726 9.50026 14.1647 8.71457C13.2129 6.88104 11.2982 5.63082 9.09257 5.63082Z" fill="white"/>
<path d="M11.0844 19.7744C11.0844 20.3245 10.6385 20.7704 10.0883 20.7704C9.53824 20.7704 9.09229 20.3245 9.09229 19.7744C9.09229 19.2243 9.53824 18.7783 10.0883 18.7783C10.6385 18.7783 11.0844 19.2243 11.0844 19.7744Z" fill="white"/>
<path d="M14.1391 16.1894C14.1391 16.7395 13.6931 17.1855 13.143 17.1855C12.5929 17.1855 12.147 16.7395 12.147 16.1894C12.147 15.6393 12.5929 15.1934 13.143 15.1934C13.6931 15.1934 14.1391 15.6393 14.1391 16.1894Z" fill="white"/>
<path d="M17.3266 19.9082C17.3266 20.4583 16.8806 20.9042 16.3305 20.9042C15.7804 20.9042 15.3345 20.4583 15.3345 19.9082C15.3345 19.3581 15.7804 18.9121 16.3305 18.9121C16.8806 18.9121 17.3266 19.3581 17.3266 19.9082Z" fill="white"/>
</svg>
