<svg width="25" height="25" viewBox="0 0 25 25" fill="none" xmlns="http://www.w3.org/2000/svg">
<path fill-rule="evenodd" clip-rule="evenodd" d="M9.09209 6.01658C5.75475 6.01658 3.0493 8.72203 3.0493 12.0594C3.0493 14.5465 4.55195 16.6835 6.70027 17.6104C6.86863 17.6831 6.94623 17.8785 6.87358 18.0468C6.80093 18.2152 6.60555 18.2928 6.43718 18.2201C4.05422 17.1919 2.38525 14.8209 2.38525 12.0594C2.38525 8.35529 5.38801 5.35254 9.09209 5.35254C11.5589 5.35254 13.7141 6.68439 14.8788 8.6669C15.645 8.24727 16.5246 8.00871 17.459 8.00871C20.4296 8.00871 22.8378 10.4169 22.8378 13.3875C22.8378 15.5047 21.6144 17.3356 19.8375 18.213C19.6731 18.2942 19.474 18.2267 19.3928 18.0623C19.3117 17.8979 19.3791 17.6988 19.5435 17.6176C21.1026 16.8478 22.1737 15.2424 22.1737 13.3875C22.1737 10.7836 20.0629 8.67275 17.459 8.67275C16.6345 8.67275 15.8602 8.88413 15.1864 9.25556C15.5797 10.109 15.7989 11.059 15.7989 12.0594C15.7989 12.2427 15.6503 12.3914 15.4669 12.3914C15.2835 12.3914 15.1349 12.2427 15.1349 12.0594C15.1349 11.0563 14.8907 10.1112 14.4589 9.27938C13.4523 7.34018 11.4265 6.01658 9.09209 6.01658Z" fill="white"/>
<path d="M10.8164 19.7617C10.8164 20.128 10.5196 20.4248 10.1533 20.4248C9.78711 20.4248 9.49023 20.128 9.49023 19.7617C9.49023 19.3955 9.78711 19.0986 10.1533 19.0986C10.5196 19.0986 10.8164 19.3955 10.8164 19.7617Z" fill="white"/>
<path d="M13.8711 16.1753C13.8711 16.5415 13.5742 16.8384 13.208 16.8384C12.8418 16.8384 12.5449 16.5415 12.5449 16.1753C12.5449 15.8091 12.8418 15.5122 13.208 15.5122C13.5742 15.5122 13.8711 15.8091 13.8711 16.1753Z" fill="white"/>
<path d="M17.0591 19.8945C17.0591 20.2608 16.7622 20.5576 16.396 20.5576C16.0298 20.5576 15.7329 20.2608 15.7329 19.8945C15.7329 19.5283 16.0298 19.2314 16.396 19.2314C16.7622 19.2314 17.0591 19.5283 17.0591 19.8945Z" fill="white"/>
</svg>
