<svg width="25" height="25" viewBox="0 0 25 25" fill="none" xmlns="http://www.w3.org/2000/svg">
<path fill-rule="evenodd" clip-rule="evenodd" d="M8.62369 3.57093C8.72313 3.65444 8.76476 3.78826 8.73024 3.91344C8.5238 4.66223 8.41341 5.45121 8.41341 6.26651C8.41341 11.1442 12.3675 15.0983 17.2452 15.0983C18.598 15.0983 19.8788 14.7944 21.024 14.2514C21.1414 14.1958 21.2804 14.2136 21.3798 14.2971C21.4792 14.3807 21.5209 14.5145 21.4864 14.6397C21.0473 16.2321 20.2041 17.6565 19.0747 18.7957C18.9456 18.9259 18.7353 18.9268 18.6051 18.7977C18.4749 18.6686 18.474 18.4584 18.6031 18.3281C19.4909 17.4327 20.188 16.3486 20.6291 15.1416C19.5776 15.5427 18.4367 15.7623 17.2452 15.7623C12.0008 15.7623 7.74937 11.5109 7.74937 6.26651C7.74937 5.64763 7.80862 5.04233 7.92182 4.45605C5.27792 5.98252 3.49949 8.8389 3.49949 12.1101C3.49949 13.0715 3.653 13.9965 3.9366 14.8621C3.99369 15.0364 3.89871 15.2239 3.72445 15.281C3.55019 15.3381 3.36265 15.2431 3.30556 15.0688C3.00037 14.1373 2.83545 13.1426 2.83545 12.1101C2.83545 8.31903 5.05705 5.04752 8.26792 3.52518C8.38526 3.46955 8.52425 3.48743 8.62369 3.57093Z" fill="white"/>
<path d="M6.75198 19.8945C6.75198 20.2608 6.4551 20.5576 6.08888 20.5576C5.72266 20.5576 5.42578 20.2608 5.42578 19.8945C5.42578 19.5283 5.72266 19.2314 6.08888 19.2314C6.4551 19.2314 6.75198 19.5283 6.75198 19.8945Z" fill="white"/>
<path d="M9.80667 16.9727C9.80667 17.3389 9.50979 17.6358 9.14357 17.6358C8.77735 17.6358 8.48047 17.3389 8.48047 16.9727C8.48047 16.6065 8.77735 16.3096 9.14357 16.3096C9.50979 16.3096 9.80667 16.6065 9.80667 16.9727Z" fill="white"/>
<path d="M12.9932 20.0274C12.9932 20.3936 12.6963 20.6905 12.3301 20.6905C11.9639 20.6905 11.667 20.3936 11.667 20.0274C11.667 19.6611 11.9639 19.3643 12.3301 19.3643C12.6963 19.3643 12.9932 19.6611 12.9932 20.0274Z" fill="white"/>
</svg>
