<svg width="25" height="24" viewBox="0 0 25 24" fill="none" xmlns="http://www.w3.org/2000/svg">
<path fill-rule="evenodd" clip-rule="evenodd" d="M8.988 2.07665C9.26642 2.31047 9.38299 2.68515 9.28635 3.03566C9.09403 3.73319 8.99101 4.46876 8.99101 5.22988C8.99101 9.77746 12.6776 13.464 17.2251 13.464C18.4875 13.464 19.6811 13.1806 20.748 12.6747C21.0765 12.519 21.4657 12.569 21.7441 12.8029C22.0225 13.0367 22.1391 13.4114 22.0425 13.7619C21.5755 15.4556 20.679 16.9695 19.479 18.1798C19.1175 18.5444 18.5289 18.5469 18.1643 18.1854C17.7997 17.824 17.7972 17.2353 18.1587 16.8707C18.6902 16.3346 19.1483 15.7262 19.5169 15.0618C18.7802 15.2329 18.0129 15.3233 17.2251 15.3233C11.6507 15.3233 7.13169 10.8043 7.13169 5.22988C7.13169 5.03835 7.13704 4.84801 7.14759 4.65901C5.2742 6.16902 4.07709 8.48202 4.07709 11.0735C4.07709 11.9709 4.22033 12.8331 4.4845 13.6394C4.64435 14.1273 4.3784 14.6524 3.89048 14.8123C3.40256 14.9721 2.87744 14.7062 2.71759 14.2183C2.39296 13.2274 2.21777 12.17 2.21777 11.0735C2.21777 7.04293 4.58023 3.56605 7.99185 1.94853C8.32039 1.79277 8.70957 1.84282 8.988 2.07665Z" fill="white"/>
<path fill-rule="evenodd" clip-rule="evenodd" d="M8.99855 14.3423C9.36529 14.3423 9.66259 14.6396 9.66259 15.0063V15.7827L10.439 15.7827C10.8058 15.7827 11.1031 16.08 11.1031 16.4468C11.1031 16.8135 10.8058 17.1108 10.439 17.1108H9.66259V17.8873C9.66259 18.254 9.36529 18.5513 8.99855 18.5513C8.63181 18.5513 8.33451 18.254 8.33451 17.8873V17.1108H7.55809C7.19135 17.1108 6.89404 16.8135 6.89404 16.4468C6.89404 16.08 7.19135 15.7827 7.55809 15.7827L8.33451 15.7827V15.0063C8.33451 14.6396 8.63181 14.3423 8.99855 14.3423Z" fill="white"/>
<path fill-rule="evenodd" clip-rule="evenodd" d="M5.51808 17.7041C5.88482 17.7041 6.18212 18.0014 6.18212 18.3681V19.1446L6.95854 19.1446C7.32528 19.1446 7.62258 19.4419 7.62258 19.8086C7.62258 20.1753 7.32528 20.4726 6.95854 20.4726H6.18212V21.2491C6.18212 21.6158 5.88482 21.9131 5.51808 21.9131C5.15134 21.9131 4.85404 21.6158 4.85404 21.2491V20.4726H4.07762C3.71088 20.4726 3.41357 20.1753 3.41357 19.8086C3.41357 19.4419 3.71088 19.1446 4.07762 19.1446L4.85404 19.1446V18.3681C4.85404 18.0014 5.15134 17.7041 5.51808 17.7041Z" fill="white"/>
<path fill-rule="evenodd" clip-rule="evenodd" d="M12.6001 17.7041C12.9669 17.7041 13.2642 18.0014 13.2642 18.3681V19.1446L14.0406 19.1446C14.4073 19.1446 14.7046 19.4419 14.7046 19.8086C14.7046 20.1753 14.4073 20.4726 14.0406 20.4726H13.2642V21.2491C13.2642 21.6158 12.9669 21.9131 12.6001 21.9131C12.2334 21.9131 11.9361 21.6158 11.9361 21.2491V20.4726H11.1596C10.7929 20.4726 10.4956 20.1753 10.4956 19.8086C10.4956 19.4419 10.7929 19.1446 11.1596 19.1446L11.9361 19.1446V18.3681C11.9361 18.0014 12.2334 17.7041 12.6001 17.7041Z" fill="white"/>
</svg>
