<svg width="25" height="25" viewBox="0 0 25 25" fill="none" xmlns="http://www.w3.org/2000/svg">
<path fill-rule="evenodd" clip-rule="evenodd" d="M9.33818 6.54734C6.00084 6.54734 3.29539 9.25279 3.29539 12.5901C3.29539 15.0773 4.79804 17.2142 6.94636 18.1412C7.11472 18.2138 7.19232 18.4092 7.11967 18.5776C7.04702 18.7459 6.85164 18.8235 6.68328 18.7509C4.30032 17.7227 2.63135 15.3517 2.63135 12.5901C2.63135 8.88605 5.6341 5.8833 9.33818 5.8833C11.805 5.8833 13.9602 7.21515 15.1249 9.19766C15.8911 8.77803 16.7707 8.53947 17.7051 8.53947C20.6757 8.53947 23.0839 10.9476 23.0839 13.9182C23.0839 16.0355 21.8605 17.8663 20.0836 18.7437C19.9192 18.8249 19.7201 18.7575 19.6389 18.593C19.5577 18.4286 19.6252 18.2295 19.7896 18.1483C21.3487 17.3785 22.4198 15.7732 22.4198 13.9182C22.4198 11.3144 20.309 9.20352 17.7051 9.20352C16.8806 9.20352 16.1063 9.41489 15.4325 9.78633C15.8258 10.6398 16.045 11.5897 16.045 12.5901C16.045 12.7735 15.8964 12.9222 15.713 12.9222C15.5296 12.9222 15.381 12.7735 15.381 12.5901C15.381 11.5871 15.1368 10.642 14.705 9.81014C13.6984 7.87094 11.6726 6.54734 9.33818 6.54734Z" fill="white"/>
<path fill-rule="evenodd" clip-rule="evenodd" d="M13.3217 16.3096C13.4684 16.3096 13.5873 16.4285 13.5873 16.5752V17.9033H14.9154C15.0621 17.9033 15.181 18.0222 15.181 18.1689C15.181 18.3156 15.0621 18.4345 14.9154 18.4345H13.5873V19.7626C13.5873 19.9093 13.4684 20.0282 13.3217 20.0282C13.175 20.0282 13.0561 19.9093 13.0561 19.7626V18.4345H11.728C11.5813 18.4345 11.4624 18.3156 11.4624 18.1689C11.4624 18.0222 11.5813 17.9033 11.728 17.9033H13.0561V16.5752C13.0561 16.4285 13.175 16.3096 13.3217 16.3096Z" fill="white"/>
<path fill-rule="evenodd" clip-rule="evenodd" d="M9.47065 20.0288C9.61734 20.0288 9.73627 20.1477 9.73627 20.2944V21.6225H11.0644C11.211 21.6225 11.33 21.7414 11.33 21.8881C11.33 22.0348 11.211 22.1537 11.0644 22.1537H9.73627V23.4818C9.73627 23.6285 9.61734 23.7474 9.47065 23.7474C9.32395 23.7474 9.20503 23.6285 9.20503 23.4818V22.1537H7.87695C7.73025 22.1537 7.61133 22.0348 7.61133 21.8881C7.61133 21.7414 7.73025 21.6225 7.87695 21.6225H9.20503V20.2944C9.20503 20.1477 9.32395 20.0288 9.47065 20.0288Z" fill="white"/>
<path fill-rule="evenodd" clip-rule="evenodd" d="M17.3061 20.0288C17.4528 20.0288 17.5717 20.1477 17.5717 20.2944V21.6225H18.8998C19.0465 21.6225 19.1654 21.7414 19.1654 21.8881C19.1654 22.0348 19.0465 22.1537 18.8998 22.1537H17.5717V23.4818C17.5717 23.6285 17.4528 23.7474 17.3061 23.7474C17.1594 23.7474 17.0405 23.6285 17.0405 23.4818V22.1537H15.7124C15.5657 22.1537 15.4468 22.0348 15.4468 21.8881C15.4468 21.7414 15.5657 21.6225 15.7124 21.6225H17.0405V20.2944C17.0405 20.1477 17.1594 20.0288 17.3061 20.0288Z" fill="white"/>
</svg>
