<svg width="25" height="25" viewBox="0 0 25 25" fill="none" xmlns="http://www.w3.org/2000/svg">
<path fill-rule="evenodd" clip-rule="evenodd" d="M8.81767 2.46609C9.01655 2.63311 9.09981 2.90073 9.03078 3.1511C8.83219 3.87141 8.72589 4.63072 8.72589 5.41592C8.72589 10.1102 12.5314 13.9157 17.2256 13.9157C18.5282 13.9157 19.7606 13.6231 20.8623 13.1008C21.0969 12.9895 21.3749 13.0253 21.5738 13.1923C21.7727 13.3593 21.8559 13.6269 21.7869 13.8773C21.3323 15.526 20.4595 17.0002 19.2909 18.1788C19.0327 18.4393 18.6122 18.4411 18.3518 18.1829C18.0914 17.9247 18.0896 17.5042 18.3478 17.2438C19.0365 16.5491 19.6059 15.7367 20.0231 14.8397C19.136 15.1027 18.1969 15.2438 17.2256 15.2438C11.7979 15.2438 7.3978 10.8437 7.3978 5.41592C7.3978 5.03096 7.41997 4.65099 7.46312 4.27726C5.25557 5.81313 3.81197 8.36821 3.81197 11.2595C3.81197 12.1854 3.95978 13.0755 4.23258 13.9081C4.34676 14.2566 4.15679 14.6317 3.80828 14.7459C3.45976 14.8601 3.08468 14.6701 2.9705 14.3216C2.65451 13.3571 2.48389 12.3276 2.48389 11.2595C2.48389 7.3354 4.78374 3.9498 8.10614 2.37458C8.34081 2.26332 8.6188 2.29907 8.81767 2.46609Z" fill="white"/>
<path fill-rule="evenodd" clip-rule="evenodd" d="M8.99855 14.5293C9.36529 14.5293 9.66259 14.8266 9.66259 15.1933V15.9698L10.439 15.9698C10.8058 15.9698 11.1031 16.2671 11.1031 16.6338C11.1031 17.0005 10.8058 17.2978 10.439 17.2978H9.66259V18.0743C9.66259 18.441 9.36529 18.7383 8.99855 18.7383C8.63181 18.7383 8.33451 18.441 8.33451 18.0743V17.2978H7.55809C7.19135 17.2978 6.89404 17.0005 6.89404 16.6338C6.89404 16.2671 7.19135 15.9698 7.55809 15.9698L8.33451 15.9698V15.1933C8.33451 14.8266 8.63181 14.5293 8.99855 14.5293Z" fill="white"/>
<path fill-rule="evenodd" clip-rule="evenodd" d="M5.51808 17.8901C5.88482 17.8901 6.18212 18.1874 6.18212 18.5542V19.3306L6.95854 19.3306C7.32528 19.3306 7.62258 19.6279 7.62258 19.9946C7.62258 20.3614 7.32528 20.6587 6.95854 20.6587H6.18212V21.4351C6.18212 21.8018 5.88482 22.0991 5.51808 22.0991C5.15134 22.0991 4.85404 21.8018 4.85404 21.4351V20.6587H4.07762C3.71088 20.6587 3.41357 20.3614 3.41357 19.9946C3.41357 19.6279 3.71088 19.3306 4.07762 19.3306L4.85404 19.3306V18.5542C4.85404 18.1874 5.15134 17.8901 5.51808 17.8901Z" fill="white"/>
<path fill-rule="evenodd" clip-rule="evenodd" d="M12.6001 17.8901C12.9669 17.8901 13.2642 18.1874 13.2642 18.5542V19.3306L14.0406 19.3306C14.4073 19.3306 14.7046 19.6279 14.7046 19.9946C14.7046 20.3614 14.4073 20.6587 14.0406 20.6587H13.2642V21.4351C13.2642 21.8018 12.9669 22.0991 12.6001 22.0991C12.2334 22.0991 11.9361 21.8018 11.9361 21.4351V20.6587H11.1596C10.7929 20.6587 10.4956 20.3614 10.4956 19.9946C10.4956 19.6279 10.7929 19.3306 11.1596 19.3306L11.9361 19.3306V18.5542C11.9361 18.1874 12.2334 17.8901 12.6001 17.8901Z" fill="white"/>
</svg>
