<svg width="25" height="24" viewBox="0 0 25 24" fill="none" xmlns="http://www.w3.org/2000/svg">
<path fill-rule="evenodd" clip-rule="evenodd" d="M9.33719 6.77241C6.32991 6.77241 3.89204 9.21028 3.89204 12.2176C3.89204 14.4577 5.245 16.384 7.18214 17.2199C7.65356 17.4233 7.87083 17.9704 7.66741 18.4418C7.464 18.9132 6.91694 19.1305 6.44551 18.9271C3.85137 17.8077 2.03271 15.2261 2.03271 12.2176C2.03271 8.18341 5.30304 4.91309 9.33719 4.91309C11.8256 4.91309 14.0222 6.1576 15.3403 8.05521C16.0659 7.74247 16.8655 7.56926 17.7041 7.56926C21.0048 7.56926 23.6805 10.245 23.6805 13.5456C23.6805 15.899 22.3202 17.9328 20.3473 18.907C19.8869 19.1344 19.3294 18.9454 19.1021 18.4851C18.8747 18.0247 19.0637 17.4672 19.524 17.2399C20.887 16.5669 21.8212 15.1645 21.8212 13.5456C21.8212 11.2719 19.9779 9.42858 17.7041 9.42858C17.1725 9.42858 16.6655 9.52893 16.2002 9.71163C16.4859 10.4939 16.6417 11.3383 16.6417 12.2176C16.6417 12.731 16.2254 13.1472 15.712 13.1472C15.1986 13.1472 14.7823 12.731 14.7823 12.2176C14.7823 11.3126 14.5623 10.4617 14.1736 9.71291C13.2657 7.96392 11.4398 6.77241 9.33719 6.77241Z" fill="white"/>
<path fill-rule="evenodd" clip-rule="evenodd" d="M13.3212 15.4053C13.7613 15.4053 14.1181 15.762 14.1181 16.2021V16.999H14.9149C15.355 16.999 15.7118 17.3557 15.7118 17.7958C15.7118 18.2359 15.355 18.5927 14.9149 18.5927H14.1181V19.3895C14.1181 19.8296 13.7613 20.1864 13.3212 20.1864C12.8811 20.1864 12.5244 19.8296 12.5244 19.3895V18.5927H11.7275C11.2874 18.5927 10.9307 18.2359 10.9307 17.7958C10.9307 17.3557 11.2874 16.999 11.7275 16.999H12.5244V16.2021C12.5244 15.762 12.8811 15.4053 13.3212 15.4053Z" fill="white"/>
<path fill-rule="evenodd" clip-rule="evenodd" d="M9.47014 19.1245C9.91023 19.1245 10.267 19.4813 10.267 19.9214V20.7182H11.0638C11.5039 20.7182 11.8607 21.075 11.8607 21.5151C11.8607 21.9552 11.5039 22.3119 11.0638 22.3119H10.267V23.1088C10.267 23.5489 9.91023 23.9056 9.47014 23.9056C9.03006 23.9056 8.67329 23.5489 8.67329 23.1088V22.3119H7.87644C7.43635 22.3119 7.07959 21.9552 7.07959 21.5151C7.07959 21.075 7.43635 20.7182 7.87644 20.7182H8.67329V19.9214C8.67329 19.4813 9.03006 19.1245 9.47014 19.1245Z" fill="white"/>
<path fill-rule="evenodd" clip-rule="evenodd" d="M17.3066 19.1245C17.7467 19.1245 18.1034 19.4813 18.1034 19.9214V20.7182H18.9003C19.3404 20.7182 19.6971 21.075 19.6971 21.5151C19.6971 21.9552 19.3404 22.3119 18.9003 22.3119H18.1034V23.1088C18.1034 23.5489 17.7467 23.9056 17.3066 23.9056C16.8665 23.9056 16.5097 23.5489 16.5097 23.1088V22.3119H15.7129C15.2728 22.3119 14.916 21.9552 14.916 21.5151C14.916 21.075 15.2728 20.7182 15.7129 20.7182H16.5097V19.9214C16.5097 19.4813 16.8665 19.1245 17.3066 19.1245Z" fill="white"/>
</svg>
