<svg width="180" height="180" viewBox="0 0 180 180" fill="none" xmlns="http://www.w3.org/2000/svg">
<path fill-rule="evenodd" clip-rule="evenodd" d="M60.2445 42.1671C52.7939 47.3496 48.7379 54.0979 48.7379 61.0687C48.7379 68.0395 52.7939 74.7878 60.2445 79.9703C67.6821 85.1439 78.1886 88.4809 90 88.4809C101.811 88.4809 112.318 85.1439 119.756 79.9703C127.206 74.7878 131.262 68.0395 131.262 61.0687C131.262 54.0979 127.206 47.3496 119.756 42.1671C112.318 36.9935 101.811 33.6565 90 33.6565C78.1886 33.6565 67.6821 36.9935 60.2445 42.1671ZM55.2234 35.0825C64.301 28.7683 76.61 25 90 25C103.39 25 115.699 28.7683 124.777 35.0825C133.841 41.3878 140 50.5098 140 61.0687C140 71.6276 133.841 80.7496 124.777 87.0549C115.699 93.3691 103.39 97.1374 90 97.1374C81.4438 97.1374 73.329 95.5987 66.2167 92.8403C60.7394 96.1074 58.4466 99.864 58.4466 103.119C58.4466 106.519 60.9578 110.473 66.9523 113.823C72.8123 117.097 81.2016 119.26 90.706 119.26C98.0329 119.26 104.729 117.973 110.117 115.86C115.567 113.722 119.359 110.871 121.33 107.976C122.679 105.995 125.394 105.472 127.395 106.809C129.395 108.146 129.923 110.836 128.573 112.818C125.293 117.635 119.784 121.378 113.334 123.908C113.014 124.034 112.691 124.157 112.364 124.277C114.405 126.713 115.728 129.655 115.728 133.026C115.728 138.943 111.663 143.529 106.763 146.4C101.766 149.329 95.1478 151 88.0725 151C79.8406 151 72.1473 148.732 66.9504 144.777C65.0368 143.321 64.677 140.604 66.1468 138.708C67.6165 136.812 70.3593 136.456 72.2729 137.912C75.5914 140.437 81.2691 142.344 88.0725 142.344C93.8581 142.344 98.8833 140.96 102.314 138.95C105.843 136.882 106.99 134.646 106.99 133.026C106.99 131.451 105.913 129.3 102.595 127.271C102.441 127.176 102.295 127.074 102.157 126.964C98.5125 127.586 94.6677 127.916 90.706 127.916C79.9812 127.916 70.0563 125.496 62.6594 121.363C55.3971 117.304 49.7087 111.023 49.7087 103.119C49.7087 97.2669 52.8323 92.3013 57.3912 88.4765C56.6499 88.0183 55.927 87.5442 55.2234 87.0549C46.1588 80.7496 40 71.6276 40 61.0687C40 50.5098 46.1588 41.3878 55.2234 35.0825Z" fill="white"/>
</svg>
