<svg width="180" height="180" viewBox="0 0 180 180" fill="none" xmlns="http://www.w3.org/2000/svg">
<path fill-rule="evenodd" clip-rule="evenodd" d="M59.8085 40.4282C52.1712 45.7645 47.7475 52.912 47.7475 60.5433C47.7475 68.1746 52.1712 75.3221 59.8085 80.6584C67.4388 85.9898 78.1056 89.3622 90 89.3622C101.894 89.3622 112.561 85.9898 120.192 80.6584C127.829 75.3221 132.253 68.1746 132.253 60.5433C132.253 52.912 127.829 45.7645 120.192 40.4282C112.561 35.0968 101.894 31.7244 90 31.7244C78.1056 31.7244 67.4388 35.0968 59.8085 40.4282ZM57.0804 36.5617C65.6017 30.6077 77.2479 27 90 27C102.752 27 114.398 30.6077 122.92 36.5617C131.434 42.5107 137 50.9537 137 60.5433C137 70.1329 131.434 78.5759 122.92 84.5249C114.398 90.4789 102.752 94.0866 90 94.0866C81.4681 94.0866 73.4313 92.4716 66.4941 89.6195C66.3562 89.756 66.199 89.8777 66.0236 89.9804C60.2094 93.3874 57.2424 97.6507 57.2424 101.853C57.2424 106.176 60.3888 110.568 66.5269 114.014C72.5918 117.418 81.1301 119.598 90.6905 119.598C98.0709 119.598 104.86 118.298 110.373 116.126C115.92 113.94 120.002 110.944 122.214 107.681C122.947 106.6 124.422 106.314 125.509 107.044C126.596 107.774 126.883 109.242 126.15 110.323C123.226 114.636 118.211 118.119 112.121 120.519C110.924 120.99 109.678 121.423 108.39 121.814C111.31 124.299 113.263 127.509 113.263 131.233C113.263 136.107 109.921 140.099 105.427 142.745C100.88 145.421 94.7541 147 88.1149 147C80.3748 147 73.2889 144.851 68.6147 141.278C67.575 140.483 67.3795 139 68.1781 137.966C68.9766 136.931 70.4668 136.737 71.5065 137.531C75.1602 140.324 81.1509 142.276 88.1149 142.276C94.0534 142.276 99.3142 140.854 103.01 138.678C106.759 136.472 108.515 133.762 108.515 131.233C108.515 128.774 106.86 126.148 103.316 123.971C103.003 123.778 102.75 123.525 102.564 123.236C98.8205 123.943 94.8277 124.323 90.6905 124.323C80.467 124.323 71.0944 122.002 64.1944 118.129C57.3675 114.296 52.4949 108.634 52.4949 101.853C52.4949 95.9991 56.1291 90.9772 61.505 87.2533C59.9524 86.4104 58.4746 85.499 57.0804 84.5249C48.5662 78.5759 43 70.1329 43 60.5433C43 50.9537 48.5662 42.5107 57.0804 36.5617Z" fill="white"/>
</svg>
