<svg width="180" height="180" viewBox="0 0 180 180" fill="none" xmlns="http://www.w3.org/2000/svg">
<path fill-rule="evenodd" clip-rule="evenodd" d="M32.9374 97.891C29.2513 100.523 27.5 103.754 27.5 106.852C27.5 109.951 29.2513 113.182 32.9374 115.814C36.6149 118.44 41.926 120.205 48 120.205C54.074 120.205 59.3851 118.44 63.0626 115.814C66.7487 113.182 68.5 109.951 68.5 106.852C68.5 103.754 66.7487 100.523 63.0626 97.891C59.3851 95.2649 54.074 93.5 48 93.5C41.926 93.5 36.6149 95.2649 32.9374 97.891ZM27.7072 90.5667C33.078 86.7315 40.2669 84.5 48 84.5C55.7331 84.5 62.922 86.7315 68.2928 90.5667C73.6549 94.3958 77.5 100.092 77.5 106.852C77.5 113.613 73.6549 119.309 68.2928 123.138C62.922 126.973 55.7331 129.205 48 129.205C43.357 129.205 38.9102 128.401 34.9353 126.928C33.4759 127.416 32.8191 128.598 32.8191 129.504C32.8191 130.38 33.4776 132.044 36.4361 133.741C39.2707 135.367 43.4862 136.516 48.3868 136.516C52.1534 136.516 55.5474 135.836 58.2219 134.759C60.9563 133.658 62.6252 132.276 63.3989 131.11C64.7726 129.039 67.5652 128.473 69.6363 129.847C71.7074 131.221 72.2727 134.013 70.899 136.085C69.1213 138.765 66.3976 140.843 63.3115 142.342C63.8692 143.531 64.2021 144.861 64.2021 146.325C64.2021 150.64 61.3174 153.784 58.285 155.608C55.165 157.485 51.1445 158.5 46.9439 158.5C42.0732 158.5 37.3613 157.129 34.0596 154.55C32.1011 153.02 31.7536 150.192 33.2835 148.234C34.8134 146.275 37.6414 145.928 39.6 147.457C40.9636 148.523 43.5774 149.5 46.9439 149.5C49.7896 149.5 52.1482 148.797 53.6456 147.896C54.386 147.451 54.8077 147.024 55.0183 146.724C55.2114 146.45 55.2021 146.328 55.2021 146.325L55.2021 146.324C55.2024 146.315 55.2057 146.2 55.0349 145.95C54.8827 145.726 54.6071 145.424 54.1547 145.091C52.2961 145.371 50.363 145.516 48.3868 145.516C42.2043 145.516 36.3861 144.088 31.9576 141.548C27.653 139.078 23.8191 134.986 23.8191 129.504C23.8191 126.781 24.8057 124.235 26.4835 122.21C21.7697 118.416 18.5 113.087 18.5 106.852C18.5 100.092 22.3451 94.3958 27.7072 90.5667Z" fill="white"/>
<path fill-rule="evenodd" clip-rule="evenodd" d="M73.039 20.1198C74.9477 21.7227 75.7468 24.2912 75.0843 26.6941C73.7659 31.4759 73.0597 36.5185 73.0597 41.7362C73.0597 72.9115 98.3322 98.184 129.507 98.184C138.161 98.184 146.344 96.2409 153.658 92.7733C155.91 91.7055 158.578 92.0486 160.486 93.6516C162.395 95.2545 163.194 97.8231 162.532 100.226C154.464 129.489 127.661 150.99 95.8209 150.99C92.1477 150.99 88.5372 150.703 85.0116 150.15C81.5344 149.604 79.1581 146.342 79.704 142.865C80.2499 139.388 83.5112 137.012 86.9884 137.558C89.8625 138.009 92.8121 138.244 95.8209 138.244C117.071 138.244 135.589 126.497 145.219 109.137C140.168 110.31 134.908 110.93 129.507 110.93C91.2926 110.93 60.3134 79.951 60.3134 41.7362C60.3134 40.4236 60.35 39.119 60.4224 37.8236C50.4279 45.8805 43.2392 57.2718 40.545 70.2916C39.8318 73.7384 36.4594 75.9543 33.0127 75.2411C29.5659 74.5278 27.3499 71.1555 28.0632 67.7087C32.5106 46.2165 46.9078 28.3931 66.2101 19.2415C68.4623 18.1737 71.1303 18.5168 73.039 20.1198Z" fill="white"/>
</svg>
