<svg width="180" height="180" viewBox="0 0 180 180" fill="none" xmlns="http://www.w3.org/2000/svg">
<path fill-rule="evenodd" clip-rule="evenodd" d="M90 68C74.536 68 62 80.536 62 96C62 103.213 64.7186 109.775 69.1985 114.743C71.7875 117.614 71.5589 122.041 68.6879 124.63C65.8168 127.219 61.3906 126.99 58.8015 124.119C52.0927 116.679 48 106.809 48 96C48 72.804 66.804 54 90 54C101.441 54 111.826 58.5842 119.394 66.0003C122.155 68.7061 122.2 73.138 119.495 75.8993C116.789 78.6605 112.357 78.7055 109.596 75.9997C104.538 71.0439 97.6316 68 90 68Z" fill="white"/>
<path fill-rule="evenodd" clip-rule="evenodd" d="M10.5 96C10.5 91.8579 13.8579 88.5 18 88.5H30.3038C34.4459 88.5 37.8038 91.8579 37.8038 96C37.8038 100.142 34.4459 103.5 30.3038 103.5H18C13.8579 103.5 10.5 100.142 10.5 96Z" fill="white"/>
<path fill-rule="evenodd" clip-rule="evenodd" d="M33.7852 152.215C30.8563 149.286 30.8563 144.537 33.7852 141.608L42.4853 132.908C45.4143 129.979 50.163 129.979 53.0919 132.908C56.0209 135.837 56.0209 140.586 53.0919 143.515L44.3918 152.215C41.4629 155.144 36.7142 155.144 33.7852 152.215ZM126.909 59.0916C123.98 56.1627 123.98 51.414 126.909 48.485L135.609 39.7849C138.538 36.856 143.286 36.856 146.215 39.7849C149.144 42.7139 149.144 47.4626 146.215 50.3915L137.515 59.0916C134.586 62.0206 129.837 62.0206 126.909 59.0916Z" fill="white"/>
<path fill-rule="evenodd" clip-rule="evenodd" d="M33.7851 39.7852C36.714 36.8563 41.4627 36.8563 44.3917 39.7852L53.0918 48.4853C56.0207 51.4143 56.0207 56.163 53.0918 59.0919C50.1628 62.0209 45.4141 62.0209 42.4852 59.0919L33.7851 50.3918C30.8561 47.4629 30.8561 42.7142 33.7851 39.7852Z" fill="white"/>
<path fill-rule="evenodd" clip-rule="evenodd" d="M90 16.5C94.1421 16.5 97.5 19.8579 97.5 24L97.5 36.3038C97.5 40.4459 94.1421 43.8038 90 43.8038C85.8579 43.8038 82.5 40.4459 82.5 36.3038L82.5 24C82.5 19.8579 85.8579 16.5 90 16.5Z" fill="white"/>
<path fill-rule="evenodd" clip-rule="evenodd" d="M94.9374 98.891C91.2513 101.523 89.5 104.754 89.5 107.852C89.5 110.951 91.2513 114.182 94.9374 116.814C98.6149 119.44 103.926 121.205 110 121.205C116.074 121.205 121.385 119.44 125.063 116.814C128.749 114.182 130.5 110.951 130.5 107.852C130.5 104.754 128.749 101.523 125.063 98.891C121.385 96.2649 116.074 94.5 110 94.5C103.926 94.5 98.6149 96.2649 94.9374 98.891ZM89.7072 91.5667C95.078 87.7315 102.267 85.5 110 85.5C117.733 85.5 124.922 87.7315 130.293 91.5667C135.655 95.3958 139.5 101.092 139.5 107.852C139.5 114.613 135.655 120.309 130.293 124.138C124.922 127.973 117.733 130.205 110 130.205C105.357 130.205 100.91 129.401 96.9353 127.928C95.4759 128.416 94.8191 129.598 94.8191 130.504C94.8191 131.38 95.4776 133.044 98.4361 134.741C101.271 136.367 105.486 137.516 110.387 137.516C114.153 137.516 117.547 136.836 120.222 135.759C122.956 134.658 124.625 133.276 125.399 132.11C126.773 130.039 129.565 129.473 131.636 130.847C133.707 132.221 134.273 135.013 132.899 137.085C131.121 139.765 128.398 141.843 125.311 143.342C125.869 144.531 126.202 145.861 126.202 147.325C126.202 151.64 123.317 154.784 120.285 156.608C117.165 158.485 113.144 159.5 108.944 159.5C104.073 159.5 99.3613 158.129 96.0596 155.55C94.1011 154.02 93.7536 151.192 95.2835 149.234C96.8134 147.275 99.6414 146.928 101.6 148.457C102.964 149.523 105.577 150.5 108.944 150.5C111.79 150.5 114.148 149.797 115.646 148.896C116.386 148.451 116.808 148.024 117.018 147.724C117.211 147.45 117.202 147.328 117.202 147.325L117.202 147.324C117.202 147.315 117.206 147.2 117.035 146.95C116.883 146.726 116.607 146.424 116.155 146.091C114.296 146.371 112.363 146.516 110.387 146.516C104.204 146.516 98.3861 145.088 93.9576 142.548C89.653 140.078 85.8191 135.986 85.8191 130.504C85.8191 127.781 86.8057 125.235 88.4835 123.21C83.7697 119.416 80.5 114.087 80.5 107.852C80.5 101.092 84.3451 95.3958 89.7072 91.5667Z" fill="white"/>
</svg>
