<svg width="25" height="24" viewBox="0 0 25 24" fill="none" xmlns="http://www.w3.org/2000/svg">
<path fill-rule="evenodd" clip-rule="evenodd" d="M8.52029 5.71088C5.51302 5.71088 3.07514 8.14876 3.07514 11.156C3.07514 13.1936 4.1939 14.9711 5.8551 15.9056C6.30259 16.1574 6.46128 16.7242 6.20954 17.1717C5.95781 17.6192 5.39097 17.7779 4.94348 17.5261C2.72069 16.2757 1.21582 13.8922 1.21582 11.156C1.21582 7.12189 4.48614 3.85156 8.52029 3.85156C11.0087 3.85156 13.2053 5.09608 14.5234 6.99368C15.249 6.68095 16.0486 6.50773 16.8872 6.50773C20.1879 6.50773 22.8636 9.18345 22.8636 12.4841C22.8636 14.584 21.7799 16.4303 20.1456 17.4949C19.7153 17.7751 19.1394 17.6535 18.8592 17.2233C18.5789 16.7931 18.7005 16.2172 19.1307 15.9369C20.2606 15.2009 21.0043 13.9291 21.0043 12.4841C21.0043 10.2103 19.161 8.36705 16.8872 8.36705C16.3556 8.36705 15.8486 8.46741 15.3833 8.65011C15.669 9.43242 15.8248 10.2768 15.8248 11.156C15.8248 11.6695 15.4085 12.0857 14.8951 12.0857C14.3817 12.0857 13.9654 11.6695 13.9654 11.156C13.9654 10.251 13.7454 9.40018 13.3567 8.65139C12.4488 6.9024 10.6229 5.71088 8.52029 5.71088Z" fill="white"/>
<path fill-rule="evenodd" clip-rule="evenodd" d="M16.4831 15.3167C16.8991 15.4602 17.1201 15.9137 16.9766 16.3298L15.6485 20.1812C15.5051 20.5973 15.0515 20.8183 14.6354 20.6748C14.2194 20.5313 13.9984 20.0777 14.1419 19.6617L15.47 15.8103C15.6134 15.3942 16.067 15.1732 16.4831 15.3167Z" fill="white"/>
<path fill-rule="evenodd" clip-rule="evenodd" d="M13.8268 15.3167C14.2429 15.4602 14.4638 15.9137 14.3204 16.3298L12.9923 20.1812C12.8488 20.5973 12.3952 20.8183 11.9792 20.6748C11.5631 20.5313 11.3422 20.0777 11.4856 19.6617L12.8137 15.8103C12.9572 15.3942 13.4108 15.1732 13.8268 15.3167Z" fill="white"/>
<path fill-rule="evenodd" clip-rule="evenodd" d="M10.9315 15.3619C11.2488 15.6669 11.2588 16.1713 10.9539 16.4886L10.1628 17.3119L10.8117 17.7311C11.0116 17.8602 11.1433 18.0719 11.1708 18.3083C11.1984 18.5447 11.1188 18.781 10.9539 18.9526L9.49301 20.4729C9.18809 20.7902 8.68365 20.8003 8.36632 20.4953C8.04899 20.1904 8.03894 19.686 8.34386 19.3686L9.135 18.5453L8.48608 18.1262C8.28618 17.997 8.15445 17.7853 8.12693 17.549C8.09941 17.3126 8.17898 17.0763 8.34386 16.9047L9.80476 15.3844C10.1097 15.0671 10.6141 15.057 10.9315 15.3619Z" fill="white"/>
</svg>
