<svg width="25" height="25" viewBox="0 0 25 25" fill="none" xmlns="http://www.w3.org/2000/svg">
<path fill-rule="evenodd" clip-rule="evenodd" d="M8.8266 7.87545C6.00343 7.87545 3.7148 10.1641 3.7148 12.9872C3.7148 14.6715 4.52869 16.1656 5.78748 17.098C6.08218 17.3162 6.14413 17.7321 5.92584 18.0268C5.70756 18.3215 5.2917 18.3835 4.99699 18.1652C3.41461 16.9931 2.38672 15.1101 2.38672 12.9872C2.38672 9.4306 5.26995 6.54736 8.8266 6.54736C11.0733 6.54736 13.0503 7.69797 14.202 9.43979C14.8727 9.12799 15.6203 8.95396 16.4074 8.95396C19.2995 8.95396 21.644 11.2985 21.644 14.1905C21.644 15.7619 20.951 17.1723 19.8562 18.1311C19.5803 18.3727 19.1608 18.345 18.9192 18.0691C18.6775 17.7932 18.7053 17.3737 18.9812 17.132C19.8003 16.4146 20.3159 15.3632 20.3159 14.1905C20.3159 12.0319 18.566 10.282 16.4074 10.282C15.8403 10.282 15.3023 10.4025 14.8169 10.619C15.1071 11.3527 15.2665 12.1519 15.2665 12.9872C15.2665 13.354 14.9692 13.6513 14.6024 13.6513C14.2357 13.6513 13.9384 13.354 13.9384 12.9872C13.9384 12.138 13.7318 11.339 13.3668 10.6358C12.5147 8.99441 10.8008 7.87545 8.8266 7.87545Z" fill="white"/>
<path fill-rule="evenodd" clip-rule="evenodd" d="M14.368 6.40817C13.338 6.40817 12.5522 7.19739 12.5522 8.11174C12.5522 8.44181 12.2846 8.70938 11.9546 8.70938C11.6245 8.70938 11.3569 8.44181 11.3569 8.11174C11.3569 6.48424 12.7322 5.21289 14.368 5.21289C16.0039 5.21289 17.3791 6.48424 17.3791 8.11174C17.3791 8.75184 17.1631 9.34279 16.8012 9.81994C16.6017 10.0829 16.2268 10.1344 15.9639 9.93496C15.7009 9.7355 15.6494 9.36062 15.8488 9.09764C16.0614 8.81744 16.1839 8.47771 16.1839 8.11174C16.1839 7.19739 15.398 6.40817 14.368 6.40817Z" fill="white"/>
<path fill-rule="evenodd" clip-rule="evenodd" d="M12.2232 2.48395C12.5678 2.35852 12.9489 2.53621 13.0743 2.88083L13.3597 3.66495C13.4851 4.00958 13.3074 4.39063 12.9628 4.51607C12.6182 4.6415 12.2371 4.46381 12.1117 4.11919L11.8263 3.33506C11.7009 2.99044 11.8785 2.60938 12.2232 2.48395Z" fill="white"/>
<path fill-rule="evenodd" clip-rule="evenodd" d="M17.3663 2.93409C17.6839 3.11746 17.7928 3.52358 17.6094 3.84119L17.1922 4.56384C17.0088 4.88145 16.6027 4.99027 16.2851 4.8069C15.9675 4.62353 15.8586 4.21741 16.042 3.8998L16.4592 3.17715C16.6426 2.85954 17.0487 2.75072 17.3663 2.93409Z" fill="white"/>
<path fill-rule="evenodd" clip-rule="evenodd" d="M20.664 7.04233C20.7277 7.4035 20.4865 7.74792 20.1253 7.8116L19.3036 7.9565C18.9424 8.02018 18.598 7.77902 18.5343 7.41785C18.4706 7.05668 18.7118 6.71227 19.073 6.64859L19.8947 6.50369C20.2559 6.44001 20.6003 6.68117 20.664 7.04233Z" fill="white"/>
<path fill-rule="evenodd" clip-rule="evenodd" d="M16.3725 16.7972C16.6499 16.8929 16.7972 17.1953 16.7015 17.4726L15.3734 21.3241C15.2778 21.6014 14.9754 21.7488 14.698 21.6531C14.4207 21.5575 14.2734 21.2551 14.369 20.9777L15.6971 17.1263C15.7927 16.8489 16.0951 16.7016 16.3725 16.7972Z" fill="white"/>
<path fill-rule="evenodd" clip-rule="evenodd" d="M13.7162 16.7972C13.9936 16.8929 14.1409 17.1953 14.0453 17.4726L12.7172 21.3241C12.6215 21.6014 12.3192 21.7488 12.0418 21.6531C11.7644 21.5575 11.6171 21.2551 11.7128 20.9777L13.0408 17.1263C13.1365 16.8489 13.4389 16.7016 13.7162 16.7972Z" fill="white"/>
<path fill-rule="evenodd" clip-rule="evenodd" d="M10.723 16.7834C10.9346 16.9867 10.9413 17.323 10.738 17.5346L9.72359 18.5902L10.6432 19.1842C10.7764 19.2703 10.8642 19.4114 10.8826 19.569C10.9009 19.7266 10.8479 19.8841 10.738 19.9985L9.27708 21.5188C9.0738 21.7304 8.7375 21.7371 8.52595 21.5338C8.3144 21.3305 8.3077 20.9942 8.51098 20.7827L9.52537 19.727L8.60579 19.133C8.47253 19.047 8.38471 18.9058 8.36636 18.7482C8.34801 18.5906 8.40106 18.4331 8.51098 18.3187L9.97188 16.7984C10.1752 16.5869 10.5115 16.5802 10.723 16.7834Z" fill="white"/>
</svg>
