<svg width="25" height="25" viewBox="0 0 25 25" fill="none" xmlns="http://www.w3.org/2000/svg">
<path fill-rule="evenodd" clip-rule="evenodd" d="M14.905 2.91653C15.0837 3.0671 15.1582 3.30799 15.0958 3.53316C15.0299 3.77113 14.9944 4.02231 14.9944 4.28266C14.9944 5.8343 16.2599 7.09758 17.8276 7.09758C18.263 7.09758 18.6737 7.00042 19.0407 6.82738C19.252 6.72771 19.502 6.76035 19.6807 6.91092C19.8594 7.06149 19.9339 7.30239 19.8715 7.52756C19.6025 8.49822 18.9775 9.31908 18.1473 9.84468C17.8684 10.0212 17.4992 9.9383 17.3226 9.65943C17.1461 9.38056 17.229 9.01135 17.5079 8.83479C17.7485 8.68243 17.9643 8.49515 18.148 8.28033C18.0422 8.28863 17.9354 8.29286 17.8276 8.29286C15.7302 8.29286 14.0029 6.6956 13.8159 4.65109C13.4028 5.14071 13.1548 5.77153 13.1548 6.45878C13.1548 6.81917 13.2226 7.16242 13.3458 7.4776C13.466 7.78501 13.3143 8.13164 13.0068 8.25183C12.6994 8.37201 12.3528 8.22024 12.2326 7.91283C12.0561 7.46128 11.9595 6.97057 11.9595 6.45878C11.9595 4.85534 12.9045 3.47458 14.265 2.83298C14.4763 2.73332 14.7263 2.76595 14.905 2.91653Z" fill="white"/>
<path fill-rule="evenodd" clip-rule="evenodd" d="M9.6684 7.75631C6.84523 7.75631 4.5566 10.0449 4.5566 12.8681C4.5566 14.5524 5.37049 16.0464 6.62928 16.9788C6.92398 17.1971 6.98593 17.613 6.76764 17.9077C6.54935 18.2024 6.13349 18.2643 5.83879 18.046C4.25641 16.874 3.22852 14.991 3.22852 12.8681C3.22852 9.31146 6.11175 6.42822 9.6684 6.42822C11.9151 6.42822 13.8921 7.57883 15.0438 9.32065C15.7145 9.00885 16.4621 8.83482 17.2492 8.83482C20.1413 8.83482 22.4858 11.1793 22.4858 14.0714C22.4858 15.6428 21.7928 17.0531 20.698 18.012C20.4221 18.2536 20.0026 18.2258 19.761 17.9499C19.5193 17.674 19.5471 17.2545 19.823 17.0129C20.6421 16.2955 21.1577 15.2441 21.1577 14.0714C21.1577 11.9128 19.4078 10.1629 17.2492 10.1629C16.6821 10.1629 16.1441 10.2833 15.6587 10.4999C15.9489 11.2335 16.1083 12.0328 16.1083 12.8681C16.1083 13.2348 15.811 13.5321 15.4442 13.5321C15.0775 13.5321 14.7802 13.2348 14.7802 12.8681C14.7802 12.0189 14.5736 11.2199 14.2086 10.5167C13.3565 8.87527 11.6426 7.75631 9.6684 7.75631Z" fill="white"/>
<path fill-rule="evenodd" clip-rule="evenodd" d="M17.2148 16.6776C17.4921 16.7732 17.6395 17.0756 17.5438 17.353L16.2157 21.2044C16.1201 21.4818 15.8177 21.6291 15.5403 21.5335C15.263 21.4378 15.1157 21.1355 15.2113 20.8581L16.5394 17.0066C16.635 16.7293 16.9374 16.582 17.2148 16.6776Z" fill="white"/>
<path fill-rule="evenodd" clip-rule="evenodd" d="M14.5585 16.6776C14.8359 16.7732 14.9832 17.0756 14.8876 17.353L13.5595 21.2044C13.4638 21.4818 13.1614 21.6291 12.8841 21.5335C12.6067 21.4378 12.4594 21.1355 12.555 20.8581L13.8831 17.0066C13.9788 16.7293 14.2812 16.582 14.5585 16.6776Z" fill="white"/>
<path fill-rule="evenodd" clip-rule="evenodd" d="M11.5663 16.6643C11.7778 16.8676 11.7845 17.2039 11.5812 17.4154L10.5668 18.4711L11.4864 19.0651C11.6197 19.1511 11.7075 19.2923 11.7259 19.4499C11.7442 19.6074 11.6912 19.765 11.5812 19.8794L10.1203 21.3997C9.91706 21.6112 9.58077 21.6179 9.36921 21.4147C9.15766 21.2114 9.15096 20.8751 9.35424 20.6635L10.3686 19.6079L9.44905 19.0139C9.31579 18.9278 9.22797 18.7867 9.20962 18.6291C9.19128 18.4715 9.24432 18.314 9.35424 18.1996L10.8151 16.6793C11.0184 16.4677 11.3547 16.461 11.5663 16.6643Z" fill="white"/>
</svg>
