<svg width="25" height="25" viewBox="0 0 25 25" fill="none" xmlns="http://www.w3.org/2000/svg">
<path fill-rule="evenodd" clip-rule="evenodd" d="M8.82612 7.72947C5.81958 7.72947 3.3823 10.1668 3.3823 13.1733C3.3823 14.9672 4.24969 16.5585 5.58938 17.5508C5.73673 17.6599 5.76771 17.8679 5.65856 18.0152C5.54942 18.1626 5.34149 18.1936 5.19414 18.0844C3.69265 16.9723 2.71826 15.1865 2.71826 13.1733C2.71826 9.80001 5.45284 7.06543 8.82612 7.06543C11.0619 7.06543 13.0165 8.26675 14.0807 10.0578C14.7731 9.6841 15.5656 9.47203 16.4069 9.47203C19.1156 9.47203 21.3115 11.6679 21.3115 14.3766C21.3115 15.8483 20.6628 17.1689 19.637 18.0674C19.499 18.1882 19.2893 18.1743 19.1685 18.0364C19.0476 17.8984 19.0615 17.6887 19.1995 17.5678C20.0875 16.7901 20.6474 15.6489 20.6474 14.3766C20.6474 12.0346 18.7489 10.1361 16.4069 10.1361C15.6756 10.1361 14.9883 10.3209 14.3883 10.6464C14.7388 11.4168 14.934 12.2726 14.934 13.1733C14.934 13.3567 14.7853 13.5053 14.602 13.5053C14.4186 13.5053 14.2699 13.3567 14.2699 13.1733C14.2699 12.2696 14.05 11.4182 13.661 10.6689C12.7541 8.92181 10.9291 7.72947 8.82612 7.72947Z" fill="white"/>
<path fill-rule="evenodd" clip-rule="evenodd" d="M14.3685 6.32859C13.2039 6.32859 12.2871 7.22495 12.2871 8.29778C12.2871 8.48115 12.1384 8.6298 11.9551 8.6298C11.7717 8.6298 11.623 8.48115 11.623 8.29778C11.623 6.82876 12.8673 5.66455 14.3685 5.66455C15.8697 5.66455 17.114 6.82876 17.114 8.29778C17.114 8.87697 16.9188 9.41209 16.5901 9.84547C16.4792 9.99157 16.271 10.0202 16.1249 9.90937C15.9788 9.79856 15.9502 9.59029 16.061 9.44419C16.3067 9.12022 16.45 8.72467 16.45 8.29778C16.45 7.22495 15.5332 6.32859 14.3685 6.32859Z" fill="white"/>
<path fill-rule="evenodd" clip-rule="evenodd" d="M12.3374 2.98205C12.5094 2.91942 12.6997 3.00814 12.7623 3.18021L13.0473 3.96322C13.1099 4.13528 13.0212 4.32554 12.8492 4.38817C12.6771 4.4508 12.4868 4.36208 12.4242 4.19001L12.1392 3.407C12.0766 3.23493 12.1653 3.04468 12.3374 2.98205Z" fill="white"/>
<path fill-rule="evenodd" clip-rule="evenodd" d="M17.2002 3.40796C17.3588 3.49951 17.4131 3.70228 17.3215 3.86086L16.9049 4.58249C16.8133 4.74107 16.6106 4.7954 16.452 4.70384C16.2934 4.61229 16.2391 4.40951 16.3306 4.25094L16.7473 3.52931C16.8388 3.37073 17.0416 3.3164 17.2002 3.40796Z" fill="white"/>
<path fill-rule="evenodd" clip-rule="evenodd" d="M20.3374 7.28628C20.3692 7.46661 20.2488 7.63857 20.0685 7.67037L19.2479 7.81506C19.0676 7.84686 18.8956 7.72645 18.8638 7.54612C18.832 7.36579 18.9524 7.19383 19.1328 7.16203L19.9534 7.01734C20.1337 6.98554 20.3056 7.10595 20.3374 7.28628Z" fill="white"/>
<path fill-rule="evenodd" clip-rule="evenodd" d="M16.2853 17.2353C16.424 17.2831 16.4977 17.4343 16.4499 17.573L15.1218 21.4244C15.074 21.5631 14.9228 21.6368 14.7841 21.5889C14.6454 21.5411 14.5717 21.3899 14.6196 21.2513L15.9476 17.3998C15.9955 17.2611 16.1467 17.1875 16.2853 17.2353Z" fill="white"/>
<path fill-rule="evenodd" clip-rule="evenodd" d="M13.6281 17.2353C13.7668 17.2831 13.8405 17.4343 13.7926 17.573L12.4646 21.4244C12.4167 21.5631 12.2655 21.6368 12.1269 21.5889C11.9882 21.5411 11.9145 21.3899 11.9623 21.2513L13.2904 17.3998C13.3382 17.2611 13.4894 17.1875 13.6281 17.2353Z" fill="white"/>
<path fill-rule="evenodd" clip-rule="evenodd" d="M10.5385 17.161C10.6443 17.2626 10.6476 17.4308 10.546 17.5366L9.30833 18.8245L10.4986 19.5934C10.5652 19.6364 10.6091 19.707 10.6183 19.7858C10.6275 19.8646 10.6009 19.9433 10.546 20.0005L9.08507 21.5208C8.98343 21.6266 8.81528 21.63 8.70951 21.5283C8.60373 21.4267 8.60038 21.2585 8.70202 21.1527L9.93967 19.8648L8.74943 19.096C8.6828 19.0529 8.63889 18.9824 8.62971 18.9036C8.62054 18.8248 8.64706 18.746 8.70202 18.6888L10.1629 17.1685C10.2646 17.0627 10.4327 17.0594 10.5385 17.161Z" fill="white"/>
</svg>
