<svg width="25" height="24" viewBox="0 0 25 24" fill="none" xmlns="http://www.w3.org/2000/svg">
<path fill-rule="evenodd" clip-rule="evenodd" d="M9.41434 6.77241C6.40706 6.77241 3.96918 9.21028 3.96918 12.2176C3.96918 14.4577 5.32214 16.384 7.25929 17.2199C7.73071 17.4233 7.94798 17.9704 7.74456 18.4418C7.54115 18.9132 6.99408 19.1305 6.52266 18.9271C3.92852 17.8077 2.10986 15.2261 2.10986 12.2176C2.10986 8.18341 5.38019 4.91309 9.41434 4.91309C11.9028 4.91309 14.0993 6.1576 15.4175 8.05521C16.143 7.74247 16.9426 7.56926 17.7813 7.56926C21.0819 7.56926 23.7577 10.245 23.7577 13.5456C23.7577 15.899 22.3974 17.9328 20.4244 18.907C19.964 19.1344 19.4065 18.9454 19.1792 18.4851C18.9519 18.0247 19.1408 17.4672 19.6012 17.2399C20.9641 16.5669 21.8983 15.1645 21.8983 13.5456C21.8983 11.2719 20.0551 9.42858 17.7813 9.42858C17.2497 9.42858 16.7427 9.52893 16.2773 9.71163C16.5631 10.4939 16.7188 11.3383 16.7188 12.2176C16.7188 12.731 16.3026 13.1472 15.7891 13.1472C15.2757 13.1472 14.8595 12.731 14.8595 12.2176C14.8595 11.3126 14.6394 10.4617 14.2507 9.71291C13.3428 7.96392 11.517 6.77241 9.41434 6.77241Z" fill="white"/>
<path fill-rule="evenodd" clip-rule="evenodd" d="M15.037 15.824C15.3925 16.1416 15.4232 16.6874 15.1056 17.0429L13.7634 18.5452L14.9544 19.3726C15.1574 19.5137 15.2903 19.735 15.3192 19.9806C15.3481 20.2261 15.2703 20.4723 15.1056 20.6567L13.1135 22.8865C12.7958 23.242 12.2501 23.2727 11.8946 22.9551C11.539 22.6374 11.5083 22.0917 11.826 21.7362L13.1681 20.2339L11.9772 19.4065C11.7741 19.2654 11.6413 19.0441 11.6124 18.7985C11.5835 18.553 11.6612 18.3068 11.826 18.1224L13.8181 15.8926C14.1357 15.5371 14.6814 15.5064 15.037 15.824Z" fill="white"/>
</svg>
