<svg width="25" height="25" viewBox="0 0 25 25" fill="none" xmlns="http://www.w3.org/2000/svg">
<path fill-rule="evenodd" clip-rule="evenodd" d="M14.5339 2.65139C14.7126 2.80196 14.7871 3.04285 14.7247 3.26802C14.6588 3.506 14.6234 3.75718 14.6234 4.01752C14.6234 5.56916 15.8888 6.83244 17.4565 6.83244C17.8919 6.83244 18.3027 6.73528 18.6696 6.56224C18.8809 6.46257 19.1309 6.49521 19.3096 6.64578C19.4883 6.79636 19.5628 7.03725 19.5004 7.26242C19.2314 8.23309 18.6064 9.05394 17.7762 9.57954C17.4973 9.7561 17.1281 9.67316 16.9516 9.39429C16.775 9.11542 16.8579 8.74622 17.1368 8.56965C17.3774 8.4173 17.5932 8.23001 17.7769 8.01519C17.6711 8.02349 17.5643 8.02772 17.4565 8.02772C15.3591 8.02772 13.6318 6.43047 13.4448 4.38595C13.0317 4.87557 12.7837 5.50639 12.7837 6.19365C12.7837 6.55403 12.8515 6.89728 12.9747 7.21247C13.0949 7.51987 12.9432 7.86651 12.6358 7.98669C12.3283 8.10688 11.9817 7.9551 11.8615 7.6477C11.685 7.19614 11.5884 6.70543 11.5884 6.19365C11.5884 4.5902 12.5334 3.20945 13.8939 2.56785C14.1052 2.46818 14.3553 2.50082 14.5339 2.65139Z" fill="white"/>
<path fill-rule="evenodd" clip-rule="evenodd" d="M9.29877 7.49068C6.4756 7.49068 4.18697 9.77931 4.18697 12.6025C4.18697 14.2868 5.00086 15.7808 6.25965 16.7132C6.55435 16.9315 6.6163 17.3473 6.39801 17.642C6.17973 17.9367 5.76387 17.9987 5.46916 17.7804C3.88678 16.6083 2.85889 14.7254 2.85889 12.6025C2.85889 9.04583 5.74212 6.1626 9.29877 6.1626C11.5454 6.1626 13.5225 7.31321 14.6742 9.05502C15.3449 8.74323 16.0925 8.5692 16.8796 8.5692C19.7716 8.5692 22.1161 10.9137 22.1161 13.8058C22.1161 15.3772 21.4232 16.7875 20.3284 17.7463C20.0525 17.988 19.633 17.9602 19.3913 17.6843C19.1497 17.4084 19.1775 16.9889 19.4534 16.7473C20.2724 16.0299 20.788 14.9784 20.788 13.8058C20.788 11.6472 19.0382 9.89728 16.8796 9.89728C16.3124 9.89728 15.7745 10.0177 15.2891 10.2343C15.5793 10.9679 15.7386 11.7672 15.7386 12.6025C15.7386 12.9692 15.4413 13.2665 15.0746 13.2665C14.7079 13.2665 14.4106 12.9692 14.4106 12.6025C14.4106 11.7533 14.204 10.9542 13.839 10.251C12.9869 8.60964 11.273 7.49068 9.29877 7.49068Z" fill="white"/>
<path fill-rule="evenodd" clip-rule="evenodd" d="M13.8368 15.076C14.0556 15.2715 14.0745 15.6073 13.879 15.8261L12.2868 17.6082L13.7859 18.6497C13.9109 18.7365 13.9926 18.8727 14.0104 19.0238C14.0282 19.1749 13.9804 19.3264 13.879 19.4399L11.8869 21.6697C11.6914 21.8885 11.3556 21.9074 11.1368 21.7119C10.918 21.5164 10.8991 21.1806 11.0946 20.9618L12.6867 19.1797L11.1876 18.1382C11.0627 18.0514 10.9809 17.9152 10.9631 17.7641C10.9453 17.613 10.9932 17.4615 11.0946 17.348L13.0867 15.1182C13.2822 14.8994 13.618 14.8805 13.8368 15.076Z" fill="white"/>
</svg>
