<svg width="25" height="25" viewBox="0 0 25 25" fill="none" xmlns="http://www.w3.org/2000/svg">
<path fill-rule="evenodd" clip-rule="evenodd" d="M14.3628 3.04054C14.462 3.12419 14.5034 3.25802 14.4688 3.38311C14.3965 3.64397 14.3577 3.91901 14.3577 4.20356C14.3577 5.90323 15.7434 7.2841 17.4565 7.2841C17.9318 7.2841 18.3812 7.17794 18.7829 6.98852C18.9003 6.93315 19.0392 6.95128 19.1385 7.03493C19.2377 7.11859 19.2791 7.25242 19.2445 7.37751C18.9934 8.28313 18.41 9.04995 17.6341 9.54116C17.4792 9.63925 17.2741 9.59317 17.176 9.43824C17.0779 9.28331 17.124 9.0782 17.2789 8.98011C17.7245 8.69799 18.0924 8.30607 18.3442 7.84325C18.0594 7.91183 17.7621 7.94814 17.4565 7.94814C15.38 7.94814 13.6937 6.2733 13.6937 4.20356C13.6937 4.12097 13.6964 4.03897 13.7017 3.95765C12.9803 4.52218 12.518 5.3978 12.518 6.37969C12.518 6.77372 12.5923 7.14973 12.7274 7.49522C12.7941 7.666 12.7098 7.85858 12.539 7.92535C12.3683 7.99212 12.1757 7.9078 12.1089 7.73702C11.9442 7.31577 11.854 6.85783 11.854 6.37969C11.854 4.88345 12.7357 3.59378 14.0072 2.99413C14.1246 2.93876 14.2635 2.95689 14.3628 3.04054Z" fill="white"/>
<path fill-rule="evenodd" clip-rule="evenodd" d="M9.29829 7.21238C6.29175 7.21238 3.85447 9.64966 3.85447 12.6562C3.85447 14.4501 4.72186 16.0414 6.06155 17.0337C6.2089 17.1429 6.23987 17.3508 6.13073 17.4981C6.02159 17.6455 5.81366 17.6765 5.66631 17.5673C4.16482 16.4552 3.19043 14.6694 3.19043 12.6562C3.19043 9.28292 5.92501 6.54834 9.29829 6.54834C11.534 6.54834 13.4887 7.74966 14.5529 9.54069C15.2453 9.16701 16.0378 8.95494 16.8791 8.95494C19.5878 8.95494 21.7836 11.1508 21.7836 13.8595C21.7836 15.3312 21.135 16.6518 20.1091 17.5503C19.9712 17.6711 19.7614 17.6572 19.6406 17.5193C19.5198 17.3813 19.5337 17.1716 19.6716 17.0507C20.5597 16.273 21.1196 15.1318 21.1196 13.8595C21.1196 11.5175 19.221 9.61898 16.8791 9.61898C16.1478 9.61898 15.4605 9.80383 14.8605 10.1293C15.211 10.8997 15.4061 11.7555 15.4061 12.6562C15.4061 12.8396 15.2575 12.9882 15.0741 12.9882C14.8908 12.9882 14.7421 12.8396 14.7421 12.6562C14.7421 11.7525 14.5222 10.9011 14.1332 10.1518C13.2263 8.40472 11.4012 7.21238 9.29829 7.21238Z" fill="white"/>
<path fill-rule="evenodd" clip-rule="evenodd" d="M13.6598 15.3278C13.7692 15.4255 13.7787 15.5934 13.6809 15.7028L11.8888 17.7088L13.6344 18.9215C13.6969 18.9649 13.7377 19.033 13.7466 19.1086C13.7555 19.1842 13.7316 19.2599 13.6809 19.3166L11.6888 21.5464C11.5911 21.6558 11.4231 21.6653 11.3138 21.5675C11.2044 21.4698 11.1949 21.3019 11.2926 21.1925L13.0848 19.1865L11.3392 17.9738C11.2767 17.9304 11.2358 17.8623 11.2269 17.7867C11.218 17.7112 11.242 17.6354 11.2926 17.5787L13.2848 15.3489C13.3825 15.2395 13.5504 15.2301 13.6598 15.3278Z" fill="white"/>
</svg>
