<svg width="180" height="180" viewBox="0 0 180 180" fill="none" xmlns="http://www.w3.org/2000/svg">
<path fill-rule="evenodd" clip-rule="evenodd" d="M63 55.5C37.871 55.5 17.5 75.871 17.5 101C17.5 126.129 37.871 146.5 63 146.5H126C145.606 146.5 161.5 130.606 161.5 111C161.5 98.0567 154.575 86.7284 144.215 80.5227C143.031 79.8132 142.646 78.2778 143.355 77.0933C144.065 75.9089 145.6 75.5239 146.785 76.2334C158.589 83.3048 166.5 96.2273 166.5 111C166.5 133.368 148.368 151.5 126 151.5H63C35.1096 151.5 12.5 128.89 12.5 101C12.5 73.1096 35.1096 50.5 63 50.5C82.5161 50.5 99.4422 61.5712 107.848 77.764C111.46 84.7223 113.5 92.6266 113.5 101C113.5 102.381 112.381 103.5 111 103.5C109.619 103.5 108.5 102.381 108.5 101C108.5 93.4472 106.662 86.3311 103.41 80.0677C95.8306 65.4662 80.5771 55.5 63 55.5Z" fill="white"/>
<path fill-rule="evenodd" clip-rule="evenodd" d="M125.299 33.5C120.859 33.5 117.047 36.0049 115.232 39.6041C114.611 40.837 113.108 41.3326 111.875 40.7111C110.642 40.0896 110.146 38.5863 110.768 37.3534C113.42 32.092 118.945 28.5 125.299 28.5C134.191 28.5 141.5 35.556 141.5 44.383C141.5 52.3667 135.521 58.9017 127.799 60.0774V62.5C127.799 63.8807 126.68 65 125.299 65C123.918 65 122.799 63.8807 122.799 62.5V57.766C122.799 56.3852 123.918 55.266 125.299 55.266C131.541 55.266 136.5 50.3385 136.5 44.383C136.5 38.4275 131.541 33.5 125.299 33.5Z" fill="white"/>
<path d="M131 75C131 77.7614 128.761 80 126 80C123.239 80 121 77.7614 121 75C121 72.2386 123.239 70 126 70C128.761 70 131 72.2386 131 75Z" fill="white"/>
</svg>
