<svg width="25" height="24" viewBox="0 0 25 24" fill="none" xmlns="http://www.w3.org/2000/svg">
<path fill-rule="evenodd" clip-rule="evenodd" d="M12.8534 9.29633C10.7996 9.29633 9.13471 10.9612 9.13471 13.015C9.13471 13.973 9.49576 14.8445 10.0907 15.5042C10.4346 15.8855 10.4042 16.4734 10.0229 16.8172C9.64162 17.1611 9.05377 17.1307 8.70993 16.7494C7.81893 15.7614 7.27539 14.4506 7.27539 13.015C7.27539 9.93435 9.77273 7.43701 12.8534 7.43701C15.934 7.43701 18.4313 9.93435 18.4313 13.015C18.4313 13.5284 18.0151 13.9446 17.5017 13.9446C16.9882 13.9446 16.572 13.5284 16.572 13.015C16.572 10.9612 14.9071 9.29633 12.8534 9.29633Z" fill="white"/>
<path fill-rule="evenodd" clip-rule="evenodd" d="M2.29639 13.0146C2.29639 12.4645 2.74234 12.0186 3.29245 12.0186H4.9265C5.47661 12.0186 5.92257 12.4645 5.92257 13.0146C5.92257 13.5647 5.47661 14.0107 4.9265 14.0107H3.29245C2.74234 14.0107 2.29639 13.5647 2.29639 13.0146ZM19.7868 13.0146C19.7868 12.4645 20.2327 12.0186 20.7828 12.0186H22.4169C22.967 12.0186 23.413 12.4645 23.413 13.0146C23.413 13.5647 22.967 14.0107 22.4169 14.0107H20.7828C20.2327 14.0107 19.7868 13.5647 19.7868 13.0146Z" fill="white"/>
<path fill-rule="evenodd" clip-rule="evenodd" d="M5.38841 20.4807C4.99942 20.0917 4.99942 19.461 5.38841 19.072L6.54385 17.9166C6.93284 17.5276 7.56351 17.5276 7.9525 17.9166C8.34149 18.3056 8.34149 18.9363 7.9525 19.3252L6.79705 20.4807C6.40807 20.8697 5.77739 20.8697 5.38841 20.4807ZM17.756 8.11312C17.367 7.72413 17.367 7.09346 17.756 6.70447L18.9114 5.54902C19.3004 5.16004 19.9311 5.16004 20.3201 5.54902C20.7091 5.93801 20.7091 6.56868 20.3201 6.95767L19.1646 8.11312C18.7756 8.50211 18.145 8.50211 17.756 8.11312Z" fill="white"/>
<path fill-rule="evenodd" clip-rule="evenodd" d="M5.38747 5.54856C5.77646 5.15957 6.40713 5.15957 6.79612 5.54856L7.95157 6.70401C8.34056 7.093 8.34056 7.72367 7.95157 8.11266C7.56258 8.50165 6.93191 8.50165 6.54292 8.11266L5.38747 6.95721C4.99849 6.56822 4.99849 5.93755 5.38747 5.54856Z" fill="white"/>
<path fill-rule="evenodd" clip-rule="evenodd" d="M12.8535 2.45605C13.4037 2.45605 13.8496 2.90201 13.8496 3.45212L13.8496 5.08617C13.8496 5.63628 13.4037 6.08223 12.8535 6.08223C12.3034 6.08223 11.8575 5.63628 11.8575 5.08617L11.8575 3.45212C11.8575 2.90201 12.3034 2.45605 12.8535 2.45605Z" fill="white"/>
<path fill-rule="evenodd" clip-rule="evenodd" d="M15.3076 15.4057C15.3076 15.039 15.6049 14.7417 15.9716 14.7417H16.4393C17.4662 14.7417 18.2986 15.5741 18.2986 16.601C18.2986 17.6279 17.4662 18.4603 16.4393 18.4603H11.3926C11.0258 18.4603 10.7285 18.163 10.7285 17.7963C10.7285 17.4296 11.0258 17.1323 11.3926 17.1323H16.4393C16.7327 17.1323 16.9705 16.8944 16.9705 16.601C16.9705 16.3076 16.7327 16.0698 16.4393 16.0698H15.9716C15.6049 16.0698 15.3076 15.7725 15.3076 15.4057Z" fill="white"/>
<path fill-rule="evenodd" clip-rule="evenodd" d="M19.0262 17.7959C19.0262 17.4291 19.3235 17.1318 19.6903 17.1318H20.1579C21.1848 17.1318 22.0172 17.9643 22.0172 18.9912C22.0172 20.018 21.1848 20.8505 20.1579 20.8505H11.3926C11.0258 20.8505 10.7285 20.5532 10.7285 20.1864C10.7285 19.8197 11.0258 19.5224 11.3926 19.5224H20.1579C20.4513 19.5224 20.6892 19.2845 20.6892 18.9912C20.6892 18.6978 20.4513 18.4599 20.1579 18.4599H19.6903C19.3235 18.4599 19.0262 18.1626 19.0262 17.7959Z" fill="white"/>
</svg>
