<svg width="25" height="25" viewBox="0 0 25 25" fill="none" xmlns="http://www.w3.org/2000/svg">
<path fill-rule="evenodd" clip-rule="evenodd" d="M12.8534 9.20408C10.4696 9.20408 8.53709 11.1365 8.53709 13.5204C8.53709 14.6319 8.9568 15.6446 9.64692 16.4099C9.76972 16.546 9.75888 16.756 9.6227 16.8788C9.48652 17.0016 9.27658 16.9908 9.15377 16.8546C8.35793 15.972 7.87305 14.8024 7.87305 13.5204C7.87305 10.7698 10.1028 8.54004 12.8534 8.54004C15.6039 8.54004 17.8337 10.7698 17.8337 13.5204C17.8337 13.7037 17.685 13.8524 17.5017 13.8524C17.3183 13.8524 17.1696 13.7037 17.1696 13.5204C17.1696 11.1365 15.2372 9.20408 12.8534 9.20408Z" fill="white"/>
<path fill-rule="evenodd" clip-rule="evenodd" d="M2.95898 13.52C2.95898 13.3366 3.10764 13.188 3.29101 13.188H4.92506C5.10843 13.188 5.25708 13.3366 5.25708 13.52C5.25708 13.7034 5.10843 13.852 4.92506 13.852H3.29101C3.10764 13.852 2.95898 13.7034 2.95898 13.52ZM20.4494 13.52C20.4494 13.3366 20.598 13.188 20.7814 13.188H22.4154C22.5988 13.188 22.7475 13.3366 22.7475 13.52C22.7475 13.7034 22.5988 13.852 22.4154 13.852H20.7814C20.598 13.852 20.4494 13.7034 20.4494 13.52Z" fill="white"/>
<path fill-rule="evenodd" clip-rule="evenodd" d="M5.85782 20.517C5.72816 20.3873 5.72816 20.1771 5.85782 20.0475L7.01327 18.892C7.14293 18.7623 7.35316 18.7623 7.48282 18.892C7.61248 19.0217 7.61248 19.2319 7.48282 19.3616L6.32737 20.517C6.19771 20.6467 5.98748 20.6467 5.85782 20.517ZM18.2254 8.14943C18.0957 8.01977 18.0957 7.80954 18.2254 7.67988L19.3808 6.52443C19.5105 6.39477 19.7207 6.39477 19.8504 6.52443C19.9801 6.65409 19.9801 6.86432 19.8504 6.99398L18.6949 8.14943C18.5653 8.27909 18.3551 8.27909 18.2254 8.14943Z" fill="white"/>
<path fill-rule="evenodd" clip-rule="evenodd" d="M5.85702 6.52433C5.98668 6.39466 6.19691 6.39466 6.32657 6.52433L7.48202 7.67977C7.61168 7.80944 7.61168 8.01966 7.48202 8.14932C7.35236 8.27899 7.14213 8.27899 7.01247 8.14932L5.85702 6.99387C5.72736 6.86421 5.72736 6.65399 5.85702 6.52433Z" fill="white"/>
<path fill-rule="evenodd" clip-rule="evenodd" d="M12.854 3.62695C13.0374 3.62695 13.186 3.7756 13.186 3.95897L13.186 5.59302C13.186 5.7764 13.0374 5.92505 12.854 5.92505C12.6706 5.92505 12.522 5.7764 12.522 5.59302L12.522 3.95897C12.522 3.7756 12.6706 3.62695 12.854 3.62695Z" fill="white"/>
<path fill-rule="evenodd" clip-rule="evenodd" d="M15.707 15.9111C15.707 15.7644 15.8259 15.6455 15.9726 15.6455H16.4403C17.2471 15.6455 17.9012 16.2996 17.9012 17.1064C17.9012 17.9132 17.2471 18.5673 16.4403 18.5673H11.3935C11.2469 18.5673 11.1279 18.4484 11.1279 18.3017C11.1279 18.155 11.2469 18.0361 11.3935 18.0361H16.4403C16.9537 18.0361 17.3699 17.6198 17.3699 17.1064C17.3699 16.593 16.9537 16.1767 16.4403 16.1767H15.9726C15.8259 16.1767 15.707 16.0578 15.707 15.9111Z" fill="white"/>
<path fill-rule="evenodd" clip-rule="evenodd" d="M19.4257 18.3022C19.4257 18.1555 19.5446 18.0366 19.6913 18.0366H20.1589C20.9657 18.0366 21.6198 18.6907 21.6198 19.4975C21.6198 20.3043 20.9657 20.9584 20.1589 20.9584H11.3935C11.2469 20.9584 11.1279 20.8395 11.1279 20.6928C11.1279 20.5461 11.2469 20.4272 11.3935 20.4272H20.1589C20.6724 20.4272 21.0886 20.011 21.0886 19.4975C21.0886 18.9841 20.6724 18.5679 20.1589 18.5679H19.6913C19.5446 18.5679 19.4257 18.4489 19.4257 18.3022Z" fill="white"/>
</svg>
