<svg width="25" height="25" viewBox="0 0 25 25" fill="none" xmlns="http://www.w3.org/2000/svg">
<path fill-rule="evenodd" clip-rule="evenodd" d="M9.15866 16.0434C9.15866 15.8968 9.27758 15.7778 9.42427 15.7778H9.89191C10.6987 15.7778 11.3528 16.4319 11.3528 17.2387C11.3528 18.0456 10.6987 18.6996 9.89191 18.6996H4.18114C4.03445 18.6996 3.91553 18.5807 3.91553 18.434C3.91553 18.2873 4.03445 18.1684 4.18114 18.1684H9.89191C10.4054 18.1684 10.8216 17.7522 10.8216 17.2387C10.8216 16.7253 10.4054 16.3091 9.89191 16.3091H9.42427C9.27758 16.3091 9.15866 16.1901 9.15866 16.0434Z" fill="white"/>
<path fill-rule="evenodd" clip-rule="evenodd" d="M13.1429 18.4341C13.1429 18.2874 13.2618 18.1685 13.4085 18.1685H13.8762C14.683 18.1685 15.3371 18.8225 15.3371 19.6294C15.3371 20.4362 14.683 21.0902 13.8762 21.0902H4.18114C4.03445 21.0902 3.91553 20.9713 3.91553 20.8246C3.91553 20.6779 4.03445 20.559 4.18114 20.559H13.8762C14.3896 20.559 14.8058 20.1428 14.8058 19.6294C14.8058 19.1159 14.3896 18.6997 13.8762 18.6997H13.4085C13.2618 18.6997 13.1429 18.5808 13.1429 18.4341Z" fill="white"/>
<path fill-rule="evenodd" clip-rule="evenodd" d="M9.63687 3.57093C9.73631 3.65444 9.77794 3.78826 9.74343 3.91344C9.53698 4.66223 9.42659 5.45121 9.42659 6.26651C9.42659 11.1442 13.3807 15.0983 18.2584 15.0983C19.6111 15.0983 20.892 14.7944 22.0372 14.2514C22.1546 14.1958 22.2936 14.2136 22.393 14.2971C22.4924 14.3807 22.5341 14.5145 22.4995 14.6397C22.0605 16.2321 21.2173 17.6565 20.0878 18.7957C19.9587 18.9259 19.7485 18.9268 19.6183 18.7977C19.4881 18.6686 19.4872 18.4584 19.6163 18.3281C20.5041 17.4327 21.2012 16.3486 21.6423 15.1416C20.5908 15.5427 19.4499 15.7623 18.2584 15.7623C13.014 15.7623 8.76255 11.5109 8.76255 6.26651C8.76255 5.64763 8.8218 5.04233 8.935 4.45605C6.2911 5.98252 4.51268 8.8389 4.51268 12.1101C4.51268 13.0715 4.66619 13.9965 4.94978 14.8621C5.00687 15.0364 4.91189 15.2239 4.73763 15.281C4.56338 15.3381 4.37583 15.2431 4.31874 15.0688C4.01355 14.1373 3.84863 13.1426 3.84863 12.1101C3.84863 8.31903 6.07023 5.04752 9.28111 3.52518C9.39844 3.46955 9.53744 3.48743 9.63687 3.57093Z" fill="white"/>
</svg>
