<svg width="24" height="24" viewBox="0 0 24 24" fill="none" xmlns="http://www.w3.org/2000/svg">
<path fill-rule="evenodd" clip-rule="evenodd" d="M11.953 8.23334C9.89921 8.23334 8.23432 9.89824 8.23432 11.952C8.23432 14.0057 9.89921 15.6706 11.953 15.6706C14.0067 15.6706 15.6716 14.0057 15.6716 11.952C15.6716 9.89824 14.0067 8.23334 11.953 8.23334ZM6.375 11.952C6.375 8.87136 8.87234 6.37402 11.953 6.37402C15.0336 6.37402 17.5309 8.87136 17.5309 11.952C17.5309 15.0326 15.0336 17.5299 11.953 17.5299C8.87234 17.5299 6.375 15.0326 6.375 11.952Z" fill="white"/>
<path fill-rule="evenodd" clip-rule="evenodd" d="M1.39355 11.9521C1.39355 11.402 1.83951 10.9561 2.38962 10.9561H4.02367C4.57378 10.9561 5.01973 11.402 5.01973 11.9521C5.01973 12.5022 4.57378 12.9482 4.02367 12.9482H2.38962C1.83951 12.9482 1.39355 12.5022 1.39355 11.9521ZM18.8839 11.9521C18.8839 11.402 19.3299 10.9561 19.88 10.9561H21.5141C22.0642 10.9561 22.5101 11.402 22.5101 11.9521C22.5101 12.5022 22.0642 12.9482 21.5141 12.9482H19.88C19.3299 12.9482 18.8839 12.5022 18.8839 11.9521Z" fill="white"/>
<path fill-rule="evenodd" clip-rule="evenodd" d="M4.48606 19.4187C4.09707 19.0297 4.09707 18.399 4.48606 18.01L5.64151 16.8546C6.0305 16.4656 6.66117 16.4656 7.05016 16.8546C7.43915 17.2436 7.43915 17.8742 7.05016 18.2632L5.89471 19.4187C5.50572 19.8077 4.87505 19.8077 4.48606 19.4187ZM16.8536 7.05111C16.4646 6.66212 16.4646 6.03145 16.8536 5.64246L18.0091 4.48701C18.3981 4.09802 19.0287 4.09802 19.4177 4.48701C19.8067 4.876 19.8067 5.50667 19.4177 5.89566L18.2623 7.05111C17.8733 7.4401 17.2426 7.4401 16.8536 7.05111Z" fill="white"/>
<path fill-rule="evenodd" clip-rule="evenodd" d="M4.48659 4.48655C4.87558 4.09756 5.50625 4.09756 5.89524 4.48655L7.05069 5.642C7.43968 6.03099 7.43968 6.66166 7.05069 7.05065C6.6617 7.43963 6.03103 7.43963 5.64204 7.05065L4.48659 5.8952C4.09761 5.50621 4.09761 4.87554 4.48659 4.48655ZM16.8542 16.8541C17.2432 16.4651 17.8738 16.4651 18.2628 16.8541L19.4183 18.0096C19.8072 18.3986 19.8072 19.0292 19.4183 19.4182C19.0293 19.8072 18.3986 19.8072 18.0096 19.4182L16.8542 18.2628C16.4652 17.8738 16.4652 17.2431 16.8542 16.8541Z" fill="white"/>
<path fill-rule="evenodd" clip-rule="evenodd" d="M11.9532 1.39355C12.5033 1.39355 12.9492 1.83951 12.9492 2.38962L12.9492 4.02367C12.9492 4.57378 12.5033 5.01973 11.9532 5.01973C11.403 5.01973 10.9571 4.57378 10.9571 4.02367L10.9571 2.38962C10.9571 1.83951 11.403 1.39355 11.9532 1.39355ZM11.9532 18.8839C12.5033 18.8839 12.9492 19.3299 12.9492 19.88L12.9492 21.5141C12.9492 22.0642 12.5033 22.5101 11.9532 22.5101C11.403 22.5101 10.9571 22.0642 10.9571 21.5141L10.9571 19.88C10.9571 19.3299 11.403 18.8839 11.9532 18.8839Z" fill="white"/>
</svg>
