<svg width="25" height="24" viewBox="0 0 25 24" fill="none" xmlns="http://www.w3.org/2000/svg">
<path fill-rule="evenodd" clip-rule="evenodd" d="M12.4588 8.23334C10.4051 8.23334 8.74018 9.89824 8.74018 11.952C8.74018 14.0057 10.4051 15.6706 12.4588 15.6706C14.5126 15.6706 16.1775 14.0057 16.1775 11.952C16.1775 9.89824 14.5126 8.23334 12.4588 8.23334ZM6.88086 11.952C6.88086 8.87136 9.3782 6.37402 12.4588 6.37402C15.5394 6.37402 18.0368 8.87136 18.0368 11.952C18.0368 15.0326 15.5394 17.5299 12.4588 17.5299C9.3782 17.5299 6.88086 15.0326 6.88086 11.952Z" fill="white"/>
<path fill-rule="evenodd" clip-rule="evenodd" d="M12.4585 2.65576C12.8986 2.65576 13.2554 3.01252 13.2554 3.45261L13.2554 4.02419C13.2554 4.46428 12.8986 4.82105 12.4585 4.82105C12.0184 4.82105 11.6617 4.46428 11.6617 4.02419L11.6617 3.45261C11.6617 3.01252 12.0184 2.65576 12.4585 2.65576ZM12.4585 19.0837C12.8986 19.0837 13.2554 19.4404 13.2554 19.8805L13.2554 20.4521C13.2554 20.8922 12.8986 21.249 12.4585 21.249C12.0184 21.249 11.6617 20.8922 11.6617 20.4521L11.6617 19.8805C11.6617 19.4404 12.0184 19.0837 12.4585 19.0837Z" fill="white"/>
<path fill-rule="evenodd" clip-rule="evenodd" d="M19.0327 5.37844C19.3439 5.68963 19.3439 6.19416 19.0327 6.50535L18.6286 6.90952C18.3174 7.22071 17.8128 7.22071 17.5016 6.90952C17.1905 6.59833 17.1905 6.09379 17.5016 5.7826L17.9058 5.37844C18.217 5.06725 18.7215 5.06725 19.0327 5.37844ZM7.41644 16.9947C7.72763 17.3059 7.72763 17.8105 7.41644 18.1216L7.01227 18.5258C6.70108 18.837 6.19654 18.837 5.88535 18.5258C5.57416 18.2146 5.57416 17.7101 5.88535 17.3989L6.28952 16.9947C6.60071 16.6835 7.10525 16.6835 7.41644 16.9947Z" fill="white"/>
<path fill-rule="evenodd" clip-rule="evenodd" d="M21.7549 11.9527C21.7549 12.3927 21.3981 12.7495 20.958 12.7495L20.3864 12.7495C19.9464 12.7495 19.5896 12.3927 19.5896 11.9527C19.5896 11.5126 19.9464 11.1558 20.3865 11.1558L20.958 11.1558C21.3981 11.1558 21.7549 11.5126 21.7549 11.9527ZM5.32696 11.9527C5.32696 12.3927 4.9702 12.7495 4.53011 12.7495L3.95853 12.7495C3.51844 12.7495 3.16168 12.3927 3.16168 11.9527C3.16168 11.5126 3.51844 11.1558 3.95853 11.1558L4.53011 11.1558C4.9702 11.1558 5.32696 11.5126 5.32696 11.9527Z" fill="white"/>
<path fill-rule="evenodd" clip-rule="evenodd" d="M19.0322 18.5264C18.721 18.8376 18.2165 18.8376 17.9053 18.5264L17.5011 18.1222C17.1899 17.811 17.1899 17.3065 17.5011 16.9953C17.8123 16.6841 18.3169 16.6841 18.628 16.9953L19.0322 17.3995C19.3434 17.7107 19.3434 18.2152 19.0322 18.5264ZM7.41592 6.91009C7.10473 7.22128 6.60019 7.22128 6.289 6.91009L5.88483 6.50592C5.57364 6.19473 5.57364 5.69019 5.88483 5.379C6.19602 5.06781 6.70056 5.06782 7.01175 5.379L7.41592 5.78317C7.72711 6.09436 7.72711 6.5989 7.41592 6.91009Z" fill="white"/>
</svg>
