<svg width="25" height="24" viewBox="0 0 25 24" fill="none" xmlns="http://www.w3.org/2000/svg">
<path fill-rule="evenodd" clip-rule="evenodd" d="M9.43087 2.87352C9.70929 3.10734 9.82586 3.48202 9.72922 3.83253C9.5369 4.53006 9.43388 5.26563 9.43388 6.02675C9.43388 10.5743 13.1204 14.2609 17.668 14.2609C18.9304 14.2609 20.124 13.9774 21.1908 13.4716C21.5194 13.3159 21.9086 13.3659 22.187 13.5997C22.4654 13.8336 22.582 14.2082 22.4853 14.5587C22.0184 16.2525 21.1219 17.7664 19.9219 18.9767C19.5604 19.3413 18.9718 19.3438 18.6072 18.9823C18.2426 18.6208 18.24 18.0322 18.6015 17.6676C19.1331 17.1315 19.5911 16.5231 19.9598 15.8587C19.223 16.0298 18.4557 16.1202 17.668 16.1202C12.0936 16.1202 7.57456 11.6012 7.57456 6.02675C7.57456 5.83523 7.57991 5.64489 7.59046 5.45588C5.71707 6.9659 4.51996 9.27889 4.51996 11.8703C4.51996 12.7678 4.66321 13.63 4.92737 14.4363C5.08722 14.9242 4.82127 15.4493 4.33335 15.6092C3.84543 15.769 3.32031 15.5031 3.16046 15.0151C2.83583 14.0243 2.66064 12.9668 2.66064 11.8703C2.66064 7.83981 5.02311 4.36292 8.43472 2.74541C8.76326 2.58964 9.15244 2.6397 9.43087 2.87352Z" fill="white"/>
<path fill-rule="evenodd" clip-rule="evenodd" d="M5.05127 17.5298C5.05127 17.0897 5.40803 16.7329 5.84812 16.7329H12.7542C13.1943 16.7329 13.551 17.0897 13.551 17.5298C13.551 17.9699 13.1943 18.3266 12.7542 18.3266H5.84812C5.40803 18.3266 5.05127 17.9699 5.05127 17.5298Z" fill="white"/>
<path fill-rule="evenodd" clip-rule="evenodd" d="M2.79346 20.187C2.79346 19.7469 3.15022 19.3901 3.59031 19.3901H9.02001C9.4601 19.3901 9.81687 19.7469 9.81687 20.187C9.81687 20.6271 9.4601 20.9838 9.02001 20.9838H3.59031C3.15022 20.9838 2.79346 20.6271 2.79346 20.187ZM11.5949 20.187C11.5949 19.7469 11.9517 19.3901 12.3917 19.3901H15.2775C15.7176 19.3901 16.0743 19.7469 16.0743 20.187C16.0743 20.6271 15.7176 20.9838 15.2775 20.9838H12.3917C11.9517 20.9838 11.5949 20.6271 11.5949 20.187Z" fill="white"/>
</svg>
