<svg width="25" height="24" viewBox="0 0 25 24" fill="none" xmlns="http://www.w3.org/2000/svg">
<path fill-rule="evenodd" clip-rule="evenodd" d="M5.32715 6.90671C5.32715 6.46663 5.68391 6.10986 6.124 6.10986H17.944C18.3841 6.10986 18.7408 6.46663 18.7408 6.90671C18.7408 7.3468 18.3841 7.70357 17.944 7.70357H6.124C5.68391 7.70357 5.32715 7.3468 5.32715 6.90671Z" fill="white"/>
<path fill-rule="evenodd" clip-rule="evenodd" d="M5.32715 16.8667C5.32715 16.4266 5.68391 16.0698 6.124 16.0698H17.944C18.3841 16.0698 18.7408 16.4266 18.7408 16.8667C18.7408 17.3068 18.3841 17.6635 17.944 17.6635H6.124C5.68391 17.6635 5.32715 17.3068 5.32715 16.8667Z" fill="white"/>
<path fill-rule="evenodd" clip-rule="evenodd" d="M1.07764 10.2261C1.07764 9.78596 1.4344 9.4292 1.87449 9.4292H13.0304C13.4705 9.4292 13.8273 9.78596 13.8273 10.2261C13.8273 10.6661 13.4705 11.0229 13.0304 11.0229H1.87449C1.4344 11.0229 1.07764 10.6661 1.07764 10.2261ZM16.2178 10.2261C16.2178 9.78596 16.5746 9.4292 17.0147 9.4292H22.0614C22.5015 9.4292 22.8582 9.78596 22.8582 10.2261C22.8582 10.6661 22.5015 11.0229 22.0614 11.0229H17.0147C16.5746 11.0229 16.2178 10.6661 16.2178 10.2261Z" fill="white"/>
<path fill-rule="evenodd" clip-rule="evenodd" d="M22.8574 13.5464C22.8574 13.1063 22.5007 12.7495 22.0606 12.7495H10.9046C10.4646 12.7495 10.1078 13.1063 10.1078 13.5464C10.1078 13.9865 10.4646 14.3432 10.9046 14.3432H22.0606C22.5007 14.3432 22.8574 13.9865 22.8574 13.5464ZM7.71724 13.5464C7.71724 13.1063 7.36048 12.7495 6.92039 12.7495H1.87366C1.43358 12.7495 1.07681 13.1063 1.07681 13.5464C1.07681 13.9865 1.43358 14.3432 1.87366 14.3432H6.92039C7.36048 14.3432 7.71724 13.9865 7.71724 13.5464Z" fill="white"/>
</svg>
