<svg width="25" height="24" viewBox="0 0 25 24" fill="none" xmlns="http://www.w3.org/2000/svg">
<path fill-rule="evenodd" clip-rule="evenodd" d="M11.9544 9.29633C9.90068 9.29633 8.23578 10.9612 8.23578 13.015C8.23578 13.973 8.59683 14.8445 9.1918 15.5042C9.53565 15.8855 9.50529 16.4734 9.12399 16.8172C8.74269 17.1611 8.15485 17.1307 7.811 16.7494C6.92001 15.7614 6.37646 14.4506 6.37646 13.015C6.37646 9.93435 8.8738 7.43701 11.9544 7.43701C15.035 7.43701 17.5324 9.93435 17.5324 13.015C17.5324 13.5284 17.1162 13.9446 16.6027 13.9446C16.0893 13.9446 15.6731 13.5284 15.6731 13.015C15.6731 10.9612 14.0082 9.29633 11.9544 9.29633Z" fill="white"/>
<path fill-rule="evenodd" clip-rule="evenodd" d="M1.39551 13.0146C1.39551 12.4645 1.84146 12.0186 2.39157 12.0186H4.02562C4.57573 12.0186 5.02169 12.4645 5.02169 13.0146C5.02169 13.5647 4.57573 14.0107 4.02562 14.0107H2.39157C1.84146 14.0107 1.39551 13.5647 1.39551 13.0146ZM18.8859 13.0146C18.8859 12.4645 19.3318 12.0186 19.882 12.0186H21.516C22.0661 12.0186 22.5121 12.4645 22.5121 13.0146C22.5121 13.5647 22.0661 14.0107 21.516 14.0107H19.882C19.3318 14.0107 18.8859 13.5647 18.8859 13.0146Z" fill="white"/>
<path fill-rule="evenodd" clip-rule="evenodd" d="M4.47776 20.469C4.08877 20.08 4.08877 19.4493 4.47776 19.0603L5.63321 17.9049C6.0222 17.5159 6.65287 17.5159 7.04186 17.9049C7.43084 18.2939 7.43084 18.9245 7.04186 19.3135L5.88641 20.469C5.49742 20.858 4.86675 20.858 4.47776 20.469ZM16.8453 8.1014C16.4563 7.71241 16.4563 7.08174 16.8453 6.69275L18.0008 5.53731C18.3898 5.14832 19.0204 5.14832 19.4094 5.53731C19.7984 5.92629 19.7984 6.55697 19.4094 6.94595L18.254 8.1014C17.865 8.49039 17.2343 8.49039 16.8453 8.1014Z" fill="white"/>
<path fill-rule="evenodd" clip-rule="evenodd" d="M4.48806 5.54856C4.87705 5.15957 5.50772 5.15957 5.89671 5.54856L7.05215 6.70401C7.44114 7.093 7.44114 7.72367 7.05215 8.11266C6.66317 8.50165 6.03249 8.50165 5.64351 8.11266L4.48806 6.95721C4.09907 6.56822 4.09907 5.93755 4.48806 5.54856Z" fill="white"/>
<path fill-rule="evenodd" clip-rule="evenodd" d="M11.9546 2.45605C12.5047 2.45605 12.9507 2.90201 12.9507 3.45212L12.9507 5.08617C12.9507 5.63628 12.5047 6.08223 11.9546 6.08223C11.4045 6.08223 10.9586 5.63628 10.9586 5.08617L10.9586 3.45212C10.9586 2.90201 11.4045 2.45605 11.9546 2.45605Z" fill="white"/>
<path d="M12.8842 20.1201C12.8842 20.8902 12.2599 21.5146 11.4897 21.5146C10.7195 21.5146 10.0952 20.8902 10.0952 20.1201C10.0952 19.3499 10.7195 18.7256 11.4897 18.7256C12.2599 18.7256 12.8842 19.3499 12.8842 20.1201Z" fill="white"/>
<path d="M16.204 17.0654C16.204 17.8355 15.5797 18.4599 14.8095 18.4599C14.0394 18.4599 13.415 17.8355 13.415 17.0654C13.415 16.2952 14.0394 15.6709 14.8095 15.6709C15.5797 15.6709 16.204 16.2952 16.204 17.0654Z" fill="white"/>
<path d="M19.392 20.2534C19.392 21.0235 18.7677 21.6479 17.9975 21.6479C17.2274 21.6479 16.603 21.0235 16.603 20.2534C16.603 19.4832 17.2274 18.8589 17.9975 18.8589C18.7677 18.8589 19.392 19.4832 19.392 20.2534Z" fill="white"/>
</svg>
