<svg width="25" height="24" viewBox="0 0 25 24" fill="none" xmlns="http://www.w3.org/2000/svg">
<path fill-rule="evenodd" clip-rule="evenodd" d="M9.28543 8.14734C6.68182 8.14734 4.57117 10.258 4.57117 12.8616C4.57117 15.4652 6.68182 17.5759 9.28543 17.5759C9.72995 17.5759 10.0903 17.9362 10.0903 18.3807C10.0903 18.8253 9.72995 19.1856 9.28543 19.1856C5.79278 19.1856 2.96143 16.3543 2.96143 12.8616C2.96143 9.36895 5.79278 6.5376 9.28543 6.5376C11.4398 6.5376 13.3415 7.61506 14.4828 9.25796C15.1109 8.9872 15.8032 8.83724 16.5293 8.83724C19.3869 8.83724 21.7035 11.1538 21.7035 14.0114C21.7035 16.869 19.3869 19.1856 16.5293 19.1856C16.0848 19.1856 15.7244 18.8253 15.7244 18.3807C15.7244 17.9362 16.0848 17.5759 16.5293 17.5759C18.4979 17.5759 20.0937 15.98 20.0937 14.0114C20.0937 12.0428 18.4979 10.447 16.5293 10.447C16.069 10.447 15.6301 10.5339 15.2272 10.692C15.4746 11.3694 15.6094 12.1004 15.6094 12.8616C15.6094 13.3061 15.2491 13.6665 14.8046 13.6665C14.36 13.6665 13.9997 13.3061 13.9997 12.8616C13.9997 12.0781 13.8092 11.3414 13.4727 10.6932C12.6866 9.17893 11.1058 8.14734 9.28543 8.14734Z" fill="white"/>
<path fill-rule="evenodd" clip-rule="evenodd" d="M14.3912 3.1055C14.6095 3.28953 14.7006 3.58395 14.6244 3.85916C14.5651 4.07283 14.5333 4.29853 14.5333 4.53278C14.5333 5.92664 15.6703 7.06322 17.0811 7.06322C17.4732 7.06322 17.8425 6.97578 18.1723 6.82025C18.4306 6.69844 18.7362 6.73833 18.9546 6.92236C19.173 7.1064 19.2641 7.40082 19.1878 7.67603C18.9199 8.64258 18.2977 9.45937 17.4719 9.98225C17.131 10.198 16.6798 10.0967 16.464 9.75583C16.2482 9.41499 16.3496 8.96374 16.6904 8.74794C16.7971 8.68037 16.8984 8.60519 16.9934 8.52318C15.084 8.48231 13.4989 7.11058 13.1458 5.29734C12.9105 5.68102 12.7753 6.13134 12.7753 6.61219C12.7753 6.93637 12.8364 7.2447 12.947 7.52769C13.0939 7.90341 12.9084 8.32708 12.5327 8.47397C12.157 8.62086 11.7333 8.43536 11.5864 8.05964C11.4106 7.60997 11.3145 7.12141 11.3145 6.61219C11.3145 5.01568 12.2555 3.64164 13.6089 3.00339C13.8672 2.88157 14.1728 2.92146 14.3912 3.1055Z" fill="white"/>
</svg>
