<svg width="25" height="24" viewBox="0 0 25 24" fill="none" xmlns="http://www.w3.org/2000/svg">
<path fill-rule="evenodd" clip-rule="evenodd" d="M8.80008 7.56977C5.7928 7.56977 3.35493 10.0076 3.35493 13.0149C3.35493 16.0222 5.7928 18.4601 8.80008 18.4601H17.167C19.4408 18.4601 21.2841 16.6168 21.2841 14.343C21.2841 12.0692 19.4408 10.2259 17.167 10.2259C16.6354 10.2259 16.1284 10.3263 15.6631 10.509C15.9488 11.2913 16.1046 12.1356 16.1046 13.0149C16.1046 13.5284 15.6883 13.9446 15.1749 13.9446C14.6615 13.9446 14.2452 13.5284 14.2452 13.0149C14.2452 12.1099 14.0252 11.2591 13.6365 10.5103C12.7286 8.76129 10.9027 7.56977 8.80008 7.56977ZM14.8032 8.85257C13.4851 6.95496 11.2885 5.71045 8.80008 5.71045C4.76593 5.71045 1.49561 8.98077 1.49561 13.0149C1.49561 17.0491 4.76593 20.3194 8.80008 20.3194H17.167C20.4677 20.3194 23.1434 17.6437 23.1434 14.343C23.1434 11.0423 20.4677 8.36662 17.167 8.36662C16.3284 8.36662 15.5288 8.53984 14.8032 8.85257Z" fill="white"/>
</svg>
