<svg width="25" height="24" viewBox="0 0 25 24" fill="none" xmlns="http://www.w3.org/2000/svg">
<path fill-rule="evenodd" clip-rule="evenodd" d="M7.42702 10.5237C7.58781 9.3812 8.1028 8.35319 8.85551 7.55449C9.84743 6.50197 11.2568 5.84326 12.8188 5.84326C15.8261 5.84326 18.264 8.28114 18.264 11.2884C18.264 12.5486 17.8349 13.7108 17.1154 14.6337C17.0903 14.6659 17.0633 14.6956 17.0345 14.7229C17.228 15.1984 17.3345 15.7188 17.3345 16.2633C17.3345 18.4938 15.5468 20.3195 13.32 20.3195H7.98535C5.29089 20.3195 3.12402 18.1098 3.12402 15.4056C3.12402 12.891 4.99773 10.8039 7.42702 10.5237ZM10.0153 8.64753C10.7187 7.9012 11.7139 7.43696 12.8188 7.43696C14.9459 7.43696 16.6702 9.16132 16.6702 11.2884C16.6702 12.0373 16.4572 12.7348 16.0882 13.3255C15.3694 12.6334 14.3959 12.2071 13.32 12.2071C12.8155 12.2071 12.332 12.3015 11.8866 12.4735C11.2003 11.542 10.1932 10.8623 9.02768 10.6049C9.16173 9.85552 9.51287 9.18067 10.0153 8.64753ZM4.71773 15.4056C4.71773 13.5622 6.19032 12.0854 7.98535 12.0854C9.24141 12.0854 10.3383 12.8062 10.8859 13.8748C11.12 14.3317 11.253 14.8516 11.253 15.4056C11.253 15.8457 11.6097 16.2025 12.0498 16.2025C12.4899 16.2025 12.8467 15.8457 12.8467 15.4056C12.8467 14.8836 12.7659 14.3797 12.616 13.9064C12.8386 13.8377 13.0748 13.8008 13.32 13.8008C14.6474 13.8008 15.7408 14.8937 15.7408 16.2633C15.7408 17.633 14.6474 18.7258 13.32 18.7258H7.98535C6.19032 18.7258 4.71773 17.249 4.71773 15.4056Z" fill="white"/>
<path fill-rule="evenodd" clip-rule="evenodd" d="M19.5081 13.2297C19.622 12.8046 20.059 12.5523 20.4841 12.6662L21.421 12.9173C21.8461 13.0312 22.0984 13.4681 21.9845 13.8932C21.8706 14.3183 21.4336 14.5706 21.0085 14.4567L20.0716 14.2056C19.6465 14.0917 19.3942 13.6548 19.5081 13.2297Z" fill="white"/>
<path fill-rule="evenodd" clip-rule="evenodd" d="M7.77231 2.98729C8.15344 2.76725 8.64078 2.89783 8.86083 3.27896L9.34583 4.11901C9.56588 4.50014 9.43529 4.98749 9.05416 5.20753C8.67304 5.42758 8.18569 5.29699 7.96564 4.91586L7.48064 4.07581C7.2606 3.69468 7.39118 3.20734 7.77231 2.98729Z" fill="white"/>
<path fill-rule="evenodd" clip-rule="evenodd" d="M15.1282 2.01837C15.5533 2.13227 15.8056 2.56922 15.6917 2.99431L15.4407 3.93126C15.3267 4.35636 14.8898 4.60863 14.4647 4.49472C14.0396 4.38082 13.7873 3.94388 13.9013 3.51878L14.1523 2.58183C14.2662 2.15673 14.7032 1.90447 15.1282 2.01837Z" fill="white"/>
<path fill-rule="evenodd" clip-rule="evenodd" d="M21.0156 6.53696C21.2357 6.91809 21.1051 7.40543 20.724 7.62548L19.8839 8.11048C19.5028 8.33052 19.0154 8.19994 18.7954 7.81881C18.5754 7.43768 18.7059 6.95034 19.0871 6.73029L19.9271 6.24529C20.3082 6.02524 20.7956 6.15583 21.0156 6.53696Z" fill="white"/>
</svg>
