<svg width="25" height="24" viewBox="0 0 25 24" fill="none" xmlns="http://www.w3.org/2000/svg">
<path fill-rule="evenodd" clip-rule="evenodd" d="M9.45828 6.77241C6.45101 6.77241 4.01313 9.21028 4.01313 12.2176C4.01313 14.4577 5.36609 16.384 7.30323 17.2199C7.77465 17.4233 7.99192 17.9704 7.78851 18.4418C7.58509 18.9132 7.03803 19.1305 6.56661 18.9271C3.97247 17.8077 2.15381 15.2261 2.15381 12.2176C2.15381 8.18341 5.42413 4.91309 9.45828 4.91309C11.9467 4.91309 14.1433 6.1576 15.4614 8.05521C16.187 7.74247 16.9866 7.56926 17.8252 7.56926C21.1259 7.56926 23.8016 10.245 23.8016 13.5456C23.8016 15.899 22.4413 17.9328 20.4683 18.907C20.008 19.1344 19.4505 18.9454 19.2232 18.4851C18.9958 18.0247 19.1848 17.4672 19.6451 17.2399C21.0081 16.5669 21.9423 15.1645 21.9423 13.5456C21.9423 11.2719 20.099 9.42858 17.8252 9.42858C17.2936 9.42858 16.7866 9.52893 16.3213 9.71163C16.607 10.4939 16.7628 11.3383 16.7628 12.2176C16.7628 12.731 16.3465 13.1472 15.8331 13.1472C15.3197 13.1472 14.9034 12.731 14.9034 12.2176C14.9034 11.3126 14.6834 10.4617 14.2947 9.71291C13.3868 7.96392 11.5609 6.77241 9.45828 6.77241Z" fill="white"/>
<path fill-rule="evenodd" clip-rule="evenodd" d="M17.1776 15.9178C17.6281 16.0738 17.8669 16.5655 17.711 17.016L16.5157 20.469C16.3597 20.9195 15.8681 21.1584 15.4175 21.0024C14.967 20.8464 14.7282 20.3548 14.8842 19.9043L16.0794 16.4512C16.2354 16.0007 16.727 15.7619 17.1776 15.9178Z" fill="white"/>
<path fill-rule="evenodd" clip-rule="evenodd" d="M14.3885 15.9178C14.839 16.0738 15.0779 16.5655 14.9219 17.016L13.7266 20.469C13.5707 20.9195 13.079 21.1584 12.6285 21.0024C12.1779 20.8464 11.9391 20.3548 12.0951 19.9043L13.2904 16.4512C13.4463 16.0007 13.938 15.7619 14.3885 15.9178Z" fill="white"/>
<path fill-rule="evenodd" clip-rule="evenodd" d="M11.5999 15.9178C12.0505 16.0738 12.2893 16.5655 12.1333 17.016L10.938 20.469C10.7821 20.9195 10.2904 21.1584 9.8399 21.0024C9.38937 20.8464 9.15056 20.3548 9.30652 19.9043L10.5018 16.4512C10.6577 16.0007 11.1494 15.7619 11.5999 15.9178Z" fill="white"/>
</svg>
