<svg width="25" height="24" viewBox="0 0 25 24" fill="none" xmlns="http://www.w3.org/2000/svg">
<path fill-rule="evenodd" clip-rule="evenodd" d="M9.43387 7.70258C6.42659 7.70258 3.98871 10.1405 3.98871 13.1477C3.98871 15.3879 5.34168 17.3142 7.27882 18.1501C7.75024 18.3535 7.96751 18.9005 7.76409 19.372C7.56068 19.8434 7.01361 20.0606 6.54219 19.8572C3.94805 18.7379 2.12939 16.1562 2.12939 13.1477C2.12939 9.11359 5.39972 5.84326 9.43387 5.84326C11.9223 5.84326 14.1188 7.08777 15.437 8.98538C16.1626 8.67265 16.9622 8.49943 17.8008 8.49943C21.1015 8.49943 23.7772 11.1752 23.7772 14.4758C23.7772 16.8291 22.4169 18.863 20.4439 19.8372C19.9836 20.0645 19.4261 19.8756 19.1988 19.4152C18.9714 18.9549 19.1603 18.3974 19.6207 18.1701C20.9837 17.4971 21.9179 16.0947 21.9179 14.4758C21.9179 12.202 20.0746 10.3588 17.8008 10.3588C17.2692 10.3588 16.7622 10.4591 16.2969 10.6418C16.5826 11.4241 16.7383 12.2685 16.7383 13.1477C16.7383 13.6612 16.3221 14.0774 15.8087 14.0774C15.2952 14.0774 14.879 13.6612 14.879 13.1477C14.879 12.2427 14.659 11.3919 14.2703 10.6431C13.3624 8.8941 11.5365 7.70258 9.43387 7.70258Z" fill="white"/>
<path fill-rule="evenodd" clip-rule="evenodd" d="M15.5497 6.11663C14.4553 6.11663 13.6293 6.95391 13.6293 7.91311C13.6293 8.32366 13.2965 8.65648 12.8859 8.65648C12.4754 8.65648 12.1426 8.32366 12.1426 7.91311C12.1426 6.06687 13.7018 4.62988 15.5497 4.62988C17.3976 4.62988 18.9568 6.06687 18.9568 7.91311C18.9568 8.6388 18.7118 9.30863 18.3019 9.84907C18.0538 10.1762 17.5875 10.2402 17.2604 9.99214C16.9333 9.74404 16.8692 9.27774 17.1173 8.95063C17.3414 8.65518 17.4701 8.29782 17.4701 7.91311C17.4701 6.95391 16.6441 6.11663 15.5497 6.11663Z" fill="white"/>
<path fill-rule="evenodd" clip-rule="evenodd" d="M13.2 1.75015C13.5536 1.62143 13.9447 1.80377 14.0734 2.15742L14.3884 3.02286C14.5171 3.3765 14.3348 3.76753 13.9811 3.89625C13.6275 4.02496 13.2364 3.84262 13.1077 3.48898L12.7927 2.62354C12.664 2.2699 12.8464 1.87887 13.2 1.75015Z" fill="white"/>
<path fill-rule="evenodd" clip-rule="evenodd" d="M18.8327 2.24278C19.1586 2.43095 19.2703 2.84771 19.0821 3.17363L18.6216 3.97122C18.4335 4.29714 18.0167 4.40881 17.6908 4.22064C17.3649 4.03247 17.2532 3.61572 17.4414 3.2898L17.9019 2.4922C18.09 2.16628 18.5068 2.05461 18.8327 2.24278Z" fill="white"/>
<path fill-rule="evenodd" clip-rule="evenodd" d="M22.4486 6.74201C22.5139 7.11264 22.2664 7.46606 21.8958 7.53141L20.9888 7.69134C20.6182 7.75669 20.2648 7.50922 20.1994 7.1386C20.1341 6.76797 20.3816 6.41455 20.7522 6.3492L21.6592 6.18927C22.0298 6.12392 22.3832 6.37139 22.4486 6.74201Z" fill="white"/>
<path fill-rule="evenodd" clip-rule="evenodd" d="M17.1527 16.848C17.6032 17.004 17.842 17.4956 17.6861 17.9462L16.4908 21.3992C16.3348 21.8497 15.8432 22.0885 15.3926 21.9326C14.9421 21.7766 14.7033 21.285 14.8592 20.8344L16.0545 17.3814C16.2105 16.9309 16.7021 16.6921 17.1527 16.848Z" fill="white"/>
<path fill-rule="evenodd" clip-rule="evenodd" d="M14.3641 16.848C14.8146 17.004 15.0534 17.4956 14.8975 17.9462L13.7022 21.3992C13.5463 21.8497 13.0546 22.0885 12.6041 21.9326C12.1535 21.7766 11.9147 21.285 12.0707 20.8344L13.266 17.3814C13.4219 16.9309 13.9136 16.6921 14.3641 16.848Z" fill="white"/>
<path fill-rule="evenodd" clip-rule="evenodd" d="M11.575 16.848C12.0256 17.004 12.2644 17.4956 12.1084 17.9462L10.9131 21.3992C10.7572 21.8497 10.2655 22.0885 9.815 21.9326C9.36446 21.7766 9.12566 21.285 9.28161 20.8344L10.4769 17.3814C10.6328 16.9309 11.1245 16.6921 11.575 16.848Z" fill="white"/>
</svg>
