<svg width="25" height="24" viewBox="0 0 25 24" fill="none" xmlns="http://www.w3.org/2000/svg">
<path fill-rule="evenodd" clip-rule="evenodd" d="M15.0999 2.09671C15.3183 2.28074 15.4094 2.57516 15.3331 2.85037C15.262 3.10692 15.2238 3.37779 15.2238 3.65868C15.2238 5.33175 16.5884 6.69468 18.2799 6.69468C18.7498 6.69468 19.1929 6.58984 19.5886 6.40323C19.8469 6.28141 20.1525 6.3213 20.3709 6.50533C20.5892 6.68937 20.6803 6.98379 20.6041 7.259C20.3023 8.34767 19.6014 9.26806 18.6707 9.85734C18.3298 10.0731 17.8786 9.97177 17.6628 9.63092C17.447 9.29008 17.5483 8.83883 17.8892 8.62304C18.1002 8.48943 18.2935 8.33094 18.4648 8.15187C18.4035 8.15433 18.3418 8.15558 18.2799 8.15558C15.9874 8.15558 14.0888 6.45347 13.8007 4.24347C13.4188 4.75072 13.1933 5.38002 13.1933 6.06047C13.1933 6.44926 13.2665 6.81937 13.3994 7.15915C13.5463 7.53487 13.3608 7.95854 12.985 8.10543C12.6093 8.25233 12.1857 8.06682 12.0388 7.6911C11.8407 7.18464 11.7324 6.6343 11.7324 6.06047C11.7324 4.26215 12.7924 2.71392 14.3176 1.9946C14.5759 1.87278 14.8815 1.91267 15.0999 2.09671Z" fill="white"/>
<path fill-rule="evenodd" clip-rule="evenodd" d="M9.27615 7.70258C6.26888 7.70258 3.831 10.1405 3.831 13.1477C3.831 15.3879 5.18396 17.3142 7.1211 18.1501C7.59253 18.3535 7.80979 18.9005 7.60638 19.372C7.40296 19.8434 6.8559 20.0606 6.38448 19.8572C3.79034 18.7379 1.97168 16.1562 1.97168 13.1477C1.97168 9.11359 5.242 5.84326 9.27615 5.84326C11.7646 5.84326 13.9611 7.08777 15.2793 8.98538C16.0049 8.67265 16.8045 8.49943 17.6431 8.49943C20.9438 8.49943 23.6195 11.1752 23.6195 14.4758C23.6195 16.8291 22.2592 18.863 20.2862 19.8372C19.8258 20.0645 19.2684 19.8756 19.041 19.4152C18.8137 18.9549 19.0026 18.3974 19.463 18.1701C20.8259 17.4971 21.7602 16.0947 21.7602 14.4758C21.7602 12.202 19.9169 10.3588 17.6431 10.3588C17.1115 10.3588 16.6045 10.4591 16.1392 10.6418C16.4249 11.4241 16.5806 12.2685 16.5806 13.1477C16.5806 13.6612 16.1644 14.0774 15.651 14.0774C15.1375 14.0774 14.7213 13.6612 14.7213 13.1477C14.7213 12.2427 14.5013 11.3919 14.1126 10.6431C13.2046 8.8941 11.3788 7.70258 9.27615 7.70258Z" fill="white"/>
<path fill-rule="evenodd" clip-rule="evenodd" d="M16.9954 16.848C17.446 17.004 17.6848 17.4956 17.5288 17.9462L16.3336 21.3992C16.1776 21.8497 15.6859 22.0885 15.2354 21.9326C14.7849 21.7766 14.5461 21.285 14.702 20.8344L15.8973 17.3814C16.0533 16.9309 16.5449 16.6921 16.9954 16.848Z" fill="white"/>
<path fill-rule="evenodd" clip-rule="evenodd" d="M14.2064 16.848C14.6569 17.004 14.8957 17.4956 14.7398 17.9462L13.5445 21.3992C13.3885 21.8497 12.8969 22.0885 12.4463 21.9326C11.9958 21.7766 11.757 21.285 11.913 20.8344L13.1082 17.3814C13.2642 16.9309 13.7558 16.6921 14.2064 16.848Z" fill="white"/>
<path fill-rule="evenodd" clip-rule="evenodd" d="M11.4178 16.848C11.8683 17.004 12.1071 17.4956 11.9512 17.9462L10.7559 21.3992C10.6 21.8497 10.1083 22.0885 9.65777 21.9326C9.20724 21.7766 8.96843 21.285 9.12439 20.8344L10.3197 17.3814C10.4756 16.9309 10.9673 16.6921 11.4178 16.848Z" fill="white"/>
</svg>
