<svg width="25" height="24" viewBox="0 0 25 24" fill="none" xmlns="http://www.w3.org/2000/svg">
<path fill-rule="evenodd" clip-rule="evenodd" d="M8.90701 5.71088C5.89974 5.71088 3.46186 8.14876 3.46186 11.156C3.46186 13.3962 4.81482 15.3225 6.75196 16.1584C7.22339 16.3618 7.44065 16.9088 7.23724 17.3803C7.03382 17.8517 6.48676 18.0689 6.01534 17.8655C3.4212 16.7462 1.60254 14.1646 1.60254 11.156C1.60254 7.12189 4.87286 3.85156 8.90701 3.85156C11.3954 3.85156 13.592 5.09608 14.9101 6.99368C15.6357 6.68095 16.4353 6.50773 17.274 6.50773C20.5746 6.50773 23.2503 9.18345 23.2503 12.4841C23.2503 14.8374 21.89 16.8713 19.9171 17.8455C19.4567 18.0728 18.8992 17.8839 18.6719 17.4235C18.4446 16.9632 18.6335 16.4057 19.0939 16.1784C20.4568 15.5054 21.391 14.103 21.391 12.4841C21.391 10.2103 19.5477 8.36706 17.274 8.36706C16.7423 8.36706 16.2354 8.46741 15.77 8.65011C16.0557 9.43242 16.2115 10.2768 16.2115 11.156C16.2115 11.6695 15.7953 12.0857 15.2818 12.0857C14.7684 12.0857 14.3522 11.6695 14.3522 11.156C14.3522 10.251 14.1321 9.40018 13.7434 8.65139C12.8355 6.9024 11.0096 5.71088 8.90701 5.71088Z" fill="white"/>
<path fill-rule="evenodd" clip-rule="evenodd" d="M16.6243 14.8553C17.0754 15.0096 17.316 15.5004 17.1617 15.9515L15.4352 20.9982C15.2808 21.4493 14.79 21.6899 14.3389 21.5356C13.8879 21.3813 13.6473 20.8905 13.8016 20.4394L15.5281 15.3927C15.6824 14.9416 16.1732 14.701 16.6243 14.8553Z" fill="white"/>
<path fill-rule="evenodd" clip-rule="evenodd" d="M13.7054 14.8563C14.1559 15.0123 14.3947 15.5039 14.2388 15.9545L13.0435 19.4075C12.8876 19.858 12.3959 20.0968 11.9454 19.9409C11.4948 19.7849 11.256 19.2933 11.412 18.8427L12.6073 15.3897C12.7632 14.9392 13.2549 14.7004 13.7054 14.8563Z" fill="white"/>
<path fill-rule="evenodd" clip-rule="evenodd" d="M10.7863 14.8573C11.2363 15.0148 11.4734 15.5073 11.3159 15.9573L10.9673 16.9533C10.8098 17.4033 10.3173 17.6404 9.86733 17.4829C9.41734 17.3254 9.18022 16.833 9.33772 16.383L9.68634 15.3869C9.84384 14.9369 10.3363 14.6998 10.7863 14.8573ZM9.50803 18.5095C9.95802 18.667 10.1951 19.1595 10.0376 19.6095L9.4566 21.2696C9.2991 21.7196 8.80663 21.9567 8.35663 21.7992C7.90664 21.6417 7.66952 21.1492 7.82702 20.6993L8.40806 19.0391C8.56556 18.5891 9.05803 18.352 9.50803 18.5095Z" fill="white"/>
</svg>
