<svg width="25" height="24" viewBox="0 0 25 24" fill="none" xmlns="http://www.w3.org/2000/svg">
<path fill-rule="evenodd" clip-rule="evenodd" d="M9.21233 7.64204C6.49919 7.64204 4.29975 9.84148 4.29975 12.5546C4.29975 14.5757 5.52034 16.3136 7.26807 17.0677C7.70582 17.2566 7.90757 17.7646 7.71868 18.2023C7.5298 18.6401 7.02181 18.8418 6.58406 18.6529C4.22627 17.6356 2.57324 15.2891 2.57324 12.5546C2.57324 8.88795 5.54566 5.91553 9.21233 5.91553C11.468 5.91553 13.4597 7.04056 14.6588 8.75738C15.3146 8.47719 16.0364 8.32213 16.7931 8.32213C19.7952 8.32213 22.2289 10.7558 22.2289 13.7579C22.2289 15.8984 20.9916 17.7483 19.1972 18.6343C18.7697 18.8454 18.252 18.67 18.0409 18.2425C17.8298 17.815 18.0053 17.2974 18.4328 17.0863C19.6608 16.4799 20.5024 15.2164 20.5024 13.7579C20.5024 11.7093 18.8417 10.0486 16.7931 10.0486C16.3214 10.0486 15.8712 10.1363 15.4572 10.2962C15.7124 11.0019 15.8514 11.7627 15.8514 12.5546C15.8514 13.0314 15.4649 13.4179 14.9882 13.4179C14.5114 13.4179 14.1249 13.0314 14.1249 12.5546C14.1249 11.7381 13.9264 10.9705 13.5757 10.295C12.7566 8.71697 11.1093 7.64204 9.21233 7.64204Z" fill="white"/>
<path fill-rule="evenodd" clip-rule="evenodd" d="M14.7552 6.17379C13.7589 6.17379 13.0058 6.93622 13.0058 7.81096C13.0058 8.1777 12.7085 8.475 12.3418 8.475C11.975 8.475 11.6777 8.1777 11.6777 7.81096C11.6777 6.14384 13.0857 4.8457 14.7552 4.8457C16.4247 4.8457 17.8327 6.14384 17.8327 7.81096C17.8327 8.46629 17.6115 9.07119 17.2413 9.55928C17.0197 9.85149 16.6031 9.90871 16.3109 9.68709C16.0187 9.46547 15.9615 9.04893 16.1831 8.75672C16.3874 8.48747 16.5047 8.16169 16.5047 7.81096C16.5047 6.93622 15.7516 6.17379 14.7552 6.17379Z" fill="white"/>
<path fill-rule="evenodd" clip-rule="evenodd" d="M12.6264 2.22728C12.9468 2.11065 13.3011 2.27586 13.4177 2.59628L13.7031 3.3804C13.8197 3.70082 13.6545 4.0551 13.3341 4.17173C13.0137 4.28835 12.6594 4.12314 12.5428 3.80272L12.2574 3.0186C12.1408 2.69819 12.306 2.3439 12.6264 2.22728Z" fill="white"/>
<path fill-rule="evenodd" clip-rule="evenodd" d="M17.7295 2.67323C18.0248 2.84372 18.126 3.22132 17.9555 3.51662L17.5382 4.23927C17.3677 4.53456 16.9902 4.63574 16.6949 4.46525C16.3996 4.29476 16.2984 3.91717 16.4689 3.62187L16.8861 2.89922C17.0566 2.60392 17.4342 2.50275 17.7295 2.67323Z" fill="white"/>
<path fill-rule="evenodd" clip-rule="evenodd" d="M21.0056 6.74989C21.0648 7.08569 20.8406 7.40591 20.5048 7.46512L19.683 7.61002C19.3472 7.66923 19.027 7.44501 18.9678 7.10921C18.9086 6.77341 19.1328 6.45319 19.4686 6.39398L20.2904 6.24908C20.6262 6.18987 20.9464 6.41409 21.0056 6.74989Z" fill="white"/>
<path fill-rule="evenodd" clip-rule="evenodd" d="M16.3087 15.726C16.6904 15.8566 16.894 16.2719 16.7634 16.6536L15.1991 21.2261C15.0685 21.6078 14.6532 21.8114 14.2716 21.6808C13.8899 21.5502 13.6863 21.135 13.8169 20.7533L15.3812 16.1807C15.5117 15.799 15.927 15.5955 16.3087 15.726Z" fill="white"/>
<path fill-rule="evenodd" clip-rule="evenodd" d="M13.6644 15.7269C14.0456 15.8589 14.2477 16.2749 14.1157 16.6561L13.0327 19.7847C12.9008 20.1659 12.4847 20.368 12.1035 20.236C11.7223 20.104 11.5202 19.688 11.6522 19.3068L12.7352 16.1782C12.8671 15.797 13.2831 15.5949 13.6644 15.7269Z" fill="white"/>
<path fill-rule="evenodd" clip-rule="evenodd" d="M11.0189 15.7277C11.3996 15.861 11.6003 16.2777 11.467 16.6585L11.1511 17.5609C11.0179 17.9417 10.6012 18.1424 10.2204 18.0091C9.83963 17.8758 9.639 17.4591 9.77227 17.0783L10.0881 16.1759C10.2214 15.7951 10.6381 15.5945 11.0189 15.7277ZM9.8607 19.0368C10.2415 19.1701 10.4421 19.5868 10.3088 19.9675L9.78239 21.4717C9.64912 21.8524 9.23241 22.0531 8.85165 21.9198C8.47088 21.7865 8.27024 21.3698 8.40351 20.9891L8.92996 19.4849C9.06322 19.1042 9.47993 18.9035 9.8607 19.0368Z" fill="white"/>
</svg>
