<svg width="25" height="24" viewBox="0 0 25 24" fill="none" xmlns="http://www.w3.org/2000/svg">
<path fill-rule="evenodd" clip-rule="evenodd" d="M14.3768 2.61477C14.5952 2.79881 14.6863 3.09323 14.61 3.36844C14.5472 3.59497 14.5135 3.83422 14.5135 4.08246C14.5135 5.56009 15.7188 6.76457 17.2138 6.76457C17.6292 6.76457 18.0207 6.67191 18.3702 6.50706C18.6285 6.38524 18.9341 6.42513 19.1525 6.60917C19.3709 6.7932 19.462 7.08763 19.3857 7.36283C19.1077 8.36602 18.4619 9.21389 17.6046 9.75669C17.2637 9.97249 16.8125 9.87112 16.5967 9.53027C16.3809 9.18943 16.4822 8.73818 16.8231 8.52238C16.9612 8.43495 17.0907 8.33546 17.21 8.22547C15.1592 8.22365 13.4509 6.74299 13.1132 4.79133C12.835 5.21348 12.6738 5.7178 12.6738 6.25859C12.6738 6.60215 12.7385 6.92902 12.8558 7.22905C13.0027 7.60477 12.8172 8.02843 12.4414 8.17532C12.0657 8.32222 11.642 8.13672 11.4952 7.761C11.3127 7.29429 11.2129 6.78719 11.2129 6.25859C11.2129 4.60154 12.1896 3.17524 13.5946 2.51266C13.8529 2.39085 14.1585 2.43074 14.3768 2.61477Z" fill="white"/>
<path fill-rule="evenodd" clip-rule="evenodd" d="M9.05608 7.76704C6.34294 7.76704 4.1435 9.96648 4.1435 12.6796C4.1435 14.7007 5.36409 16.4386 7.11182 17.1927C7.54957 17.3816 7.75132 17.8896 7.56243 18.3273C7.37355 18.7651 6.86556 18.9668 6.42781 18.7779C4.07002 17.7606 2.41699 15.4141 2.41699 12.6796C2.41699 9.01295 5.38941 6.04053 9.05608 6.04053C11.3117 6.04053 13.3035 7.16556 14.5026 8.88238C15.1584 8.60219 15.8802 8.44713 16.6369 8.44713C19.639 8.44713 22.0727 10.8808 22.0727 13.8829C22.0727 16.0234 20.8354 17.8733 19.0409 18.7593C18.6134 18.9704 18.0958 18.795 17.8847 18.3675C17.6736 17.94 17.849 17.4224 18.2765 17.2113C19.5045 16.6049 20.3462 15.3414 20.3462 13.8829C20.3462 11.8343 18.6854 10.1736 16.6369 10.1736C16.1651 10.1736 15.7149 10.2613 15.3009 10.4212C15.5562 11.1269 15.6952 11.8877 15.6952 12.6796C15.6952 13.1564 15.3087 13.5429 14.8319 13.5429C14.3552 13.5429 13.9687 13.1564 13.9687 12.6796C13.9687 11.8631 13.7701 11.0955 13.4195 10.42C12.6003 8.84197 10.953 7.76704 9.05608 7.76704Z" fill="white"/>
<path fill-rule="evenodd" clip-rule="evenodd" d="M15.9762 15.7934C16.3579 15.924 16.5615 16.3393 16.4309 16.721L15.0136 20.8639C14.883 21.2456 14.4677 21.4492 14.086 21.3186C13.7043 21.188 13.5007 20.7727 13.6313 20.391L15.0486 16.2481C15.1792 15.8664 15.5945 15.6628 15.9762 15.7934Z" fill="white"/>
<path fill-rule="evenodd" clip-rule="evenodd" d="M13.5802 15.7943C13.9614 15.9263 14.1635 16.3423 14.0315 16.7235L13.0503 19.5581C12.9183 19.9393 12.5023 20.1414 12.1211 20.0094C11.7399 19.8775 11.5378 19.4615 11.6698 19.0802L12.651 16.2456C12.783 15.8644 13.199 15.6623 13.5802 15.7943Z" fill="white"/>
<path fill-rule="evenodd" clip-rule="evenodd" d="M11.1843 15.7951C11.5651 15.9284 11.7657 16.3451 11.6325 16.7259L11.3463 17.5435C11.213 17.9243 10.7963 18.1249 10.4155 17.9917C10.0348 17.8584 9.83412 17.4417 9.96739 17.0609L10.2536 16.2432C10.3868 15.8625 10.8036 15.6618 11.1843 15.7951ZM10.135 18.7933C10.5157 18.9265 10.7164 19.3432 10.5831 19.724L10.1061 21.0868C9.97285 21.4676 9.55614 21.6682 9.17538 21.5349C8.79461 21.4017 8.59397 20.985 8.72724 20.6042L9.20422 19.2414C9.33749 18.8606 9.7542 18.66 10.135 18.7933Z" fill="white"/>
</svg>
