<svg width="25" height="24" viewBox="0 0 25 24" fill="none" xmlns="http://www.w3.org/2000/svg">
<path fill-rule="evenodd" clip-rule="evenodd" d="M9.09207 5.24555C6.04812 5.24555 3.58052 7.71316 3.58052 10.7571C3.58052 13.0247 4.95011 14.9744 6.91071 15.8204C7.34847 16.0093 7.55021 16.5173 7.36133 16.955C7.17244 17.3928 6.66445 17.5945 6.2267 17.4056C3.65603 16.2964 1.854 13.7382 1.854 10.7571C1.854 6.75964 5.0946 3.51904 9.09207 3.51904C11.5774 3.51904 13.769 4.77182 15.0716 6.67752C15.8022 6.35455 16.6104 6.17521 17.459 6.17521C20.723 6.17521 23.369 8.8212 23.369 12.0852C23.369 14.4123 22.0239 16.4236 20.0727 17.3871C19.6453 17.5981 19.1276 17.4227 18.9165 16.9952C18.7054 16.5677 18.8808 16.0501 19.3083 15.839C20.6931 15.1552 21.6425 13.7303 21.6425 12.0852C21.6425 9.77473 19.7695 7.90173 17.459 7.90173C16.8958 7.90173 16.3597 8.01262 15.8704 8.21366C16.1677 9.00566 16.3301 9.86312 16.3301 10.7571C16.3301 11.2339 15.9436 11.6204 15.4669 11.6204C14.9901 11.6204 14.6036 11.2339 14.6036 10.7571C14.6036 9.84122 14.3809 8.97989 13.9874 8.22187C13.0685 6.45175 11.2204 5.24555 9.09207 5.24555Z" fill="white"/>
<path d="M11.4833 19.4555C11.4833 20.2257 10.859 20.85 10.0888 20.85C9.31867 20.85 8.69434 20.2257 8.69434 19.4555C8.69434 18.6854 9.31867 18.061 10.0888 18.061C10.859 18.061 11.4833 18.6854 11.4833 19.4555Z" fill="white"/>
<path d="M14.537 15.8706C14.537 16.6407 13.9127 17.2651 13.1425 17.2651C12.3724 17.2651 11.748 16.6407 11.748 15.8706C11.748 15.1004 12.3724 14.4761 13.1425 14.4761C13.9127 14.4761 14.537 15.1004 14.537 15.8706Z" fill="white"/>
<path d="M17.7245 19.5893C17.7245 20.3595 17.1002 20.9838 16.33 20.9838C15.5599 20.9838 14.9355 20.3595 14.9355 19.5893C14.9355 18.8192 15.5599 18.1948 16.33 18.1948C17.1002 18.1948 17.7245 18.8192 17.7245 19.5893Z" fill="white"/>
</svg>
