<svg width="25" height="24" viewBox="0 0 25 24" fill="none" xmlns="http://www.w3.org/2000/svg">
<path fill-rule="evenodd" clip-rule="evenodd" d="M12.3514 8.36664C10.2976 8.36664 8.63276 10.0315 8.63276 12.0853C8.63276 13.0433 8.99381 13.9148 9.58878 14.5746C9.93262 14.9559 9.90226 15.5437 9.52096 15.8876C9.13966 16.2314 8.55182 16.201 8.20797 15.8197C7.31698 14.8317 6.77344 13.5209 6.77344 12.0853C6.77344 9.00466 9.27078 6.50732 12.3514 6.50732C15.432 6.50732 17.9294 9.00466 17.9294 12.0853C17.9294 12.5987 17.5131 13.0149 16.9997 13.0149C16.4863 13.0149 16.07 12.5987 16.07 12.0853C16.07 10.0315 14.4051 8.36664 12.3514 8.36664Z" fill="white"/>
<path fill-rule="evenodd" clip-rule="evenodd" d="M1.79395 12.0859C1.79395 11.5358 2.2399 11.0898 2.79001 11.0898H4.42406C4.97417 11.0898 5.42012 11.5358 5.42012 12.0859C5.42012 12.636 4.97417 13.082 4.42406 13.082H2.79001C2.2399 13.082 1.79395 12.636 1.79395 12.0859ZM19.2843 12.0859C19.2843 11.5358 19.7303 11.0898 20.2804 11.0898H21.9144C22.4646 11.0898 22.9105 11.5358 22.9105 12.0859C22.9105 12.636 22.4646 13.082 21.9144 13.082H20.2804C19.7303 13.082 19.2843 12.636 19.2843 12.0859Z" fill="white"/>
<path fill-rule="evenodd" clip-rule="evenodd" d="M4.87376 19.5388C4.48477 19.1498 4.48477 18.5191 4.87376 18.1301L6.02921 16.9747C6.41819 16.5857 7.04887 16.5857 7.43785 16.9747C7.82684 17.3637 7.82684 17.9944 7.43785 18.3833L6.28241 19.5388C5.89342 19.9278 5.26274 19.9278 4.87376 19.5388ZM17.2413 7.17123C16.8523 6.78224 16.8523 6.15156 17.2413 5.76258L18.3968 4.60713C18.7858 4.21814 19.4164 4.21814 19.8054 4.60713C20.1944 4.99612 20.1944 5.62679 19.8054 6.01578L18.65 7.17123C18.261 7.56021 17.6303 7.56021 17.2413 7.17123Z" fill="white"/>
<path fill-rule="evenodd" clip-rule="evenodd" d="M4.88552 4.61985C5.27451 4.23086 5.90518 4.23086 6.29417 4.61985L7.44962 5.7753C7.8386 6.16429 7.8386 6.79496 7.44962 7.18395C7.06063 7.57293 6.42996 7.57293 6.04097 7.18395L4.88552 6.0285C4.49653 5.63951 4.49653 5.00884 4.88552 4.61985Z" fill="white"/>
<path fill-rule="evenodd" clip-rule="evenodd" d="M12.3511 1.52686C12.9012 1.52686 13.3472 1.97281 13.3472 2.52292L13.3472 4.15697C13.3472 4.70708 12.9012 5.15303 12.3511 5.15303C11.801 5.15303 11.355 4.70708 11.355 4.15697L11.355 2.52292C11.355 1.97281 11.801 1.52686 12.3511 1.52686Z" fill="white"/>
<path fill-rule="evenodd" clip-rule="evenodd" d="M15.1489 14.4761C15.5157 14.4761 15.813 14.7734 15.813 15.1401V15.9165L16.5894 15.9165C16.9561 15.9165 17.2534 16.2138 17.2534 16.5806C17.2534 16.9473 16.9561 17.2446 16.5894 17.2446H15.813V18.021C15.813 18.3878 15.5157 18.6851 15.1489 18.6851C14.7822 18.6851 14.4849 18.3878 14.4849 18.021V17.2446H13.7085C13.3417 17.2446 13.0444 16.9473 13.0444 16.5806C13.0444 16.2138 13.3417 15.9165 13.7085 15.9165L14.4849 15.9165V15.1401C14.4849 14.7734 14.7822 14.4761 15.1489 14.4761Z" fill="white"/>
<path fill-rule="evenodd" clip-rule="evenodd" d="M11.667 17.8364C12.0337 17.8364 12.331 18.1337 12.331 18.5005V19.2769L13.1075 19.2769C13.4742 19.2769 13.7715 19.5742 13.7715 19.9409C13.7715 20.3077 13.4742 20.605 13.1075 20.605H12.331V21.3814C12.331 21.7481 12.0337 22.0454 11.667 22.0454C11.3003 22.0454 11.003 21.7481 11.003 21.3814V20.605H10.2265C9.8598 20.605 9.5625 20.3077 9.5625 19.9409C9.5625 19.5742 9.8598 19.2769 10.2265 19.2769L11.003 19.2769V18.5005C11.003 18.1337 11.3003 17.8364 11.667 17.8364Z" fill="white"/>
<path fill-rule="evenodd" clip-rule="evenodd" d="M18.75 17.8364C19.1168 17.8364 19.4141 18.1337 19.4141 18.5005V19.2769L20.1905 19.2769C20.5572 19.2769 20.8545 19.5742 20.8545 19.9409C20.8545 20.3077 20.5572 20.605 20.1905 20.605H19.4141V21.3814C19.4141 21.7481 19.1168 22.0454 18.75 22.0454C18.3833 22.0454 18.086 21.7481 18.086 21.3814V20.605H17.3096C16.9428 20.605 16.6455 20.3077 16.6455 19.9409C16.6455 19.5742 16.9428 19.2769 17.3096 19.2769L18.086 19.2769V18.5005C18.086 18.1337 18.3833 17.8364 18.75 17.8364Z" fill="white"/>
</svg>
