<svg width="180" height="180" viewBox="0 0 180 180" fill="none" xmlns="http://www.w3.org/2000/svg">
<path fill-rule="evenodd" clip-rule="evenodd" d="M62.9522 45.7477C56.2741 50.4393 52.963 56.3043 52.963 62.0588C52.963 67.8133 56.2741 73.6783 62.9522 78.3699C69.6111 83.0481 79.1537 86.1471 90 86.1471C100.846 86.1471 110.389 83.0481 117.048 78.3699C123.726 73.6783 127.037 67.8133 127.037 62.0588C127.037 56.3043 123.726 50.4393 117.048 45.7477C110.389 41.0696 100.846 37.9706 90 37.9706C79.1537 37.9706 69.6111 41.0696 62.9522 45.7477ZM55.5033 35.1324C64.595 28.7451 76.8117 25 90 25C103.188 25 115.405 28.7451 124.497 35.1324C133.569 41.5062 140 50.928 140 62.0588C140 73.1896 133.569 82.6114 124.497 88.9852C115.405 95.3725 103.188 99.1176 90 99.1176C82.0091 99.1176 74.3749 97.7427 67.5764 95.2382C63.4508 97.9815 62.2222 100.714 62.2222 102.563C62.2222 104.633 63.7755 107.819 69.1566 110.856C74.3382 113.781 81.9322 115.794 90.6733 115.794C97.3991 115.794 103.493 114.6 108.334 112.682C113.266 110.728 116.427 108.22 117.96 105.947C119.962 102.977 123.99 102.194 126.958 104.197C129.926 106.2 130.708 110.231 128.707 113.2C125.554 117.877 120.562 121.475 114.872 124.001C116.099 126.155 116.852 128.618 116.852 131.371C116.852 138.219 112.202 143.266 107.165 146.247C101.985 149.313 95.2511 151 88.1617 151C79.9325 151 72.0614 148.718 66.6075 144.527C63.7686 142.345 63.2348 138.274 65.4152 135.433C67.5957 132.593 71.6647 132.058 74.5036 134.24C77.1709 136.29 82.0518 138.029 88.1617 138.029C93.3378 138.029 97.7084 136.774 100.566 135.083C103.567 133.307 103.889 131.781 103.889 131.371C103.889 130.983 103.614 129.62 101.063 127.967C97.7296 128.49 94.2452 128.765 90.6733 128.765C80.1217 128.765 70.2495 126.365 62.7879 122.153C55.5259 118.055 49.2593 111.382 49.2593 102.563C49.2593 97.1118 51.6595 92.4769 55.1989 88.7695C46.2873 82.3997 40 73.0647 40 62.0588C40 50.928 46.4308 41.5062 55.5033 35.1324Z" fill="white"/>
</svg>
