<svg width="25" height="24" viewBox="0 0 25 24" fill="none" xmlns="http://www.w3.org/2000/svg">
<path fill-rule="evenodd" clip-rule="evenodd" d="M8.82659 7.88764C6.11345 7.88764 3.91401 10.0871 3.91401 12.8002C3.91401 14.4187 4.6958 15.8544 5.90605 16.7509C6.28916 17.0346 6.36969 17.5752 6.08592 17.9584C5.80215 18.3415 5.26153 18.422 4.87842 18.1382C3.24749 16.9302 2.1875 14.9889 2.1875 12.8002C2.1875 9.13356 5.15992 6.16113 8.82659 6.16113C11.0822 6.16113 13.074 7.28617 14.2731 9.00298C14.9289 8.72279 15.6507 8.56773 16.4074 8.56773C19.4095 8.56773 21.8432 11.0014 21.8432 14.0035C21.8432 15.6347 21.1236 17.0989 19.9875 18.0939C19.6288 18.4081 19.0834 18.372 18.7693 18.0133C18.4552 17.6547 18.4913 17.1093 18.8499 16.7951C19.6277 16.114 20.1167 15.1164 20.1167 14.0035C20.1167 11.9549 18.456 10.2942 16.4074 10.2942C15.9356 10.2942 15.4854 10.3819 15.0714 10.5418C15.3267 11.2475 15.4657 12.0083 15.4657 12.8002C15.4657 13.277 15.0792 13.6635 14.6024 13.6635C14.1257 13.6635 13.7392 13.277 13.7392 12.8002C13.7392 11.9837 13.5406 11.2161 13.19 10.5406C12.3708 8.96258 10.7235 7.88764 8.82659 7.88764Z" fill="white"/>
<path fill-rule="evenodd" clip-rule="evenodd" d="M14.368 6.42037C13.3717 6.42037 12.6186 7.1828 12.6186 8.05754C12.6186 8.42428 12.3213 8.72158 11.9546 8.72158C11.5878 8.72158 11.2905 8.42428 11.2905 8.05754C11.2905 6.39042 12.6985 5.09229 14.368 5.09229C16.0375 5.09229 17.4455 6.39042 17.4455 8.05754C17.4455 8.71287 17.2243 9.31777 16.8541 9.80587C16.6325 10.0981 16.2159 10.1553 15.9237 9.93367C15.6315 9.71205 15.5743 9.29551 15.7959 9.00331C16.0001 8.73405 16.1175 8.40828 16.1175 8.05754C16.1175 7.1828 15.3644 6.42037 14.368 6.42037Z" fill="white"/>
<path fill-rule="evenodd" clip-rule="evenodd" d="M12.2387 2.47386C12.5591 2.35724 12.9134 2.52244 13.03 2.84286L13.3154 3.62698C13.432 3.9474 13.2668 4.30169 12.9464 4.41831C12.626 4.53493 12.2717 4.36972 12.1551 4.04931L11.8697 3.26518C11.7531 2.94477 11.9183 2.59048 12.2387 2.47386Z" fill="white"/>
<path fill-rule="evenodd" clip-rule="evenodd" d="M17.3437 2.91982C17.639 3.09031 17.7402 3.4679 17.5697 3.7632L17.1525 4.48585C16.982 4.78115 16.6044 4.88232 16.3091 4.71183C16.0138 4.54134 15.9126 4.16375 16.0831 3.86845L16.5004 3.1458C16.6708 2.8505 17.0484 2.74933 17.3437 2.91982Z" fill="white"/>
<path fill-rule="evenodd" clip-rule="evenodd" d="M20.6189 6.99696C20.6781 7.33276 20.4539 7.65298 20.1181 7.71219L19.2963 7.85709C18.9605 7.9163 18.6403 7.69208 18.5811 7.35628C18.5218 7.02048 18.7461 6.70026 19.0819 6.64105L19.9036 6.49615C20.2394 6.43694 20.5597 6.66116 20.6189 6.99696Z" fill="white"/>
<path fill-rule="evenodd" clip-rule="evenodd" d="M16.4582 16.3602C16.8742 16.5036 17.0952 16.9572 16.9517 17.3732L15.6236 21.2247C15.4802 21.6407 15.0266 21.8617 14.6105 21.7182C14.1945 21.5748 13.9735 21.1212 14.117 20.7052L15.4451 16.8537C15.5885 16.4377 16.0421 16.2167 16.4582 16.3602Z" fill="white"/>
<path fill-rule="evenodd" clip-rule="evenodd" d="M13.8019 16.3602C14.218 16.5036 14.4389 16.9572 14.2955 17.3732L12.9674 21.2247C12.8239 21.6407 12.3703 21.8617 11.9543 21.7182C11.5382 21.5748 11.3173 21.1212 11.4607 20.7052L12.7888 16.8537C12.9323 16.4377 13.3859 16.2167 13.8019 16.3602Z" fill="white"/>
<path fill-rule="evenodd" clip-rule="evenodd" d="M10.907 16.4054C11.2244 16.7103 11.2344 17.2147 10.9295 17.5321L10.1384 18.3554L10.7873 18.7746C10.9872 18.9037 11.1189 19.1154 11.1464 19.3518C11.1739 19.5881 11.0944 19.8244 10.9295 19.996L9.4686 21.5163C9.16367 21.8337 8.65923 21.8437 8.3419 21.5388C8.02458 21.2339 8.01452 20.7294 8.31945 20.4121L9.11059 19.5888L8.46167 19.1696C8.26177 19.0405 8.13004 18.8288 8.10252 18.5924C8.075 18.356 8.15456 18.1197 8.31945 17.9481L9.78034 16.4278C10.0853 16.1105 10.5897 16.1005 10.907 16.4054Z" fill="white"/>
</svg>
