<svg width="25" height="24" viewBox="0 0 25 24" fill="none" xmlns="http://www.w3.org/2000/svg">
<path fill-rule="evenodd" clip-rule="evenodd" d="M14.9901 2.61477C15.2085 2.79881 15.2996 3.09323 15.2233 3.36844C15.1605 3.59497 15.1268 3.83422 15.1268 4.08246C15.1268 5.56009 16.3321 6.76457 17.8271 6.76457C18.2425 6.76457 18.634 6.67191 18.9835 6.50706C19.2418 6.38524 19.5474 6.42513 19.7658 6.60917C19.9842 6.7932 20.0753 7.08763 19.999 7.36283C19.7209 8.36602 19.0752 9.21389 18.2178 9.75669C17.877 9.97249 17.4257 9.87112 17.2099 9.53027C16.9941 9.18943 17.0955 8.73818 17.4364 8.52238C17.5745 8.43495 17.7039 8.33546 17.8233 8.22547C15.7725 8.22365 14.0642 6.74299 13.7265 4.79133C13.4483 5.21348 13.2871 5.7178 13.2871 6.25859C13.2871 6.60215 13.3517 6.92902 13.469 7.22905C13.6159 7.60477 13.4304 8.02843 13.0547 8.17532C12.679 8.32222 12.2553 8.13672 12.1084 7.761C11.926 7.29429 11.8262 6.78719 11.8262 6.25859C11.8262 4.60154 12.8029 3.17524 14.2078 2.51266C14.4661 2.39085 14.7717 2.43074 14.9901 2.61477Z" fill="white"/>
<path fill-rule="evenodd" clip-rule="evenodd" d="M9.66839 7.88764C6.95525 7.88764 4.75581 10.0871 4.75581 12.8002C4.75581 14.4187 5.5376 15.8544 6.74784 16.7509C7.13096 17.0346 7.21149 17.5752 6.92772 17.9584C6.64394 18.3415 6.10333 18.422 5.72021 18.1382C4.08929 16.9302 3.0293 14.9889 3.0293 12.8002C3.0293 9.13356 6.00172 6.16113 9.66839 6.16113C11.924 6.16113 13.9158 7.28617 15.1149 9.00298C15.7707 8.72279 16.4925 8.56773 17.2492 8.56773C20.2513 8.56773 22.685 11.0014 22.685 14.0035C22.685 15.6347 21.9654 17.0989 20.8293 18.0939C20.4706 18.4081 19.9252 18.372 19.6111 18.0133C19.297 17.6547 19.3331 17.1093 19.6917 16.7951C20.4695 16.114 20.9585 15.1164 20.9585 14.0035C20.9585 11.9549 19.2978 10.2942 17.2492 10.2942C16.7774 10.2942 16.3272 10.3819 15.9132 10.5418C16.1685 11.2475 16.3075 12.0083 16.3075 12.8002C16.3075 13.277 15.921 13.6635 15.4442 13.6635C14.9675 13.6635 14.581 13.277 14.581 12.8002C14.581 11.9837 14.3824 11.2161 14.0318 10.5406C13.2126 8.96258 11.5653 7.88764 9.66839 7.88764Z" fill="white"/>
<path fill-rule="evenodd" clip-rule="evenodd" d="M17.3014 16.3602C17.7175 16.5036 17.9384 16.9572 17.795 17.3732L16.4669 21.2247C16.3234 21.6407 15.8699 21.8617 15.4538 21.7182C15.0378 21.5748 14.8168 21.1212 14.9603 20.7052L16.2883 16.8537C16.4318 16.4377 16.8854 16.2167 17.3014 16.3602Z" fill="white"/>
<path fill-rule="evenodd" clip-rule="evenodd" d="M14.6447 16.3602C15.0607 16.5036 15.2817 16.9572 15.1382 17.3732L13.8102 21.2247C13.6667 21.6407 13.2131 21.8617 12.7971 21.7182C12.381 21.5748 12.16 21.1212 12.3035 20.7052L13.6316 16.8537C13.7751 16.4377 14.2286 16.2167 14.6447 16.3602Z" fill="white"/>
<path fill-rule="evenodd" clip-rule="evenodd" d="M11.7498 16.4054C12.0671 16.7103 12.0772 17.2147 11.7723 17.5321L10.9811 18.3554L11.6301 18.7746C11.8299 18.9037 11.9617 19.1154 11.9892 19.3518C12.0167 19.5881 11.9372 19.8244 11.7723 19.996L10.3114 21.5163C10.0064 21.8337 9.50201 21.8437 9.18468 21.5388C8.86735 21.2339 8.8573 20.7294 9.16222 20.4121L9.95336 19.5888L9.30444 19.1696C9.10454 19.0405 8.97281 18.8288 8.94529 18.5924C8.91777 18.356 8.99734 18.1197 9.16222 17.9481L10.6231 16.4278C10.928 16.1105 11.4325 16.1005 11.7498 16.4054Z" fill="white"/>
</svg>
