<svg width="25" height="24" viewBox="0 0 25 24" fill="none" xmlns="http://www.w3.org/2000/svg">
<path fill-rule="evenodd" clip-rule="evenodd" d="M14.9974 5.75729C14.0011 5.75729 13.248 6.51972 13.248 7.39445C13.248 7.76119 12.9507 8.05849 12.584 8.05849C12.2172 8.05849 11.9199 7.76119 11.9199 7.39445C11.9199 5.72734 13.3279 4.4292 14.9974 4.4292C16.6669 4.4292 18.0749 5.72734 18.0749 7.39445C18.0749 8.04978 17.8537 8.65469 17.4835 9.14278C17.2619 9.43498 16.8453 9.4922 16.5531 9.27058C16.2609 9.04896 16.2037 8.63242 16.4253 8.34022C16.6295 8.07096 16.7468 7.74519 16.7468 7.39445C16.7468 6.51972 15.9938 5.75729 14.9974 5.75729Z" fill="white"/>
<path fill-rule="evenodd" clip-rule="evenodd" d="M12.8686 1.8098C13.189 1.69317 13.5433 1.85838 13.6599 2.1788L13.9453 2.96292C14.0619 3.28334 13.8967 3.63762 13.5763 3.75425C13.2559 3.87087 12.9016 3.70566 12.785 3.38524L12.4996 2.60112C12.3829 2.28071 12.5482 1.92642 12.8686 1.8098Z" fill="white"/>
<path fill-rule="evenodd" clip-rule="evenodd" d="M17.9717 2.25673C18.267 2.42722 18.3681 2.80481 18.1976 3.10011L17.7804 3.82276C17.6099 4.11806 17.2323 4.21924 16.937 4.04875C16.6417 3.87826 16.5406 3.50066 16.7111 3.20537L17.1283 2.48271C17.2988 2.18742 17.6764 2.08624 17.9717 2.25673Z" fill="white"/>
<path fill-rule="evenodd" clip-rule="evenodd" d="M21.2473 6.33241C21.3065 6.66821 21.0823 6.98843 20.7465 7.04764L19.9247 7.19254C19.5889 7.25175 19.2687 7.02753 19.2095 6.69173C19.1503 6.35593 19.3745 6.03571 19.7103 5.9765L20.5321 5.8316C20.8679 5.77239 21.1881 5.99661 21.2473 6.33241Z" fill="white"/>
<path fill-rule="evenodd" clip-rule="evenodd" d="M9.45599 7.30366C6.78537 7.30366 4.60981 9.48485 4.60981 12.1886C4.60981 14.2017 5.81733 15.9289 7.54011 16.6772C8.01104 16.8818 8.22697 17.4294 8.0224 17.9003C7.81784 18.3712 7.27025 18.5872 6.79932 18.3826C4.41658 17.3476 2.75049 14.9629 2.75049 12.1886C2.75049 8.46972 5.74679 5.44434 9.45599 5.44434C11.7174 5.44434 13.7139 6.57005 14.9271 8.28864C15.5772 8.01707 16.2902 7.86709 17.0368 7.86709C20.0814 7.86709 22.539 10.3501 22.539 13.4C22.539 15.5754 21.2897 17.459 19.4724 18.3624C19.0127 18.5909 18.4547 18.4035 18.2261 17.9437C17.9976 17.484 18.185 16.926 18.6448 16.6974C19.85 16.0983 20.6796 14.8477 20.6796 13.4C20.6796 11.3653 19.0428 9.72641 17.0368 9.72641C16.5955 9.72641 16.1734 9.80518 15.7828 9.94957C16.0282 10.651 16.1615 11.4048 16.1615 12.1886C16.1615 12.702 15.7453 13.1183 15.2318 13.1183C14.7184 13.1183 14.3022 12.702 14.3022 12.1886C14.3022 11.3755 14.1058 10.6114 13.7593 9.93945C12.9496 8.36923 11.3239 7.30366 9.45599 7.30366Z" fill="white"/>
<path fill-rule="evenodd" clip-rule="evenodd" d="M14.7469 15.0281C15.1025 15.3457 15.1332 15.8915 14.8156 16.247L13.4734 17.7493L14.6643 18.5767C14.8674 18.7178 15.0002 18.9391 15.0291 19.1847C15.058 19.4302 14.9803 19.6764 14.8156 19.8608L12.8234 22.0906C12.5058 22.4461 11.9601 22.4768 11.6045 22.1592C11.249 21.8416 11.2183 21.2958 11.5359 20.9403L12.8781 19.438L11.6871 18.6106C11.4841 18.4695 11.3513 18.2482 11.3223 18.0026C11.2934 17.7571 11.3712 17.5109 11.5359 17.3265L13.528 15.0967C13.8457 14.7412 14.3914 14.7105 14.7469 15.0281Z" fill="white"/>
</svg>
