<svg width="25" height="24" viewBox="0 0 25 24" fill="none" xmlns="http://www.w3.org/2000/svg">
<path fill-rule="evenodd" clip-rule="evenodd" d="M14.619 2.61477C14.8374 2.79881 14.9285 3.09323 14.8522 3.36844C14.7894 3.59497 14.7557 3.83422 14.7557 4.08246C14.7557 5.56009 15.961 6.76457 17.456 6.76457C17.8714 6.76457 18.2629 6.67191 18.6124 6.50706C18.8707 6.38524 19.1763 6.42513 19.3947 6.60917C19.6131 6.7932 19.7042 7.08763 19.6279 7.36283C19.3498 8.36602 18.7041 9.21389 17.8467 9.75669C17.5059 9.97249 17.0546 9.87112 16.8388 9.53027C16.6231 9.18943 16.7244 8.73818 17.0653 8.52238C17.2034 8.43495 17.3328 8.33546 17.4522 8.22547C15.4014 8.22365 13.6931 6.74299 13.3554 4.79133C13.0772 5.21348 12.916 5.7178 12.916 6.25859C12.916 6.60215 12.9806 6.92902 13.0979 7.22905C13.2448 7.60477 13.0593 8.02843 12.6836 8.17532C12.3079 8.32222 11.8842 8.13672 11.7373 7.761C11.5549 7.29429 11.4551 6.78719 11.4551 6.25859C11.4551 4.60154 12.4318 3.17524 13.8367 2.51266C14.095 2.39085 14.4006 2.43074 14.619 2.61477Z" fill="white"/>
<path fill-rule="evenodd" clip-rule="evenodd" d="M9.29827 7.88764C6.58513 7.88764 4.38569 10.0871 4.38569 12.8002C4.38569 14.4187 5.16748 15.8544 6.37773 16.7509C6.76084 17.0346 6.84137 17.5752 6.5576 17.9584C6.27383 18.3415 5.73321 18.422 5.3501 18.1382C3.71917 16.9302 2.65918 14.9889 2.65918 12.8002C2.65918 9.13356 5.6316 6.16113 9.29827 6.16113C11.5539 6.16113 13.5456 7.28617 14.7448 9.00298C15.4006 8.72279 16.1224 8.56773 16.8791 8.56773C19.8812 8.56773 22.3148 11.0014 22.3148 14.0035C22.3148 15.6347 21.5953 17.0989 20.4591 18.0939C20.1005 18.4081 19.5551 18.372 19.241 18.0133C18.9269 17.6547 18.963 17.1093 19.3216 16.7951C20.0993 16.114 20.5883 15.1164 20.5883 14.0035C20.5883 11.9549 18.9276 10.2942 16.8791 10.2942C16.4073 10.2942 15.9571 10.3819 15.5431 10.5418C15.7984 11.2475 15.9374 12.0083 15.9374 12.8002C15.9374 13.277 15.5509 13.6635 15.0741 13.6635C14.5973 13.6635 14.2109 13.277 14.2109 12.8002C14.2109 11.9837 14.0123 11.2161 13.6617 10.5406C12.8425 8.96258 11.1952 7.88764 9.29827 7.88764Z" fill="white"/>
<path fill-rule="evenodd" clip-rule="evenodd" d="M14.058 15.0281C14.4135 15.3457 14.4442 15.8915 14.1266 16.247L12.7844 17.7493L13.9754 18.5767C14.1784 18.7178 14.3112 18.9391 14.3402 19.1847C14.3691 19.4302 14.2913 19.6764 14.1266 19.8608L12.1345 22.0906C11.8168 22.4461 11.2711 22.4768 10.9156 22.1592C10.56 21.8416 10.5293 21.2958 10.8469 20.9403L12.1891 19.438L10.9982 18.6106C10.7951 18.4695 10.6623 18.2482 10.6334 18.0026C10.6045 17.7571 10.6822 17.5109 10.8469 17.3265L12.8391 15.0967C13.1567 14.7412 13.7024 14.7105 14.058 15.0281Z" fill="white"/>
</svg>
