<svg width="25" height="24" viewBox="0 0 25 24" fill="none" xmlns="http://www.w3.org/2000/svg">
<path fill-rule="evenodd" clip-rule="evenodd" d="M17.3176 1.81686C16.855 1.81686 16.4625 2.07734 16.2772 2.44497C16.1121 2.77245 15.7128 2.9041 15.3853 2.73901C15.0578 2.57393 14.9262 2.17462 15.0912 1.84714C15.4991 1.038 16.3466 0.48877 17.3176 0.48877C18.6745 0.48877 19.8013 1.56721 19.8013 2.93019C19.8013 4.06277 19.0232 4.99888 17.9817 5.28299V5.33628C17.9817 5.70302 17.6844 6.00033 17.3176 6.00033C16.9509 6.00033 16.6536 5.70302 16.6536 5.33628V4.70756C16.6536 4.34082 16.9509 4.04352 17.3176 4.04352C17.9706 4.04352 18.4732 3.53045 18.4732 2.93019C18.4732 2.32993 17.9706 1.81686 17.3176 1.81686Z" fill="white"/>
<path d="M18.3413 7.7656C18.3413 8.27903 17.925 8.69526 17.4116 8.69526C16.8982 8.69526 16.4819 8.27903 16.4819 7.7656C16.4819 7.25216 16.8982 6.83594 17.4116 6.83594C17.925 6.83594 18.3413 7.25216 18.3413 7.7656Z" fill="white"/>
<path fill-rule="evenodd" clip-rule="evenodd" d="M9.04373 6.50727C6.03646 6.50727 3.59858 8.94515 3.59858 11.9524C3.59858 14.9597 6.03646 17.3976 9.04373 17.3976H17.4107C19.6845 17.3976 21.5277 15.5543 21.5277 13.2805C21.5277 11.7802 20.7258 10.4663 19.5227 9.74555C19.0822 9.4817 18.9391 8.91074 19.2029 8.47029C19.4668 8.02984 20.0377 7.88667 20.4782 8.15052C22.2186 9.19314 23.3871 11.0999 23.3871 13.2805C23.3871 16.5812 20.7113 19.2569 17.4107 19.2569H9.04373C5.00958 19.2569 1.73926 15.9866 1.73926 11.9524C1.73926 7.91827 5.00958 4.64795 9.04373 4.64795C11.8674 4.64795 14.3153 6.25038 15.5304 8.59113C16.0532 9.59831 16.3482 10.7423 16.3482 11.9524C16.3482 12.4659 15.932 12.8821 15.4185 12.8821C14.9051 12.8821 14.4889 12.4659 14.4889 11.9524C14.4889 11.0474 14.2688 10.1966 13.8801 9.44778C12.9722 7.69879 11.1463 6.50727 9.04373 6.50727Z" fill="white"/>
</svg>
