<svg width="180" height="180" viewBox="0 0 180 180" fill="none" xmlns="http://www.w3.org/2000/svg">
<path fill-rule="evenodd" clip-rule="evenodd" d="M125.299 25C121.816 25 118.86 26.9613 117.465 29.7294C116.222 32.1953 113.215 33.1865 110.749 31.9435C108.284 30.7005 107.292 27.6938 108.535 25.228C111.607 19.1355 117.988 15 125.299 15C135.516 15 144 23.1203 144 33.383C144 41.9109 138.142 48.9595 130.299 51.0987V51.5C130.299 54.2614 128.061 56.5 125.299 56.5C122.538 56.5 120.299 54.2614 120.299 51.5V46.766C120.299 44.0045 122.538 41.766 125.299 41.766C130.216 41.766 134 37.9027 134 33.383C134 28.8632 130.216 25 125.299 25Z" fill="white"/>
<path d="M133 66C133 69.866 129.866 73 126 73C122.134 73 119 69.866 119 66C119 62.134 122.134 59 126 59C129.866 59 133 62.134 133 66Z" fill="white"/>
<path fill-rule="evenodd" clip-rule="evenodd" d="M63 49C40.3563 49 22 67.3563 22 90C22 112.644 40.3563 131 63 131H126C143.121 131 157 117.121 157 100C157 88.7032 150.962 78.8097 141.903 73.3831C138.586 71.3963 137.508 67.0973 139.495 63.7808C141.482 60.4644 145.781 59.3864 149.097 61.3731C162.202 69.2236 171 83.5809 171 100C171 124.853 150.853 145 126 145H63C32.6243 145 8 120.376 8 90C8 59.6243 32.6243 35 63 35C84.2612 35 102.693 47.0657 111.842 64.6907C115.779 72.2744 118 80.888 118 90C118 93.866 114.866 97 111 97C107.134 97 104 93.866 104 90C104 83.1858 102.343 76.779 99.4164 71.1409C92.5801 57.9717 78.8319 49 63 49Z" fill="white"/>
</svg>
