<svg width="25" height="24" viewBox="0 0 25 24" fill="none" xmlns="http://www.w3.org/2000/svg">
<path fill-rule="evenodd" clip-rule="evenodd" d="M8.6943 15.4053C8.6943 15.0018 9.02133 14.6748 9.42475 14.6748H9.89239C10.9559 14.6748 11.8181 15.537 11.8181 16.6005C11.8181 17.6641 10.9559 18.5263 9.89239 18.5263H4.18162C3.7782 18.5263 3.45117 18.1992 3.45117 17.7958C3.45117 17.3924 3.7782 17.0654 4.18162 17.0654H9.89239C10.1491 17.0654 10.3572 16.8572 10.3572 16.6005C10.3572 16.3438 10.1491 16.1357 9.89239 16.1357H9.42475C9.02133 16.1357 8.6943 15.8087 8.6943 15.4053Z" fill="white"/>
<path fill-rule="evenodd" clip-rule="evenodd" d="M12.6786 17.7964C12.6786 17.393 13.0056 17.0659 13.409 17.0659H13.8766C14.9402 17.0659 15.8024 17.9281 15.8024 18.9916C15.8024 20.0552 14.9402 20.9174 13.8766 20.9174H4.18162C3.7782 20.9174 3.45117 20.5903 3.45117 20.1869C3.45117 19.7835 3.7782 19.4565 4.18162 19.4565H13.8766C14.1334 19.4565 14.3415 19.2484 14.3415 18.9916C14.3415 18.7349 14.1334 18.5268 13.8766 18.5268H13.409C13.0056 18.5268 12.6786 18.1998 12.6786 17.7964Z" fill="white"/>
<path fill-rule="evenodd" clip-rule="evenodd" d="M10.0217 2.47508C10.3001 2.70891 10.4167 3.08358 10.32 3.43409C10.1277 4.13162 10.0247 4.86719 10.0247 5.62831C10.0247 10.1759 13.7112 13.8624 18.2588 13.8624C19.5212 13.8624 20.7148 13.579 21.7817 13.0732C22.1102 12.9174 22.4994 12.9675 22.7778 13.2013C23.0562 13.4351 23.1728 13.8098 23.0762 14.1603C22.6092 15.854 21.7127 17.368 20.5127 18.5783C20.1512 18.9429 19.5626 18.9454 19.198 18.5839C18.8334 18.2224 18.8309 17.6338 19.1924 17.2692C19.7239 16.7331 20.182 16.1246 20.5506 15.4603C19.8138 15.6314 19.0466 15.7218 18.2588 15.7218C12.6844 15.7218 8.16538 11.2028 8.16538 5.62831C8.16538 5.43679 8.17073 5.24645 8.18128 5.05744C6.30789 6.56746 5.11078 8.88045 5.11078 11.4719C5.11078 12.3694 5.25403 13.2315 5.51819 14.0378C5.67804 14.5258 5.41209 15.0509 4.92417 15.2107C4.43625 15.3706 3.91113 15.1046 3.75128 14.6167C3.42665 13.6259 3.25146 12.5684 3.25146 11.4719C3.25146 7.44137 5.61393 3.96449 9.02555 2.34697C9.35408 2.19121 9.74326 2.24126 10.0217 2.47508Z" fill="white"/>
</svg>
