<svg width="25" height="24" viewBox="0 0 25 24" fill="none" xmlns="http://www.w3.org/2000/svg">
<path fill-rule="evenodd" clip-rule="evenodd" d="M11.2931 4.64744C11.2931 4.17067 11.6796 3.78418 12.1564 3.78418H12.8903C14.504 3.78418 15.8121 5.09231 15.8121 6.70597C15.8121 8.31963 14.504 9.62776 12.8903 9.62776H3.12888C2.65212 9.62776 2.26562 9.24127 2.26562 8.7645C2.26562 8.28774 2.65212 7.90125 3.12888 7.90125H12.8903C13.5504 7.90125 14.0856 7.3661 14.0856 6.70597C14.0856 6.04584 13.5504 5.51069 12.8903 5.51069H12.1564C11.6796 5.51069 11.2931 5.1242 11.2931 4.64744Z" fill="white"/>
<path fill-rule="evenodd" clip-rule="evenodd" d="M17.2799 7.83591C17.2799 7.35915 17.6664 6.97266 18.1432 6.97266H18.8667C20.4804 6.97266 21.7885 8.28079 21.7885 9.89445C21.7885 11.5081 20.4804 12.8162 18.8667 12.8162H3.12888C2.65212 12.8162 2.26562 12.4297 2.26562 11.953C2.26562 11.4762 2.65212 11.0897 3.12888 11.0897H18.8667C19.5268 11.0897 20.062 10.5546 20.062 9.89445C20.062 9.23431 19.5268 8.69917 18.8667 8.69917H18.1432C17.6664 8.69917 17.2799 8.31268 17.2799 7.83591Z" fill="white"/>
<path fill-rule="evenodd" clip-rule="evenodd" d="M11.2931 19.1245C11.2931 19.6013 11.6796 19.9878 12.1564 19.9878H12.8903C14.504 19.9878 15.8121 18.6797 15.8121 17.066C15.8121 15.4523 14.504 14.1442 12.8903 14.1442H3.12888C2.65212 14.1442 2.26562 14.5307 2.26562 15.0075C2.26562 15.4842 2.65212 15.8707 3.12888 15.8707H12.8903C13.5504 15.8707 14.0856 16.4059 14.0856 17.066C14.0856 17.7261 13.5504 18.2613 12.8903 18.2613H12.1564C11.6796 18.2613 11.2931 18.6478 11.2931 19.1245Z" fill="white"/>
</svg>
