<svg width="25" height="25" viewBox="0 0 25 25" fill="none" xmlns="http://www.w3.org/2000/svg">
<path fill-rule="evenodd" clip-rule="evenodd" d="M12.4593 8.00926C10.0755 8.00926 8.14305 9.94172 8.14305 12.3255C8.14305 14.7094 10.0755 16.6418 12.4593 16.6418C14.8431 16.6418 16.7756 14.7094 16.7756 12.3255C16.7756 9.94172 14.8431 8.00926 12.4593 8.00926ZM7.479 12.3255C7.479 9.57498 9.70877 7.34521 12.4593 7.34521C15.2099 7.34521 17.4396 9.57498 17.4396 12.3255C17.4396 15.0761 15.2099 17.3059 12.4593 17.3059C9.70877 17.3059 7.479 15.0761 7.479 12.3255Z" fill="white"/>
<path fill-rule="evenodd" clip-rule="evenodd" d="M12.459 3.49316C12.6424 3.49316 12.791 3.64182 12.791 3.82519L12.791 4.39677C12.791 4.58014 12.6424 4.72879 12.459 4.72879C12.2756 4.72879 12.127 4.58014 12.127 4.39677L12.127 3.82519C12.127 3.64182 12.2756 3.49316 12.459 3.49316ZM12.459 19.9211C12.6424 19.9211 12.791 20.0697 12.791 20.2531L12.791 20.8247C12.791 21.0081 12.6424 21.1567 12.459 21.1567C12.2756 21.1567 12.127 21.0081 12.127 20.8247L12.127 20.2531C12.127 20.0697 12.2756 19.9211 12.459 19.9211Z" fill="white"/>
<path fill-rule="evenodd" clip-rule="evenodd" d="M18.7042 6.07968C18.8339 6.20934 18.8339 6.41957 18.7042 6.54923L18.3 6.9534C18.1704 7.08306 17.9601 7.08306 17.8305 6.9534C17.7008 6.82373 17.7008 6.61351 17.8305 6.48385L18.2346 6.07968C18.3643 5.95002 18.5745 5.95002 18.7042 6.07968ZM7.0879 17.696C7.21756 17.8256 7.21756 18.0359 7.0879 18.1655L6.68373 18.5697C6.55407 18.6994 6.34384 18.6994 6.21418 18.5697C6.08452 18.44 6.08452 18.2298 6.21418 18.1001L6.61835 17.696C6.74801 17.5663 6.95824 17.5663 7.0879 17.696Z" fill="white"/>
<path fill-rule="evenodd" clip-rule="evenodd" d="M21.291 12.3247C21.291 12.5081 21.1424 12.6567 20.959 12.6567L20.3874 12.6567C20.204 12.6567 20.0554 12.5081 20.0554 12.3247C20.0554 12.1413 20.204 11.9927 20.3874 11.9927L20.959 11.9927C21.1424 11.9927 21.291 12.1413 21.291 12.3247ZM4.8631 12.3247C4.8631 12.5081 4.71445 12.6567 4.53108 12.6567L3.9595 12.6567C3.77613 12.6567 3.62747 12.5081 3.62747 12.3247C3.62747 12.1413 3.77613 11.9927 3.9595 11.9927L4.53108 11.9927C4.71445 11.9927 4.8631 12.1413 4.8631 12.3247Z" fill="white"/>
<path fill-rule="evenodd" clip-rule="evenodd" d="M18.7035 18.5699C18.5739 18.6996 18.3636 18.6996 18.234 18.5699L17.8298 18.1657C17.7001 18.0361 17.7001 17.8259 17.8298 17.6962C17.9595 17.5665 18.1697 17.5665 18.2994 17.6962L18.7035 18.1004C18.8332 18.23 18.8332 18.4403 18.7035 18.5699ZM7.08723 6.95362C6.95757 7.08328 6.74735 7.08328 6.61768 6.95362L6.21352 6.54945C6.08385 6.41979 6.08385 6.20957 6.21352 6.0799C6.34318 5.95024 6.5534 5.95024 6.68306 6.0799L7.08723 6.48407C7.2169 6.61374 7.2169 6.82396 7.08723 6.95362Z" fill="white"/>
</svg>
