<svg width="24" height="25" viewBox="0 0 24 25" fill="none" xmlns="http://www.w3.org/2000/svg">
<path fill-rule="evenodd" clip-rule="evenodd" d="M11.9525 8.00926C9.56867 8.00926 7.63621 9.94172 7.63621 12.3255C7.63621 14.7094 9.56867 16.6418 11.9525 16.6418C14.3363 16.6418 16.2688 14.7094 16.2688 12.3255C16.2688 9.94172 14.3363 8.00926 11.9525 8.00926ZM6.97217 12.3255C6.97217 9.57498 9.20193 7.34521 11.9525 7.34521C14.703 7.34521 16.9328 9.57498 16.9328 12.3255C16.9328 15.0761 14.703 17.3059 11.9525 17.3059C9.20193 17.3059 6.97217 15.0761 6.97217 12.3255Z" fill="white"/>
<path fill-rule="evenodd" clip-rule="evenodd" d="M2.05811 12.3252C2.05811 12.1418 2.20676 11.9932 2.39013 11.9932H4.02418C4.20755 11.9932 4.3562 12.1418 4.3562 12.3252C4.3562 12.5086 4.20755 12.6572 4.02418 12.6572H2.39013C2.20676 12.6572 2.05811 12.5086 2.05811 12.3252ZM19.5485 12.3252C19.5485 12.1418 19.6971 11.9932 19.8805 11.9932H21.5146C21.6979 11.9932 21.8466 12.1418 21.8466 12.3252C21.8466 12.5086 21.6979 12.6572 21.5146 12.6572H19.8805C19.6971 12.6572 19.5485 12.5086 19.5485 12.3252Z" fill="white"/>
<path fill-rule="evenodd" clip-rule="evenodd" d="M4.95645 19.3217C4.82679 19.192 4.82679 18.9818 4.95645 18.8521L6.1119 17.6967C6.24156 17.567 6.45179 17.567 6.58145 17.6967C6.71111 17.8264 6.71111 18.0366 6.58145 18.1662L5.426 19.3217C5.29634 19.4514 5.08612 19.4514 4.95645 19.3217ZM17.324 6.95412C17.1944 6.82446 17.1944 6.61423 17.324 6.48457L18.4795 5.32912C18.6091 5.19946 18.8194 5.19946 18.949 5.32912C19.0787 5.45878 19.0787 5.66901 18.949 5.79867L17.7936 6.95412C17.6639 7.08378 17.4537 7.08378 17.324 6.95412Z" fill="white"/>
<path fill-rule="evenodd" clip-rule="evenodd" d="M4.95614 5.32852C5.08581 5.19886 5.29603 5.19886 5.42569 5.32852L6.58114 6.48397C6.7108 6.61363 6.7108 6.82386 6.58114 6.95352C6.45148 7.08318 6.24125 7.08318 6.11159 6.95352L4.95614 5.79807C4.82648 5.66841 4.82648 5.45819 4.95614 5.32852ZM17.3237 17.6961C17.4534 17.5664 17.6636 17.5664 17.7933 17.6961L18.9487 18.8515C19.0784 18.9812 19.0784 19.1914 18.9487 19.3211C18.819 19.4508 18.6088 19.4508 18.4792 19.3211L17.3237 18.1656C17.1941 18.036 17.1941 17.8258 17.3237 17.6961Z" fill="white"/>
<path fill-rule="evenodd" clip-rule="evenodd" d="M11.9526 2.43164C12.136 2.43164 12.2847 2.58029 12.2847 2.76366L12.2847 4.39771C12.2847 4.58108 12.136 4.72973 11.9526 4.72973C11.7693 4.72973 11.6206 4.58108 11.6206 4.39771L11.6206 2.76366C11.6206 2.58029 11.7693 2.43164 11.9526 2.43164ZM11.9526 19.922C12.136 19.922 12.2847 20.0707 12.2847 20.254L12.2847 21.8881C12.2847 22.0715 12.136 22.2201 11.9526 22.2201C11.7693 22.2201 11.6206 22.0715 11.6206 21.8881L11.6206 20.254C11.6206 20.0707 11.7693 19.922 11.9526 19.922Z" fill="white"/>
</svg>
