<svg width="25" height="25" viewBox="0 0 25 25" fill="none" xmlns="http://www.w3.org/2000/svg">
<path fill-rule="evenodd" clip-rule="evenodd" d="M9.04703 3.70472C9.14647 3.78823 9.1881 3.92205 9.15358 4.04723C8.94714 4.79602 8.83675 5.585 8.83675 6.4003C8.83675 11.2779 12.7909 15.2321 17.6685 15.2321C19.0213 15.2321 20.3022 14.9281 21.4474 14.3852C21.5647 14.3296 21.7037 14.3474 21.8031 14.4309C21.9026 14.5144 21.9442 14.6483 21.9097 14.7734C21.4706 16.3659 20.6275 17.7903 19.498 18.9295C19.3689 19.0597 19.1587 19.0606 19.0285 18.9315C18.8982 18.8024 18.8973 18.5921 19.0264 18.4619C19.9142 17.5665 20.6114 16.4824 21.0525 15.2753C20.001 15.6765 18.8601 15.8961 17.6685 15.8961C12.4241 15.8961 8.17271 11.6447 8.17271 6.4003C8.17271 5.78142 8.23196 5.17612 8.34516 4.58984C5.70126 6.11631 3.92283 8.97269 3.92283 12.2439C3.92283 13.2053 4.07634 14.1303 4.35994 14.9959C4.41703 15.1701 4.32205 15.3577 4.14779 15.4148C3.97353 15.4719 3.78599 15.3769 3.7289 15.2026C3.42371 14.2711 3.25879 13.2764 3.25879 12.2439C3.25879 8.45282 5.48039 5.18131 8.69126 3.65897C8.8086 3.60334 8.94759 3.62122 9.04703 3.70472Z" fill="white"/>
<path fill-rule="evenodd" clip-rule="evenodd" d="M5.51562 17.9033C5.51562 17.7199 5.66428 17.5713 5.84765 17.5713H12.7537C12.9371 17.5713 13.0857 17.7199 13.0857 17.9033C13.0857 18.0867 12.9371 18.2353 12.7537 18.2353H5.84765C5.66428 18.2353 5.51562 18.0867 5.51562 17.9033Z" fill="white"/>
<path fill-rule="evenodd" clip-rule="evenodd" d="M3.25879 20.5591C3.25879 20.3757 3.40744 20.2271 3.59081 20.2271H9.02052C9.20389 20.2271 9.35254 20.3757 9.35254 20.5591C9.35254 20.7424 9.20389 20.8911 9.02052 20.8911H3.59081C3.40744 20.8911 3.25879 20.7424 3.25879 20.5591ZM12.0602 20.5591C12.0602 20.3757 12.2089 20.2271 12.3922 20.2271H15.278C15.4613 20.2271 15.61 20.3757 15.61 20.5591C15.61 20.7424 15.4613 20.8911 15.278 20.8911H12.3922C12.2089 20.8911 12.0602 20.7424 12.0602 20.5591Z" fill="white"/>
</svg>
