<svg width="25" height="25" viewBox="0 0 25 25" fill="none" xmlns="http://www.w3.org/2000/svg">
<path fill-rule="evenodd" clip-rule="evenodd" d="M12.7943 9.4702C10.4105 9.4702 8.47801 11.4027 8.47801 13.7865C8.47801 14.898 8.89772 15.9107 9.58784 16.676C9.71064 16.8122 9.69979 17.0221 9.56362 17.1449C9.42744 17.2677 9.21749 17.2569 9.09469 17.1207C8.29885 16.2382 7.81396 15.0686 7.81396 13.7865C7.81396 11.0359 10.0437 8.80615 12.7943 8.80615C15.5448 8.80615 17.7746 11.0359 17.7746 13.7865C17.7746 13.9698 17.626 14.1185 17.4426 14.1185C17.2592 14.1185 17.1106 13.9698 17.1106 13.7865C17.1106 11.4027 15.1781 9.4702 12.7943 9.4702Z" fill="white"/>
<path fill-rule="evenodd" clip-rule="evenodd" d="M2.8999 13.7866C2.8999 13.6032 3.04855 13.4546 3.23192 13.4546H4.86597C5.04934 13.4546 5.198 13.6032 5.198 13.7866C5.198 13.97 5.04934 14.1186 4.86597 14.1186H3.23192C3.04855 14.1186 2.8999 13.97 2.8999 13.7866ZM20.3903 13.7866C20.3903 13.6032 20.5389 13.4546 20.7223 13.4546H22.3564C22.5397 13.4546 22.6884 13.6032 22.6884 13.7866C22.6884 13.97 22.5397 14.1186 22.3564 14.1186H20.7223C20.5389 14.1186 20.3903 13.97 20.3903 13.7866Z" fill="white"/>
<path fill-rule="evenodd" clip-rule="evenodd" d="M5.79776 20.7826C5.6681 20.653 5.6681 20.4427 5.79776 20.3131L6.95321 19.1576C7.08287 19.028 7.2931 19.028 7.42276 19.1576C7.55242 19.2873 7.55242 19.4975 7.42276 19.6272L6.26731 20.7826C6.13765 20.9123 5.92743 20.9123 5.79776 20.7826ZM18.1653 8.41506C18.0357 8.28539 18.0357 8.07517 18.1653 7.94551L19.3208 6.79006C19.4504 6.6604 19.6607 6.6604 19.7903 6.79006C19.92 6.91972 19.92 7.12994 19.7903 7.25961L18.6349 8.41506C18.5052 8.54472 18.295 8.54472 18.1653 8.41506Z" fill="white"/>
<path fill-rule="evenodd" clip-rule="evenodd" d="M5.79794 6.78995C5.9276 6.66029 6.13783 6.66029 6.26749 6.78995L7.42294 7.9454C7.5526 8.07506 7.5526 8.28529 7.42294 8.41495C7.29328 8.54461 7.08305 8.54461 6.95339 8.41495L5.79794 7.2595C5.66828 7.12984 5.66828 6.91961 5.79794 6.78995Z" fill="white"/>
<path fill-rule="evenodd" clip-rule="evenodd" d="M12.7944 3.89209C12.9778 3.89209 13.1265 4.04074 13.1265 4.22411L13.1265 5.85816C13.1265 6.04153 12.9778 6.19018 12.7944 6.19018C12.6111 6.19018 12.4624 6.04153 12.4624 5.85816L12.4624 4.22411C12.4624 4.04074 12.6111 3.89209 12.7944 3.89209Z" fill="white"/>
<path fill-rule="evenodd" clip-rule="evenodd" d="M13.3257 17.3721C13.3257 17.2254 13.4446 17.1064 13.5913 17.1064H19.9661C20.1128 17.1064 20.2317 17.2254 20.2317 17.3721C20.2317 17.5188 20.1128 17.6377 19.9661 17.6377H13.5913C13.4446 17.6377 13.3257 17.5188 13.3257 17.3721Z" fill="white"/>
<path fill-rule="evenodd" clip-rule="evenodd" d="M11.2007 20.0288C11.2007 19.8821 11.3196 19.7632 11.4663 19.7632H16.4641C16.6108 19.7632 16.7297 19.8821 16.7297 20.0288C16.7297 20.1755 16.6108 20.2944 16.4641 20.2944H11.4663C11.3196 20.2944 11.2007 20.1755 11.2007 20.0288ZM19.302 20.0288C19.302 19.8821 19.4209 19.7632 19.5676 19.7632H22.2238C22.3705 19.7632 22.4894 19.8821 22.4894 20.0288C22.4894 20.1755 22.3705 20.2944 22.2238 20.2944H19.5676C19.4209 20.2944 19.302 20.1755 19.302 20.0288Z" fill="white"/>
</svg>
