<svg width="25" height="25" viewBox="0 0 25 25" fill="none" xmlns="http://www.w3.org/2000/svg">
<path fill-rule="evenodd" clip-rule="evenodd" d="M5.79248 7.27831C5.79248 7.09494 5.94113 6.94629 6.1245 6.94629H17.9445C18.1278 6.94629 18.2765 7.09494 18.2765 7.27831C18.2765 7.46168 18.1278 7.61033 17.9445 7.61033H6.1245C5.94113 7.61033 5.79248 7.46168 5.79248 7.27831Z" fill="white"/>
<path fill-rule="evenodd" clip-rule="evenodd" d="M5.79248 17.2397C5.79248 17.0564 5.94113 16.9077 6.1245 16.9077H17.9445C18.1278 16.9077 18.2765 17.0564 18.2765 17.2397C18.2765 17.4231 18.1278 17.5718 17.9445 17.5718H6.1245C5.94113 17.5718 5.79248 17.4231 5.79248 17.2397Z" fill="white"/>
<path fill-rule="evenodd" clip-rule="evenodd" d="M1.54199 10.5986C1.54199 10.4153 1.69064 10.2666 1.87401 10.2666H13.0299C13.2133 10.2666 13.362 10.4153 13.362 10.5986C13.362 10.782 13.2133 10.9306 13.0299 10.9306H1.87401C1.69064 10.9306 1.54199 10.782 1.54199 10.5986ZM16.6822 10.5986C16.6822 10.4153 16.8308 10.2666 17.0142 10.2666H22.0609C22.2443 10.2666 22.3929 10.4153 22.3929 10.5986C22.3929 10.782 22.2443 10.9306 22.0609 10.9306H17.0142C16.8308 10.9306 16.6822 10.782 16.6822 10.5986Z" fill="white"/>
<path fill-rule="evenodd" clip-rule="evenodd" d="M22.3936 13.9189C22.3936 13.7356 22.2449 13.5869 22.0615 13.5869H10.9056C10.7222 13.5869 10.5736 13.7356 10.5736 13.9189C10.5736 14.1023 10.7222 14.251 10.9056 14.251H22.0615C22.2449 14.251 22.3936 14.1023 22.3936 13.9189ZM7.25337 13.9189C7.25337 13.7356 7.10472 13.5869 6.92135 13.5869H1.87463C1.69126 13.5869 1.54261 13.7356 1.54261 13.9189C1.54261 14.1023 1.69126 14.251 1.87463 14.251H6.92135C7.10472 14.251 7.25337 14.1023 7.25337 13.9189Z" fill="white"/>
</svg>
