<svg width="25" height="25" viewBox="0 0 25 25" fill="none" xmlns="http://www.w3.org/2000/svg">
<path fill-rule="evenodd" clip-rule="evenodd" d="M9.2067 3.57093C9.30614 3.65444 9.34777 3.78826 9.31325 3.91344C9.1068 4.66223 8.99642 5.45121 8.99642 6.26651C8.99642 11.1442 12.9505 15.0983 17.8282 15.0983C19.181 15.0983 20.4618 14.7944 21.607 14.2514C21.7244 14.1958 21.8634 14.2136 21.9628 14.2971C22.0623 14.3807 22.1039 14.5145 22.0694 14.6397C21.6303 16.2321 20.7872 17.6565 19.6577 18.7957C19.5286 18.9259 19.3183 18.9268 19.1881 18.7977C19.0579 18.6686 19.057 18.4584 19.1861 18.3281C20.0739 17.4327 20.771 16.3486 21.2121 15.1416C20.1606 15.5427 19.0197 15.7623 17.8282 15.7623C12.5838 15.7623 8.33238 11.5109 8.33238 6.26651C8.33238 5.64763 8.39162 5.04233 8.50482 4.45605C5.86092 5.98252 4.0825 8.8389 4.0825 12.1101C4.0825 13.0715 4.23601 13.9965 4.51961 14.8621C4.5767 15.0364 4.48171 15.2239 4.30746 15.281C4.1332 15.3381 3.94566 15.2431 3.88857 15.0688C3.58338 14.1373 3.41846 13.1426 3.41846 12.1101C3.41846 8.31903 5.64006 5.04752 8.85093 3.52518C8.96827 3.46955 9.10726 3.48743 9.2067 3.57093Z" fill="white"/>
<path d="M7.33401 19.8945C7.33401 20.2608 7.03713 20.5576 6.67091 20.5576C6.30469 20.5576 6.00781 20.2608 6.00781 19.8945C6.00781 19.5283 6.30469 19.2314 6.67091 19.2314C7.03713 19.2314 7.33401 19.5283 7.33401 19.8945Z" fill="white"/>
<path d="M10.3892 16.9727C10.3892 17.3389 10.0923 17.6358 9.72609 17.6358C9.35987 17.6358 9.06299 17.3389 9.06299 16.9727C9.06299 16.6065 9.35987 16.3096 9.72609 16.3096C10.0923 16.3096 10.3892 16.6065 10.3892 16.9727Z" fill="white"/>
<path d="M13.5762 20.0274C13.5762 20.3936 13.2793 20.6905 12.9131 20.6905C12.5469 20.6905 12.25 20.3936 12.25 20.0274C12.25 19.6611 12.5469 19.3643 12.9131 19.3643C13.2793 19.3643 13.5762 19.6611 13.5762 20.0274Z" fill="white"/>
</svg>
