<svg width="25" height="25" viewBox="0 0 25 25" fill="none" xmlns="http://www.w3.org/2000/svg">
<path fill-rule="evenodd" clip-rule="evenodd" d="M8.67461 6.01658C5.33727 6.01658 2.63182 8.72203 2.63182 12.0594C2.63182 14.5465 4.13447 16.6835 6.28278 17.6104C6.45115 17.6831 6.52875 17.8785 6.4561 18.0468C6.38345 18.2152 6.18807 18.2928 6.0197 18.2201C3.63674 17.1919 1.96777 14.8209 1.96777 12.0594C1.96777 8.35529 4.97053 5.35254 8.67461 5.35254C11.1414 5.35254 13.2967 6.68439 14.4613 8.6669C15.2276 8.24727 16.1071 8.00871 17.0415 8.00871C20.0122 8.00871 22.4203 10.4169 22.4203 13.3875C22.4203 15.5047 21.197 17.3356 19.4201 18.213C19.2557 18.2942 19.0565 18.2267 18.9754 18.0623C18.8942 17.8979 18.9616 17.6988 19.1261 17.6176C20.6851 16.8478 21.7563 15.2424 21.7563 13.3875C21.7563 10.7836 19.6454 8.67275 17.0415 8.67275C16.217 8.67275 15.4427 8.88413 14.7689 9.25556C15.1622 10.109 15.3814 11.059 15.3814 12.0594C15.3814 12.2427 15.2328 12.3914 15.0494 12.3914C14.866 12.3914 14.7174 12.2427 14.7174 12.0594C14.7174 11.0563 14.4733 10.1112 14.0414 9.27938C13.0348 7.34018 11.009 6.01658 8.67461 6.01658Z" fill="white"/>
<path d="M10.3994 19.7617C10.3994 20.128 10.1026 20.4248 9.73634 20.4248C9.37012 20.4248 9.07324 20.128 9.07324 19.7617C9.07324 19.3955 9.37012 19.0986 9.73634 19.0986C10.1026 19.0986 10.3994 19.3955 10.3994 19.7617Z" fill="white"/>
<path d="M13.4541 16.1753C13.4541 16.5415 13.1573 16.8384 12.791 16.8384C12.4248 16.8384 12.1279 16.5415 12.1279 16.1753C12.1279 15.8091 12.4248 15.5122 12.791 15.5122C13.1573 15.5122 13.4541 15.8091 13.4541 16.1753Z" fill="white"/>
<path d="M16.6411 19.8945C16.6411 20.2608 16.3443 20.5576 15.978 20.5576C15.6118 20.5576 15.3149 20.2608 15.3149 19.8945C15.3149 19.5283 15.6118 19.2314 15.978 19.2314C16.3443 19.2314 16.6411 19.5283 16.6411 19.8945Z" fill="white"/>
</svg>
