<svg width="25" height="25" viewBox="0 0 25 25" fill="none" xmlns="http://www.w3.org/2000/svg">
<path fill-rule="evenodd" clip-rule="evenodd" d="M11.954 9.4702C9.57014 9.4702 7.63768 11.4027 7.63768 13.7865C7.63768 14.898 8.05738 15.9107 8.7475 16.676C8.87031 16.8122 8.85946 17.0221 8.72328 17.1449C8.58711 17.2677 8.37716 17.2569 8.25436 17.1207C7.45852 16.2382 6.97363 15.0686 6.97363 13.7865C6.97363 11.0359 9.2034 8.80615 11.954 8.80615C14.7045 8.80615 16.9343 11.0359 16.9343 13.7865C16.9343 13.9698 16.7856 14.1185 16.6023 14.1185C16.4189 14.1185 16.2702 13.9698 16.2702 13.7865C16.2702 11.4027 14.3378 9.4702 11.954 9.4702Z" fill="white"/>
<path fill-rule="evenodd" clip-rule="evenodd" d="M2.06104 13.7866C2.06104 13.6032 2.20969 13.4546 2.39306 13.4546H4.02711C4.21048 13.4546 4.35913 13.6032 4.35913 13.7866C4.35913 13.97 4.21048 14.1186 4.02711 14.1186H2.39306C2.20969 14.1186 2.06104 13.97 2.06104 13.7866ZM19.5514 13.7866C19.5514 13.6032 19.7001 13.4546 19.8834 13.4546H21.5175C21.7009 13.4546 21.8495 13.6032 21.8495 13.7866C21.8495 13.97 21.7009 14.1186 21.5175 14.1186H19.8834C19.7001 14.1186 19.5514 13.97 19.5514 13.7866Z" fill="white"/>
<path fill-rule="evenodd" clip-rule="evenodd" d="M4.9589 20.7826C4.82923 20.653 4.82923 20.4427 4.9589 20.3131L6.11434 19.1576C6.24401 19.028 6.45423 19.028 6.58389 19.1576C6.71356 19.2873 6.71356 19.4975 6.58389 19.6272L5.42845 20.7826C5.29878 20.9123 5.08856 20.9123 4.9589 20.7826ZM17.3265 8.41506C17.1968 8.28539 17.1968 8.07517 17.3265 7.94551L18.4819 6.79006C18.6116 6.6604 18.8218 6.6604 18.9515 6.79006C19.0811 6.91972 19.0811 7.12994 18.9515 7.25961L17.796 8.41506C17.6664 8.54472 17.4561 8.54472 17.3265 8.41506Z" fill="white"/>
<path fill-rule="evenodd" clip-rule="evenodd" d="M4.95761 6.78995C5.08727 6.66029 5.29749 6.66029 5.42716 6.78995L6.58261 7.9454C6.71227 8.07506 6.71227 8.28529 6.58261 8.41495C6.45294 8.54461 6.24272 8.54461 6.11306 8.41495L4.95761 7.2595C4.82795 7.12984 4.82795 6.91961 4.95761 6.78995Z" fill="white"/>
<path fill-rule="evenodd" clip-rule="evenodd" d="M11.9546 3.89209C12.138 3.89209 12.2866 4.04074 12.2866 4.22411L12.2866 5.85816C12.2866 6.04153 12.138 6.19018 11.9546 6.19018C11.7712 6.19018 11.6226 6.04153 11.6226 5.85816L11.6226 4.22411C11.6226 4.04074 11.7712 3.89209 11.9546 3.89209Z" fill="white"/>
<path d="M11.9532 20.4263C11.9532 20.7925 11.6563 21.0894 11.2901 21.0894C10.9238 21.0894 10.627 20.7925 10.627 20.4263C10.627 20.0601 10.9238 19.7632 11.2901 19.7632C11.6563 19.7632 11.9532 20.0601 11.9532 20.4263Z" fill="white"/>
<path d="M15.0074 17.5039C15.0074 17.8701 14.7105 18.167 14.3443 18.167C13.978 18.167 13.6812 17.8701 13.6812 17.5039C13.6812 17.1377 13.978 16.8408 14.3443 16.8408C14.7105 16.8408 15.0074 17.1377 15.0074 17.5039Z" fill="white"/>
<path d="M18.1944 20.5581C18.1944 20.9243 17.8975 21.2212 17.5313 21.2212C17.165 21.2212 16.8682 20.9243 16.8682 20.5581C16.8682 20.1919 17.165 19.895 17.5313 19.895C17.8975 19.895 18.1944 20.1919 18.1944 20.5581Z" fill="white"/>
</svg>
