<svg width="25" height="25" viewBox="0 0 25 25" fill="none" xmlns="http://www.w3.org/2000/svg">
<path fill-rule="evenodd" clip-rule="evenodd" d="M8.77369 8.97703C5.70092 8.97703 3.20994 11.468 3.20994 14.5408C3.20994 17.6136 5.70092 20.1045 8.77369 20.1045C8.95706 20.1045 9.10572 20.2532 9.10572 20.4366C9.10572 20.6199 8.95706 20.7686 8.77369 20.7686C5.33418 20.7686 2.5459 17.9803 2.5459 14.5408C2.5459 11.1013 5.33418 8.31299 8.77369 8.31299C11.0557 8.31299 13.0505 9.54043 14.1348 11.3698C14.842 10.9869 15.652 10.7696 16.5119 10.7696C19.2731 10.7696 21.5114 13.0079 21.5114 15.7691C21.5114 18.5302 19.2731 20.7686 16.5119 20.7686C16.3285 20.7686 16.1799 20.6199 16.1799 20.4366C16.1799 20.2532 16.3285 20.1045 16.5119 20.1045C18.9063 20.1045 20.8474 18.1635 20.8474 15.7691C20.8474 13.3747 18.9063 11.4336 16.5119 11.4336C15.762 11.4336 15.0572 11.6238 14.4424 11.9584C14.8015 12.7454 15.0015 13.6201 15.0015 14.5408C15.0015 14.7242 14.8528 14.8728 14.6695 14.8728C14.4861 14.8728 14.3374 14.7242 14.3374 14.5408C14.3374 13.6172 14.1127 12.7471 13.7151 11.9812C12.7882 10.1957 10.923 8.97703 8.77369 8.97703Z" fill="white"/>
<path fill-rule="evenodd" clip-rule="evenodd" d="M14.6081 7.37937C13.3179 7.37937 12.2993 8.37279 12.2993 9.56534C12.2993 9.74871 12.1506 9.89736 11.9673 9.89736C11.7839 9.89736 11.6353 9.74871 11.6353 9.56534C11.6353 7.9766 12.9813 6.71533 14.6081 6.71533C16.2349 6.71533 17.5809 7.9766 17.5809 9.56534C17.5809 10.1919 17.3697 10.7709 17.014 11.2399C16.9032 11.386 16.6949 11.4146 16.5488 11.3038C16.4027 11.193 16.3741 10.9847 16.4849 10.8386C16.7576 10.479 16.9169 10.0396 16.9169 9.56534C16.9169 8.37279 15.8983 7.37937 14.6081 7.37937Z" fill="white"/>
<path fill-rule="evenodd" clip-rule="evenodd" d="M12.396 3.77941C12.568 3.71679 12.7583 3.8055 12.8209 3.97757L13.1328 4.83434C13.1954 5.00641 13.1067 5.19667 12.9346 5.25929C12.7625 5.32192 12.5723 5.2332 12.5096 5.06114L12.1978 4.20436C12.1352 4.0323 12.2239 3.84204 12.396 3.77941Z" fill="white"/>
<path fill-rule="evenodd" clip-rule="evenodd" d="M17.6924 4.24292C17.8509 4.33447 17.9053 4.53724 17.8137 4.69582L17.3578 5.48543C17.2663 5.644 17.0635 5.69834 16.9049 5.60678C16.7464 5.51523 16.692 5.31245 16.7836 5.15388L17.2395 4.36427C17.331 4.20569 17.5338 4.15136 17.6924 4.24292Z" fill="white"/>
<path fill-rule="evenodd" clip-rule="evenodd" d="M21.232 8.58804C21.2638 8.76837 21.1434 8.94033 20.963 8.97212L20.0651 9.13045C19.8848 9.16225 19.7128 9.04184 19.681 8.86151C19.6492 8.68118 19.7697 8.50922 19.95 8.47742L20.8479 8.3191C21.0282 8.2873 21.2002 8.40771 21.232 8.58804Z" fill="white"/>
</svg>
