<svg width="25" height="25" viewBox="0 0 25 25" fill="none" xmlns="http://www.w3.org/2000/svg">
<path fill-rule="evenodd" clip-rule="evenodd" d="M8.79961 7.34471C5.46227 7.34471 2.75682 10.0502 2.75682 13.3875C2.75682 16.7248 5.46227 19.4303 8.79961 19.4303H17.1665C19.7704 19.4303 21.8813 17.3194 21.8813 14.7156C21.8813 12.1117 19.7704 10.0009 17.1665 10.0009C16.342 10.0009 15.5677 10.2123 14.8939 10.5837C15.2872 11.4371 15.5064 12.3871 15.5064 13.3875C15.5064 13.5709 15.3578 13.7195 15.1744 13.7195C14.991 13.7195 14.8424 13.5709 14.8424 13.3875C14.8424 12.3844 14.5983 11.4393 14.1664 10.6075C13.1598 8.6683 11.134 7.34471 8.79961 7.34471ZM14.5863 9.99502C13.4217 8.01251 11.2664 6.68066 8.79961 6.68066C5.09553 6.68066 2.09277 9.68342 2.09277 13.3875C2.09277 17.0916 5.09553 20.0943 8.79961 20.0943H17.1665C20.1372 20.0943 22.5453 17.6862 22.5453 14.7156C22.5453 11.745 20.1372 9.33684 17.1665 9.33684C16.2321 9.33684 15.3526 9.5754 14.5863 9.99502Z" fill="white"/>
</svg>
