<svg width="25" height="25" viewBox="0 0 25 25" fill="none" xmlns="http://www.w3.org/2000/svg">
<path fill-rule="evenodd" clip-rule="evenodd" d="M9.28572 8.89988C6.42096 8.89988 4.09861 11.2222 4.09861 14.087C4.09861 16.9518 6.42096 19.2741 9.28572 19.2741C9.46909 19.2741 9.61775 19.4228 9.61775 19.6061C9.61775 19.7895 9.46909 19.9381 9.28572 19.9381C6.05422 19.9381 3.43457 17.3185 3.43457 14.087C3.43457 10.8555 6.05422 8.23584 9.28572 8.23584C11.4225 8.23584 13.2912 9.38126 14.3122 11.0903C14.973 10.7362 15.7282 10.5355 16.5296 10.5355C19.1261 10.5355 21.2309 12.6403 21.2309 15.2368C21.2309 17.8333 19.1261 19.9381 16.5296 19.9381C16.3462 19.9381 16.1976 19.7895 16.1976 19.6061C16.1976 19.4228 16.3462 19.2741 16.5296 19.2741C18.7593 19.2741 20.5669 17.4665 20.5669 15.2368C20.5669 13.0071 18.7593 11.1995 16.5296 11.1995C15.8382 11.1995 15.1882 11.373 14.6198 11.6788C14.952 12.4136 15.1369 13.2291 15.1369 14.087C15.1369 14.2704 14.9882 14.419 14.8049 14.419C14.6215 14.419 14.4728 14.2704 14.4728 14.087C14.4728 13.2259 14.2633 12.4147 13.8926 11.7007C13.0285 10.036 11.2895 8.89988 9.28572 8.89988Z" fill="white"/>
<path fill-rule="evenodd" clip-rule="evenodd" d="M14.1339 4.89943C14.2332 4.98308 14.2746 5.11691 14.2399 5.242C14.1712 5.48999 14.1344 5.75148 14.1344 6.02204C14.1344 7.63795 15.4518 8.95091 17.0807 8.95091C17.5326 8.95091 17.9599 8.84997 18.3418 8.66988C18.4592 8.61451 18.5981 8.63264 18.6974 8.71629C18.7966 8.79994 18.838 8.93377 18.8034 9.05887C18.5625 9.92785 18.0026 10.6636 17.2583 11.1349C17.1033 11.233 16.8982 11.1869 16.8001 11.032C16.702 10.877 16.7481 10.6719 16.9031 10.5738C17.3174 10.3115 17.661 9.94935 17.9 9.52196C17.6366 9.58281 17.3623 9.61495 17.0807 9.61495C15.0884 9.61495 13.4703 8.00802 13.4703 6.02204C13.4703 5.95396 13.4722 5.8863 13.476 5.81912C12.8049 6.35645 12.3764 7.17973 12.3764 8.10145C12.3764 8.4761 12.447 8.83359 12.5755 9.16203C12.6422 9.33282 12.5579 9.52539 12.3871 9.59216C12.2163 9.65893 12.0238 9.57461 11.957 9.40383C11.799 8.99962 11.7124 8.56021 11.7124 8.10145C11.7124 6.66576 12.5584 5.42835 13.7784 4.85301C13.8958 4.79764 14.0347 4.81577 14.1339 4.89943Z" fill="white"/>
</svg>
