<svg width="25" height="25" viewBox="0 0 25 25" fill="none" xmlns="http://www.w3.org/2000/svg">
<path fill-rule="evenodd" clip-rule="evenodd" d="M11.1293 3.64846C11.1641 3.5234 11.1228 3.38957 11.0236 3.30585C10.9244 3.22213 10.7855 3.20388 10.6681 3.25913C8.15579 4.441 6.41553 6.98201 6.41553 9.92857C6.41553 10.8164 6.57371 11.6683 6.86385 12.4575C4.79583 12.8225 3.22852 14.649 3.22852 16.8402C3.22852 19.2933 5.19288 21.2893 7.62502 21.2893H12.9596C14.9241 21.2893 16.5094 19.6773 16.5094 17.6979C16.5094 17.4075 16.4752 17.125 16.4108 16.8543C16.4153 16.8529 16.4197 16.8513 16.4241 16.8497C18.65 16.033 20.3748 14.1886 21.0124 11.8942C21.0471 11.7692 21.0058 11.6353 20.9066 11.5516C20.8074 11.4679 20.6686 11.4496 20.5511 11.5049C19.6735 11.9178 18.6917 12.149 17.6545 12.149C13.9143 12.149 10.8867 9.14118 10.8867 5.43633C10.8867 4.81677 10.9713 4.21732 11.1293 3.64846ZM16.1981 16.2253C18.0022 15.5625 19.4433 14.1585 20.1466 12.388C19.3672 12.6632 18.5282 12.813 17.6545 12.813C13.5525 12.813 10.2227 9.51279 10.2227 5.43633C10.2227 5.01309 10.2586 4.59798 10.3277 4.1939C8.3787 5.37321 7.07957 7.50128 7.07957 9.92857C7.07957 10.7866 7.24172 11.6064 7.53703 12.3598C7.54118 12.3704 7.54474 12.3811 7.54775 12.3918C7.57345 12.3913 7.59921 12.3911 7.62502 12.3911C9.20295 12.3911 10.5845 13.2321 11.3595 14.4913C11.8404 14.2453 12.3843 14.1066 12.9596 14.1066C14.4037 14.1066 15.6429 14.9776 16.1981 16.2253ZM3.89256 16.8402C3.89256 14.7457 5.56765 13.0552 7.62502 13.0552C9.06448 13.0552 10.3162 13.8818 10.9392 15.0974C11.2063 15.6186 11.3575 16.2109 11.3575 16.8402C11.3575 17.0236 11.5061 17.1722 11.6895 17.1722C11.8729 17.1722 12.0215 17.0236 12.0215 16.8402C12.0215 16.216 11.8943 15.6211 11.6645 15.0812C12.0539 14.8824 12.4936 14.7706 12.9596 14.7706C14.5494 14.7706 15.8453 16.0772 15.8453 17.6979C15.8453 19.3187 14.5494 20.6252 12.9596 20.6252H7.62502C5.56765 20.6252 3.89256 18.9347 3.89256 16.8402Z" fill="white"/>
</svg>
