<svg width="25" height="25" viewBox="0 0 25 25" fill="none" xmlns="http://www.w3.org/2000/svg">
<path fill-rule="evenodd" clip-rule="evenodd" d="M8.90752 4.55613C5.57018 4.55613 2.86473 7.26158 2.86473 10.5989C2.86473 13.0861 4.36738 15.223 6.51569 16.15C6.68406 16.2226 6.76166 16.418 6.68901 16.5864C6.61636 16.7547 6.42098 16.8323 6.25261 16.7597C3.86965 15.7315 2.20068 13.3605 2.20068 10.5989C2.20068 6.89484 5.20344 3.89209 8.90752 3.89209C11.3743 3.89209 13.5296 5.22394 14.6943 7.20645C15.4605 6.78682 16.34 6.54826 17.2745 6.54826C20.2451 6.54826 22.6532 8.95641 22.6532 11.927C22.6532 14.0442 21.4299 15.8751 19.653 16.7525C19.4886 16.8337 19.2895 16.7663 19.2083 16.6018C19.1271 16.4374 19.1946 16.2383 19.359 16.1571C20.918 15.3873 21.9892 13.7819 21.9892 11.927C21.9892 9.32315 19.8783 7.2123 17.2745 7.2123C16.45 7.2123 15.6756 7.42368 15.0019 7.79511C15.3951 8.64856 15.6144 9.59853 15.6144 10.5989C15.6144 10.7823 15.4657 10.9309 15.2823 10.9309C15.099 10.9309 14.9503 10.7823 14.9503 10.5989C14.9503 9.59585 14.7062 8.65077 14.2744 7.81893C13.2677 5.87973 11.2419 4.55613 8.90752 4.55613Z" fill="white"/>
<path fill-rule="evenodd" clip-rule="evenodd" d="M16.4522 14.7997C16.6257 14.8591 16.7183 15.0478 16.6589 15.2213L14.9324 20.268C14.873 20.4415 14.6843 20.5341 14.5108 20.4747C14.3373 20.4154 14.2447 20.2266 14.3041 20.0531L16.0306 15.0064C16.09 14.8329 16.2787 14.7403 16.4522 14.7997Z" fill="white"/>
<path fill-rule="evenodd" clip-rule="evenodd" d="M13.5315 14.8001C13.7048 14.8601 13.7966 15.0492 13.7367 15.2225L12.5414 18.6755C12.4814 18.8488 12.2923 18.9406 12.119 18.8806C11.9457 18.8206 11.8539 18.6315 11.9139 18.4583L13.1091 15.0052C13.1691 14.832 13.3582 14.7401 13.5315 14.8001Z" fill="white"/>
<path fill-rule="evenodd" clip-rule="evenodd" d="M10.6107 14.8005C10.7838 14.861 10.875 15.0505 10.8144 15.2235L10.4658 16.2196C10.4052 16.3927 10.2158 16.4839 10.0427 16.4233C9.86962 16.3627 9.77842 16.1733 9.839 16.0002L10.1876 15.0042C10.2482 14.8311 10.4376 14.7399 10.6107 14.8005ZM9.3324 18.4527C9.50548 18.5133 9.59668 18.7027 9.5361 18.8758L8.95506 20.5359C8.89449 20.709 8.70507 20.8002 8.532 20.7396C8.35892 20.679 8.26772 20.4896 8.3283 20.3165L8.90934 18.6564C8.96992 18.4833 9.15933 18.3921 9.3324 18.4527Z" fill="white"/>
</svg>
