<svg width="25" height="25" viewBox="0 0 25 25" fill="none" xmlns="http://www.w3.org/2000/svg">
<path fill-rule="evenodd" clip-rule="evenodd" d="M9.21333 7.46385C6.20679 7.46385 3.76951 9.90113 3.76951 12.9077C3.76951 15.1482 5.12316 17.0734 7.0586 17.9085C7.22696 17.9811 7.30456 18.1765 7.23191 18.3449C7.15926 18.5133 6.96388 18.5909 6.79552 18.5182C4.62544 17.5818 3.10547 15.4226 3.10547 12.9077C3.10547 9.53439 5.84005 6.7998 9.21333 6.7998C11.4491 6.7998 13.4037 8.00112 14.4679 9.79216C15.1603 9.41848 15.9528 9.2064 16.7941 9.2064C19.5028 9.2064 21.6987 11.4022 21.6987 14.111C21.6987 16.0416 20.5831 17.711 18.963 18.5111C18.7985 18.5922 18.5994 18.5248 18.5183 18.3604C18.4371 18.1959 18.5045 17.9968 18.669 17.9156C20.0713 17.2232 21.0346 15.7793 21.0346 14.111C21.0346 11.769 19.1361 9.87045 16.7941 9.87045C16.0628 9.87045 15.3755 10.0553 14.7755 10.3807C15.126 11.1511 15.3212 12.007 15.3212 12.9077C15.3212 13.091 15.1725 13.2397 14.9892 13.2397C14.8058 13.2397 14.6571 13.091 14.6571 12.9077C14.6571 12.004 14.4372 11.1526 14.0482 10.4032C13.1413 8.65618 11.3163 7.46385 9.21333 7.46385Z" fill="white"/>
<path fill-rule="evenodd" clip-rule="evenodd" d="M14.7548 6.06346C13.5901 6.06346 12.6733 6.95982 12.6733 8.03264C12.6733 8.21601 12.5247 8.36467 12.3413 8.36467C12.1579 8.36467 12.0093 8.21601 12.0093 8.03264C12.0093 6.56363 13.2536 5.39941 14.7548 5.39941C16.256 5.39941 17.5002 6.56363 17.5002 8.03264C17.5002 8.61183 17.305 9.14695 16.9763 9.58033C16.8655 9.72644 16.6572 9.75504 16.5111 9.64423C16.365 9.53342 16.3364 9.32516 16.4472 9.17905C16.6929 8.85509 16.8362 8.45953 16.8362 8.03264C16.8362 6.95982 15.9194 6.06346 14.7548 6.06346Z" fill="white"/>
<path fill-rule="evenodd" clip-rule="evenodd" d="M12.7236 2.71642C12.8957 2.6538 13.0859 2.74252 13.1486 2.91458L13.4335 3.69759C13.4962 3.86966 13.4075 4.05992 13.2354 4.12254C13.0633 4.18517 12.8731 4.09645 12.8104 3.92439L12.5254 3.14138C12.4628 2.96931 12.5515 2.77905 12.7236 2.71642Z" fill="white"/>
<path fill-rule="evenodd" clip-rule="evenodd" d="M17.5874 3.14233C17.746 3.23389 17.8003 3.43666 17.7087 3.59524L17.2921 4.31686C17.2006 4.47544 16.9978 4.52977 16.8392 4.43822C16.6806 4.34666 16.6263 4.14389 16.7178 3.98531L17.1345 3.26369C17.226 3.10511 17.4288 3.05078 17.5874 3.14233Z" fill="white"/>
<path fill-rule="evenodd" clip-rule="evenodd" d="M20.7242 7.02163C20.756 7.20196 20.6356 7.37392 20.4552 7.40572L19.6346 7.55041C19.4543 7.58221 19.2823 7.4618 19.2505 7.28147C19.2187 7.10114 19.3391 6.92918 19.5195 6.89739L20.3401 6.75269C20.5204 6.72089 20.6924 6.8413 20.7242 7.02163Z" fill="white"/>
<path fill-rule="evenodd" clip-rule="evenodd" d="M16.1787 16.4569C16.3522 16.5163 16.4447 16.705 16.3854 16.8785L14.8211 21.4511C14.7617 21.6246 14.5729 21.7171 14.3994 21.6578C14.2259 21.5984 14.1334 21.4096 14.1928 21.2361L15.7571 16.6636C15.8164 16.4901 16.0052 16.3976 16.1787 16.4569Z" fill="white"/>
<path fill-rule="evenodd" clip-rule="evenodd" d="M13.533 16.4573C13.7062 16.5173 13.7981 16.7064 13.7381 16.8797L12.6551 20.0083C12.5952 20.1815 12.4061 20.2734 12.2328 20.2134C12.0595 20.1534 11.9677 19.9643 12.0276 19.791L13.1106 16.6625C13.1706 16.4892 13.3597 16.3973 13.533 16.4573Z" fill="white"/>
<path fill-rule="evenodd" clip-rule="evenodd" d="M10.8867 16.4577C11.0597 16.5183 11.1509 16.7077 11.0904 16.8808L10.7745 17.7832C10.7139 17.9563 10.5245 18.0475 10.3514 17.9869C10.1784 17.9264 10.0872 17.7369 10.1477 17.5639L10.4636 16.6614C10.5242 16.4883 10.7136 16.3971 10.8867 16.4577ZM9.72849 19.7668C9.90157 19.8273 9.99277 20.0168 9.93219 20.1898L9.40575 21.694C9.34517 21.867 9.15576 21.9582 8.98268 21.8977C8.80961 21.8371 8.71841 21.6477 8.77898 21.4746L9.30543 19.9705C9.366 19.7974 9.55542 19.7062 9.72849 19.7668Z" fill="white"/>
</svg>
