<svg width="25" height="25" viewBox="0 0 25 25" fill="none" xmlns="http://www.w3.org/2000/svg">
<path fill-rule="evenodd" clip-rule="evenodd" d="M12.3719 9.4702C9.98811 9.4702 8.05564 11.4027 8.05564 13.7865C8.05564 14.898 8.47535 15.9107 9.16547 16.676C9.28827 16.8122 9.27743 17.0221 9.14125 17.1449C9.00508 17.2677 8.79513 17.2569 8.67233 17.1207C7.87648 16.2382 7.3916 15.0686 7.3916 13.7865C7.3916 11.0359 9.62137 8.80615 12.3719 8.80615C15.1225 8.80615 17.3522 11.0359 17.3522 13.7865C17.3522 13.9698 17.2036 14.1185 17.0202 14.1185C16.8369 14.1185 16.6882 13.9698 16.6882 13.7865C16.6882 11.4027 14.7557 9.4702 12.3719 9.4702Z" fill="white"/>
<path fill-rule="evenodd" clip-rule="evenodd" d="M2.47754 13.7866C2.47754 13.6032 2.62619 13.4546 2.80956 13.4546H4.44361C4.62698 13.4546 4.77563 13.6032 4.77563 13.7866C4.77563 13.97 4.62698 14.1186 4.44361 14.1186H2.80956C2.62619 14.1186 2.47754 13.97 2.47754 13.7866ZM19.9679 13.7866C19.9679 13.6032 20.1166 13.4546 20.2999 13.4546H21.934C22.1174 13.4546 22.266 13.6032 22.266 13.7866C22.266 13.97 22.1174 14.1186 21.934 14.1186H20.2999C20.1166 14.1186 19.9679 13.97 19.9679 13.7866Z" fill="white"/>
<path fill-rule="evenodd" clip-rule="evenodd" d="M5.37589 20.7826C5.24623 20.653 5.24623 20.4427 5.37589 20.3131L6.53134 19.1576C6.661 19.028 6.87122 19.028 7.00089 19.1576C7.13055 19.2873 7.13055 19.4975 7.00089 19.6272L5.84544 20.7826C5.71577 20.9123 5.50555 20.9123 5.37589 20.7826ZM17.7435 8.41506C17.6138 8.28539 17.6138 8.07517 17.7435 7.94551L18.8989 6.79006C19.0286 6.6604 19.2388 6.6604 19.3685 6.79006C19.4981 6.91972 19.4981 7.12994 19.3685 7.25961L18.213 8.41506C18.0833 8.54472 17.8731 8.54472 17.7435 8.41506Z" fill="white"/>
<path fill-rule="evenodd" clip-rule="evenodd" d="M5.37607 6.78995C5.50573 6.66029 5.71595 6.66029 5.84561 6.78995L7.00106 7.9454C7.13072 8.07506 7.13072 8.28529 7.00106 8.41495C6.8714 8.54461 6.66118 8.54461 6.53151 8.41495L5.37607 7.2595C5.2464 7.12984 5.2464 6.91961 5.37607 6.78995Z" fill="white"/>
<path fill-rule="evenodd" clip-rule="evenodd" d="M12.3726 3.89209C12.5559 3.89209 12.7046 4.04074 12.7046 4.22411L12.7046 5.85816C12.7046 6.04153 12.5559 6.19018 12.3726 6.19018C12.1892 6.19018 12.0405 6.04153 12.0405 5.85816L12.0405 4.22411C12.0405 4.04074 12.1892 3.89209 12.3726 3.89209Z" fill="white"/>
<path d="M12.3701 20.4263C12.3701 20.7925 12.0733 21.0894 11.707 21.0894C11.3408 21.0894 11.0439 20.7925 11.0439 20.4263C11.0439 20.0601 11.3408 19.7632 11.707 19.7632C12.0733 19.7632 12.3701 20.0601 12.3701 20.4263Z" fill="white"/>
<path d="M15.4248 17.5039C15.4248 17.8701 15.128 18.167 14.7617 18.167C14.3955 18.167 14.0986 17.8701 14.0986 17.5039C14.0986 17.1377 14.3955 16.8408 14.7617 16.8408C15.128 16.8408 15.4248 17.1377 15.4248 17.5039Z" fill="white"/>
<path d="M18.6114 20.5581C18.6114 20.9243 18.3145 21.2212 17.9483 21.2212C17.582 21.2212 17.2852 20.9243 17.2852 20.5581C17.2852 20.1919 17.582 19.895 17.9483 19.895C18.3145 19.895 18.6114 20.1919 18.6114 20.5581Z" fill="white"/>
</svg>
