<svg width="25" height="25" viewBox="0 0 25 25" fill="none" xmlns="http://www.w3.org/2000/svg">
<path fill-rule="evenodd" clip-rule="evenodd" d="M8.60416 2.90687C8.7036 2.99038 8.74523 3.12419 8.71071 3.24938C8.50427 3.99816 8.39388 4.78715 8.39388 5.60244C8.39388 10.4801 12.348 14.4342 17.2257 14.4342C18.5784 14.4342 19.8593 14.1303 21.0045 13.5873C21.1218 13.5317 21.2608 13.5496 21.3603 13.6331C21.4597 13.7166 21.5013 13.8504 21.4668 13.9756C21.0278 15.5681 20.1846 16.9924 19.0551 18.1316C18.926 18.2618 18.7158 18.2627 18.5856 18.1336C18.4554 18.0045 18.4545 17.7943 18.5836 17.6641C19.4714 16.7687 20.1685 15.6845 20.6096 14.4775C19.5581 14.8786 18.4172 15.0983 17.2257 15.0983C11.9813 15.0983 7.72984 10.8468 7.72984 5.60244C7.72984 4.98357 7.78908 4.37827 7.90229 3.79199C5.25839 5.31846 3.47996 8.17484 3.47996 11.446C3.47996 12.4075 3.63347 13.3324 3.91707 14.198C3.97416 14.3723 3.87917 14.5598 3.70492 14.6169C3.53066 14.674 3.34312 14.579 3.28603 14.4048C2.98084 13.4732 2.81592 12.4786 2.81592 11.446C2.81592 7.65497 5.03752 4.38346 8.24839 2.86112C8.36573 2.80549 8.50472 2.82336 8.60416 2.90687Z" fill="white"/>
<path fill-rule="evenodd" clip-rule="evenodd" d="M8.99905 15.1143C9.14574 15.1143 9.26467 15.2332 9.26467 15.3799V16.5547H10.4395C10.5862 16.5547 10.7051 16.6736 10.7051 16.8203C10.7051 16.967 10.5862 17.086 10.4395 17.086H9.26467V18.2608C9.26467 18.4075 9.14574 18.5264 8.99905 18.5264C8.85235 18.5264 8.73343 18.4075 8.73343 18.2608V17.086H7.55859C7.41189 17.086 7.29297 16.967 7.29297 16.8203C7.29297 16.6736 7.41189 16.5547 7.55859 16.5547H8.73343V15.3799C8.73343 15.2332 8.85235 15.1143 8.99905 15.1143Z" fill="white"/>
<path fill-rule="evenodd" clip-rule="evenodd" d="M5.5176 18.4751C5.6643 18.4751 5.78322 18.594 5.78322 18.7407V19.9156H6.95807C7.10476 19.9156 7.22368 20.0345 7.22368 20.1812C7.22368 20.3279 7.10476 20.4468 6.95807 20.4468H5.78322V21.6216C5.78322 21.7683 5.6643 21.8873 5.5176 21.8873C5.37091 21.8873 5.25199 21.7683 5.25199 21.6216V20.4468H4.07714C3.93044 20.4468 3.81152 20.3279 3.81152 20.1812C3.81152 20.0345 3.93044 19.9156 4.07714 19.9156H5.25199V18.7407C5.25199 18.594 5.37091 18.4751 5.5176 18.4751Z" fill="white"/>
<path fill-rule="evenodd" clip-rule="evenodd" d="M12.5996 18.4751C12.7463 18.4751 12.8653 18.594 12.8653 18.7407V19.9156H14.0401C14.1868 19.9156 14.3057 20.0345 14.3057 20.1812C14.3057 20.3279 14.1868 20.4468 14.0401 20.4468H12.8653V21.6216C12.8653 21.7683 12.7463 21.8873 12.5996 21.8873C12.4529 21.8873 12.334 21.7683 12.334 21.6216V20.4468H11.1592C11.0125 20.4468 10.8936 20.3279 10.8936 20.1812C10.8936 20.0345 11.0125 19.9156 11.1592 19.9156H12.334V18.7407C12.334 18.594 12.4529 18.4751 12.5996 18.4751Z" fill="white"/>
</svg>
