<svg width="25" height="25" viewBox="0 0 25 25" fill="none" xmlns="http://www.w3.org/2000/svg">
<path fill-rule="evenodd" clip-rule="evenodd" d="M12.3514 8.14158C9.9676 8.14158 8.03514 10.074 8.03514 12.4579C8.03514 13.5694 8.45484 14.5821 9.14496 15.3474C9.26777 15.4835 9.25692 15.6935 9.12075 15.8163C8.98457 15.9391 8.77462 15.9283 8.65182 15.7921C7.85598 14.9095 7.37109 13.7399 7.37109 12.4579C7.37109 9.70731 9.60086 7.47754 12.3514 7.47754C15.102 7.47754 17.3317 9.70731 17.3317 12.4579C17.3317 12.6412 17.1831 12.7899 16.9997 12.7899C16.8163 12.7899 16.6677 12.6412 16.6677 12.4579C16.6677 10.074 14.7352 8.14158 12.3514 8.14158Z" fill="white"/>
<path fill-rule="evenodd" clip-rule="evenodd" d="M2.45752 12.458C2.45752 12.2746 2.60617 12.126 2.78954 12.126H4.42359C4.60696 12.126 4.75561 12.2746 4.75561 12.458C4.75561 12.6414 4.60696 12.79 4.42359 12.79H2.78954C2.60617 12.79 2.45752 12.6414 2.45752 12.458ZM19.9479 12.458C19.9479 12.2746 20.0966 12.126 20.2799 12.126H21.914C22.0973 12.126 22.246 12.2746 22.246 12.458C22.246 12.6414 22.0973 12.79 21.914 12.79H20.2799C20.0966 12.79 19.9479 12.6414 19.9479 12.458Z" fill="white"/>
<path fill-rule="evenodd" clip-rule="evenodd" d="M5.34366 19.4418C5.214 19.3121 5.214 19.1019 5.34366 18.9723L6.49911 17.8168C6.62877 17.6871 6.839 17.6871 6.96866 17.8168C7.09832 17.9465 7.09832 18.1567 6.96866 18.2864L5.81321 19.4418C5.68355 19.5715 5.47332 19.5715 5.34366 19.4418ZM17.7112 7.07423C17.5816 6.94457 17.5816 6.73435 17.7112 6.60469L18.8667 5.44924C18.9963 5.31958 19.2066 5.31957 19.3362 5.44924C19.4659 5.5789 19.4659 5.78912 19.3362 5.91879L18.1808 7.07423C18.0511 7.2039 17.8409 7.2039 17.7112 7.07423Z" fill="white"/>
<path fill-rule="evenodd" clip-rule="evenodd" d="M5.35507 5.46183C5.48473 5.33216 5.69496 5.33216 5.82462 5.46183L6.98007 6.61727C7.10973 6.74694 7.10973 6.95716 6.98007 7.08682C6.8504 7.21649 6.64018 7.21649 6.51052 7.08682L5.35507 5.93137C5.22541 5.80171 5.22541 5.59149 5.35507 5.46183Z" fill="white"/>
<path fill-rule="evenodd" clip-rule="evenodd" d="M12.353 2.56299C12.5364 2.56299 12.6851 2.71164 12.6851 2.89501L12.6851 4.52906C12.6851 4.71243 12.5364 4.86108 12.353 4.86108C12.1697 4.86108 12.021 4.71243 12.021 4.52906L12.021 2.89501C12.021 2.71164 12.1697 2.56299 12.353 2.56299Z" fill="white"/>
<path fill-rule="evenodd" clip-rule="evenodd" d="M15.148 15.2471C15.2947 15.2471 15.4136 15.366 15.4136 15.5127V16.6875H16.5884C16.7351 16.6875 16.8541 16.8065 16.8541 16.9532C16.8541 17.0998 16.7351 17.2188 16.5884 17.2188H15.4136V18.3936C15.4136 18.5403 15.2947 18.6592 15.148 18.6592C15.0013 18.6592 14.8824 18.5403 14.8824 18.3936V17.2188H13.7075C13.5608 17.2188 13.4419 17.0998 13.4419 16.9531C13.4419 16.8065 13.5608 16.6875 13.7075 16.6875H14.8824V15.5127C14.8824 15.366 15.0013 15.2471 15.148 15.2471Z" fill="white"/>
<path fill-rule="evenodd" clip-rule="evenodd" d="M11.6675 18.6079C11.8142 18.6079 11.9331 18.7268 11.9331 18.8735V20.0484H13.108C13.2547 20.0484 13.3736 20.1673 13.3736 20.314C13.3736 20.4607 13.2547 20.5796 13.108 20.5796H11.9331V21.7545C11.9331 21.9011 11.8142 22.0201 11.6675 22.0201C11.5208 22.0201 11.4019 21.9011 11.4019 21.7545V20.5796H10.227C10.0803 20.5796 9.96143 20.4607 9.96143 20.314C9.96143 20.1673 10.0803 20.0484 10.227 20.0484H11.4019V18.8735C11.4019 18.7268 11.5208 18.6079 11.6675 18.6079Z" fill="white"/>
<path fill-rule="evenodd" clip-rule="evenodd" d="M18.7486 18.6079C18.8953 18.6079 19.0142 18.7268 19.0142 18.8735V20.0484H20.189C20.3357 20.0484 20.4546 20.1673 20.4546 20.314C20.4546 20.4607 20.3357 20.5796 20.189 20.5796H19.0142V21.7545C19.0142 21.9011 18.8953 22.0201 18.7486 22.0201C18.6019 22.0201 18.4829 21.9011 18.4829 21.7545V20.5796H17.3081C17.1614 20.5796 17.0425 20.4607 17.0425 20.314C17.0425 20.1673 17.1614 20.0484 17.3081 20.0484H18.4829V18.8735C18.4829 18.7268 18.6019 18.6079 18.7486 18.6079Z" fill="white"/>
</svg>
