<svg width="180" height="180" viewBox="0 0 180 180" fill="none" xmlns="http://www.w3.org/2000/svg">
<path fill-rule="evenodd" clip-rule="evenodd" d="M90 63.5C72.0507 63.5 57.5 78.0507 57.5 96C57.5 104.369 60.6602 111.995 65.8566 117.757C66.7812 118.782 66.6996 120.363 65.6742 121.288C64.6489 122.212 63.0681 122.131 62.1434 121.105C56.151 114.46 52.5 105.654 52.5 96C52.5 75.2893 69.2893 58.5 90 58.5C100.217 58.5 109.484 62.5891 116.245 69.2144C117.231 70.1808 117.247 71.7636 116.281 72.7498C115.314 73.7359 113.731 73.752 112.745 72.7856C106.881 67.039 98.8562 63.5 90 63.5Z" fill="white"/>
<path fill-rule="evenodd" clip-rule="evenodd" d="M15.5 96C15.5 94.6193 16.6193 93.5 18 93.5H30.3038C31.6845 93.5 32.8038 94.6193 32.8038 96C32.8038 97.3807 31.6845 98.5 30.3038 98.5H18C16.6193 98.5 15.5 97.3807 15.5 96Z" fill="white"/>
<path fill-rule="evenodd" clip-rule="evenodd" d="M37.3205 148.679C36.3442 147.703 36.3442 146.12 37.3205 145.144L46.0206 136.444C46.9969 135.467 48.5798 135.467 49.5561 136.444C50.5324 137.42 50.5324 139.003 49.5561 139.979L40.856 148.679C39.8797 149.656 38.2968 149.656 37.3205 148.679ZM130.444 55.5561C129.467 54.5798 129.467 52.9969 130.444 52.0206L139.144 43.3205C140.12 42.3442 141.703 42.3442 142.679 43.3205C143.656 44.2968 143.656 45.8797 142.679 46.856L133.979 55.5561C133.003 56.5324 131.42 56.5324 130.444 55.5561Z" fill="white"/>
<path fill-rule="evenodd" clip-rule="evenodd" d="M37.3206 43.3205C38.2969 42.3442 39.8798 42.3442 40.8561 43.3205L49.5562 52.0206C50.5326 52.9969 50.5326 54.5798 49.5562 55.5561C48.5799 56.5324 46.997 56.5324 46.0207 55.5561L37.3206 46.856C36.3443 45.8797 36.3443 44.2968 37.3206 43.3205Z" fill="white"/>
<path fill-rule="evenodd" clip-rule="evenodd" d="M90 21.5C91.3807 21.5 92.5 22.6193 92.5 24L92.5 36.3038C92.5 37.6845 91.3807 38.8038 90 38.8038C88.6193 38.8038 87.5 37.6845 87.5 36.3038L87.5 24C87.5 22.6193 88.6193 21.5 90 21.5Z" fill="white"/>
<path fill-rule="evenodd" clip-rule="evenodd" d="M93.4846 96.8565C89.3329 99.8212 87 103.736 87 107.852C87 111.969 89.3329 115.884 93.4846 118.848C97.6324 121.81 103.465 123.705 110 123.705C116.535 123.705 122.368 121.81 126.515 118.848C130.667 115.884 133 111.969 133 107.852C133 103.736 130.667 99.8212 126.515 96.8565C122.368 93.8945 116.535 92 110 92C103.465 92 97.6324 93.8945 93.4846 96.8565ZM91.1601 93.6013C96.0605 90.1019 102.728 88 110 88C117.272 88 123.94 90.1019 128.84 93.6013C133.736 97.0979 137 102.109 137 107.852C137 113.596 133.736 118.607 128.84 122.104C123.94 125.603 117.272 127.705 110 127.705C105.286 127.705 100.827 126.822 96.9376 125.247C96.7852 125.341 96.6177 125.415 96.4374 125.466C93.8468 126.198 92.3191 128.369 92.3191 130.504C92.3191 132.659 93.8596 134.998 97.1921 136.91C100.469 138.79 105.13 140.016 110.387 140.016C114.441 140.016 118.156 139.286 121.156 138.078C124.182 136.859 126.339 135.215 127.482 133.492C128.093 132.571 129.334 132.32 130.254 132.931C131.175 133.541 131.426 134.782 130.816 135.703C129.082 138.317 126.143 140.382 122.65 141.789C122.286 141.935 121.915 142.075 121.536 142.208C122.845 143.608 123.702 145.337 123.702 147.325C123.702 150.42 121.627 152.883 118.996 154.466C116.327 156.072 112.768 157 108.944 157C104.491 157 100.362 155.738 97.5986 153.58C96.7281 152.9 96.5737 151.643 97.2537 150.773C97.9336 149.902 99.1905 149.748 100.061 150.428C101.963 151.913 105.16 153 108.944 153C112.166 153 114.986 152.21 116.934 151.038C118.922 149.843 119.702 148.468 119.702 147.325C119.702 146.213 118.967 144.886 117.095 143.71C116.975 143.635 116.867 143.55 116.77 143.456C114.744 143.822 112.6 144.016 110.387 144.016C104.56 144.016 99.1873 142.666 95.2016 140.379C91.271 138.124 88.3191 134.706 88.3191 130.504C88.3191 127.486 89.8975 124.683 92.4425 122.962C92.0028 122.686 91.5751 122.4 91.1601 122.104C86.2635 118.607 83 113.596 83 107.852C83 102.109 86.2635 97.0979 91.1601 93.6013Z" fill="white"/>
</svg>
