<svg width="180" height="180" viewBox="0 0 180 180" fill="none" xmlns="http://www.w3.org/2000/svg">
<path fill-rule="evenodd" clip-rule="evenodd" d="M31.4846 95.8565C27.3329 98.8212 25 102.736 25 106.852C25 110.969 27.3329 114.884 31.4846 117.848C35.6324 120.81 41.4651 122.705 48 122.705C54.5349 122.705 60.3676 120.81 64.5154 117.848C68.6671 114.884 71 110.969 71 106.852C71 102.736 68.6671 98.8212 64.5154 95.8565C60.3676 92.8945 54.5349 91 48 91C41.4651 91 35.6324 92.8945 31.4846 95.8565ZM29.1601 92.6013C34.0605 89.1019 40.7278 87 48 87C55.2722 87 61.9395 89.1019 66.8399 92.6013C71.7365 96.0979 75 101.109 75 106.852C75 112.596 71.7365 117.607 66.8399 121.104C61.9395 124.603 55.2722 126.705 48 126.705C43.2862 126.705 38.8266 125.822 34.9376 124.247C34.7852 124.341 34.6177 124.415 34.4374 124.466C31.8468 125.198 30.3191 127.369 30.3191 129.504C30.3191 131.659 31.8596 133.998 35.1921 135.91C38.4694 137.79 43.1302 139.016 48.3868 139.016C52.4414 139.016 56.1562 138.286 59.1557 137.078C62.182 135.859 64.3393 134.215 65.4822 132.492C66.0928 131.571 67.3339 131.32 68.2544 131.931C69.1749 132.541 69.4262 133.782 68.8156 134.703C67.0818 137.317 64.143 139.382 60.6499 140.789C60.286 140.935 59.9146 141.075 59.5361 141.208C60.8445 142.608 61.7021 144.337 61.7021 146.325C61.7021 149.42 59.6267 151.883 56.9963 153.466C54.327 155.072 50.7681 156 46.9439 156C42.491 156 38.3619 154.738 35.5986 152.58C34.7281 151.9 34.5737 150.643 35.2537 149.773C35.9336 148.902 37.1905 148.748 38.061 149.428C39.963 150.913 43.1595 152 46.9439 152C50.1659 152 52.9862 151.21 54.9344 150.038C56.9216 148.843 57.7021 147.468 57.7021 146.325C57.7021 145.213 56.9675 143.886 55.0946 142.71C54.9755 142.635 54.867 142.55 54.7695 142.456C52.744 142.822 50.6 143.016 48.3868 143.016C42.5604 143.016 37.1873 141.666 33.2016 139.379C29.271 137.124 26.3191 133.706 26.3191 129.504C26.3191 126.486 27.8975 123.683 30.4425 121.962C30.0028 121.686 29.5751 121.4 29.1601 121.104C24.2635 117.607 21 112.596 21 106.852C21 101.109 24.2635 96.0979 29.1601 92.6013Z" fill="white"/>
<path fill-rule="evenodd" clip-rule="evenodd" d="M70.5483 23.0856C71.297 23.7144 71.6105 24.7219 71.3506 25.6645C69.9406 30.7785 69.1867 36.1672 69.1867 41.7361C69.1867 75.0504 96.1932 102.057 129.508 102.057C138.747 102.057 147.496 99.9812 155.317 96.2729C156.2 95.854 157.247 95.9886 157.996 96.6174C158.744 97.2462 159.058 98.2537 158.798 99.1963C151.181 126.823 125.874 147.117 95.821 147.117C92.3497 147.117 88.9401 146.846 85.6124 146.323C84.2484 146.109 83.3162 144.83 83.5304 143.466C83.7445 142.102 85.0238 141.17 86.3878 141.384C89.4599 141.866 92.6103 142.117 95.821 142.117C121.686 142.117 143.753 125.836 152.325 102.96C145.22 105.609 137.53 107.057 129.508 107.057C93.4318 107.057 64.1867 77.8118 64.1867 41.7361C64.1867 37.6489 64.5624 33.6475 65.2816 29.7653C50.8429 38.2591 40.2528 52.5905 36.7523 69.5066C36.4726 70.8587 35.1497 71.728 33.7976 71.4482C32.4455 71.1684 31.5763 69.8455 31.8561 68.4934C36.0525 48.214 49.643 31.3826 67.8695 22.7411C68.753 22.3222 69.7996 22.4568 70.5483 23.0856Z" fill="white"/>
</svg>
