<svg width="25" height="25" viewBox="0 0 25 25" fill="none" xmlns="http://www.w3.org/2000/svg">
<path fill-rule="evenodd" clip-rule="evenodd" d="M14.7334 3.43947C14.8326 3.52312 14.874 3.65695 14.8394 3.78204C14.7671 4.04289 14.7283 4.31793 14.7283 4.60249C14.7283 6.30216 16.114 7.68302 17.8271 7.68302C18.3024 7.68302 18.7518 7.57686 19.1535 7.38745C19.2709 7.33208 19.4098 7.35021 19.5091 7.43386C19.6083 7.51751 19.6497 7.65134 19.6151 7.77644C19.364 8.68205 18.7806 9.44888 18.0047 9.94009C17.8498 10.0382 17.6447 9.9921 17.5466 9.83717C17.4485 9.68224 17.4946 9.47713 17.6495 9.37904C18.0951 9.09692 18.463 8.70499 18.7149 8.24217C18.43 8.31075 18.1327 8.34707 17.8271 8.34707C15.7506 8.34707 14.0643 6.67223 14.0643 4.60249C14.0643 4.51989 14.067 4.43789 14.0723 4.35658C13.3509 4.92111 12.8887 5.79673 12.8887 6.77861C12.8887 7.17264 12.9629 7.54866 13.098 7.89415C13.1647 8.06493 13.0804 8.2575 12.9096 8.32427C12.7389 8.39104 12.5463 8.30673 12.4795 8.13594C12.3148 7.71469 12.2246 7.25675 12.2246 6.77861C12.2246 5.28237 13.1063 3.99271 14.3778 3.39305C14.4952 3.33768 14.6341 3.35581 14.7334 3.43947Z" fill="white"/>
<path fill-rule="evenodd" clip-rule="evenodd" d="M9.66841 7.61033C6.66187 7.61033 4.22459 10.0476 4.22459 13.0541C4.22459 14.8481 5.09198 16.4394 6.43166 17.4317C6.57902 17.5408 6.60999 17.7487 6.50085 17.8961C6.3917 18.0434 6.18377 18.0744 6.03642 17.9653C4.53494 16.8531 3.56055 15.0674 3.56055 13.0541C3.56055 9.68087 6.29513 6.94629 9.66841 6.94629C11.9041 6.94629 13.8588 8.14761 14.923 9.93864C15.6154 9.56496 16.4079 9.35289 17.2492 9.35289C19.9579 9.35289 22.1538 11.5487 22.1538 14.2574C22.1538 15.7291 21.5051 17.0498 20.4793 17.9482C20.3413 18.0691 20.1316 18.0552 20.0107 17.9172C19.8899 17.7793 19.9038 17.5695 20.0418 17.4487C20.9298 16.6709 21.4897 15.5298 21.4897 14.2574C21.4897 11.9155 19.5912 10.0169 17.2492 10.0169C16.5179 10.0169 15.8306 10.2018 15.2306 10.5272C15.5811 11.2976 15.7763 12.1535 15.7763 13.0541C15.7763 13.2375 15.6276 13.3862 15.4442 13.3862C15.2609 13.3862 15.1122 13.2375 15.1122 13.0541C15.1122 12.1504 14.8923 11.2991 14.5033 10.5497C13.5964 8.80267 11.7714 7.61033 9.66841 7.61033Z" fill="white"/>
<path fill-rule="evenodd" clip-rule="evenodd" d="M17.1276 17.1157C17.2663 17.1635 17.34 17.3147 17.2921 17.4534L15.9641 21.3048C15.9162 21.4435 15.765 21.5171 15.6264 21.4693C15.4877 21.4215 15.414 21.2703 15.4618 21.1316L16.7899 17.2802C16.8378 17.1415 16.9889 17.0678 17.1276 17.1157Z" fill="white"/>
<path fill-rule="evenodd" clip-rule="evenodd" d="M14.4719 17.1157C14.6106 17.1635 14.6842 17.3147 14.6364 17.4534L13.3083 21.3048C13.2605 21.4435 13.1093 21.5171 12.9706 21.4693C12.8319 21.4215 12.7583 21.2703 12.8061 21.1316L14.1342 17.2802C14.182 17.1415 14.3332 17.0678 14.4719 17.1157Z" fill="white"/>
<path fill-rule="evenodd" clip-rule="evenodd" d="M11.3817 17.0419C11.4875 17.1435 11.4909 17.3117 11.3892 17.4174L10.1516 18.7054L11.3418 19.4742C11.4085 19.5173 11.4524 19.5878 11.4615 19.6666C11.4707 19.7454 11.4442 19.8242 11.3892 19.8814L9.92834 21.4017C9.82669 21.5075 9.65855 21.5108 9.55277 21.4092C9.44699 21.3075 9.44364 21.1394 9.54529 21.0336L10.7829 19.7456L9.59269 18.9768C9.52606 18.9338 9.48215 18.8632 9.47298 18.7844C9.4638 18.7056 9.49032 18.6269 9.54529 18.5697L11.0062 17.0494C11.1078 16.9436 11.276 16.9402 11.3817 17.0419Z" fill="white"/>
</svg>
