<svg width="25" height="25" viewBox="0 0 25 25" fill="none" xmlns="http://www.w3.org/2000/svg">
<path fill-rule="evenodd" clip-rule="evenodd" d="M8.5208 5.08738C5.18346 5.08738 2.47801 7.79283 2.47801 11.1302C2.47801 13.3923 3.72087 15.3646 5.56259 16.4007C5.7224 16.4906 5.77908 16.693 5.68917 16.8528C5.59927 17.0126 5.39683 17.0693 5.23701 16.9794C3.19473 15.8305 1.81396 13.6418 1.81396 11.1302C1.81396 7.42609 4.81672 4.42334 8.5208 4.42334C10.9876 4.42334 13.1428 5.75519 14.3075 7.7377C15.0737 7.31807 15.9533 7.07951 16.8877 7.07951C19.8583 7.07951 22.2665 9.48766 22.2665 12.4583C22.2665 14.3477 21.292 16.0093 19.8199 16.9682C19.6662 17.0683 19.4605 17.0249 19.3604 16.8713C19.2604 16.7176 19.3038 16.5119 19.4574 16.4118C20.7494 15.5702 21.6024 14.1138 21.6024 12.4583C21.6024 9.8544 19.4916 7.74355 16.8877 7.74355C16.0632 7.74355 15.2889 7.95493 14.6151 8.32636C15.0084 9.17981 15.2276 10.1298 15.2276 11.1302C15.2276 11.3135 15.079 11.4622 14.8956 11.4622C14.7122 11.4622 14.5636 11.3135 14.5636 11.1302C14.5636 10.1271 14.3194 9.18202 13.8876 8.35018C12.881 6.41098 10.8552 5.08738 8.5208 5.08738Z" fill="white"/>
<path fill-rule="evenodd" clip-rule="evenodd" d="M16.3098 15.7924C16.4484 15.8402 16.5221 15.9914 16.4743 16.1301L15.1462 19.9816C15.0984 20.1202 14.9472 20.1939 14.8085 20.1461C14.6698 20.0983 14.5962 19.9471 14.644 19.8084L15.9721 15.9569C16.0199 15.8183 16.1711 15.7446 16.3098 15.7924Z" fill="white"/>
<path fill-rule="evenodd" clip-rule="evenodd" d="M13.654 15.7924C13.7927 15.8402 13.8663 15.9914 13.8185 16.1301L12.4904 19.9816C12.4426 20.1202 12.2914 20.1939 12.1527 20.1461C12.0141 20.0983 11.9404 19.9471 11.9882 19.8084L13.3163 15.9569C13.3641 15.8183 13.5153 15.7446 13.654 15.7924Z" fill="white"/>
<path fill-rule="evenodd" clip-rule="evenodd" d="M10.5639 15.7196C10.6696 15.8212 10.673 15.9894 10.5714 16.0952L9.33372 17.3831L10.524 18.152C10.5906 18.195 10.6345 18.2656 10.6437 18.3444C10.6528 18.4231 10.6263 18.5019 10.5714 18.5591L9.11046 20.0794C9.00882 20.1852 8.84068 20.1886 8.7349 20.0869C8.62912 19.9853 8.62577 19.8171 8.72741 19.7113L9.96506 18.4234L8.77482 17.6546C8.70819 17.6115 8.66428 17.5409 8.6551 17.4622C8.64593 17.3834 8.67245 17.3046 8.72741 17.2474L10.1883 15.7271C10.29 15.6213 10.4581 15.618 10.5639 15.7196Z" fill="white"/>
</svg>
