<svg width="25" height="25" viewBox="0 0 25 25" fill="none" xmlns="http://www.w3.org/2000/svg">
<path fill-rule="evenodd" clip-rule="evenodd" d="M14.9974 5.66404C13.8328 5.66404 12.916 6.5604 12.916 7.63323C12.916 7.8166 12.7673 7.96525 12.584 7.96525C12.4006 7.96525 12.252 7.8166 12.252 7.63323C12.252 6.16421 13.4962 5 14.9974 5C16.4986 5 17.7429 6.16421 17.7429 7.63323C17.7429 8.21241 17.5477 8.74753 17.219 9.18092C17.1081 9.32702 16.8999 9.35563 16.7538 9.24482C16.6077 9.13401 16.5791 8.92574 16.6899 8.77964C16.9356 8.45567 17.0789 8.06012 17.0789 7.63323C17.0789 6.5604 16.1621 5.66404 14.9974 5.66404Z" fill="white"/>
<path fill-rule="evenodd" clip-rule="evenodd" d="M12.9658 2.3175C13.1379 2.25487 13.3281 2.34359 13.3907 2.51566L13.6757 3.29867C13.7384 3.47073 13.6496 3.66099 13.4776 3.72362C13.3055 3.78625 13.1152 3.69753 13.0526 3.52546L12.7676 2.74245C12.705 2.57038 12.7937 2.38013 12.9658 2.3175Z" fill="white"/>
<path fill-rule="evenodd" clip-rule="evenodd" d="M17.8301 2.74389C17.9886 2.83545 18.043 3.03822 17.9514 3.1968L17.5348 3.91842C17.4432 4.077 17.2405 4.13134 17.0819 4.03978C16.9233 3.94823 16.869 3.74545 16.9605 3.58687L17.3772 2.86525C17.4687 2.70667 17.6715 2.65234 17.8301 2.74389Z" fill="white"/>
<path fill-rule="evenodd" clip-rule="evenodd" d="M20.9673 6.62319C20.9991 6.80352 20.8787 6.97548 20.6984 7.00728L19.8778 7.15197C19.6975 7.18377 19.5255 7.06336 19.4937 6.88303C19.4619 6.70271 19.5823 6.53074 19.7626 6.49895L20.5832 6.35425C20.7636 6.32246 20.9355 6.44287 20.9673 6.62319Z" fill="white"/>
<path fill-rule="evenodd" clip-rule="evenodd" d="M9.45503 7.07957C6.45058 7.07957 4.01121 9.53211 4.01121 12.5622C4.01121 14.82 5.36613 16.7584 7.30104 17.5989C7.46923 17.672 7.54635 17.8676 7.47329 18.0358C7.40023 18.2039 7.20466 18.2811 7.03647 18.208C4.86586 17.2651 3.34717 15.0918 3.34717 12.5622C3.34717 9.16957 6.07966 6.41553 9.45503 6.41553C11.6918 6.41553 13.6462 7.62539 14.71 9.4275C15.4022 9.05165 16.1946 8.83828 17.0358 8.83828C19.7466 8.83828 21.9404 11.05 21.9404 13.7735C21.9404 15.7151 20.826 17.3952 19.2055 18.2008C19.0412 18.2824 18.842 18.2155 18.7603 18.0513C18.6787 17.8871 18.7457 17.6878 18.9099 17.6062C20.3118 16.9093 21.2763 15.4551 21.2763 13.7735C21.2763 11.4125 19.3757 9.50233 17.0358 9.50233C16.3042 9.50233 15.6165 9.68868 15.0162 10.0169C15.3674 10.7928 15.5629 11.6549 15.5629 12.5622C15.5629 12.7455 15.4142 12.8942 15.2309 12.8942C15.0475 12.8942 14.8988 12.7455 14.8988 12.5622C14.8988 11.6516 14.6787 10.7939 14.2895 10.0391C13.382 8.27927 11.5568 7.07957 9.45503 7.07957Z" fill="white"/>
<path fill-rule="evenodd" clip-rule="evenodd" d="M14.3483 15.8454C14.4577 15.9431 14.4671 16.111 14.3694 16.2204L12.5773 18.2264L14.3229 19.4391C14.3854 19.4825 14.4262 19.5506 14.4351 19.6262C14.444 19.7017 14.4201 19.7775 14.3694 19.8342L12.3773 22.064C12.2795 22.1734 12.1116 22.1828 12.0022 22.0851C11.8928 21.9874 11.8834 21.8195 11.9811 21.7101L13.7733 19.7041L12.0276 18.4914C11.9652 18.448 11.9243 18.3799 11.9154 18.3043C11.9065 18.2287 11.9304 18.153 11.9811 18.0963L13.9732 15.8665C14.071 15.7571 14.2389 15.7476 14.3483 15.8454Z" fill="white"/>
</svg>
