<svg width="25" height="25" viewBox="0 0 25 25" fill="none" xmlns="http://www.w3.org/2000/svg">
<path fill-rule="evenodd" clip-rule="evenodd" d="M9.41533 6.54734C6.07799 6.54734 3.37254 9.25279 3.37254 12.5901C3.37254 15.0773 4.87519 17.2142 7.02351 18.1412C7.19187 18.2138 7.26947 18.4092 7.19682 18.5776C7.12417 18.7459 6.92879 18.8235 6.76043 18.7509C4.37747 17.7227 2.7085 15.3517 2.7085 12.5901C2.7085 8.88605 5.71125 5.8833 9.41533 5.8833C11.8821 5.8833 14.0374 7.21515 15.2021 9.19766C15.9683 8.77803 16.8478 8.53947 17.7823 8.53947C20.7529 8.53947 23.161 10.9476 23.161 13.9182C23.161 16.0355 21.9377 17.8663 20.1608 18.7437C19.9964 18.8249 19.7973 18.7575 19.7161 18.593C19.6349 18.4286 19.7024 18.2295 19.8668 18.1483C21.4258 17.3785 22.497 15.7732 22.497 13.9182C22.497 11.3144 20.3861 9.20352 17.7823 9.20352C16.9578 9.20352 16.1834 9.41489 15.5097 9.78633C15.9029 10.6398 16.1222 11.5897 16.1222 12.5901C16.1222 12.7735 15.9735 12.9222 15.7901 12.9222C15.6068 12.9222 15.4581 12.7735 15.4581 12.5901C15.4581 11.5871 15.214 10.642 14.7822 9.81014C13.7755 7.87094 11.7497 6.54734 9.41533 6.54734Z" fill="white"/>
<path fill-rule="evenodd" clip-rule="evenodd" d="M14.6388 16.6422C14.7482 16.74 14.7577 16.9079 14.6599 17.0173L12.8678 19.0232L14.6134 20.236C14.6759 20.2794 14.7167 20.3475 14.7256 20.4231C14.7345 20.4986 14.7106 20.5744 14.6599 20.6311L12.6678 22.8609C12.5701 22.9703 12.4022 22.9797 12.2928 22.882C12.1834 22.7842 12.1739 22.6163 12.2716 22.5069L14.0638 20.501L12.3182 19.2883C12.2557 19.2448 12.2148 19.1767 12.2059 19.1012C12.197 19.0256 12.221 18.9499 12.2716 18.8931L14.2638 16.6634C14.3615 16.554 14.5294 16.5445 14.6388 16.6422Z" fill="white"/>
</svg>
