<svg width="25" height="25" viewBox="0 0 25 25" fill="none" xmlns="http://www.w3.org/2000/svg">
<path fill-rule="evenodd" clip-rule="evenodd" d="M9.04326 7.74363C5.70592 7.74363 3.00047 10.4491 3.00047 13.7864C3.00047 17.1238 5.70592 19.8292 9.04326 19.8292H17.4102C20.0141 19.8292 22.1249 17.7184 22.1249 15.1145C22.1249 13.3955 21.2052 11.891 19.8293 11.0669C19.672 10.9726 19.6209 10.7687 19.7151 10.6114C19.8094 10.4541 20.0133 10.403 20.1706 10.4972C21.7383 11.4364 22.7889 13.1526 22.7889 15.1145C22.7889 18.0851 20.3808 20.4933 17.4102 20.4933H9.04326C5.33918 20.4933 2.33643 17.4905 2.33643 13.7864C2.33643 10.0823 5.33918 7.07959 9.04326 7.07959C11.6352 7.07959 13.8831 8.54994 14.9995 10.7005C15.4792 11.6246 15.7501 12.6744 15.7501 13.7864C15.7501 13.9698 15.6014 14.1184 15.4181 14.1184C15.2347 14.1184 15.0861 13.9698 15.0861 13.7864C15.0861 12.7833 14.8419 11.8383 14.4101 11.0064C13.4034 9.06723 11.3776 7.74363 9.04326 7.74363Z" fill="white"/>
<path fill-rule="evenodd" clip-rule="evenodd" d="M17.3176 4.82176C16.7279 4.82176 16.2216 5.15443 15.9806 5.63243C15.8981 5.79617 15.6984 5.862 15.5347 5.77946C15.3709 5.69691 15.3051 5.49726 15.3877 5.33352C15.7399 4.63476 16.4736 4.15771 17.3176 4.15771C18.4985 4.15771 19.4692 5.09482 19.4692 6.26711C19.4692 7.32742 18.6751 8.19532 17.6496 8.35146V8.67321C17.6496 8.85658 17.5009 9.00523 17.3176 9.00523C17.1342 9.00523 16.9855 8.85658 16.9855 8.67321V8.04449C16.9855 7.86111 17.1342 7.71246 17.3176 7.71246C18.1465 7.71246 18.8051 7.05805 18.8051 6.26711C18.8051 5.47617 18.1465 4.82176 17.3176 4.82176Z" fill="white"/>
<path d="M18.0733 10.3325C18.0733 10.6988 17.7764 10.9956 17.4102 10.9956C17.044 10.9956 16.7471 10.6988 16.7471 10.3325C16.7471 9.96631 17.044 9.66943 17.4102 9.66943C17.7764 9.66943 18.0733 9.96631 18.0733 10.3325Z" fill="white"/>
</svg>
