<svg width="25" height="25" viewBox="0 0 25 25" fill="none" xmlns="http://www.w3.org/2000/svg">
<path fill-rule="evenodd" clip-rule="evenodd" d="M11.8244 5.02099C11.8244 4.83762 11.973 4.68896 12.1564 4.68896H12.8903C14.2106 4.68896 15.2809 5.75925 15.2809 7.07952C15.2809 8.39979 14.2106 9.47007 12.8903 9.47007H3.1289C2.94553 9.47007 2.79688 9.32142 2.79688 9.13805C2.79688 8.95468 2.94553 8.80603 3.1289 8.80603H12.8903C13.8439 8.80603 14.6168 8.03305 14.6168 7.07952C14.6168 6.12599 13.8439 5.35301 12.8903 5.35301H12.1564C11.973 5.35301 11.8244 5.20436 11.8244 5.02099Z" fill="white"/>
<path fill-rule="evenodd" clip-rule="evenodd" d="M17.8112 8.208C17.8112 8.02463 17.9598 7.87598 18.1432 7.87598H18.8667C20.187 7.87598 21.2573 8.94626 21.2573 10.2665C21.2573 11.5868 20.187 12.6571 18.8667 12.6571H3.1289C2.94553 12.6571 2.79688 12.5084 2.79688 12.3251C2.79688 12.1417 2.94553 11.993 3.1289 11.993H18.8667C19.8202 11.993 20.5932 11.2201 20.5932 10.2665C20.5932 9.31301 19.8202 8.54002 18.8667 8.54002H18.1432C17.9598 8.54002 17.8112 8.39137 17.8112 8.208Z" fill="white"/>
<path fill-rule="evenodd" clip-rule="evenodd" d="M11.8244 19.4971C11.8244 19.6805 11.973 19.8291 12.1564 19.8291H12.8903C14.2106 19.8291 15.2809 18.7588 15.2809 17.4385C15.2809 16.1183 14.2106 15.048 12.8903 15.048H3.1289C2.94553 15.048 2.79688 15.1966 2.79688 15.38C2.79688 15.5634 2.94553 15.712 3.1289 15.712H12.8903C13.8439 15.712 14.6168 16.485 14.6168 17.4385C14.6168 18.3921 13.8439 19.1651 12.8903 19.1651H12.1564C11.973 19.1651 11.8244 19.3137 11.8244 19.4971Z" fill="white"/>
</svg>
