<svg width="25" height="25" viewBox="0 0 25 25" fill="none" xmlns="http://www.w3.org/2000/svg">
<path fill-rule="evenodd" clip-rule="evenodd" d="M12.4588 8.15523C10.2584 8.15523 8.47457 9.93905 8.47457 12.1395C8.47457 14.3399 10.2584 16.1238 12.4588 16.1238C14.6593 16.1238 16.4431 14.3399 16.4431 12.1395C16.4431 9.93905 14.6593 8.15523 12.4588 8.15523ZM7.14648 12.1395C7.14648 9.20557 9.5249 6.82715 12.4588 6.82715C15.3928 6.82715 17.7712 9.20557 17.7712 12.1395C17.7712 15.0734 15.3928 17.4518 12.4588 17.4518C9.5249 17.4518 7.14648 15.0734 7.14648 12.1395Z" fill="white"/>
<path fill-rule="evenodd" clip-rule="evenodd" d="M12.459 2.9751C12.8257 2.9751 13.123 3.2724 13.123 3.63914L13.123 4.21072C13.123 4.57746 12.8257 4.87476 12.459 4.87476C12.0923 4.87476 11.795 4.57746 11.795 4.21072L11.795 3.63914C11.795 3.2724 12.0923 2.9751 12.459 2.9751ZM12.459 19.403C12.8257 19.403 13.123 19.7003 13.123 20.0671L13.123 20.6386C13.123 21.0054 12.8257 21.3027 12.459 21.3027C12.0923 21.3027 11.795 21.0054 11.795 20.6386L11.795 20.0671C11.795 19.7003 12.0923 19.403 12.459 19.403Z" fill="white"/>
<path fill-rule="evenodd" clip-rule="evenodd" d="M18.9387 5.65887C19.198 5.91819 19.198 6.33864 18.9387 6.59797L18.5345 7.00214C18.2752 7.26146 17.8547 7.26146 17.5954 7.00214C17.3361 6.74281 17.3361 6.32236 17.5954 6.06304L17.9996 5.65887C18.2589 5.39954 18.6793 5.39954 18.9387 5.65887ZM7.32236 17.2752C7.58169 17.5345 7.58169 17.9549 7.32236 18.2143L6.91819 18.6184C6.65887 18.8778 6.23842 18.8778 5.97909 18.6184C5.71977 18.3591 5.71977 17.9387 5.97909 17.6793L6.38326 17.2752C6.64259 17.0158 7.06304 17.0158 7.32236 17.2752Z" fill="white"/>
<path fill-rule="evenodd" clip-rule="evenodd" d="M21.623 12.1387C21.623 12.5054 21.3257 12.8027 20.959 12.8027L20.3874 12.8027C20.0207 12.8027 19.7234 12.5054 19.7234 12.1387C19.7234 11.772 20.0207 11.4746 20.3874 11.4746L20.959 11.4746C21.3257 11.4746 21.623 11.772 21.623 12.1387ZM5.19513 12.1387C5.19513 12.5054 4.89783 12.8027 4.53109 12.8027L3.9595 12.8027C3.59276 12.8027 3.29546 12.5054 3.29546 12.1387C3.29546 11.7719 3.59276 11.4746 3.9595 11.4746L4.53109 11.4746C4.89783 11.4746 5.19513 11.7719 5.19513 12.1387Z" fill="white"/>
<path fill-rule="evenodd" clip-rule="evenodd" d="M18.9383 18.6188C18.679 18.8782 18.2585 18.8782 17.9992 18.6188L17.595 18.2147C17.3357 17.9553 17.3357 17.5349 17.595 17.2756C17.8544 17.0162 18.2748 17.0162 18.5341 17.2756L18.9383 17.6797C19.1976 17.9391 19.1976 18.3595 18.9383 18.6188ZM7.32201 7.00254C7.06268 7.26186 6.64223 7.26186 6.38291 7.00254L5.97874 6.59837C5.71941 6.33904 5.71941 5.91859 5.97874 5.65927C6.23806 5.39994 6.65851 5.39994 6.91784 5.65927L7.32201 6.06344C7.58133 6.32276 7.58133 6.74321 7.32201 7.00254Z" fill="white"/>
</svg>
