<svg width="25" height="25" viewBox="0 0 25 25" fill="none" xmlns="http://www.w3.org/2000/svg">
<path fill-rule="evenodd" clip-rule="evenodd" d="M8.9086 3.70823C9.08931 3.85999 9.16497 4.10317 9.10224 4.33067C8.92179 4.98519 8.8252 5.67515 8.8252 6.38863C8.8252 10.6542 12.2831 14.112 16.5486 14.112C17.7322 14.112 18.852 13.8462 19.8531 13.3716C20.0663 13.2705 20.3189 13.303 20.4996 13.4547C20.6803 13.6065 20.756 13.8497 20.6933 14.0772C19.652 17.854 16.1925 20.6287 12.0835 20.6287C7.1515 20.6287 3.15332 16.6305 3.15332 11.6985C3.15332 8.1328 5.24312 5.05642 8.26206 3.62508C8.47529 3.52398 8.72789 3.55647 8.9086 3.70823ZM7.67777 5.35397C5.67185 6.74957 4.3601 9.07127 4.3601 11.6985C4.3601 15.964 7.81799 19.4219 12.0835 19.4219C15.1862 19.4219 17.8627 17.5919 19.0906 14.9517C18.2845 15.1906 17.4312 15.3188 16.5486 15.3188C11.6166 15.3188 7.61842 11.3206 7.61842 6.38863C7.61842 6.03884 7.63856 5.69357 7.67777 5.35397Z" fill="white"/>
<path fill-rule="evenodd" clip-rule="evenodd" d="M13.4108 3.6875C13.6774 3.6875 13.8935 3.90362 13.8935 4.17021V5.13564H14.859C15.1256 5.13564 15.3417 5.35176 15.3417 5.61835C15.3417 5.88495 15.1256 6.10107 14.859 6.10107H13.8935V7.06649C13.8935 7.33309 13.6774 7.54921 13.4108 7.54921C13.1442 7.54921 12.9281 7.33309 12.9281 7.06649V6.10107H11.9627C11.6961 6.10107 11.48 5.88495 11.48 5.61835C11.48 5.35176 11.6961 5.13564 11.9627 5.13564L12.9281 5.13564V4.17021C12.9281 3.90362 13.1442 3.6875 13.4108 3.6875Z" fill="white"/>
<path fill-rule="evenodd" clip-rule="evenodd" d="M18.5998 7.79004C18.8664 7.79004 19.0825 8.00616 19.0825 8.27275V9.23818H20.0479C20.3145 9.23818 20.5307 9.4543 20.5307 9.72089C20.5307 9.98749 20.3145 10.2036 20.0479 10.2036H19.0825V11.169C19.0825 11.4356 18.8664 11.6517 18.5998 11.6517C18.3332 11.6517 18.1171 11.4356 18.1171 11.169V10.2036H17.1517C16.8851 10.2036 16.6689 9.98749 16.6689 9.72089C16.6689 9.4543 16.8851 9.23818 17.1517 9.23818L18.1171 9.23818V8.27275C18.1171 8.00616 18.3332 7.79004 18.5998 7.79004Z" fill="white"/>
</svg>
