<svg width="25" height="25" viewBox="0 0 25 25" fill="none" xmlns="http://www.w3.org/2000/svg">
<path fill-rule="evenodd" clip-rule="evenodd" d="M9.26006 3.26296C9.45893 3.42998 9.54219 3.69761 9.47316 3.94797C9.27457 4.66828 9.16827 5.42759 9.16827 6.21279C9.16827 10.9071 12.9737 14.7125 17.668 14.7125C18.9706 14.7125 20.2029 14.42 21.3046 13.8977C21.5393 13.7864 21.8173 13.8222 22.0162 13.9892C22.215 14.1562 22.2983 14.4238 22.2293 14.6742C21.7747 16.3229 20.9019 17.797 19.7333 18.9757C19.4751 19.2362 19.0546 19.238 18.7942 18.9797C18.5338 18.7215 18.532 18.3011 18.7902 18.0407C19.4789 17.346 20.0483 16.5336 20.4655 15.6366C19.5784 15.8995 18.6393 16.0406 17.668 16.0406C12.2403 16.0406 7.84019 11.6406 7.84019 6.21279C7.84019 5.82784 7.86235 5.44787 7.9055 5.07413C5.69795 6.61001 4.25436 9.16508 4.25436 12.0564C4.25436 12.9823 4.40216 13.8723 4.67496 14.705C4.78914 15.0535 4.59917 15.4286 4.25066 15.5428C3.90215 15.657 3.52706 15.467 3.41288 15.1185C3.0969 14.154 2.92627 13.1245 2.92627 12.0564C2.92627 8.13228 5.22613 4.74667 8.54853 3.17145C8.78319 3.06019 9.06118 3.09595 9.26006 3.26296Z" fill="white"/>
<path fill-rule="evenodd" clip-rule="evenodd" d="M5.25098 17.7173C5.25098 17.3872 5.51855 17.1196 5.84862 17.1196H12.7547C13.0847 17.1196 13.3523 17.3872 13.3523 17.7173C13.3523 18.0473 13.0847 18.3149 12.7547 18.3149H5.84862C5.51855 18.3149 5.25098 18.0473 5.25098 17.7173Z" fill="white"/>
<path fill-rule="evenodd" clip-rule="evenodd" d="M2.99365 20.3725C2.99365 20.0425 3.26122 19.7749 3.59129 19.7749H9.021C9.35106 19.7749 9.61863 20.0425 9.61863 20.3725C9.61863 20.7026 9.35106 20.9702 9.021 20.9702H3.59129C3.26122 20.9702 2.99365 20.7026 2.99365 20.3725ZM11.7951 20.3725C11.7951 20.0425 12.0627 19.7749 12.3927 19.7749H15.2784C15.6085 19.7749 15.8761 20.0425 15.8761 20.3725C15.8761 20.7026 15.6085 20.9702 15.2784 20.9702H12.3927C12.0627 20.9702 11.7951 20.7026 11.7951 20.3725Z" fill="white"/>
</svg>
