<svg width="25" height="25" viewBox="0 0 25 25" fill="none" xmlns="http://www.w3.org/2000/svg">
<path fill-rule="evenodd" clip-rule="evenodd" d="M12.7948 9.61568C10.5943 9.61568 8.81051 11.3995 8.81051 13.5999C8.81051 14.6262 9.19763 15.5604 9.83489 16.2671C10.0805 16.5395 10.0588 16.9593 9.78645 17.2049C9.51409 17.4506 9.0942 17.4289 8.8486 17.1565C7.99989 16.2154 7.48242 14.9673 7.48242 13.5999C7.48242 10.666 9.86084 8.2876 12.7948 8.2876C15.7287 8.2876 18.1071 10.666 18.1071 13.5999C18.1071 13.9667 17.8098 14.264 17.4431 14.264C17.0763 14.264 16.779 13.9667 16.779 13.5999C16.779 11.3995 14.9952 9.61568 12.7948 9.61568Z" fill="white"/>
<path fill-rule="evenodd" clip-rule="evenodd" d="M2.56885 13.6001C2.56885 13.2333 2.86615 12.936 3.23289 12.936H4.86694C5.23368 12.936 5.53098 13.2333 5.53098 13.6001C5.53098 13.9668 5.23368 14.2641 4.86694 14.2641H3.23289C2.86615 14.2641 2.56885 13.9668 2.56885 13.6001ZM20.0592 13.6001C20.0592 13.2333 20.3565 12.936 20.7233 12.936H22.3573C22.7241 12.936 23.0214 13.2333 23.0214 13.6001C23.0214 13.9668 22.7241 14.2641 22.3573 14.2641H20.7233C20.3565 14.2641 20.0592 13.9668 20.0592 13.6001Z" fill="white"/>
<path fill-rule="evenodd" clip-rule="evenodd" d="M5.56379 20.8309C5.30446 20.5716 5.30446 20.1511 5.56379 19.8918L6.71924 18.7363C6.97856 18.477 7.39901 18.477 7.65833 18.7363C7.91766 18.9957 7.91766 19.4161 7.65833 19.6754L6.50289 20.8309C6.24356 21.0902 5.82311 21.0902 5.56379 20.8309ZM17.9314 8.46331C17.672 8.20398 17.672 7.78353 17.9314 7.52421L19.0868 6.36876C19.3461 6.10943 19.7666 6.10943 20.0259 6.36876C20.2852 6.62808 20.2852 7.04853 20.0259 7.30786L18.8705 8.46331C18.6111 8.72263 18.1907 8.72263 17.9314 8.46331Z" fill="white"/>
<path fill-rule="evenodd" clip-rule="evenodd" d="M5.56317 6.36896C5.82249 6.10964 6.24294 6.10964 6.50226 6.36896L7.65771 7.52441C7.91704 7.78374 7.91704 8.20418 7.65771 8.46351C7.39839 8.72283 6.97794 8.72283 6.71861 8.46351L5.56317 7.30806C5.30384 7.04874 5.30384 6.62829 5.56317 6.36896Z" fill="white"/>
<path fill-rule="evenodd" clip-rule="evenodd" d="M12.7949 3.37354C13.1617 3.37354 13.459 3.67084 13.459 4.03758L13.459 5.67163C13.459 6.03837 13.1617 6.33567 12.7949 6.33567C12.4282 6.33567 12.1309 6.03837 12.1309 5.67163L12.1309 4.03758C12.1309 3.67084 12.4282 3.37354 12.7949 3.37354Z" fill="white"/>
<path fill-rule="evenodd" clip-rule="evenodd" d="M13.0601 17.1855C13.0601 16.8921 13.2979 16.6543 13.5913 16.6543H19.9661C20.2595 16.6543 20.4973 16.8921 20.4973 17.1855C20.4973 17.4789 20.2595 17.7168 19.9661 17.7168H13.5913C13.2979 17.7168 13.0601 17.4789 13.0601 17.1855Z" fill="white"/>
<path fill-rule="evenodd" clip-rule="evenodd" d="M10.9351 19.8423C10.9351 19.5489 11.1729 19.311 11.4663 19.311H16.4641C16.7575 19.311 16.9953 19.5489 16.9953 19.8423C16.9953 20.1357 16.7575 20.3735 16.4641 20.3735H11.4663C11.1729 20.3735 10.9351 20.1357 10.9351 19.8423ZM19.0364 19.8423C19.0364 19.5489 19.2742 19.311 19.5676 19.311H22.2238C22.5172 19.311 22.755 19.5489 22.755 19.8423C22.755 20.1357 22.5172 20.3735 22.2238 20.3735H19.5676C19.2742 20.3735 19.0364 20.1357 19.0364 19.8423Z" fill="white"/>
</svg>
