<svg width="25" height="25" viewBox="0 0 25 25" fill="none" xmlns="http://www.w3.org/2000/svg">
<path fill-rule="evenodd" clip-rule="evenodd" d="M5.59375 7.09129C5.59375 6.7979 5.83159 6.56006 6.12498 6.56006H17.9449C18.2383 6.56006 18.4762 6.7979 18.4762 7.09129C18.4762 7.38469 18.2383 7.62253 17.9449 7.62253H6.12498C5.83159 7.62253 5.59375 7.38469 5.59375 7.09129Z" fill="white"/>
<path fill-rule="evenodd" clip-rule="evenodd" d="M5.59375 17.0532C5.59375 16.7598 5.83159 16.522 6.12498 16.522H17.9449C18.2383 16.522 18.4762 16.7598 18.4762 17.0532C18.4762 17.3466 18.2383 17.5844 17.9449 17.5844H6.12498C5.83159 17.5844 5.59375 17.3466 5.59375 17.0532Z" fill="white"/>
<path fill-rule="evenodd" clip-rule="evenodd" d="M1.34326 10.4126C1.34326 10.1192 1.5811 9.88135 1.8745 9.88135H13.0304C13.3238 9.88135 13.5617 10.1192 13.5617 10.4126C13.5617 10.706 13.3238 10.9438 13.0304 10.9438H1.8745C1.5811 10.9438 1.34326 10.706 1.34326 10.4126ZM16.4834 10.4126C16.4834 10.1192 16.7213 9.88135 17.0147 9.88135H22.0614C22.3548 9.88135 22.5926 10.1192 22.5926 10.4126C22.5926 10.706 22.3548 10.9438 22.0614 10.9438H17.0147C16.7213 10.9438 16.4834 10.706 16.4834 10.4126Z" fill="white"/>
<path fill-rule="evenodd" clip-rule="evenodd" d="M22.5918 13.7324C22.5918 13.439 22.354 13.2012 22.0606 13.2012H10.9046C10.6112 13.2012 10.3734 13.439 10.3734 13.7324C10.3734 14.0258 10.6112 14.2636 10.9046 14.2636H22.0606C22.354 14.2636 22.5918 14.0258 22.5918 13.7324ZM7.45162 13.7324C7.45162 13.439 7.21377 13.2012 6.92038 13.2012H1.87366C1.58026 13.2012 1.34242 13.439 1.34242 13.7324C1.34242 14.0258 1.58026 14.2636 1.87366 14.2636H6.92038C7.21377 14.2636 7.45162 14.0258 7.45162 13.7324Z" fill="white"/>
</svg>
