<svg width="25" height="25" viewBox="0 0 25 25" fill="none" xmlns="http://www.w3.org/2000/svg">
<path fill-rule="evenodd" clip-rule="evenodd" d="M11.9544 9.61568C9.75399 9.61568 7.97018 11.3995 7.97018 13.5999C7.97018 14.6262 8.3573 15.5604 8.99455 16.2671C9.24016 16.5395 9.21847 16.9593 8.94612 17.2049C8.67376 17.4506 8.25387 17.4289 8.00827 17.1565C7.15956 16.2154 6.64209 14.9673 6.64209 13.5999C6.64209 10.666 9.02051 8.2876 11.9544 8.2876C14.8884 8.2876 17.2668 10.666 17.2668 13.5999C17.2668 13.9667 16.9695 14.264 16.6027 14.264C16.236 14.264 15.9387 13.9667 15.9387 13.5999C15.9387 11.3995 14.1549 9.61568 11.9544 9.61568Z" fill="white"/>
<path fill-rule="evenodd" clip-rule="evenodd" d="M1.72852 13.6001C1.72852 13.2333 2.02582 12.936 2.39256 12.936H4.02661C4.39335 12.936 4.69065 13.2333 4.69065 13.6001C4.69065 13.9668 4.39335 14.2641 4.02661 14.2641H2.39256C2.02582 14.2641 1.72852 13.9668 1.72852 13.6001ZM19.2189 13.6001C19.2189 13.2333 19.5162 12.936 19.8829 12.936H21.517C21.8837 12.936 22.181 13.2333 22.181 13.6001C22.181 13.9668 21.8837 14.2641 21.517 14.2641H19.8829C19.5162 14.2641 19.2189 13.9668 19.2189 13.6001Z" fill="white"/>
<path fill-rule="evenodd" clip-rule="evenodd" d="M4.72346 20.8309C4.46413 20.5716 4.46413 20.1511 4.72346 19.8918L5.8789 18.7363C6.13823 18.477 6.55868 18.477 6.818 18.7363C7.07733 18.9957 7.07733 19.4161 6.818 19.6754L5.66255 20.8309C5.40323 21.0902 4.98278 21.0902 4.72346 20.8309ZM17.091 8.46331C16.8317 8.20398 16.8317 7.78353 17.091 7.52421L18.2465 6.36876C18.5058 6.10943 18.9262 6.10943 19.1856 6.36876C19.4449 6.62808 19.4449 7.04853 19.1856 7.30786L18.0301 8.46331C17.7708 8.72263 17.3504 8.72263 17.091 8.46331Z" fill="white"/>
<path fill-rule="evenodd" clip-rule="evenodd" d="M4.72283 6.36896C4.98216 6.10964 5.40261 6.10964 5.66193 6.36896L6.81738 7.52441C7.07671 7.78374 7.0767 8.20418 6.81738 8.46351C6.55806 8.72283 6.13761 8.72283 5.87828 8.46351L4.72283 7.30806C4.46351 7.04874 4.46351 6.62829 4.72283 6.36896Z" fill="white"/>
<path fill-rule="evenodd" clip-rule="evenodd" d="M11.9551 3.37354C12.3218 3.37354 12.6191 3.67084 12.6191 4.03758L12.6191 5.67163C12.6191 6.03837 12.3218 6.33567 11.9551 6.33567C11.5884 6.33567 11.2911 6.03837 11.2911 5.67163L11.2911 4.03758C11.2911 3.67084 11.5884 3.37354 11.9551 3.37354Z" fill="white"/>
<path d="M12.8837 20.3071C12.8837 20.8572 12.4378 21.3032 11.8877 21.3032C11.3376 21.3032 10.8916 20.8572 10.8916 20.3071C10.8916 19.757 11.3376 19.311 11.8877 19.311C12.4378 19.311 12.8837 19.757 12.8837 20.3071Z" fill="white"/>
<path d="M15.9389 17.2524C15.9389 17.8025 15.493 18.2485 14.9428 18.2485C14.3927 18.2485 13.9468 17.8025 13.9468 17.2524C13.9468 16.7023 14.3927 16.2563 14.9428 16.2563C15.493 16.2563 15.9389 16.7023 15.9389 17.2524Z" fill="white"/>
<path d="M18.8603 20.4394C18.8603 20.9895 18.4143 21.4355 17.8642 21.4355C17.3141 21.4355 16.8682 20.9895 16.8682 20.4394C16.8682 19.8893 17.3141 19.4434 17.8642 19.4434C18.4143 19.4434 18.8603 19.8893 18.8603 20.4394Z" fill="white"/>
</svg>
