<svg width="25" height="25" viewBox="0 0 25 25" fill="none" xmlns="http://www.w3.org/2000/svg">
<path fill-rule="evenodd" clip-rule="evenodd" d="M9.41972 2.99783C9.6186 3.16484 9.70186 3.43247 9.63283 3.68283C9.43424 4.40315 9.32794 5.16246 9.32794 5.94765C9.32794 10.6419 13.1334 14.4474 17.8277 14.4474C19.1302 14.4474 20.3626 14.1549 21.4643 13.6325C21.699 13.5213 21.977 13.557 22.1758 13.724C22.3747 13.8911 22.458 14.1587 22.3889 14.409C21.9344 16.0578 21.0616 17.5319 19.8929 18.7106C19.6347 18.971 19.2143 18.9728 18.9539 18.7146C18.6934 18.4564 18.6916 18.0359 18.9498 17.7755C19.6386 17.0809 20.2079 16.2684 20.6251 15.3714C19.738 15.6344 18.799 15.7755 17.8277 15.7755C12.3999 15.7755 7.99986 11.3754 7.99986 5.94765C7.99986 5.5627 8.02202 5.18273 8.06517 4.80899C5.85762 6.34487 4.41402 8.89995 4.41402 11.7912C4.41402 12.7171 4.56183 13.6072 4.83463 14.4399C4.94881 14.7884 4.75884 15.1635 4.41033 15.2777C4.06181 15.3918 3.68673 15.2019 3.57255 14.8534C3.25656 13.8889 3.08594 12.8593 3.08594 11.7912C3.08594 7.86714 5.38579 4.48153 8.70819 2.90632C8.94286 2.79506 9.22085 2.83081 9.41972 2.99783Z" fill="white"/>
<path d="M7.86713 19.6425C7.86713 20.1927 7.42118 20.6386 6.87106 20.6386C6.32095 20.6386 5.875 20.1927 5.875 19.6425C5.875 19.0924 6.32095 18.6465 6.87106 18.6465C7.42118 18.6465 7.86713 19.0924 7.86713 19.6425Z" fill="white"/>
<path d="M10.9218 16.5879C10.9218 17.138 10.4759 17.5839 9.92575 17.5839C9.37564 17.5839 8.92969 17.138 8.92969 16.5879C8.92969 16.0378 9.37564 15.5918 9.92575 15.5918C10.4759 15.5918 10.9218 16.0378 10.9218 16.5879Z" fill="white"/>
<path d="M13.8432 19.7744C13.8432 20.3245 13.3972 20.7704 12.8471 20.7704C12.297 20.7704 11.8511 20.3245 11.8511 19.7744C11.8511 19.2243 12.297 18.7783 12.8471 18.7783C13.3972 18.7783 13.8432 19.2243 13.8432 19.7744Z" fill="white"/>
</svg>
