<svg width="25" height="25" viewBox="0 0 25 25" fill="none" xmlns="http://www.w3.org/2000/svg">
<path fill-rule="evenodd" clip-rule="evenodd" d="M8.67411 5.63082C5.52014 5.63082 2.96334 8.18762 2.96334 11.3416C2.96334 13.6915 4.38283 15.7114 6.41383 16.5878C6.75056 16.7331 6.90575 17.1238 6.76045 17.4606C6.61516 17.7973 6.2244 17.9525 5.88767 17.8072C3.38738 16.7284 1.63525 14.2403 1.63525 11.3416C1.63525 7.45414 4.78666 4.30273 8.67411 4.30273C11.151 4.30273 13.3282 5.58226 14.5822 7.51406C15.3273 7.15814 16.1615 6.95891 17.0411 6.95891C20.195 6.95891 22.7518 9.5157 22.7518 12.6697C22.7518 14.9181 21.4524 16.8617 19.5666 17.7929C19.2377 17.9553 18.8395 17.8203 18.6772 17.4915C18.5148 17.1627 18.6497 16.7645 18.9786 16.6021C20.4286 15.8861 21.4237 14.3935 21.4237 12.6697C21.4237 10.2492 19.4615 8.28699 17.0411 8.28699C16.3816 8.28699 15.7573 8.43224 15.1972 8.69239C15.5299 9.51072 15.713 10.4054 15.713 11.3416C15.713 11.7083 15.4157 12.0056 15.0489 12.0056C14.6822 12.0056 14.3849 11.7083 14.3849 11.3416C14.3849 10.393 14.1541 9.50026 13.7463 8.71457C12.7945 6.88104 10.8797 5.63082 8.67411 5.63082Z" fill="white"/>
<path d="M10.6669 19.7744C10.6669 20.3245 10.221 20.7704 9.67087 20.7704C9.12076 20.7704 8.6748 20.3245 8.6748 19.7744C8.6748 19.2243 9.12076 18.7783 9.67087 18.7783C10.221 18.7783 10.6669 19.2243 10.6669 19.7744Z" fill="white"/>
<path d="M13.7211 16.1894C13.7211 16.7395 13.2752 17.1855 12.7251 17.1855C12.175 17.1855 11.729 16.7395 11.729 16.1894C11.729 15.6393 12.175 15.1934 12.7251 15.1934C13.2752 15.1934 13.7211 15.6393 13.7211 16.1894Z" fill="white"/>
<path d="M16.9096 19.9082C16.9096 20.4583 16.4637 20.9042 15.9135 20.9042C15.3634 20.9042 14.9175 20.4583 14.9175 19.9082C14.9175 19.3581 15.3634 18.9121 15.9135 18.9121C16.4637 18.9121 16.9096 19.3581 16.9096 19.9082Z" fill="white"/>
</svg>
