<svg width="25" height="25" viewBox="0 0 25 25" fill="none" xmlns="http://www.w3.org/2000/svg">
<path fill-rule="evenodd" clip-rule="evenodd" d="M8.77408 7.8777C5.85711 7.8777 3.49245 10.2424 3.49245 13.1593C3.49245 16.0763 5.85711 18.441 8.77408 18.441C9.11326 18.441 9.38822 18.7159 9.38822 19.0551C9.38822 19.3943 9.11326 19.6692 8.77408 19.6692C5.17875 19.6692 2.26416 16.7547 2.26416 13.1593C2.26416 9.564 5.17875 6.64941 8.77408 6.64941C11.0649 6.64941 13.0784 7.83279 14.2382 9.61942C14.9273 9.29025 15.6989 9.10599 16.5123 9.10599C19.4292 9.10599 21.7939 11.4707 21.7939 14.3876C21.7939 17.3046 19.4292 19.6692 16.5123 19.6692C16.1731 19.6692 15.8981 19.3943 15.8981 19.0551C15.8981 18.7159 16.1731 18.441 16.5123 18.441C18.7509 18.441 20.5656 16.6262 20.5656 14.3876C20.5656 12.149 18.7509 10.3343 16.5123 10.3343C15.9024 10.3343 15.325 10.4686 14.807 10.7092C15.1147 11.466 15.284 12.2935 15.284 13.1593C15.284 13.4985 15.009 13.7735 14.6699 13.7735C14.3307 13.7735 14.0557 13.4985 14.0557 13.1593C14.0557 12.282 13.8423 11.4564 13.4651 10.7297C12.5848 9.03397 10.814 7.8777 8.77408 7.8777Z" fill="white"/>
<path fill-rule="evenodd" clip-rule="evenodd" d="M14.6092 6.15841C13.3997 6.15841 12.4597 7.08757 12.4597 8.18508C12.4597 8.45643 12.2397 8.6764 11.9684 8.6764C11.697 8.6764 11.4771 8.45643 11.4771 8.18508C11.4771 6.5013 12.9017 5.17578 14.6092 5.17578C16.3167 5.17578 17.7413 6.5013 17.7413 8.18508C17.7413 8.84819 17.5176 9.46062 17.142 9.95593C16.978 10.1721 16.6698 10.2145 16.4536 10.0505C16.2374 9.88651 16.1951 9.57832 16.3591 9.36213C16.6119 9.02873 16.7587 8.62282 16.7587 8.18508C16.7587 7.08757 15.8186 6.15841 14.6092 6.15841Z" fill="white"/>
<path fill-rule="evenodd" clip-rule="evenodd" d="M12.341 2.24763C12.596 2.15482 12.878 2.28629 12.9708 2.54127L13.2831 3.39926C13.3759 3.65424 13.2444 3.93618 12.9894 4.02899C12.7344 4.12179 12.4525 3.99032 12.3597 3.73534L12.0474 2.87735C11.9546 2.62237 12.0861 2.34043 12.341 2.24763Z" fill="white"/>
<path fill-rule="evenodd" clip-rule="evenodd" d="M17.7713 2.72309C18.0063 2.85877 18.0868 3.15925 17.9511 3.39424L17.4946 4.18497C17.3589 4.41996 17.0584 4.50047 16.8234 4.3648C16.5885 4.22913 16.5079 3.92864 16.6436 3.69365L17.1001 2.90293C17.2358 2.66793 17.5363 2.58742 17.7713 2.72309Z" fill="white"/>
<path fill-rule="evenodd" clip-rule="evenodd" d="M21.3888 7.17826C21.4359 7.44548 21.2575 7.70031 20.9903 7.74743L20.0911 7.90598C19.8239 7.95309 19.569 7.77466 19.5219 7.50744C19.4748 7.24022 19.6532 6.98539 19.9205 6.93827L20.8196 6.77972C21.0869 6.73261 21.3417 6.91104 21.3888 7.17826Z" fill="white"/>
</svg>
