<svg width="25" height="25" viewBox="0 0 25 25" fill="none" xmlns="http://www.w3.org/2000/svg">
<path fill-rule="evenodd" clip-rule="evenodd" d="M9.28474 9.1777C6.60335 9.1777 4.42965 11.3514 4.42965 14.0328C4.42965 16.7142 6.60335 18.8879 9.28474 18.8879C9.65148 18.8879 9.94878 19.1852 9.94878 19.5519C9.94878 19.9187 9.65148 20.216 9.28474 20.216C5.86986 20.216 3.10156 17.4477 3.10156 14.0328C3.10156 10.6179 5.86986 7.84961 9.28474 7.84961C11.4328 7.84961 13.3241 8.94509 14.4319 10.6056C15.0706 10.3126 15.7811 10.1492 16.5286 10.1492C19.3084 10.1492 21.562 12.4028 21.562 15.1826C21.562 17.9625 19.3084 20.216 16.5286 20.216C16.1619 20.216 15.8646 19.9187 15.8646 19.5519C15.8646 19.1852 16.1619 18.8879 16.5286 18.8879C18.575 18.8879 20.2339 17.229 20.2339 15.1826C20.2339 13.1362 18.575 11.4773 16.5286 11.4773C16.001 11.4773 15.5 11.5873 15.0466 11.7854C15.3187 12.4826 15.4679 13.2408 15.4679 14.0328C15.4679 14.3995 15.1706 14.6968 14.8039 14.6968C14.4371 14.6968 14.1398 14.3995 14.1398 14.0328C14.1398 13.2262 13.9436 12.4673 13.597 11.7994C12.7876 10.2404 11.1597 9.1777 9.28474 9.1777Z" fill="white"/>
<path fill-rule="evenodd" clip-rule="evenodd" d="M14.2628 4.69387C14.4216 4.82771 14.4879 5.04184 14.4324 5.24199C14.3684 5.47281 14.3341 5.71641 14.3341 5.96882C14.3341 7.4737 15.5613 8.69847 17.0811 8.69847C17.5032 8.69847 17.9015 8.60428 18.2573 8.43647C18.4452 8.34788 18.6674 8.37689 18.8262 8.51073C18.9851 8.64458 19.0513 8.8587 18.9958 9.05885C18.7414 9.97662 18.1504 10.7529 17.3653 11.25C17.1174 11.4069 16.7892 11.3332 16.6323 11.0853C16.4754 10.8374 16.5491 10.5092 16.797 10.3523C17.0576 10.1873 17.2881 9.98003 17.4788 9.74048C17.3481 9.75401 17.2154 9.76094 17.0811 9.76094C15.0656 9.76094 13.4117 8.20133 13.28 6.22342C12.8419 6.70751 12.5761 7.34757 12.5761 8.04823C12.5761 8.39764 12.6419 8.73055 12.7615 9.03627C12.8683 9.30952 12.7334 9.61764 12.4601 9.72447C12.1869 9.8313 11.8788 9.69639 11.7719 9.42314C11.605 8.9962 11.5137 8.53222 11.5137 8.04823C11.5137 6.53212 12.4072 5.2264 13.6939 4.61961C13.8817 4.53101 14.104 4.56002 14.2628 4.69387Z" fill="white"/>
</svg>
