<svg width="25" height="25" viewBox="0 0 25 25" fill="none" xmlns="http://www.w3.org/2000/svg">
<path fill-rule="evenodd" clip-rule="evenodd" d="M11.3213 3.51575C11.3769 3.31566 11.3108 3.10153 11.1521 2.96758C10.9934 2.83363 10.7712 2.80443 10.5833 2.89283C8.00437 4.10604 6.21631 6.7153 6.21631 9.74254C6.21631 10.5727 6.35101 11.3726 6.60016 12.1211C4.55132 12.5925 3.02881 14.4475 3.02881 16.6537C3.02881 19.2144 5.07996 21.302 7.62452 21.302H12.9591C15.036 21.302 16.7081 19.5984 16.7081 17.5114C16.7081 17.2664 16.6851 17.0268 16.641 16.7945C18.8545 15.9296 20.5636 14.0674 21.2043 11.7615C21.2599 11.5614 21.1938 11.3473 21.0351 11.2133C20.8764 11.0794 20.6542 11.0502 20.4663 11.1386C19.6147 11.5392 18.6618 11.7637 17.6545 11.7637C14.0229 11.7637 11.0859 8.84366 11.0859 5.25029C11.0859 4.64894 11.168 4.06742 11.3213 3.51575ZM16.2986 15.7875C17.8351 15.1742 19.0832 14.0016 19.7877 12.5261C19.1104 12.7215 18.3944 12.8262 17.6545 12.8262C13.4439 12.8262 10.0235 9.43824 10.0235 5.25029C10.0235 4.96755 10.0391 4.68831 10.0695 4.41337C8.38002 5.59319 7.27878 7.54155 7.27878 9.74254C7.27878 10.5392 7.42278 11.3014 7.68601 12.0058C9.24712 12.0265 10.6172 12.8341 11.4314 14.049C11.8981 13.8381 12.4154 13.7208 12.9591 13.7208C14.419 13.7208 15.6789 14.5625 16.2986 15.7875ZM4.09128 16.6537C4.09128 14.6668 5.67958 13.0678 7.62452 13.0678C8.98538 13.0678 10.1708 13.8491 10.7614 15.0017C11.0144 15.4954 11.1578 16.0566 11.1578 16.6537C11.1578 16.9471 11.3956 17.1849 11.689 17.1849C11.9824 17.1849 12.2202 16.9471 12.2202 16.6537C12.2202 16.0702 12.1137 15.5109 11.9189 14.9952C12.2387 14.8586 12.59 14.7833 12.9591 14.7833C14.4364 14.7833 15.6456 15.9982 15.6456 17.5114C15.6456 19.0245 14.4364 20.2395 12.9591 20.2395H7.62452C5.67958 20.2395 4.09128 18.6405 4.09128 16.6537Z" fill="white"/>
</svg>
