<svg width="25" height="25" viewBox="0 0 25 25" fill="none" xmlns="http://www.w3.org/2000/svg">
<path fill-rule="evenodd" clip-rule="evenodd" d="M7.41714 11.6178C7.41032 11.571 7.40968 11.5225 7.416 11.4733C7.55864 10.3619 8.05325 9.36127 8.78317 8.58677C9.727 7.58528 11.0674 6.95898 12.5532 6.95898C15.4137 6.95898 17.7327 9.27794 17.7327 12.1385C17.7327 13.3374 17.3247 14.4426 16.6403 15.3205C16.5848 15.3918 16.5147 15.445 16.4375 15.4793C16.6721 15.9747 16.8033 16.5293 16.8033 17.1139C16.8033 19.201 15.1313 20.9045 13.0544 20.9045H7.71974C5.17518 20.9045 3.12402 18.8169 3.12402 16.2562C3.12402 13.7978 5.01452 11.7755 7.41714 11.6178ZM9.55638 9.31546C10.3078 8.5181 11.3721 8.02145 12.5532 8.02145C14.8269 8.02145 16.6702 9.86473 16.6702 12.1385C16.6702 13.0603 16.3679 13.9101 15.8567 14.596C15.171 13.816 14.1712 13.3234 13.0544 13.3234C12.5106 13.3234 11.9934 13.4407 11.5266 13.6515C10.8326 12.616 9.73468 11.8763 8.45884 11.6677C8.46355 11.6484 8.46724 11.6287 8.46983 11.6085C8.58298 10.7269 8.97521 9.93213 9.55638 9.31546ZM4.18649 16.2562C4.18649 14.2694 5.7748 12.6704 7.71974 12.6704C9.08059 12.6704 10.266 13.4517 10.8567 14.6043C11.1096 15.0979 11.253 15.6592 11.253 16.2562C11.253 16.5496 11.4908 16.7874 11.7842 16.7874C12.0776 16.7874 12.3154 16.5496 12.3154 16.2562C12.3154 15.6727 12.2089 15.1134 12.0141 14.5977C12.3339 14.4612 12.6852 14.3858 13.0544 14.3858C14.5316 14.3858 15.7408 15.6008 15.7408 17.1139C15.7408 18.6271 14.5316 19.842 13.0544 19.842H7.71974C5.7748 19.842 4.18649 18.2431 4.18649 16.2562Z" fill="white"/>
<path fill-rule="evenodd" clip-rule="evenodd" d="M19.4992 14.1484C19.5752 13.865 19.8665 13.6968 20.1499 13.7727L21.0868 14.0238C21.3702 14.0997 21.5384 14.391 21.4624 14.6744C21.3865 14.9578 21.0952 15.126 20.8118 15.0501L19.8749 14.799C19.5915 14.7231 19.4233 14.4318 19.4992 14.1484Z" fill="white"/>
<path fill-rule="evenodd" clip-rule="evenodd" d="M7.63857 4.06835C7.89266 3.92166 8.21755 4.00871 8.36425 4.2628L8.84925 5.10285C8.99595 5.35693 8.90889 5.68183 8.65481 5.82853C8.40072 5.97522 8.07582 5.88817 7.92913 5.63408L7.44412 4.79403C7.29743 4.53995 7.38448 4.21505 7.63857 4.06835Z" fill="white"/>
<path fill-rule="evenodd" clip-rule="evenodd" d="M14.7945 3.12618C15.0779 3.20211 15.2461 3.49341 15.1701 3.7768L14.9191 4.71376C14.8431 4.99716 14.5518 5.16533 14.2684 5.0894C13.985 5.01346 13.8169 4.72217 13.8928 4.43877L14.1439 3.50182C14.2198 3.21842 14.5111 3.05024 14.7945 3.12618Z" fill="white"/>
<path fill-rule="evenodd" clip-rule="evenodd" d="M20.5205 7.51943C20.6672 7.77352 20.5802 8.09841 20.3261 8.24511L19.486 8.73011C19.2319 8.87681 18.907 8.78975 18.7603 8.53567C18.6136 8.28158 18.7007 7.95668 18.9548 7.80999L19.7948 7.32498C20.0489 7.17829 20.3738 7.26534 20.5205 7.51943Z" fill="white"/>
</svg>
