<svg width="25" height="25" viewBox="0 0 25 25" fill="none" xmlns="http://www.w3.org/2000/svg">
<path fill-rule="evenodd" clip-rule="evenodd" d="M9.4334 7.21238C6.09606 7.21238 3.39061 9.91783 3.39061 13.2552C3.39061 15.7423 4.89325 17.8793 7.04157 18.8062C7.20994 18.8789 7.28753 19.0743 7.21489 19.2426C7.14224 19.411 6.94686 19.4886 6.77849 19.4159C4.39553 18.3877 2.72656 16.0167 2.72656 13.2552C2.72656 9.55109 5.72931 6.54834 9.4334 6.54834C11.9002 6.54834 14.0554 7.88019 15.2201 9.8627C15.9863 9.44307 16.8659 9.20451 17.8003 9.20451C20.7709 9.20451 23.1791 11.6127 23.1791 14.5833C23.1791 16.7005 21.9557 18.5314 20.1789 19.4088C20.0144 19.49 19.8153 19.4225 19.7341 19.2581C19.653 19.0937 19.7204 18.8946 19.8849 18.8134C21.4439 18.0436 22.515 16.4382 22.515 14.5833C22.515 11.9794 20.4042 9.86855 17.8003 9.86855C16.9758 9.86855 16.2015 10.0799 15.5277 10.4514C15.921 11.3048 16.1402 12.2548 16.1402 13.2552C16.1402 13.4385 15.9916 13.5872 15.8082 13.5872C15.6248 13.5872 15.4762 13.4385 15.4762 13.2552C15.4762 12.2521 15.232 11.307 14.8002 10.4752C13.7936 8.53598 11.7678 7.21238 9.4334 7.21238Z" fill="white"/>
<path fill-rule="evenodd" clip-rule="evenodd" d="M16.9575 17.5191C17.0961 17.5671 17.1696 17.7183 17.1216 17.857L15.9264 21.31C15.8784 21.4486 15.7271 21.5221 15.5885 21.4741C15.4498 21.4261 15.3764 21.2748 15.4244 21.1362L16.6196 17.6832C16.6676 17.5446 16.8189 17.4711 16.9575 17.5191Z" fill="white"/>
<path fill-rule="evenodd" clip-rule="evenodd" d="M14.1685 17.5191C14.3071 17.5671 14.3806 17.7183 14.3326 17.857L13.1373 21.31C13.0893 21.4486 12.938 21.5221 12.7994 21.4741C12.6608 21.4261 12.5873 21.2748 12.6353 21.1362L13.8306 17.6832C13.8786 17.5446 14.0298 17.4711 14.1685 17.5191Z" fill="white"/>
<path fill-rule="evenodd" clip-rule="evenodd" d="M11.3799 17.5191C11.5185 17.5671 11.592 17.7183 11.544 17.857L10.3487 21.31C10.3007 21.4486 10.1495 21.5221 10.0108 21.4741C9.87221 21.4261 9.79873 21.2748 9.84672 21.1362L11.042 17.6832C11.09 17.5446 11.2413 17.4711 11.3799 17.5191Z" fill="white"/>
<path fill-rule="evenodd" clip-rule="evenodd" d="M15.5505 5.67967C14.2476 5.67967 13.2187 6.68287 13.2187 7.8875C13.2187 8.07087 13.0701 8.21952 12.8867 8.21952C12.7033 8.21952 12.5547 8.07087 12.5547 7.8875C12.5547 6.28668 13.911 5.01562 15.5505 5.01562C17.1899 5.01562 18.5462 6.28668 18.5462 7.8875C18.5462 8.51885 18.3334 9.10223 17.9749 9.57488C17.8641 9.72098 17.6558 9.74959 17.5097 9.63878C17.3636 9.52797 17.335 9.3197 17.4458 9.1736C17.7213 8.81037 17.8822 8.36655 17.8822 7.8875C17.8822 6.68287 16.8533 5.67967 15.5505 5.67967Z" fill="white"/>
<path fill-rule="evenodd" clip-rule="evenodd" d="M13.3193 2.05187C13.4914 1.98925 13.6816 2.07796 13.7443 2.25003L14.0588 3.11424C14.1214 3.28631 14.0327 3.47657 13.8606 3.53919C13.6886 3.60182 13.4983 3.5131 13.4357 3.34104L13.1211 2.47683C13.0585 2.30476 13.1472 2.1145 13.3193 2.05187Z" fill="white"/>
<path fill-rule="evenodd" clip-rule="evenodd" d="M18.6592 2.51977C18.8177 2.61133 18.8721 2.8141 18.7805 2.97268L18.3207 3.76914C18.2291 3.92772 18.0263 3.98205 17.8678 3.89049C17.7092 3.79894 17.6549 3.59617 17.7464 3.43759L18.2063 2.64113C18.2978 2.48255 18.5006 2.42822 18.6592 2.51977Z" fill="white"/>
<path fill-rule="evenodd" clip-rule="evenodd" d="M22.104 6.777C22.1358 6.95733 22.0154 7.12929 21.8351 7.16109L20.9294 7.32079C20.7491 7.35259 20.5771 7.23218 20.5453 7.05185C20.5135 6.87152 20.6339 6.69956 20.8143 6.66776L21.72 6.50806C21.9003 6.47627 22.0723 6.59667 22.104 6.777Z" fill="white"/>
</svg>
