<svg width="25" height="25" viewBox="0 0 25 25" fill="none" xmlns="http://www.w3.org/2000/svg">
<path fill-rule="evenodd" clip-rule="evenodd" d="M9.43339 7.35689C6.27942 7.35689 3.72262 9.91369 3.72262 13.0677C3.72262 15.4176 5.14211 17.4375 7.1731 18.3139C7.50984 18.4592 7.66503 18.8499 7.51973 19.1867C7.37443 19.5234 6.98367 19.6786 6.64694 19.5333C4.14666 18.4544 2.39453 15.9664 2.39453 13.0677C2.39453 9.18021 5.54593 6.02881 9.43339 6.02881C11.9103 6.02881 14.0875 7.30833 15.3415 9.24014C16.0866 8.88422 16.9208 8.68498 17.8003 8.68498C20.9543 8.68498 23.5111 11.2418 23.5111 14.3958C23.5111 16.6441 22.2117 18.5878 20.3259 19.519C19.997 19.6814 19.5988 19.5464 19.4364 19.2176C19.2741 18.8887 19.409 18.4905 19.7378 18.3282C21.1879 17.6121 22.183 16.1195 22.183 14.3958C22.183 11.9753 20.2208 10.0131 17.8003 10.0131C17.1409 10.0131 16.5165 10.1583 15.9565 10.4185C16.2891 11.2368 16.4722 12.1315 16.4722 13.0677C16.4722 13.4344 16.1749 13.7317 15.8082 13.7317C15.4415 13.7317 15.1442 13.4344 15.1442 13.0677C15.1442 12.1191 14.9134 11.2263 14.5055 10.4406C13.5537 8.60711 11.639 7.35689 9.43339 7.35689Z" fill="white"/>
<path fill-rule="evenodd" clip-rule="evenodd" d="M17.0445 17.0821C17.3217 17.1781 17.4687 17.4806 17.3727 17.7579L16.1774 21.2109C16.0815 21.4882 15.7789 21.6351 15.5016 21.5391C15.2244 21.4432 15.0774 21.1406 15.1734 20.8634L16.3687 17.4103C16.4647 17.1331 16.7672 16.9861 17.0445 17.0821Z" fill="white"/>
<path fill-rule="evenodd" clip-rule="evenodd" d="M14.2554 17.0821C14.5327 17.1781 14.6796 17.4806 14.5836 17.7579L13.3884 21.2109C13.2924 21.4882 12.9898 21.6351 12.7126 21.5391C12.4353 21.4432 12.2884 21.1406 12.3844 20.8634L13.5796 17.4103C13.6756 17.1331 13.9782 16.9861 14.2554 17.0821Z" fill="white"/>
<path fill-rule="evenodd" clip-rule="evenodd" d="M11.4663 17.0821C11.7436 17.1781 11.8906 17.4806 11.7946 17.7579L10.5993 21.2109C10.5033 21.4882 10.2008 21.6351 9.92352 21.5391C9.64627 21.4432 9.49932 21.1406 9.59529 20.8634L10.7906 17.4103C10.8865 17.1331 11.1891 16.9861 11.4663 17.0821Z" fill="white"/>
<path fill-rule="evenodd" clip-rule="evenodd" d="M15.5504 5.62594C14.3822 5.62594 13.4843 6.52201 13.4843 7.56816C13.4843 7.89822 13.2168 8.1658 12.8867 8.1658C12.5566 8.1658 12.2891 7.89822 12.2891 7.56816C12.2891 5.80886 13.7764 4.43066 15.5504 4.43066C17.3245 4.43066 18.8118 5.80886 18.8118 7.56816C18.8118 8.26043 18.5782 8.89963 18.1865 9.41605C17.9871 9.67903 17.6122 9.73053 17.3492 9.53107C17.0862 9.33161 17.0347 8.95673 17.2342 8.69375C17.4765 8.37428 17.6166 7.98629 17.6166 7.56816C17.6166 6.52201 16.7187 5.62594 15.5504 5.62594Z" fill="white"/>
<path fill-rule="evenodd" clip-rule="evenodd" d="M13.2056 1.42145C13.5502 1.29602 13.9313 1.47371 14.0567 1.81833L14.3717 2.68377C14.4971 3.02839 14.3194 3.40945 13.9748 3.53488C13.6302 3.66032 13.2491 3.48263 13.1237 3.138L12.8087 2.27256C12.6833 1.92794 12.861 1.54688 13.2056 1.42145Z" fill="white"/>
<path fill-rule="evenodd" clip-rule="evenodd" d="M18.8248 1.91261C19.1424 2.09598 19.2513 2.5021 19.0679 2.81971L18.6074 3.6173C18.424 3.93491 18.0179 4.04373 17.7003 3.86036C17.3827 3.67699 17.2739 3.27086 17.4572 2.95326L17.9177 2.15566C18.1011 1.83806 18.5072 1.72924 18.8248 1.91261Z" fill="white"/>
<path fill-rule="evenodd" clip-rule="evenodd" d="M22.4311 6.39976C22.4948 6.76093 22.2536 7.10534 21.8924 7.16902L20.9854 7.32895C20.6243 7.39263 20.2799 7.15147 20.2162 6.7903C20.1525 6.42913 20.3937 6.08472 20.7548 6.02104L21.6618 5.86111C22.023 5.79743 22.3674 6.03859 22.4311 6.39976Z" fill="white"/>
</svg>
