<svg width="25" height="25" viewBox="0 0 25 25" fill="none" xmlns="http://www.w3.org/2000/svg">
<path fill-rule="evenodd" clip-rule="evenodd" d="M15.0581 2.20168C15.2566 2.36899 15.3394 2.63665 15.2701 2.88683C15.1974 3.1491 15.1584 3.42594 15.1584 3.71288C15.1584 5.42296 16.553 6.81529 18.2809 6.81529C18.7607 6.81529 19.2135 6.7082 19.6179 6.51749C19.8527 6.40675 20.1305 6.44301 20.329 6.61031C20.5276 6.77762 20.6104 7.04528 20.541 7.29546C20.2438 8.36788 19.5533 9.27476 18.6361 9.85544C18.3263 10.0516 17.916 9.95946 17.7198 9.6496C17.5237 9.33975 17.6158 8.92952 17.9257 8.73334C18.1879 8.56734 18.4232 8.36372 18.6242 8.13036C18.5108 8.13898 18.3964 8.14337 18.2809 8.14337C15.9673 8.14337 14.0613 6.38422 13.8498 4.13047C13.3985 4.66895 13.1279 5.36103 13.1279 6.11467C13.1279 6.51187 13.2027 6.89017 13.3385 7.23754C13.472 7.5791 13.3034 7.96425 12.9618 8.09779C12.6203 8.23133 12.2351 8.06269 12.1016 7.72113C11.9065 7.22224 11.7998 6.68009 11.7998 6.11467C11.7998 4.34316 12.8439 2.81769 14.3469 2.10886C14.5818 1.99812 14.8596 2.03438 15.0581 2.20168Z" fill="white"/>
<path fill-rule="evenodd" clip-rule="evenodd" d="M9.27567 7.35689C6.1217 7.35689 3.5649 9.91369 3.5649 13.0677C3.5649 15.4176 4.98439 17.4375 7.01539 18.3139C7.35212 18.4592 7.50731 18.8499 7.36201 19.1867C7.21672 19.5234 6.82596 19.6786 6.48923 19.5333C3.98895 18.4544 2.23682 15.9664 2.23682 13.0677C2.23682 9.18021 5.38822 6.02881 9.27567 6.02881C11.7526 6.02881 13.9298 7.30833 15.1838 9.24014C15.9289 8.88422 16.7631 8.68498 17.6426 8.68498C20.7966 8.68498 23.3534 11.2418 23.3534 14.3958C23.3534 16.6441 22.054 18.5878 20.1681 19.519C19.8393 19.6814 19.4411 19.5464 19.2787 19.2176C19.1163 18.8887 19.2513 18.4905 19.5801 18.3282C21.0302 17.6121 22.0253 16.1195 22.0253 14.3958C22.0253 11.9753 20.0631 10.0131 17.6426 10.0131C16.9832 10.0131 16.3588 10.1583 15.7988 10.4185C16.1314 11.2368 16.3145 12.1315 16.3145 13.0677C16.3145 13.4344 16.0172 13.7317 15.6505 13.7317C15.2837 13.7317 14.9864 13.4344 14.9864 13.0677C14.9864 12.1191 14.7557 11.2263 14.3478 10.4406C13.396 8.60711 11.4813 7.35689 9.27567 7.35689Z" fill="white"/>
<path fill-rule="evenodd" clip-rule="evenodd" d="M16.8872 17.0821C17.1645 17.1781 17.3115 17.4806 17.2155 17.7579L16.0202 21.2109C15.9242 21.4882 15.6217 21.6351 15.3444 21.5391C15.0672 21.4432 14.9202 21.1406 15.0162 20.8634L16.2115 17.4103C16.3074 17.1331 16.61 16.9861 16.8872 17.0821Z" fill="white"/>
<path fill-rule="evenodd" clip-rule="evenodd" d="M14.0982 17.0821C14.3754 17.1781 14.5224 17.4806 14.4264 17.7579L13.2311 21.2109C13.1352 21.4882 12.8326 21.6351 12.5554 21.5391C12.2781 21.4432 12.1312 21.1406 12.2271 20.8634L13.4224 17.4103C13.5184 17.1331 13.8209 16.9861 14.0982 17.0821Z" fill="white"/>
<path fill-rule="evenodd" clip-rule="evenodd" d="M11.3091 17.0821C11.5864 17.1781 11.7333 17.4806 11.6374 17.7579L10.4421 21.2109C10.3461 21.4882 10.0436 21.6351 9.7663 21.5391C9.48905 21.4432 9.34209 21.1406 9.43806 20.8634L10.6333 17.4103C10.7293 17.1331 11.0319 16.9861 11.3091 17.0821Z" fill="white"/>
</svg>
