<svg width="25" height="25" viewBox="0 0 25 25" fill="none" xmlns="http://www.w3.org/2000/svg">
<path fill-rule="evenodd" clip-rule="evenodd" d="M14.8437 2.77491C14.9429 2.85857 14.9843 2.9924 14.9497 3.11749C14.869 3.40836 14.8259 3.71501 14.8259 4.03222C14.8259 5.92734 16.3709 7.46665 18.2804 7.46665C18.8102 7.46665 19.3112 7.34831 19.759 7.13713C19.8764 7.08176 20.0153 7.09989 20.1146 7.18354C20.2139 7.2672 20.2553 7.40102 20.2206 7.52612C19.9459 8.51722 19.3073 9.35657 18.458 9.89426C18.3031 9.99235 18.098 9.94627 17.9999 9.79134C17.9018 9.63641 17.9479 9.4313 18.1028 9.33321C18.6214 9.00487 19.0456 8.54309 19.3268 7.99716C18.9925 8.08432 18.6417 8.13069 18.2804 8.13069C16.0075 8.13069 14.1618 6.29741 14.1618 4.03222C14.1618 3.91595 14.1667 3.80076 14.1763 3.68685C13.337 4.31397 12.7954 5.31166 12.7954 6.43402C12.7954 6.87327 12.8782 7.29253 13.0288 7.67777C13.0956 7.84856 13.0112 8.04113 12.8405 8.1079C12.6697 8.17467 12.4771 8.09035 12.4103 7.91957C12.2301 7.45856 12.1313 6.95738 12.1313 6.43402C12.1313 4.79651 13.0962 3.3849 14.4881 2.7285C14.6055 2.67313 14.7444 2.69126 14.8437 2.77491Z" fill="white"/>
<path fill-rule="evenodd" clip-rule="evenodd" d="M9.27568 7.21238C5.93834 7.21238 3.23289 9.91783 3.23289 13.2552C3.23289 15.7423 4.73554 17.8793 6.88386 18.8062C7.05222 18.8789 7.12982 19.0743 7.05717 19.2426C6.98452 19.411 6.78914 19.4886 6.62078 19.4159C4.23782 18.3877 2.56885 16.0167 2.56885 13.2552C2.56885 9.55109 5.5716 6.54834 9.27568 6.54834C11.7425 6.54834 13.8977 7.88019 15.0624 9.8627C15.8286 9.44307 16.7082 9.20451 17.6426 9.20451C20.6132 9.20451 23.0214 11.6127 23.0214 14.5833C23.0214 16.7005 21.798 18.5314 20.0211 19.4088C19.8567 19.49 19.6576 19.4225 19.5764 19.2581C19.4952 19.0937 19.5627 18.8946 19.7271 18.8134C21.2862 18.0436 22.3573 16.4382 22.3573 14.5833C22.3573 11.9794 20.2465 9.86855 17.6426 9.86855C16.8181 9.86855 16.0438 10.0799 15.37 10.4514C15.7633 11.3048 15.9825 12.2548 15.9825 13.2552C15.9825 13.4385 15.8339 13.5872 15.6505 13.5872C15.4671 13.5872 15.3185 13.4385 15.3185 13.2552C15.3185 12.2521 15.0743 11.307 14.6425 10.4752C13.6359 8.53598 11.6101 7.21238 9.27568 7.21238Z" fill="white"/>
<path fill-rule="evenodd" clip-rule="evenodd" d="M16.7998 17.5191C16.9384 17.5671 17.0119 17.7183 16.9639 17.857L15.7686 21.31C15.7207 21.4486 15.5694 21.5221 15.4308 21.4741C15.2921 21.4261 15.2187 21.2748 15.2666 21.1362L16.4619 17.6832C16.5099 17.5446 16.6612 17.4711 16.7998 17.5191Z" fill="white"/>
<path fill-rule="evenodd" clip-rule="evenodd" d="M14.0112 17.5191C14.1499 17.5671 14.2233 17.7183 14.1754 17.857L12.9801 21.31C12.9321 21.4486 12.7808 21.5221 12.6422 21.4741C12.5036 21.4261 12.4301 21.2748 12.4781 21.1362L13.6733 17.6832C13.7213 17.5446 13.8726 17.4711 14.0112 17.5191Z" fill="white"/>
<path fill-rule="evenodd" clip-rule="evenodd" d="M11.2222 17.5191C11.3608 17.5671 11.4343 17.7183 11.3863 17.857L10.191 21.31C10.143 21.4486 9.99175 21.5221 9.85312 21.4741C9.71449 21.4261 9.64102 21.2748 9.689 21.1362L10.8843 17.6832C10.9323 17.5446 11.0835 17.4711 11.2222 17.5191Z" fill="white"/>
</svg>
