<svg width="25" height="25" viewBox="0 0 25 25" fill="none" xmlns="http://www.w3.org/2000/svg">
<path fill-rule="evenodd" clip-rule="evenodd" d="M8.90702 4.70162C5.75305 4.70162 3.19625 7.25842 3.19625 10.4124C3.19625 12.7623 4.61574 14.7822 6.64674 15.6586C6.98347 15.8039 7.13866 16.1946 6.99336 16.5314C6.84807 16.8681 6.45731 17.0233 6.12058 16.878C3.6203 15.7992 1.86816 13.3111 1.86816 10.4124C1.86816 6.52494 5.01957 3.37354 8.90702 3.37354C11.384 3.37354 13.5611 4.65306 14.8151 6.58486C15.5602 6.22894 16.3945 6.02971 17.274 6.02971C20.4279 6.02971 22.9847 8.58651 22.9847 11.7405C22.9847 13.9889 21.6853 15.9325 19.7995 16.8637C19.4706 17.0261 19.0724 16.8911 18.9101 16.5623C18.7477 16.2335 18.8826 15.8353 19.2115 15.6729C20.6616 14.9569 21.6566 13.4643 21.6566 11.7405C21.6566 9.31999 19.6945 7.35779 17.274 7.35779C16.6145 7.35779 15.9902 7.50304 15.4301 7.76319C15.7628 8.58152 15.9459 9.4762 15.9459 10.4124C15.9459 10.7791 15.6486 11.0764 15.2818 11.0764C14.9151 11.0764 14.6178 10.7791 14.6178 10.4124C14.6178 9.46381 14.387 8.57107 13.9792 7.78537C13.0274 5.95184 11.1126 4.70162 8.90702 4.70162Z" fill="white"/>
<path fill-rule="evenodd" clip-rule="evenodd" d="M16.5378 14.3619C16.8501 14.4688 17.0166 14.8085 16.9098 15.1208L15.1833 20.1676C15.0764 20.4799 14.7367 20.6464 14.4244 20.5396C14.1121 20.4327 13.9455 20.093 14.0524 19.7807L15.7789 14.7339C15.8857 14.4216 16.2255 14.2551 16.5378 14.3619Z" fill="white"/>
<path fill-rule="evenodd" clip-rule="evenodd" d="M13.6175 14.3626C13.9294 14.4706 14.0947 14.811 13.9867 15.1229L12.7915 18.5759C12.6835 18.8878 12.3431 19.0531 12.0312 18.9452C11.7193 18.8372 11.554 18.4968 11.6619 18.1849L12.8572 14.7319C12.9652 14.42 13.3056 14.2547 13.6175 14.3626Z" fill="white"/>
<path fill-rule="evenodd" clip-rule="evenodd" d="M10.698 14.3633C11.0095 14.4723 11.1737 14.8133 11.0647 15.1248L10.716 16.1209C10.607 16.4324 10.2661 16.5966 9.95453 16.4875C9.64299 16.3785 9.47883 16.0376 9.58787 15.726L9.93649 14.73C10.0455 14.4184 10.3865 14.2543 10.698 14.3633ZM9.41973 18.0155C9.73126 18.1246 9.89542 18.4655 9.78638 18.7771L9.20534 20.4372C9.09631 20.7487 8.75536 20.9129 8.44383 20.8038C8.13229 20.6948 7.96813 20.3538 8.07717 20.0423L8.65821 18.3822C8.76725 18.0707 9.10819 17.9065 9.41973 18.0155Z" fill="white"/>
</svg>
