<svg width="25" height="25" viewBox="0 0 25 25" fill="none" xmlns="http://www.w3.org/2000/svg">
<path fill-rule="evenodd" clip-rule="evenodd" d="M9.21332 7.60982C6.39015 7.60982 4.10152 9.89845 4.10152 12.7216C4.10152 14.825 5.37201 16.6331 7.19013 17.4176C7.52686 17.5629 7.68205 17.9537 7.53675 18.2904C7.39146 18.6271 7.0007 18.7823 6.66397 18.637C4.37657 17.65 2.77344 15.3738 2.77344 12.7216C2.77344 9.16497 5.65667 6.28174 9.21332 6.28174C11.46 6.28174 13.437 7.43235 14.5888 9.17416C15.2594 8.86237 16.007 8.68834 16.7941 8.68834C19.6862 8.68834 22.0307 11.0328 22.0307 13.9249C22.0307 15.9867 20.8391 17.7689 19.11 18.6227C18.7811 18.7851 18.3829 18.6501 18.2205 18.3213C18.0582 17.9925 18.1931 17.5943 18.5219 17.4319C19.8153 16.7932 20.7026 15.4621 20.7026 13.9249C20.7026 11.7663 18.9527 10.0164 16.7941 10.0164C16.227 10.0164 15.6891 10.1368 15.2036 10.3534C15.4938 11.087 15.6532 11.8863 15.6532 12.7216C15.6532 13.0884 15.3559 13.3857 14.9892 13.3857C14.6224 13.3857 14.3251 13.0884 14.3251 12.7216C14.3251 11.8724 14.1186 11.0734 13.7535 10.3702C12.9015 8.72878 11.1875 7.60982 9.21332 7.60982Z" fill="white"/>
<path fill-rule="evenodd" clip-rule="evenodd" d="M14.7548 6.14254C13.7248 6.14254 12.9389 6.93176 12.9389 7.84611C12.9389 8.17618 12.6714 8.44375 12.3413 8.44375C12.0112 8.44375 11.7437 8.17618 11.7437 7.84611C11.7437 6.21862 13.1189 4.94727 14.7548 4.94727C16.3906 4.94727 17.7659 6.21862 17.7659 7.84611C17.7659 8.48622 17.5498 9.07716 17.1879 9.55431C16.9884 9.8173 16.6136 9.86879 16.3506 9.66934C16.0876 9.46988 16.0361 9.09499 16.2356 8.83201C16.4481 8.55181 16.5706 8.21208 16.5706 7.84611C16.5706 6.93176 15.7847 6.14254 14.7548 6.14254Z" fill="white"/>
<path fill-rule="evenodd" clip-rule="evenodd" d="M12.6099 2.21833C12.9545 2.09289 13.3356 2.27058 13.461 2.61521L13.7464 3.39933C13.8718 3.74395 13.6941 4.12501 13.3495 4.25044C13.0049 4.37587 12.6238 4.19819 12.4984 3.85356L12.213 3.06944C12.0876 2.72482 12.2653 2.34376 12.6099 2.21833Z" fill="white"/>
<path fill-rule="evenodd" clip-rule="evenodd" d="M17.753 2.66847C18.0707 2.85184 18.1795 3.25796 17.9961 3.57557L17.5789 4.29822C17.3955 4.61582 16.9894 4.72464 16.6718 4.54127C16.3542 4.3579 16.2454 3.95178 16.4287 3.63417L16.8459 2.91152C17.0293 2.59392 17.4354 2.4851 17.753 2.66847Z" fill="white"/>
<path fill-rule="evenodd" clip-rule="evenodd" d="M21.0507 6.77671C21.1144 7.13788 20.8732 7.48229 20.5121 7.54597L19.6903 7.69087C19.3291 7.75456 18.9847 7.5134 18.921 7.15223C18.8573 6.79106 19.0985 6.44665 19.4597 6.38296L20.2814 6.23806C20.6426 6.17438 20.987 6.41554 21.0507 6.77671Z" fill="white"/>
<path fill-rule="evenodd" clip-rule="evenodd" d="M16.2652 16.0187C16.5775 16.1255 16.7441 16.4653 16.6372 16.7776L15.0729 21.3501C14.9661 21.6624 14.6263 21.829 14.314 21.7221C14.0017 21.6153 13.8352 21.2755 13.942 20.9632L15.5063 16.3907C15.6131 16.0784 15.9529 15.9118 16.2652 16.0187Z" fill="white"/>
<path fill-rule="evenodd" clip-rule="evenodd" d="M13.6199 16.0194C13.9318 16.1273 14.0972 16.4677 13.9892 16.7796L12.9062 19.9082C12.7982 20.2201 12.4579 20.3854 12.146 20.2775C11.8341 20.1695 11.6687 19.8291 11.7767 19.5172L12.8597 16.3886C12.9676 16.0767 13.308 15.9114 13.6199 16.0194Z" fill="white"/>
<path fill-rule="evenodd" clip-rule="evenodd" d="M10.9745 16.02C11.286 16.1291 11.4502 16.47 11.3411 16.7816L11.0253 17.684C10.9162 17.9956 10.5753 18.1597 10.2638 18.0507C9.95222 17.9417 9.78806 17.6007 9.8971 17.2892L10.213 16.3867C10.322 16.0752 10.6629 15.911 10.9745 16.02ZM9.8163 19.3291C10.1278 19.4382 10.292 19.7791 10.183 20.0906L9.65652 21.5948C9.54748 21.9063 9.20654 22.0705 8.895 21.9614C8.58346 21.8524 8.41931 21.5114 8.52834 21.1999L9.05479 19.6958C9.16383 19.3842 9.50477 19.2201 9.8163 19.3291Z" fill="white"/>
</svg>
