<svg width="25" height="25" viewBox="0 0 25 25" fill="none" xmlns="http://www.w3.org/2000/svg">
<path fill-rule="evenodd" clip-rule="evenodd" d="M12.3719 9.61568C10.1715 9.61568 8.38766 11.3995 8.38766 13.5999C8.38766 14.6262 8.77478 15.5604 9.41203 16.2671C9.65764 16.5395 9.63595 16.9593 9.3636 17.2049C9.09124 17.4506 8.67135 17.4289 8.42575 17.1565C7.57704 16.2154 7.05957 14.9673 7.05957 13.5999C7.05957 10.666 9.43799 8.2876 12.3719 8.2876C15.3058 8.2876 17.6843 10.666 17.6843 13.5999C17.6843 13.9667 17.387 14.264 17.0202 14.264C16.6535 14.264 16.3562 13.9667 16.3562 13.5999C16.3562 11.3995 14.5724 9.61568 12.3719 9.61568Z" fill="white"/>
<path fill-rule="evenodd" clip-rule="evenodd" d="M2.14551 13.6001C2.14551 13.2333 2.44281 12.936 2.80955 12.936H4.4436C4.81034 12.936 5.10764 13.2333 5.10764 13.6001C5.10764 13.9668 4.81034 14.2641 4.4436 14.2641H2.80955C2.44281 14.2641 2.14551 13.9668 2.14551 13.6001ZM19.6359 13.6001C19.6359 13.2333 19.9332 12.936 20.2999 12.936H21.934C22.3007 12.936 22.598 13.2333 22.598 13.6001C22.598 13.9668 22.3007 14.2641 21.934 14.2641H20.2999C19.9332 14.2641 19.6359 13.9668 19.6359 13.6001Z" fill="white"/>
<path fill-rule="evenodd" clip-rule="evenodd" d="M5.14094 20.8309C4.88161 20.5716 4.88161 20.1511 5.14094 19.8918L6.29638 18.7363C6.55571 18.477 6.97616 18.477 7.23548 18.7363C7.49481 18.9957 7.49481 19.4161 7.23548 19.6754L6.08003 20.8309C5.82071 21.0902 5.40026 21.0902 5.14094 20.8309ZM17.5085 8.46331C17.2492 8.20398 17.2492 7.78353 17.5085 7.52421L18.664 6.36876C18.9233 6.10943 19.3437 6.10943 19.6031 6.36876C19.8624 6.62808 19.8624 7.04853 19.6031 7.30786L18.4476 8.46331C18.1883 8.72263 17.7678 8.72263 17.5085 8.46331Z" fill="white"/>
<path fill-rule="evenodd" clip-rule="evenodd" d="M5.14129 6.36896C5.40062 6.10964 5.82106 6.10964 6.08039 6.36896L7.23584 7.52441C7.49516 7.78374 7.49516 8.20418 7.23584 8.46351C6.97651 8.72283 6.55606 8.72283 6.29674 8.46351L5.14129 7.30806C4.88197 7.04874 4.88197 6.62829 5.14129 6.36896Z" fill="white"/>
<path fill-rule="evenodd" clip-rule="evenodd" d="M12.3716 3.37354C12.7383 3.37354 13.0356 3.67084 13.0356 4.03758L13.0356 5.67163C13.0356 6.03837 12.7383 6.33567 12.3716 6.33567C12.0049 6.33567 11.7076 6.03837 11.7076 5.67163L11.7076 4.03758C11.7076 3.67084 12.0049 3.37354 12.3716 3.37354Z" fill="white"/>
<path d="M13.3012 20.3071C13.3012 20.8572 12.8553 21.3032 12.3051 21.3032C11.755 21.3032 11.3091 20.8572 11.3091 20.3071C11.3091 19.757 11.755 19.311 12.3051 19.311C12.8553 19.311 13.3012 19.757 13.3012 20.3071Z" fill="white"/>
<path d="M16.3564 17.2524C16.3564 17.8025 15.9104 18.2485 15.3603 18.2485C14.8102 18.2485 14.3643 17.8025 14.3643 17.2524C14.3643 16.7023 14.8102 16.2563 15.3603 16.2563C15.9104 16.2563 16.3564 16.7023 16.3564 17.2524Z" fill="white"/>
<path d="M19.2773 20.4394C19.2773 20.9895 18.8313 21.4355 18.2812 21.4355C17.7311 21.4355 17.2852 20.9895 17.2852 20.4394C17.2852 19.8893 17.7311 19.4434 18.2812 19.4434C18.8313 19.4434 19.2773 19.8893 19.2773 20.4394Z" fill="white"/>
</svg>
