<svg width="25" height="25" viewBox="0 0 25 25" fill="none" xmlns="http://www.w3.org/2000/svg">
<path fill-rule="evenodd" clip-rule="evenodd" d="M8.83818 2.99783C9.03706 3.16484 9.12032 3.43247 9.05129 3.68283C8.85269 4.40315 8.7464 5.16246 8.7464 5.94765C8.7464 10.6419 12.5519 14.4474 17.2461 14.4474C18.5487 14.4474 19.7811 14.1549 20.8828 13.6325C21.1174 13.5213 21.3954 13.557 21.5943 13.724C21.7932 13.8911 21.8764 14.1587 21.8074 14.409C21.3528 16.0578 20.4801 17.5319 19.3114 18.7106C19.0532 18.971 18.6327 18.9728 18.3723 18.7146C18.1119 18.4564 18.1101 18.0359 18.3683 17.7755C19.057 17.0809 19.6264 16.2684 20.0436 15.3714C19.1565 15.6344 18.2174 15.7755 17.2461 15.7755C11.8184 15.7755 7.41831 11.3754 7.41831 5.94765C7.41831 5.5627 7.44048 5.18273 7.48363 4.80899C5.27608 6.34487 3.83248 8.89995 3.83248 11.7912C3.83248 12.7171 3.98029 13.6072 4.25309 14.4399C4.36726 14.7884 4.1773 15.1635 3.82879 15.2777C3.48027 15.3918 3.10518 15.2019 2.99101 14.8534C2.67502 13.8889 2.50439 12.8593 2.50439 11.7912C2.50439 7.86714 4.80425 4.48153 8.12665 2.90632C8.36132 2.79506 8.63931 2.83081 8.83818 2.99783Z" fill="white"/>
<path d="M7.28412 19.6425C7.28412 20.1927 6.83817 20.6386 6.28806 20.6386C5.73795 20.6386 5.29199 20.1927 5.29199 19.6425C5.29199 19.0924 5.73795 18.6465 6.28806 18.6465C6.83817 18.6465 7.28412 19.0924 7.28412 19.6425Z" fill="white"/>
<path d="M10.3388 16.5879C10.3388 17.138 9.89286 17.5839 9.34274 17.5839C8.79263 17.5839 8.34668 17.138 8.34668 16.5879C8.34668 16.0378 8.79263 15.5918 9.34274 15.5918C9.89286 15.5918 10.3388 16.0378 10.3388 16.5879Z" fill="white"/>
<path d="M13.2612 19.7744C13.2612 20.3245 12.8152 20.7704 12.2651 20.7704C11.715 20.7704 11.269 20.3245 11.269 19.7744C11.269 19.2243 11.715 18.7783 12.2651 18.7783C12.8152 18.7783 13.2612 19.2243 13.2612 19.7744Z" fill="white"/>
</svg>
