<svg width="25" height="25" viewBox="0 0 25 25" fill="none" xmlns="http://www.w3.org/2000/svg">
<path fill-rule="evenodd" clip-rule="evenodd" d="M12.3519 8.28707C10.1514 8.28707 8.36764 10.0709 8.36764 12.2713C8.36764 13.2976 8.75476 14.2318 9.39201 14.9385C9.63762 15.2108 9.61593 15.6307 9.34358 15.8763C9.07122 16.1219 8.65133 16.1003 8.40573 15.8279C7.55702 14.8867 7.03955 13.6387 7.03955 12.2713C7.03955 9.3374 9.41797 6.95898 12.3519 6.95898C15.2858 6.95898 17.6642 9.3374 17.6642 12.2713C17.6642 12.6381 17.3669 12.9354 17.0002 12.9354C16.6335 12.9354 16.3362 12.6381 16.3362 12.2713C16.3362 10.0709 14.5523 8.28707 12.3519 8.28707Z" fill="white"/>
<path fill-rule="evenodd" clip-rule="evenodd" d="M2.125 12.272C2.125 11.9052 2.4223 11.6079 2.78904 11.6079H4.42309C4.78983 11.6079 5.08714 11.9052 5.08714 12.272C5.08714 12.6387 4.78983 12.936 4.42309 12.936H2.78904C2.4223 12.936 2.125 12.6387 2.125 12.272ZM19.6154 12.272C19.6154 11.9052 19.9127 11.6079 20.2794 11.6079H21.9135C22.2802 11.6079 22.5775 11.9052 22.5775 12.272C22.5775 12.6387 22.2802 12.936 21.9135 12.936H20.2794C19.9127 12.936 19.6154 12.6387 19.6154 12.272Z" fill="white"/>
<path fill-rule="evenodd" clip-rule="evenodd" d="M5.1092 19.4905C4.84987 19.2312 4.84987 18.8108 5.1092 18.5514L6.26465 17.396C6.52397 17.1367 6.94442 17.1367 7.20374 17.396C7.46307 17.6553 7.46307 18.0758 7.20374 18.3351L6.0483 19.4905C5.78897 19.7499 5.36852 19.7499 5.1092 19.4905ZM17.4768 7.12297C17.2174 6.86365 17.2174 6.4432 17.4768 6.18388L18.6322 5.02843C18.8915 4.7691 19.312 4.7691 19.5713 5.02843C19.8306 5.28775 19.8306 5.7082 19.5713 5.96753L18.4159 7.12297C18.1565 7.3823 17.7361 7.3823 17.4768 7.12297Z" fill="white"/>
<path fill-rule="evenodd" clip-rule="evenodd" d="M5.12029 5.04035C5.37962 4.78103 5.80007 4.78103 6.05939 5.04035L7.21484 6.1958C7.47417 6.45512 7.47417 6.87557 7.21484 7.1349C6.95552 7.39422 6.53507 7.39422 6.27574 7.1349L5.12029 5.97945C4.86097 5.72012 4.86097 5.29967 5.12029 5.04035Z" fill="white"/>
<path fill-rule="evenodd" clip-rule="evenodd" d="M12.3521 2.04541C12.7188 2.04541 13.0161 2.34271 13.0161 2.70945L13.0161 4.3435C13.0161 4.71024 12.7188 5.00755 12.3521 5.00755C11.9853 5.00755 11.688 4.71024 11.688 4.3435L11.688 2.70945C11.688 2.34271 11.9853 2.04541 12.3521 2.04541Z" fill="white"/>
<path fill-rule="evenodd" clip-rule="evenodd" d="M15.148 14.8604C15.4047 14.8604 15.6128 15.0685 15.6128 15.3252V16.3008L16.5884 16.3008C16.8451 16.3008 17.0533 16.5089 17.0533 16.7656C17.0533 17.0224 16.8451 17.2305 16.5884 17.2305H15.6128V18.2061C15.6128 18.4628 15.4047 18.6709 15.148 18.6709C14.8912 18.6709 14.6831 18.4628 14.6831 18.2061V17.2305H13.7075C13.4508 17.2305 13.2427 17.0224 13.2427 16.7656C13.2427 16.5089 13.4508 16.3008 13.7075 16.3008L14.6831 16.3008V15.3252C14.6831 15.0685 14.8912 14.8604 15.148 14.8604Z" fill="white"/>
<path fill-rule="evenodd" clip-rule="evenodd" d="M11.667 18.2222C11.9237 18.2222 12.1318 18.4303 12.1318 18.687V19.6626L13.1075 19.6626C13.3642 19.6626 13.5723 19.8707 13.5723 20.1275C13.5723 20.3842 13.3642 20.5923 13.1075 20.5923H12.1318V21.5679C12.1318 21.8246 11.9237 22.0328 11.667 22.0328C11.4103 22.0328 11.2022 21.8246 11.2022 21.5679V20.5923H10.2265C9.96983 20.5923 9.76172 20.3842 9.76172 20.1275C9.76172 19.8707 9.96983 19.6626 10.2265 19.6626L11.2022 19.6626V18.687C11.2022 18.4303 11.4103 18.2222 11.667 18.2222Z" fill="white"/>
<path fill-rule="evenodd" clip-rule="evenodd" d="M18.75 18.2222C19.0067 18.2222 19.2148 18.4303 19.2148 18.687V19.6626L20.1905 19.6626C20.4472 19.6626 20.6553 19.8707 20.6553 20.1275C20.6553 20.3842 20.4472 20.5923 20.1905 20.5923H19.2148V21.5679C19.2148 21.8246 19.0067 22.0328 18.75 22.0328C18.4933 22.0328 18.2852 21.8246 18.2852 21.5679V20.5923H17.3096C17.0528 20.5923 16.8447 20.3842 16.8447 20.1275C16.8447 19.8707 17.0528 19.6626 17.3096 19.6626L18.2852 19.6626V18.687C18.2852 18.4303 18.4933 18.2222 18.75 18.2222Z" fill="white"/>
</svg>
