<svg width="25" height="25" viewBox="0 0 25 25" fill="none" xmlns="http://www.w3.org/2000/svg">
<path fill-rule="evenodd" clip-rule="evenodd" d="M9.3372 6.6943C6.18322 6.6943 3.62643 9.2511 3.62643 12.4051C3.62643 14.755 5.04591 16.7749 7.07691 17.6513C7.41364 17.7966 7.56883 18.1873 7.42354 18.5241C7.27824 18.8608 6.88748 19.016 6.55075 18.8707C4.05047 17.7918 2.29834 15.3038 2.29834 12.4051C2.29834 8.51761 5.44974 5.36621 9.3372 5.36621C11.8141 5.36621 13.9913 6.64574 15.2453 8.57754C15.9904 8.22162 16.8246 8.02238 17.7041 8.02238C20.8581 8.02238 23.4149 10.5792 23.4149 13.7332C23.4149 15.9815 22.1155 17.9252 20.2297 18.8564C19.9008 19.0188 19.5026 18.8838 19.3402 18.555C19.1779 18.2261 19.3128 17.8279 19.6416 17.6656C21.0917 16.9495 22.0868 15.4569 22.0868 13.7332C22.0868 11.3127 20.1246 9.35047 17.7041 9.35047C17.0447 9.35047 16.4203 9.49572 15.8603 9.75586C16.1929 10.5742 16.3761 11.4689 16.3761 12.4051C16.3761 12.7718 16.0787 13.0691 15.712 13.0691C15.3453 13.0691 15.048 12.7718 15.048 12.4051C15.048 11.4565 14.8172 10.5637 14.4093 9.77804C13.4575 7.94452 11.5428 6.6943 9.3372 6.6943Z" fill="white"/>
<path fill-rule="evenodd" clip-rule="evenodd" d="M13.3222 15.8574C13.6156 15.8574 13.8534 16.0953 13.8534 16.3887V17.4511H14.9159C15.2093 17.4511 15.4471 17.689 15.4471 17.9824C15.4471 18.2758 15.2093 18.5136 14.9159 18.5136H13.8534V19.5761C13.8534 19.8695 13.6156 20.1073 13.3222 20.1073C13.0288 20.1073 12.791 19.8695 12.791 19.5761V18.5136H11.7285C11.4351 18.5136 11.1973 18.2758 11.1973 17.9824C11.1973 17.689 11.4351 17.4511 11.7285 17.4511L12.791 17.4511V16.3887C12.791 16.0953 13.0288 15.8574 13.3222 15.8574Z" fill="white"/>
<path fill-rule="evenodd" clip-rule="evenodd" d="M9.47015 19.5767C9.76355 19.5767 10.0014 19.8145 10.0014 20.1079V21.1704H11.0639C11.3572 21.1704 11.5951 21.4082 11.5951 21.7016C11.5951 21.995 11.3572 22.2328 11.0639 22.2328H10.0014V23.2953C10.0014 23.5887 9.76355 23.8265 9.47015 23.8265C9.17676 23.8265 8.93892 23.5887 8.93892 23.2953V22.2328H7.87645C7.58306 22.2328 7.34521 21.995 7.34521 21.7016C7.34521 21.4082 7.58306 21.1704 7.87645 21.1704L8.93892 21.1704V20.1079C8.93892 19.8145 9.17676 19.5767 9.47015 19.5767Z" fill="white"/>
<path fill-rule="evenodd" clip-rule="evenodd" d="M17.3061 19.5767C17.5995 19.5767 17.8373 19.8145 17.8373 20.1079V21.1704H18.8998C19.1932 21.1704 19.431 21.4082 19.431 21.7016C19.431 21.995 19.1932 22.2328 18.8998 22.2328H17.8373V23.2953C17.8373 23.5887 17.5995 23.8265 17.3061 23.8265C17.0127 23.8265 16.7749 23.5887 16.7749 23.2953V22.2328H15.7124C15.419 22.2328 15.1812 21.995 15.1812 21.7016C15.1812 21.4082 15.419 21.1704 15.7124 21.1704L16.7749 21.1704V20.1079C16.7749 19.8145 17.0127 19.5767 17.3061 19.5767Z" fill="white"/>
</svg>
