<svg width="180" height="180" viewBox="0 0 180 180" fill="none" xmlns="http://www.w3.org/2000/svg">
<path fill-rule="evenodd" clip-rule="evenodd" d="M90 66C73.4315 66 60 79.4315 60 96C60 103.727 62.9149 110.762 67.7132 116.083C69.5625 118.133 69.3992 121.295 67.3485 123.144C65.2977 124.994 62.1361 124.83 60.2868 122.78C53.8964 115.693 50 106.296 50 96C50 73.9086 67.9086 56 90 56C100.897 56 110.785 60.3642 117.994 67.4288C119.967 69.3615 119.999 72.5272 118.066 74.4995C116.133 76.4718 112.968 76.5039 110.995 74.5712C105.579 69.264 98.1759 66 90 66Z" fill="white"/>
<path fill-rule="evenodd" clip-rule="evenodd" d="M13 96C13 93.2386 15.2386 91 18 91H30.3038C33.0652 91 35.3038 93.2386 35.3038 96C35.3038 98.7614 33.0652 101 30.3038 101H18C15.2386 101 13 98.7614 13 96Z" fill="white"/>
<path fill-rule="evenodd" clip-rule="evenodd" d="M35.5526 150.447C33.6 148.495 33.6 145.329 35.5526 143.376L44.2527 134.676C46.2053 132.723 49.3712 132.723 51.3238 134.676C53.2764 136.629 53.2764 139.794 51.3238 141.747L42.6237 150.447C40.6711 152.4 37.5052 152.4 35.5526 150.447ZM128.676 57.3239C126.723 55.3713 126.723 52.2054 128.676 50.2528L137.376 41.5527C139.329 39.6001 142.494 39.6001 144.447 41.5527C146.4 43.5053 146.4 46.6712 144.447 48.6238L135.747 57.3239C133.794 59.2765 130.629 59.2765 128.676 57.3239Z" fill="white"/>
<path fill-rule="evenodd" clip-rule="evenodd" d="M35.5528 41.5526C37.5055 39.6 40.6713 39.6 42.6239 41.5526L51.324 50.2527C53.2766 52.2053 53.2766 55.3712 51.324 57.3238C49.3714 59.2764 46.2056 59.2764 44.2529 57.3238L35.5528 48.6237C33.6002 46.6711 33.6002 43.5052 35.5528 41.5526Z" fill="white"/>
<path fill-rule="evenodd" clip-rule="evenodd" d="M90 19C92.7614 19 95 21.2386 95 24L95 36.3038C95 39.0652 92.7614 41.3038 90 41.3038C87.2386 41.3038 85 39.0652 85 36.3038L85 24C85 21.2386 87.2386 19 90 19Z" fill="white"/>
<path fill-rule="evenodd" clip-rule="evenodd" d="M94.6469 98.4841C90.8676 101.183 89 104.55 89 107.852C89 111.155 90.8676 114.522 94.6469 117.221C98.4184 119.914 103.834 121.705 110 121.705C116.166 121.705 121.582 119.914 125.353 117.221C129.132 114.522 131 111.155 131 107.852C131 104.55 129.132 101.183 125.353 98.4841C121.582 95.7909 116.166 94 110 94C103.834 94 98.4184 95.7909 94.6469 98.4841ZM89.9978 91.9736C95.2745 88.2055 102.359 86 110 86C117.641 86 124.725 88.2055 130.002 91.9736C135.271 95.7362 139 101.295 139 107.852C139 114.41 135.271 119.969 130.002 123.731C124.725 127.499 117.641 129.705 110 129.705C105.35 129.705 100.906 128.888 96.9499 127.399C95.1834 127.912 94.3191 129.33 94.3191 130.504C94.3191 131.636 95.154 133.435 98.1873 135.175C101.11 136.852 105.415 138.016 110.387 138.016C114.211 138.016 117.669 137.326 120.409 136.223C123.201 135.098 124.968 133.664 125.816 132.386C127.037 130.545 129.519 130.043 131.36 131.264C133.201 132.485 133.703 134.967 132.482 136.808C130.681 139.524 127.854 141.623 124.635 143.109C125.299 144.351 125.702 145.76 125.702 147.325C125.702 151.396 122.979 154.404 120.027 156.18C116.997 158.002 113.069 159 108.944 159C104.157 159 99.5614 157.651 96.3674 155.156C94.6265 153.796 94.3176 151.282 95.6775 149.541C97.0375 147.8 99.5512 147.492 101.292 148.852C102.763 150.001 105.494 151 108.944 151C111.865 151 114.316 150.28 115.903 149.324C117.569 148.322 117.702 147.493 117.702 147.325C117.702 147.17 117.595 146.464 116.28 145.567C114.386 145.862 112.41 146.016 110.387 146.016C104.276 146.016 98.5463 144.604 94.2064 142.114C89.9766 139.687 86.3191 135.73 86.3191 130.504C86.3191 127.73 87.3934 125.139 89.2043 123.142C84.3583 119.399 81 114.076 81 107.852C81 101.295 84.7288 95.7362 89.9978 91.9736Z" fill="white"/>
</svg>
