<svg width="180" height="180" viewBox="0 0 180 180" fill="none" xmlns="http://www.w3.org/2000/svg">
<path fill-rule="evenodd" clip-rule="evenodd" d="M32.6469 97.4841C28.8676 100.183 27 103.55 27 106.852C27 110.155 28.8676 113.522 32.6469 116.221C36.4184 118.914 41.8338 120.705 48 120.705C54.1662 120.705 59.5816 118.914 63.3531 116.221C67.1324 113.522 69 110.155 69 106.852C69 103.55 67.1324 100.183 63.3531 97.4841C59.5816 94.7909 54.1662 93 48 93C41.8338 93 36.4184 94.7909 32.6469 97.4841ZM27.9978 90.9736C33.2745 87.2055 40.3591 85 48 85C55.6409 85 62.7255 87.2055 68.0022 90.9736C73.2712 94.7362 77 100.295 77 106.852C77 113.41 73.2712 118.969 68.0022 122.731C62.7255 126.499 55.6409 128.705 48 128.705C43.3499 128.705 38.9058 127.888 34.9499 126.399C33.1834 126.912 32.3191 128.33 32.3191 129.504C32.3191 130.636 33.154 132.435 36.1873 134.175C39.1104 135.852 43.415 137.016 48.3868 137.016C52.211 137.016 55.6692 136.326 58.4087 135.223C61.2015 134.098 62.968 132.664 63.8155 131.386C65.0366 129.545 67.5189 129.043 69.3599 130.264C71.2009 131.485 71.7034 133.967 70.4823 135.808C68.6807 138.524 65.8543 140.623 62.635 142.109C63.2986 143.351 63.7021 144.76 63.7021 146.325C63.7021 150.396 60.9793 153.404 58.0273 155.18C54.9974 157.002 51.0692 158 46.9439 158C42.1568 158 37.5614 156.651 34.3674 154.156C32.6265 152.796 32.3176 150.282 33.6775 148.541C35.0375 146.8 37.5512 146.492 39.2922 147.852C40.7635 149.001 43.4938 150 46.9439 150C49.8649 150 52.3158 149.28 53.9034 148.324C55.569 147.322 55.7021 146.493 55.7021 146.325C55.7021 146.17 55.5948 145.464 54.2796 144.567C52.3857 144.862 50.41 145.016 48.3868 145.016C42.2755 145.016 36.5463 143.604 32.2064 141.114C27.9766 138.687 24.3191 134.73 24.3191 129.504C24.3191 126.73 25.3934 124.139 27.2043 122.142C22.3583 118.399 19 113.076 19 106.852C19 100.295 22.7288 94.7362 27.9978 90.9736Z" fill="white"/>
<path fill-rule="evenodd" clip-rule="evenodd" d="M72.1561 21.1712C73.6535 22.4288 74.2805 24.4439 73.7607 26.329C72.4098 31.2286 71.6867 36.3939 71.6867 41.7361C71.6867 73.6697 97.574 99.557 129.508 99.557C138.369 99.557 146.752 97.5669 154.246 94.0139C156.013 93.1762 158.106 93.4454 159.604 94.703C161.101 95.9606 161.728 97.9757 161.208 99.8608C153.3 128.544 127.028 149.617 95.821 149.617C92.2194 149.617 88.6801 149.336 85.2246 148.793C82.4966 148.365 80.6323 145.806 81.0606 143.078C81.4889 140.35 84.0476 138.486 86.7756 138.914C89.7199 139.376 92.7406 139.617 95.821 139.617C118.697 139.617 138.479 126.329 147.854 107.045C142.015 108.682 135.861 109.557 129.508 109.557C92.0511 109.557 61.6867 79.1926 61.6867 41.7361C61.6867 39.4196 61.803 37.1291 62.0303 34.8704C50.512 43.1802 42.1781 55.6241 39.2005 70.0133C38.6409 72.7174 35.9952 74.4559 33.291 73.8963C30.5869 73.3368 28.8484 70.691 29.408 67.9869C33.7664 46.9246 47.8776 29.4529 66.7985 20.4821C68.5655 19.6444 70.6586 19.9136 72.1561 21.1712Z" fill="white"/>
</svg>
