<svg width="25" height="25" viewBox="0 0 25 25" fill="none" xmlns="http://www.w3.org/2000/svg">
<path fill-rule="evenodd" clip-rule="evenodd" d="M8.51981 5.23238C5.36584 5.23238 2.80904 7.78918 2.80904 10.9432C2.80904 13.0805 3.98296 14.9446 5.72439 15.9243C6.04402 16.1041 6.15737 16.509 5.97756 16.8286C5.79775 17.1482 5.39287 17.2616 5.07323 17.0818C2.93067 15.8765 1.48096 13.5795 1.48096 10.9432C1.48096 7.0557 4.63236 3.9043 8.51981 3.9043C10.9967 3.9043 13.1739 5.18382 14.4279 7.11562C15.173 6.7597 16.0072 6.56047 16.8868 6.56047C20.0407 6.56047 22.5975 9.11727 22.5975 12.2712C22.5975 14.2776 21.5624 16.0418 20.0001 17.0594C19.6928 17.2596 19.2814 17.1727 19.0813 16.8654C18.8811 16.5582 18.9679 16.1468 19.2752 15.9466C20.4772 15.1637 21.2694 13.8098 21.2694 12.2712C21.2694 9.85075 19.3072 7.88855 16.8868 7.88855C16.2273 7.88855 15.603 8.03381 15.0429 8.29395C15.3756 9.11229 15.5587 10.007 15.5587 10.9432C15.5587 11.3099 15.2614 11.6072 14.8946 11.6072C14.5279 11.6072 14.2306 11.3099 14.2306 10.9432C14.2306 9.99457 13.9998 9.10183 13.592 8.31613C12.6402 6.4826 10.7254 5.23238 8.51981 5.23238Z" fill="white"/>
<path fill-rule="evenodd" clip-rule="evenodd" d="M16.3969 15.3544C16.6743 15.45 16.8216 15.7524 16.7259 16.0298L15.3979 19.8812C15.3022 20.1586 14.9998 20.3059 14.7225 20.2102C14.4451 20.1146 14.2978 19.8122 14.3934 19.5348L15.7215 15.6834C15.8172 15.406 16.1195 15.2587 16.3969 15.3544Z" fill="white"/>
<path fill-rule="evenodd" clip-rule="evenodd" d="M13.7407 15.3544C14.018 15.45 14.1653 15.7524 14.0697 16.0298L12.7416 19.8812C12.646 20.1586 12.3436 20.3059 12.0662 20.2102C11.7888 20.1146 11.6415 19.8122 11.7372 19.5348L13.0653 15.6834C13.1609 15.406 13.4633 15.2587 13.7407 15.3544Z" fill="white"/>
<path fill-rule="evenodd" clip-rule="evenodd" d="M10.7484 15.3415C10.9599 15.5448 10.9667 15.8811 10.7634 16.0927L9.74898 17.1483L10.6686 17.7423C10.8018 17.8284 10.8896 17.9695 10.908 18.1271C10.9263 18.2847 10.8733 18.4422 10.7634 18.5566L9.30247 20.0769C9.09919 20.2885 8.76289 20.2952 8.55134 20.0919C8.33979 19.8886 8.33309 19.5523 8.53637 19.3408L9.55076 18.2851L8.63118 17.6911C8.49792 17.6051 8.4101 17.4639 8.39175 17.3063C8.3734 17.1488 8.42645 16.9912 8.53637 16.8768L9.99727 15.3565C10.2006 15.145 10.5368 15.1383 10.7484 15.3415Z" fill="white"/>
</svg>
