<svg width="25" height="25" viewBox="0 0 25 25" fill="none" xmlns="http://www.w3.org/2000/svg">
<path fill-rule="evenodd" clip-rule="evenodd" d="M14.9974 5.81002C14.0011 5.81002 13.248 6.57245 13.248 7.44719C13.248 7.81393 12.9507 8.11123 12.584 8.11123C12.2172 8.11123 11.9199 7.81393 11.9199 7.44719C11.9199 5.78007 13.3279 4.48193 14.9974 4.48193C16.6669 4.48193 18.0749 5.78007 18.0749 7.44719C18.0749 8.10252 17.8537 8.70742 17.4835 9.19552C17.2619 9.48772 16.8453 9.54494 16.5531 9.32332C16.2609 9.1017 16.2037 8.68516 16.4253 8.39295C16.6295 8.1237 16.7468 7.79792 16.7468 7.44719C16.7468 6.57245 15.9938 5.81002 14.9974 5.81002Z" fill="white"/>
<path fill-rule="evenodd" clip-rule="evenodd" d="M12.8526 1.81891C13.1972 1.69348 13.5782 1.87117 13.7037 2.21579L13.9891 2.99992C14.1145 3.34454 13.9368 3.7256 13.5922 3.85103C13.2476 3.97646 12.8665 3.79877 12.7411 3.45415L12.4557 2.67003C12.3303 2.3254 12.5079 1.94435 12.8526 1.81891Z" fill="white"/>
<path fill-rule="evenodd" clip-rule="evenodd" d="M17.9957 2.26954C18.3133 2.45291 18.4221 2.85903 18.2388 3.17664L17.8216 3.89929C17.6382 4.2169 17.2321 4.32572 16.9145 4.14235C16.5969 3.95898 16.488 3.55286 16.6714 3.23525L17.0886 2.5126C17.272 2.19499 17.6781 2.08617 17.9957 2.26954Z" fill="white"/>
<path fill-rule="evenodd" clip-rule="evenodd" d="M21.2939 6.37876C21.3576 6.73993 21.1164 7.08434 20.7552 7.14802L19.9335 7.29292C19.5723 7.35661 19.2279 7.11545 19.1642 6.75428C19.1005 6.39311 19.3417 6.0487 19.7028 5.98502L20.5246 5.84012C20.8858 5.77643 21.2302 6.01759 21.2939 6.37876Z" fill="white"/>
<path fill-rule="evenodd" clip-rule="evenodd" d="M9.4555 7.22555C6.63652 7.22555 4.34371 9.52734 4.34371 12.3761C4.34371 14.498 5.61674 16.3191 7.4338 17.1084C7.77018 17.2545 7.92441 17.6456 7.7783 17.982C7.63218 18.3184 7.24104 18.4726 6.90467 18.3265C4.61621 17.3324 3.01562 15.0417 3.01562 12.3761C3.01562 8.80225 5.89468 5.89746 9.4555 5.89746C11.7041 5.89746 13.6808 7.05662 14.8317 8.80852C15.5021 8.49519 16.2494 8.32022 17.0363 8.32022C19.9326 8.32022 22.2729 10.6827 22.2729 13.5875C22.2729 15.659 21.0836 17.4521 19.3537 18.312C19.0253 18.4753 18.6268 18.3414 18.4635 18.013C18.3003 17.6846 18.4341 17.286 18.7625 17.1228C20.0552 16.4802 20.9448 15.1391 20.9448 13.5875C20.9448 11.4077 19.1907 9.6483 17.0363 9.6483C16.4685 9.6483 15.93 9.76994 15.4439 9.98881C15.7354 10.7282 15.8954 11.534 15.8954 12.3761C15.8954 12.7429 15.5981 13.0402 15.2313 13.0402C14.8646 13.0402 14.5673 12.7429 14.5673 12.3761C14.5673 11.5197 14.3604 10.714 13.9949 10.0052C13.1417 8.35073 11.4274 7.22555 9.4555 7.22555Z" fill="white"/>
<path fill-rule="evenodd" clip-rule="evenodd" d="M14.5257 15.4617C14.7445 15.6572 14.7634 15.993 14.568 16.2118L12.9758 17.9939L14.4749 19.0354C14.5999 19.1222 14.6816 19.2585 14.6994 19.4096C14.7172 19.5607 14.6693 19.7122 14.568 19.8256L12.5758 22.0554C12.3804 22.2742 12.0445 22.2931 11.8257 22.0976C11.607 21.9022 11.588 21.5663 11.7835 21.3475L13.3757 19.5654L11.8766 18.524C11.7516 18.4372 11.6699 18.3009 11.6521 18.1498C11.6343 17.9987 11.6821 17.8472 11.7835 17.7338L13.7756 15.504C13.9711 15.2852 14.3069 15.2663 14.5257 15.4617Z" fill="white"/>
</svg>
