<svg width="25" height="25" viewBox="0 0 25 25" fill="none" xmlns="http://www.w3.org/2000/svg">
<path fill-rule="evenodd" clip-rule="evenodd" d="M9.41483 6.6943C6.26086 6.6943 3.70406 9.2511 3.70406 12.4051C3.70406 14.755 5.12355 16.7749 7.15455 17.6513C7.49128 17.7966 7.64647 18.1873 7.50117 18.5241C7.35588 18.8608 6.96512 19.016 6.62839 18.8707C4.12811 17.7918 2.37598 15.3038 2.37598 12.4051C2.37598 8.51761 5.52738 5.36621 9.41483 5.36621C11.8918 5.36621 14.0689 6.64574 15.3229 8.57754C16.0681 8.22162 16.9023 8.02238 17.7818 8.02238C20.9357 8.02238 23.4925 10.5792 23.4925 13.7332C23.4925 15.9815 22.1931 17.9252 20.3073 18.8564C19.9785 19.0188 19.5803 18.8838 19.4179 18.555C19.2555 18.2261 19.3904 17.8279 19.7193 17.6656C21.1694 16.9495 22.1645 15.4569 22.1645 13.7332C22.1645 11.3127 20.2023 9.35047 17.7818 9.35047C17.1223 9.35047 16.498 9.49572 15.9379 9.75586C16.2706 10.5742 16.4537 11.4689 16.4537 12.4051C16.4537 12.7718 16.1564 13.0691 15.7896 13.0691C15.4229 13.0691 15.1256 12.7718 15.1256 12.4051C15.1256 11.4565 14.8948 10.5637 14.487 9.77804C13.5352 7.94452 11.6205 6.6943 9.41483 6.6943Z" fill="white"/>
<path fill-rule="evenodd" clip-rule="evenodd" d="M14.8153 16.2576C15.0341 16.4531 15.053 16.7889 14.8575 17.0077L13.2654 18.7898L14.7645 19.8313C14.8894 19.9181 14.9712 20.0543 14.9889 20.2055C15.0067 20.3566 14.9589 20.5081 14.8575 20.6215L12.8654 22.8513C12.6699 23.0701 12.3341 23.089 12.1153 22.8935C11.8965 22.6981 11.8776 22.3622 12.0731 22.1434L13.6652 20.3613L12.1661 19.3199C12.0412 19.2331 11.9594 19.0968 11.9416 18.9457C11.9238 18.7946 11.9717 18.6431 12.0731 18.5297L14.0652 16.2999C14.2607 16.0811 14.5965 16.0622 14.8153 16.2576Z" fill="white"/>
</svg>
