<svg width="180" height="180" viewBox="0 0 180 180" fill="none" xmlns="http://www.w3.org/2000/svg">
<path fill-rule="evenodd" clip-rule="evenodd" d="M63 58C39.2518 58 20 77.2518 20 101C20 124.748 39.2518 144 63 144H126C144.225 144 159 129.225 159 111C159 98.9714 152.567 88.4402 142.931 82.6674C140.562 81.2483 139.792 78.1775 141.211 75.8086C142.63 73.4397 145.701 72.6697 148.069 74.0888C160.596 81.593 169 95.3126 169 111C169 134.748 149.748 154 126 154H63C33.7289 154 10 130.271 10 101C10 71.7289 33.7289 48 63 48C83.4856 48 101.248 59.6237 110.067 76.6122C113.859 83.9179 116 92.2163 116 101C116 103.761 113.761 106 111 106C108.239 106 106 103.761 106 101C106 93.8575 104.262 87.1355 101.191 81.2195C94.0247 67.4137 79.6076 58 63 58Z" fill="white"/>
<path fill-rule="evenodd" clip-rule="evenodd" d="M125.299 35C121.433 35 118.135 37.1788 116.572 40.2793C115.577 42.252 113.172 43.045 111.199 42.0506C109.227 41.0561 108.434 38.6508 109.428 36.6782C112.332 30.9181 118.37 27 125.299 27C134.986 27 143 34.6946 143 44.383C143 52.6982 137.097 59.5448 129.299 61.3185V62.5C129.299 64.7091 127.508 66.5 125.299 66.5C123.09 66.5 121.299 64.7091 121.299 62.5V57.766C121.299 55.5568 123.09 53.766 125.299 53.766C130.746 53.766 135 49.477 135 44.383C135 39.2889 130.746 35 125.299 35Z" fill="white"/>
<path d="M132 76C132 79.3137 129.314 82 126 82C122.686 82 120 79.3137 120 76C120 72.6863 122.686 70 126 70C129.314 70 132 72.6863 132 76Z" fill="white"/>
</svg>
