<svg width="25" height="25" viewBox="0 0 25 25" fill="none" xmlns="http://www.w3.org/2000/svg">
<path fill-rule="evenodd" clip-rule="evenodd" d="M9.04423 7.88814C5.89026 7.88814 3.33346 10.4449 3.33346 13.5989C3.33346 16.7529 5.89026 19.3097 9.04423 19.3097H17.4112C19.8317 19.3097 21.7939 17.3475 21.7939 14.927C21.7939 13.3295 20.9395 11.9309 19.6597 11.1642C19.3451 10.9757 19.2428 10.5679 19.4313 10.2533C19.6197 9.93867 20.0276 9.83641 20.3422 10.0249C22.0059 11.0215 23.1219 12.8436 23.1219 14.927C23.1219 18.081 20.5651 20.6378 17.4112 20.6378H9.04423C5.15677 20.6378 2.00537 17.4864 2.00537 13.5989C2.00537 9.71146 5.15677 6.56006 9.04423 6.56006C11.7649 6.56006 14.1239 8.10378 15.2951 10.36C15.7988 11.3303 16.0831 12.4324 16.0831 13.5989C16.0831 13.9657 15.7858 14.263 15.419 14.263C15.0523 14.263 14.755 13.9657 14.755 13.5989C14.755 12.6503 14.5242 11.7576 14.1164 10.9719C13.1646 9.13836 11.2499 7.88814 9.04423 7.88814Z" fill="white"/>
<path fill-rule="evenodd" clip-rule="evenodd" d="M17.3186 3.83444C16.8052 3.83444 16.3671 4.1238 16.1595 4.53558C16.0275 4.79756 15.708 4.90288 15.446 4.77082C15.184 4.63875 15.0787 4.3193 15.2108 4.05731C15.5964 3.29233 16.3984 2.77197 17.3186 2.77197C18.6051 2.77197 19.6694 3.79388 19.6694 5.08058C19.6694 6.18492 18.8854 7.0942 17.8498 7.32976V7.48668C17.8498 7.78007 17.612 8.01791 17.3186 8.01791C17.0252 8.01791 16.7873 7.78007 16.7873 7.48668V6.85796C16.7873 6.56456 17.0252 6.32672 17.3186 6.32672C18.042 6.32672 18.6069 5.75711 18.6069 5.08058C18.6069 4.40405 18.042 3.83444 17.3186 3.83444Z" fill="white"/>
<path d="M18.2052 9.27863C18.2052 9.7181 17.849 10.0744 17.4095 10.0744C16.97 10.0744 16.6138 9.7181 16.6138 9.27863C16.6138 8.83917 16.97 8.48291 17.4095 8.48291C17.849 8.48291 18.2052 8.83917 18.2052 9.27863Z" fill="white"/>
</svg>
