<svg width="25" height="25" viewBox="0 0 25 25" fill="none" xmlns="http://www.w3.org/2000/svg">
<path fill-rule="evenodd" clip-rule="evenodd" d="M12.8543 9.48286C10.7272 9.48286 9.00288 11.2072 9.00288 13.3343C9.00288 14.3264 9.37697 15.2293 9.99308 15.9125C10.2878 16.2394 10.2618 16.7432 9.93495 17.0379C9.60813 17.3327 9.10426 17.3066 8.80954 16.9798C7.93969 16.0152 7.40918 14.7358 7.40918 13.3343C7.40918 10.327 9.84706 7.88916 12.8543 7.88916C15.8616 7.88916 18.2995 10.327 18.2995 13.3343C18.2995 13.7744 17.9427 14.1312 17.5026 14.1312C17.0625 14.1312 16.7058 13.7744 16.7058 13.3343C16.7058 11.2072 14.9814 9.48286 12.8543 9.48286Z" fill="white"/>
<path fill-rule="evenodd" clip-rule="evenodd" d="M2.49512 13.334C2.49512 12.8939 2.85188 12.5371 3.29197 12.5371H4.92602C5.36611 12.5371 5.72287 12.8939 5.72287 13.334C5.72287 13.774 5.36611 14.1308 4.92602 14.1308H3.29197C2.85188 14.1308 2.49512 13.774 2.49512 13.334ZM19.9855 13.334C19.9855 12.8939 20.3423 12.5371 20.7824 12.5371H22.4164C22.8565 12.5371 23.2133 12.8939 23.2133 13.334C23.2133 13.774 22.8565 14.1308 22.4164 14.1308H20.7824C20.3423 14.1308 19.9855 13.774 19.9855 13.334Z" fill="white"/>
<path fill-rule="evenodd" clip-rule="evenodd" d="M5.5283 20.6597C5.21711 20.3485 5.21711 19.8439 5.5283 19.5327L6.68375 18.3773C6.99494 18.0661 7.49948 18.0661 7.81067 18.3773C8.12186 18.6885 8.12186 19.193 7.81067 19.5042L6.65522 20.6597C6.34403 20.9708 5.83949 20.9708 5.5283 20.6597ZM17.8959 8.29208C17.5847 7.98089 17.5847 7.47635 17.8959 7.16516L19.0513 6.00971C19.3625 5.69852 19.8671 5.69852 20.1782 6.00971C20.4894 6.3209 20.4894 6.82544 20.1782 7.13663L19.0228 8.29208C18.7116 8.60327 18.2071 8.60327 17.8959 8.29208Z" fill="white"/>
<path fill-rule="evenodd" clip-rule="evenodd" d="M5.52834 6.00877C5.83953 5.69758 6.34407 5.69758 6.65526 6.00877L7.8107 7.16422C8.12189 7.47541 8.12189 7.97995 7.8107 8.29114C7.49951 8.60233 6.99498 8.60233 6.68379 8.29114L5.52834 7.13569C5.21715 6.8245 5.21715 6.31996 5.52834 6.00877Z" fill="white"/>
<path fill-rule="evenodd" clip-rule="evenodd" d="M12.8531 2.9751C13.2931 2.9751 13.6499 3.33186 13.6499 3.77195L13.6499 5.406C13.6499 5.84609 13.2931 6.20285 12.8531 6.20285C12.413 6.20285 12.0562 5.84609 12.0562 5.406L12.0562 3.77195C12.0562 3.33186 12.413 2.9751 12.8531 2.9751Z" fill="white"/>
<path fill-rule="evenodd" clip-rule="evenodd" d="M15.3745 15.7246C15.3745 15.3945 15.6421 15.127 15.9721 15.127H16.4398C17.43 15.127 18.2327 15.9297 18.2327 16.9199C18.2327 17.9101 17.43 18.7128 16.4398 18.7128H11.393C11.063 18.7128 10.7954 18.4452 10.7954 18.1151C10.7954 17.7851 11.063 17.5175 11.393 17.5175H16.4398C16.7698 17.5175 17.0374 17.2499 17.0374 16.9199C17.0374 16.5898 16.7698 16.3222 16.4398 16.3222H15.9721C15.6421 16.3222 15.3745 16.0547 15.3745 15.7246Z" fill="white"/>
<path fill-rule="evenodd" clip-rule="evenodd" d="M19.0931 18.1157C19.0931 17.7856 19.3607 17.5181 19.6908 17.5181H20.1584C21.1486 17.5181 21.9513 18.3208 21.9513 19.311C21.9513 20.3012 21.1486 21.1039 20.1584 21.1039H11.393C11.063 21.1039 10.7954 20.8363 10.7954 20.5063C10.7954 20.1762 11.063 19.9086 11.393 19.9086H20.1584C20.4885 19.9086 20.7561 19.641 20.7561 19.311C20.7561 18.9809 20.4885 18.7133 20.1584 18.7133H19.6908C19.3607 18.7133 19.0931 18.4458 19.0931 18.1157Z" fill="white"/>
</svg>
