<svg width="25" height="25" viewBox="0 0 25 25" fill="none" xmlns="http://www.w3.org/2000/svg">
<path fill-rule="evenodd" clip-rule="evenodd" d="M11.4924 4.83396C11.4924 4.46722 11.7897 4.16992 12.1564 4.16992H12.8903C14.394 4.16992 15.6129 5.38886 15.6129 6.8925C15.6129 8.39614 14.394 9.61507 12.8903 9.61507H3.12889C2.76215 9.61507 2.46484 9.31777 2.46484 8.95103C2.46484 8.58429 2.76215 8.28699 3.12889 8.28699H12.8903C13.6605 8.28699 14.2848 7.66265 14.2848 6.8925C14.2848 6.12234 13.6605 5.49801 12.8903 5.49801H12.1564C11.7897 5.49801 11.4924 5.20071 11.4924 4.83396Z" fill="white"/>
<path fill-rule="evenodd" clip-rule="evenodd" d="M17.4791 8.02195C17.4791 7.65521 17.7764 7.35791 18.1432 7.35791H18.8667C20.3703 7.35791 21.5893 8.57685 21.5893 10.0805C21.5893 11.5841 20.3703 12.8031 18.8667 12.8031H3.12889C2.76215 12.8031 2.46484 12.5058 2.46484 12.139C2.46484 11.7723 2.76215 11.475 3.12889 11.475H18.8667C19.6369 11.475 20.2612 10.8506 20.2612 10.0805C20.2612 9.31033 19.6369 8.686 18.8667 8.686H18.1432C17.7764 8.686 17.4791 8.38869 17.4791 8.02195Z" fill="white"/>
<path fill-rule="evenodd" clip-rule="evenodd" d="M11.4924 19.3111C11.4924 19.6778 11.7897 19.9751 12.1564 19.9751H12.8903C14.394 19.9751 15.6129 18.7562 15.6129 17.2525C15.6129 15.7489 14.394 14.5299 12.8903 14.5299H3.12889C2.76215 14.5299 2.46484 14.8272 2.46484 15.194C2.46484 15.5607 2.76215 15.858 3.12889 15.858H12.8903C13.6605 15.858 14.2848 16.4824 14.2848 17.2525C14.2848 18.0227 13.6605 18.647 12.8903 18.647H12.1564C11.7897 18.647 11.4924 18.9443 11.4924 19.3111Z" fill="white"/>
</svg>
