<svg width="25" height="25" viewBox="0 0 25 25" fill="none" xmlns="http://www.w3.org/2000/svg">
<path fill-rule="evenodd" clip-rule="evenodd" d="M8.89254 15.8579C8.89254 15.5645 9.13039 15.3267 9.42378 15.3267H9.89142C10.8449 15.3267 11.6179 16.0996 11.6179 17.0532C11.6179 18.0067 10.8449 18.7797 9.89142 18.7797H4.18065C3.88726 18.7797 3.64941 18.5418 3.64941 18.2484C3.64941 17.9551 3.88726 17.7172 4.18065 17.7172H9.89142C10.2582 17.7172 10.5555 17.4199 10.5555 17.0532C10.5555 16.6864 10.2582 16.3891 9.89142 16.3891H9.42378C9.13039 16.3891 8.89254 16.1513 8.89254 15.8579Z" fill="white"/>
<path fill-rule="evenodd" clip-rule="evenodd" d="M12.8768 18.2475C12.8768 17.9542 13.1146 17.7163 13.408 17.7163H13.8757C14.8292 17.7163 15.6022 18.4893 15.6022 19.4428C15.6022 20.3963 14.8292 21.1693 13.8757 21.1693H4.18065C3.88726 21.1693 3.64941 20.9315 3.64941 20.6381C3.64941 20.3447 3.88726 20.1069 4.18065 20.1069H13.8757C14.2424 20.1069 14.5397 19.8096 14.5397 19.4428C14.5397 19.0761 14.2424 18.7788 13.8757 18.7788H13.408C13.1146 18.7788 12.8768 18.5409 12.8768 18.2475Z" fill="white"/>
<path fill-rule="evenodd" clip-rule="evenodd" d="M9.85039 3.13064C10.0493 3.29766 10.1325 3.56528 10.0635 3.81565C9.8649 4.53596 9.75861 5.29527 9.75861 6.08047C9.75861 10.7747 13.5641 14.5802 18.2584 14.5802C19.5609 14.5802 20.7933 14.2877 21.895 13.7653C22.1296 13.6541 22.4076 13.6898 22.6065 13.8569C22.8054 14.0239 22.8886 14.2915 22.8196 14.5419C22.365 16.1906 21.4923 17.6647 20.3236 18.8434C20.0654 19.1038 19.645 19.1056 19.3845 18.8474C19.1241 18.5892 19.1223 18.1688 19.3805 17.9083C20.0692 17.2137 20.6386 16.4012 21.0558 15.5043C20.1687 15.7672 19.2296 15.9083 18.2584 15.9083C12.8306 15.9083 8.43052 11.5082 8.43052 6.08047C8.43052 5.69551 8.45268 5.31554 8.49584 4.94181C6.28828 6.47768 4.84469 9.03276 4.84469 11.924C4.84469 12.8499 4.99249 13.74 5.26529 14.5727C5.37947 14.9212 5.18951 15.2963 4.84099 15.4105C4.49248 15.5246 4.11739 15.3347 4.00321 14.9862C3.68723 14.0217 3.5166 12.9921 3.5166 11.924C3.5166 7.99995 5.81646 4.61435 9.13886 3.03913C9.37352 2.92787 9.65151 2.96362 9.85039 3.13064Z" fill="white"/>
</svg>
